<svg version="1.2" xmlns="http://www.w3.org/2000/svg" viewBox="0 0 922 219" width="922" height="219">
	<title>2154341-ai</title>
	<defs>
		<linearGradient id="g1" x1="291" y1="1363.5" x2="291" y2="-266.2" gradientUnits="userSpaceOnUse">
			<stop offset="0" stop-color="#ffffff" stop-opacity="1"/>
			<stop offset=".347" stop-color="#ffffff" stop-opacity=".62"/>
			<stop offset="1" stop-color="#ffffff" stop-opacity="0"/>
		</linearGradient>
		<linearGradient id="g2" x1="676.7" y1="-954.5" x2="676.7" y2="-190.7" gradientUnits="userSpaceOnUse">
			<stop offset="0" stop-color="#ffffff" stop-opacity="1"/>
			<stop offset="1" stop-color="#ffffff" stop-opacity="0"/>
		</linearGradient>
		<linearGradient id="g3" x1="-80.8" y1="-515.3" x2="327.2" y2="-655.4" gradientUnits="userSpaceOnUse">
			<stop offset="0" stop-color="#ffffff" stop-opacity="1"/>
			<stop offset=".347" stop-color="#ffffff" stop-opacity=".62"/>
			<stop offset="1" stop-color="#ffffff" stop-opacity="0"/>
		</linearGradient>
		<linearGradient id="g4" x1="154.3" y1="-373" x2="136.2" y2="-321.3" gradientUnits="userSpaceOnUse">
			<stop offset="0" stop-color="#ffffff" stop-opacity="1"/>
			<stop offset="1" stop-color="#ffffff" stop-opacity="0"/>
		</linearGradient>
		<linearGradient id="g5" x1="990.7" y1="-126.4" x2="572.9" y2="-19.3" gradientUnits="userSpaceOnUse">
			<stop offset="0" stop-color="#ffffff" stop-opacity="1"/>
			<stop offset=".347" stop-color="#ffffff" stop-opacity=".62"/>
			<stop offset="1" stop-color="#ffffff" stop-opacity="0"/>
		</linearGradient>
		<linearGradient id="g6" x1="767.8" y1="-287" x2="790" y2="-337.1" gradientUnits="userSpaceOnUse">
			<stop offset="0" stop-color="#ffffff" stop-opacity="1"/>
			<stop offset="1" stop-color="#ffffff" stop-opacity="0"/>
		</linearGradient>
		<linearGradient id="g7" x1="98.9" y1="-533.8" x2="138.4" y2="-533.6" gradientUnits="userSpaceOnUse">
			<stop offset="0" stop-color="#ffffff" stop-opacity="1"/>
			<stop offset="1" stop-color="#ffffff" stop-opacity="0"/>
		</linearGradient>
		<linearGradient id="g8" x1="902" y1="-89.5" x2="901.6" y2="-82.1" gradientUnits="userSpaceOnUse">
			<stop offset="0" stop-color="#ffffff" stop-opacity="1"/>
			<stop offset="1" stop-color="#ffffff" stop-opacity="0"/>
		</linearGradient>
		<linearGradient id="g9" x1="725.7" y1="-234.8" x2="725.3" y2="-227.3" gradientUnits="userSpaceOnUse">
			<stop offset="0" stop-color="#ffffff" stop-opacity="1"/>
			<stop offset="1" stop-color="#ffffff" stop-opacity="0"/>
		</linearGradient>
		<linearGradient id="g10" x1="904.1" y1="-257.3" x2="903.7" y2="-249.8" gradientUnits="userSpaceOnUse">
			<stop offset="0" stop-color="#ffffff" stop-opacity="1"/>
			<stop offset="1" stop-color="#ffffff" stop-opacity="0"/>
		</linearGradient>
		<linearGradient id="g11" x1="896.7" y1="-357.2" x2="896.3" y2="-349.8" gradientUnits="userSpaceOnUse">
			<stop offset="0" stop-color="#ffffff" stop-opacity="1"/>
			<stop offset="1" stop-color="#ffffff" stop-opacity="0"/>
		</linearGradient>
		<linearGradient id="g12" x1="730.2" y1="245" x2="729.8" y2="252.5" gradientUnits="userSpaceOnUse">
			<stop offset="0" stop-color="#ffffff" stop-opacity="1"/>
			<stop offset="1" stop-color="#ffffff" stop-opacity="0"/>
		</linearGradient>
		<linearGradient id="g13" x1="706.7" y1="-66.1" x2="706.3" y2="-58.7" gradientUnits="userSpaceOnUse">
			<stop offset="0" stop-color="#ffffff" stop-opacity="1"/>
			<stop offset="1" stop-color="#ffffff" stop-opacity="0"/>
		</linearGradient>
		<linearGradient id="g14" x1="854.7" y1="93.9" x2="854.2" y2="101.4" gradientUnits="userSpaceOnUse">
			<stop offset="0" stop-color="#ffffff" stop-opacity="1"/>
			<stop offset="1" stop-color="#ffffff" stop-opacity="0"/>
		</linearGradient>
		<linearGradient id="g15" x1="922.4" y1="200.3" x2="921.9" y2="207.8" gradientUnits="userSpaceOnUse">
			<stop offset="0" stop-color="#ffffff" stop-opacity="1"/>
			<stop offset="1" stop-color="#ffffff" stop-opacity="0"/>
		</linearGradient>
		<linearGradient id="g16" x1="774.6" y1="-5.5" x2="774.2" y2="1.9" gradientUnits="userSpaceOnUse">
			<stop offset="0" stop-color="#ffffff" stop-opacity="1"/>
			<stop offset="1" stop-color="#ffffff" stop-opacity="0"/>
		</linearGradient>
		<linearGradient id="g17" x1="256.8" y1="202.4" x2="256.3" y2="209.9" gradientUnits="userSpaceOnUse">
			<stop offset="0" stop-color="#ffffff" stop-opacity="1"/>
			<stop offset="1" stop-color="#ffffff" stop-opacity="0"/>
		</linearGradient>
		<linearGradient id="g18" x1="454.2" y1="206.6" x2="453.7" y2="214.1" gradientUnits="userSpaceOnUse">
			<stop offset="0" stop-color="#ffffff" stop-opacity="1"/>
			<stop offset="1" stop-color="#ffffff" stop-opacity="0"/>
		</linearGradient>
		<linearGradient id="g19" x1="27.1" y1="233.6" x2="26.7" y2="241" gradientUnits="userSpaceOnUse">
			<stop offset="0" stop-color="#ffffff" stop-opacity="1"/>
			<stop offset="1" stop-color="#ffffff" stop-opacity="0"/>
		</linearGradient>
		<linearGradient id="g20" x1="163.9" y1="243" x2="163.5" y2="250.4" gradientUnits="userSpaceOnUse">
			<stop offset="0" stop-color="#ffffff" stop-opacity="1"/>
			<stop offset="1" stop-color="#ffffff" stop-opacity="0"/>
		</linearGradient>
		<linearGradient id="g21" x1="20" y1="-23.7" x2="19.5" y2="-16.2" gradientUnits="userSpaceOnUse">
			<stop offset="0" stop-color="#ffffff" stop-opacity="1"/>
			<stop offset="1" stop-color="#ffffff" stop-opacity="0"/>
		</linearGradient>
		<linearGradient id="g22" x1="13.1" y1="113.5" x2="12.6" y2="120.9" gradientUnits="userSpaceOnUse">
			<stop offset="0" stop-color="#ffffff" stop-opacity="1"/>
			<stop offset="1" stop-color="#ffffff" stop-opacity="0"/>
		</linearGradient>
		<linearGradient id="g23" x1="670.3" y1="-523.2" x2="669.9" y2="-515.8" gradientUnits="userSpaceOnUse">
			<stop offset="0" stop-color="#ffffff" stop-opacity="1"/>
			<stop offset="1" stop-color="#ffffff" stop-opacity="0"/>
		</linearGradient>
		<linearGradient id="g24" x1="31.3" y1="-310.5" x2="30.9" y2="-303.1" gradientUnits="userSpaceOnUse">
			<stop offset="0" stop-color="#ffffff" stop-opacity="1"/>
			<stop offset="1" stop-color="#ffffff" stop-opacity="0"/>
		</linearGradient>
		<linearGradient id="g25" x1="237.3" y1="-525.3" x2="236.8" y2="-517.9" gradientUnits="userSpaceOnUse">
			<stop offset="0" stop-color="#ffffff" stop-opacity="1"/>
			<stop offset="1" stop-color="#ffffff" stop-opacity="0"/>
		</linearGradient>
		<linearGradient id="g26" x1="80.2" y1="-562.4" x2="79.8" y2="-555" gradientUnits="userSpaceOnUse">
			<stop offset="0" stop-color="#ffffff" stop-opacity="1"/>
			<stop offset="1" stop-color="#ffffff" stop-opacity="0"/>
		</linearGradient>
		<linearGradient id="g27" x1="345.2" y1="-644.2" x2="344.7" y2="-636.8" gradientUnits="userSpaceOnUse">
			<stop offset="0" stop-color="#ffffff" stop-opacity="1"/>
			<stop offset="1" stop-color="#ffffff" stop-opacity="0"/>
		</linearGradient>
		<linearGradient id="g28" x1="500.8" y1="-606.2" x2="500.4" y2="-598.7" gradientUnits="userSpaceOnUse">
			<stop offset="0" stop-color="#ffffff" stop-opacity="1"/>
			<stop offset="1" stop-color="#ffffff" stop-opacity="0"/>
		</linearGradient>
		<linearGradient id="g29" x1="812.9" y1="-607.9" x2="812.4" y2="-600.5" gradientUnits="userSpaceOnUse">
			<stop offset="0" stop-color="#ffffff" stop-opacity="1"/>
			<stop offset="1" stop-color="#ffffff" stop-opacity="0"/>
		</linearGradient>
		<linearGradient id="g30" x1="866.8" y1="-675" x2="866.4" y2="-667.5" gradientUnits="userSpaceOnUse">
			<stop offset="0" stop-color="#ffffff" stop-opacity="1"/>
			<stop offset="1" stop-color="#ffffff" stop-opacity="0"/>
		</linearGradient>
		<linearGradient id="g31" x1="909.1" y1="-567.1" x2="908.6" y2="-559.6" gradientUnits="userSpaceOnUse">
			<stop offset="0" stop-color="#ffffff" stop-opacity="1"/>
			<stop offset="1" stop-color="#ffffff" stop-opacity="0"/>
		</linearGradient>
		<linearGradient id="g32" x1="11" y1="-188.8" x2="10.5" y2="-181.4" gradientUnits="userSpaceOnUse">
			<stop offset="0" stop-color="#ffffff" stop-opacity="1"/>
			<stop offset="1" stop-color="#ffffff" stop-opacity="0"/>
		</linearGradient>
		<linearGradient id="g33" x1="107.6" y1="-450.4" x2="107.2" y2="-443" gradientUnits="userSpaceOnUse">
			<stop offset="0" stop-color="#ffffff" stop-opacity="1"/>
			<stop offset="1" stop-color="#ffffff" stop-opacity="0"/>
		</linearGradient>
		<linearGradient id="g34" x1="856.8" y1="-176.2" x2="856.3" y2="-168.7" gradientUnits="userSpaceOnUse">
			<stop offset="0" stop-color="#ffffff" stop-opacity="1"/>
			<stop offset="1" stop-color="#ffffff" stop-opacity="0"/>
		</linearGradient>
		<linearGradient id="g35" x1="627.1" y1="212" x2="626.7" y2="219.4" gradientUnits="userSpaceOnUse">
			<stop offset="0" stop-color="#ffffff" stop-opacity="1"/>
			<stop offset="1" stop-color="#ffffff" stop-opacity="0"/>
		</linearGradient>
		<linearGradient id="g36" x1="839.4" y1="212" x2="839" y2="219.4" gradientUnits="userSpaceOnUse">
			<stop offset="0" stop-color="#ffffff" stop-opacity="1"/>
			<stop offset="1" stop-color="#ffffff" stop-opacity="0"/>
		</linearGradient>
		<linearGradient id="g37" x1="883.6" y1="19.1" x2="883.2" y2="26.5" gradientUnits="userSpaceOnUse">
			<stop offset="0" stop-color="#ffffff" stop-opacity="1"/>
			<stop offset="1" stop-color="#ffffff" stop-opacity="0"/>
		</linearGradient>
		<linearGradient id="g38" x1="248.4" y1="-46.5" x2="248" y2="-39" gradientUnits="userSpaceOnUse">
			<stop offset="0" stop-color="#ffffff" stop-opacity="1"/>
			<stop offset="1" stop-color="#ffffff" stop-opacity="0"/>
		</linearGradient>
		<linearGradient id="g39" x1="649.7" y1="-649.1" x2="649.3" y2="-641.6" gradientUnits="userSpaceOnUse">
			<stop offset="0" stop-color="#ffffff" stop-opacity="1"/>
			<stop offset="1" stop-color="#ffffff" stop-opacity="0"/>
		</linearGradient>
		<linearGradient id="g40" x1="20.9" y1="-639" x2="20.5" y2="-631.5" gradientUnits="userSpaceOnUse">
			<stop offset="0" stop-color="#ffffff" stop-opacity="1"/>
			<stop offset="1" stop-color="#ffffff" stop-opacity="0"/>
		</linearGradient>
		<linearGradient id="g41" x1="174.4" y1="-638.7" x2="172.7" y2="-610.8" gradientUnits="userSpaceOnUse">
			<stop offset="0" stop-color="#ffffff" stop-opacity="1"/>
			<stop offset="1" stop-color="#ffffff" stop-opacity="0"/>
		</linearGradient>
		<linearGradient id="g42" x1="492.9" y1="-663.7" x2="491.3" y2="-635.7" gradientUnits="userSpaceOnUse">
			<stop offset="0" stop-color="#ffffff" stop-opacity="1"/>
			<stop offset="1" stop-color="#ffffff" stop-opacity="0"/>
		</linearGradient>
		<linearGradient id="g43" x1="728.2" y1="-589" x2="726.6" y2="-561.1" gradientUnits="userSpaceOnUse">
			<stop offset="0" stop-color="#ffffff" stop-opacity="1"/>
			<stop offset="1" stop-color="#ffffff" stop-opacity="0"/>
		</linearGradient>
		<linearGradient id="g44" x1="25.3" y1="-449.3" x2="23.7" y2="-421.3" gradientUnits="userSpaceOnUse">
			<stop offset="0" stop-color="#ffffff" stop-opacity="1"/>
			<stop offset="1" stop-color="#ffffff" stop-opacity="0"/>
		</linearGradient>
		<linearGradient id="g45" x1="74.5" y1="24.3" x2="72.9" y2="52.2" gradientUnits="userSpaceOnUse">
			<stop offset="0" stop-color="#ffffff" stop-opacity="1"/>
			<stop offset="1" stop-color="#ffffff" stop-opacity="0"/>
		</linearGradient>
		<linearGradient id="g46" x1="120.2" y1="-157.1" x2="118.6" y2="-129.1" gradientUnits="userSpaceOnUse">
			<stop offset="0" stop-color="#ffffff" stop-opacity="1"/>
			<stop offset="1" stop-color="#ffffff" stop-opacity="0"/>
		</linearGradient>
		<linearGradient id="g47" x1="875.4" y1="-465.9" x2="873.8" y2="-437.9" gradientUnits="userSpaceOnUse">
			<stop offset="0" stop-color="#ffffff" stop-opacity="1"/>
			<stop offset="1" stop-color="#ffffff" stop-opacity="0"/>
		</linearGradient>
	</defs>
	<style>
		.s0 { fill: #041e2c } 
		.s1 { opacity: .8;fill: url(#g1) } 
		.s2 { fill: #d9d9d9 } 
		.s3 { fill: #ffffff } 
		.s4 { fill: #3e97f4 } 
		.s5 { fill: #007acc } 
		.s6 { opacity: .3;fill: url(#g2) } 
		.s7 { fill: #ff4c4c } 
		.s8 { fill: #fbc316 } 
		.s9 { fill: #f58d37 } 
		.s10 { fill: #00d6e1 } 
		.s11 { opacity: .2;fill: url(#g3) } 
		.s12 { fill: #f9f7a7 } 
		.s13 { fill: #d9283b } 
		.s14 { fill: #013558 } 
		.s15 { opacity: .2;fill: #000000 } 
		.s16 { fill: #000000 } 
		.s17 { fill: url(#g4) } 
		.s18 { opacity: .3;fill: #ffffff } 
		.s19 { opacity: .2;fill: url(#g5) } 
		.s20 { fill: url(#g6) } 
		.s21 { opacity: .8;fill: url(#g7) } 
		.s22 { fill: #00adbb } 
		.s23 { opacity: .4;fill: #ffffff } 
		.s24 { fill: url(#g8) } 
		.s25 { fill: url(#g9) } 
		.s26 { fill: url(#g10) } 
		.s27 { fill: url(#g11) } 
		.s28 { fill: url(#g12) } 
		.s29 { fill: url(#g13) } 
		.s30 { fill: url(#g14) } 
		.s31 { fill: url(#g15) } 
		.s32 { fill: url(#g16) } 
		.s33 { fill: url(#g17) } 
		.s34 { fill: url(#g18) } 
		.s35 { fill: url(#g19) } 
		.s36 { fill: url(#g20) } 
		.s37 { fill: url(#g21) } 
		.s38 { fill: url(#g22) } 
		.s39 { fill: url(#g23) } 
		.s40 { fill: url(#g24) } 
		.s41 { fill: url(#g25) } 
		.s42 { fill: url(#g26) } 
		.s43 { fill: url(#g27) } 
		.s44 { fill: url(#g28) } 
		.s45 { fill: url(#g29) } 
		.s46 { fill: url(#g30) } 
		.s47 { fill: url(#g31) } 
		.s48 { fill: url(#g32) } 
		.s49 { fill: url(#g33) } 
		.s50 { fill: url(#g34) } 
		.s51 { fill: url(#g35) } 
		.s52 { fill: url(#g36) } 
		.s53 { fill: url(#g37) } 
		.s54 { fill: url(#g38) } 
		.s55 { fill: url(#g39) } 
		.s56 { fill: url(#g40) } 
		.s57 { fill: url(#g41) } 
		.s58 { fill: url(#g42) } 
		.s59 { fill: url(#g43) } 
		.s60 { fill: url(#g44) } 
		.s61 { fill: url(#g45) } 
		.s62 { fill: url(#g46) } 
		.s63 { fill: url(#g47) } 
		.s64 { fill: #f4f8f9 } 
	</style>
	<g id="OBJECTS">
		<g id="&lt;Group&gt;">
			<path id="&lt;Path&gt;" class="s0" d="m899.6 167.5c0 12.7-195.9 23-437.7 23-241.8 0-437.8-10.3-437.8-23 0-12.6 196-22.9 437.8-22.9 241.8 0 437.7 10.3 437.7 22.9z"/>
			<g id="&lt;Group&gt;">
				<path id="&lt;Path&gt;" class="s1" d="m41.8-340l130.7 400.7c193 75.2 379.8 80.2 559.1 0l110.8-400.7c-215.9-44.9-570.2-42.8-800.6 0z"/>
				<g id="&lt;Group&gt;">
					<g id="&lt;Group&gt;">
						<g id="&lt;Group&gt;">
							<g id="&lt;Group&gt;">
								<path id="&lt;Path&gt;" class="s2" d="m120.7 56.8l13.9 11.4c0 0 23.9 2.2 60.7-11.4 36.8-13.6 84.4-24.6 109.8-26.7 25.4-2.1 83.4-6.3 127.5 40.1 0 0 6 6.4 5.6-1.4-0.3-7.7-38-40.8-53.7-47.8-15.8-6.9-59.5-17.6-105-5.3-45.5 12.3-69.1 26.2-115.4 37 0 0-26.5 5.4-43.4 4.1z"/>
								<path id="&lt;Path&gt;" class="s3" d="m460 115.9c-11.8-11.5-22.8-83.5-106.7-99.1-84.8-15.8-184.5 53.6-232.6 40 0 0 45.7-3.3 104.8-28 85.4-35.6 139.2-22 168.2-8.5 26.7 12.5 59.9 41.8 66.3 95.6z"/>
							</g>
							<g id="&lt;Group&gt;">
								<path id="&lt;Path&gt;" class="s2" d="m118 65.3l12 15.9c0 0 17.4 1.1 52.4-6.4 34.9-7.5 116.8-24.9 150-24.6 33.1 0.4 75.9 3.1 100.2 26v-6c0 0-30.2-30.8-68.7-38.2-38.5-7.5-92.7 1.3-114.4 8.8-21.6 7.5-95.4 34.2-131.5 24.5z"/>
								<path id="&lt;Path&gt;" class="s3" d="m444.6 82.6c0 0-32.1-52.7-104.4-55.9-72.3-3.2-138.7 29.6-176.7 36.7-23.8 4.5-45.5 1.9-45.5 1.9 0 0 11.8 6.3 31.6 4 19.8-2.3 52.6-11.2 82.8-20.9 30.2-9.6 86.1-23.2 124-15.2 38 8 67.1 26 80 43.6 0 0 8.2 9.4 8.2 5.8z"/>
							</g>
						</g>
						<g id="&lt;Group&gt;">
							<g id="&lt;Group&gt;">
								<path id="&lt;Path&gt;" class="s2" d="m799.2 56.8l-13.9 11.4c0 0-23.9 2.2-60.7-11.4-36.8-13.6-84.4-24.6-109.8-26.7-25.4-2.1-83.4-6.3-127.5 40.1 0 0-6 6.4-5.6-1.4 0.3-7.7 38-40.8 53.7-47.8 15.8-6.9 59.6-17.6 105-5.3 45.5 12.3 69.1 26.2 115.4 37 0 0 26.5 5.4 43.4 4.1z"/>
								<path id="&lt;Path&gt;" class="s3" d="m460 115.9c11.7-11.5 22.7-83.5 106.6-99.1 84.8-15.8 184.6 53.6 232.6 40 0 0-45.6-3.3-104.8-28-85.4-35.6-139.2-22-168.1-8.5-26.8 12.5-60 41.8-66.3 95.6z"/>
							</g>
							<g id="&lt;Group&gt;">
								<path id="&lt;Path&gt;" class="s2" d="m801.9 65.3l-12 15.9c0 0-17.4 1.1-52.4-6.4-34.9-7.5-116.8-24.9-150-24.6-33.1 0.4-75.8 3.1-100.2 26v-6c0 0 30.2-30.8 68.7-38.2 38.5-7.5 92.7 1.3 114.4 8.8 21.6 7.5 95.4 34.2 131.5 24.5z"/>
								<path id="&lt;Path&gt;" class="s3" d="m475.3 82.6c0 0 32.1-52.7 104.4-55.9 72.3-3.2 138.7 29.6 176.7 36.7 23.8 4.5 45.5 1.9 45.5 1.9 0 0-11.8 6.3-31.6 4-19.7-2.3-52.6-11.2-82.8-20.9-30.2-9.6-86.1-23.2-124-15.2-38 8-67.1 26-80 43.6 0 0-8.2 9.4-8.2 5.8z"/>
							</g>
						</g>
						<path id="&lt;Path&gt;" class="s3" d="m811.4 83.4v56.7l-350.8-21.3-10.6 0.6-3.8 0.3-2.9 0.1-6.4 0.4-4.3 0.3-6.9 0.4-10.1 0.6-8.7 0.5-297.2 18.1v-56.7c114.7-8.8 312.9-93.1 350.3 32.5 24.7-127.3 245.4-40.2 351.4-32.5z"/>
						<g id="&lt;Group&gt;">
							<path id="&lt;Path&gt;" class="s2" d="m466.1 119l2.6 0.4 3.8 0.3c0.6-3.4 1.4-6.8 2.5-10.1 1.2-3.3 2.7-6.6 4.5-9.7q2.7-4.7 6.2-8.8c2.3-2.7 4.9-5.2 7.7-7.6 2.8-2.3 5.8-4.4 8.9-6.3q4.7-2.8 9.7-5.1c6.7-3 13.8-5.3 21-7 14.4-3.4 29.4-4.5 44.3-4.3 7.5 0.2 15 0.7 22.4 1.5q5.6 0.6 11.2 1.4c3.7 0.5 7.4 1.2 11.1 1.8 29.7 4.9 59.4 10.1 89.2 14.8 14.9 2.5 29.8 4.7 44.7 7 14.9 2.2 29.8 4.4 44.7 6.3l-44.4-8c-14.9-2.7-29.7-5.3-44.6-7.9-29.6-5.2-59.4-10.1-89.1-15.3q-5.5-1-11.1-2-5.6-0.9-11.3-1.6c-7.5-0.9-15.1-1.6-22.7-1.8-15.1-0.6-30.5 0.3-45.4 3.6-7.5 1.6-14.9 3.9-22 6.9q-5.3 2.3-10.4 5.2c-3.3 2-6.6 4.2-9.6 6.6-3.1 2.5-5.9 5.2-8.6 8.1-2.6 2.9-5 6.1-7 9.5-2.1 3.4-3.8 7-5.2 10.7-1.4 3.7-2.4 7.5-3.1 11.4z"/>
							<path id="&lt;Path&gt;" class="s2" d="m475.4 119.8l6.4 0.4q1.3-3.5 3.1-6.8c3.1-5.8 7.3-11.1 12.2-15.6 4.9-4.5 10.5-8.3 16.5-11.4 6-3.1 12.4-5.6 18.9-7.5 6.6-1.9 13.3-3.3 20.1-4.3 6.8-0.9 13.6-1.5 20.5-1.7 13.7-0.4 27.5 0.6 41.2 2.4 6.9 1 13.7 2.2 20.6 3.3l20.5 3.4 20.6 3.5c6.8 1.1 13.7 2.3 20.5 3.4l20.6 3.3 20.6 3.2c6.8 1.1 13.7 2 20.6 3q5.2 0.8 10.3 1.5c3.5 0.4 6.9 0.9 10.4 1.3-27.3-5.1-54.7-10.2-82-15l-82.2-14.2c-13.8-2.1-27.8-3.3-41.8-3.1-7 0.1-14 0.5-21 1.4-7 0.8-14 2.1-20.8 4-6.8 1.9-13.5 4.3-19.9 7.5-6.4 3.2-12.4 7.2-17.9 11.9-5.4 4.8-10.1 10.4-13.7 16.8q-2.6 4.5-4.3 9.3z"/>
							<path id="&lt;Path&gt;" class="s2" d="m486.1 120.5l6.9 0.4q0.2-0.2 0.3-0.3 3.3-4 7.3-7.5c5.3-4.6 11.4-8.4 17.8-11.4 6.4-3.1 13.2-5.4 20.1-7.2 13.9-3.6 28.4-5 42.8-5 14.5 0 29 1.4 43.3 3.7 28.8 4.7 57.6 9.6 86.4 14l10.9 1.6 5.4 0.8 5.4 0.8q10.9 1.5 21.7 2.9 10.9 1.4 21.8 2.6 5.4 0.6 10.9 1.1c3.6 0.3 7.2 0.7 10.9 0.8-7.3-0.8-14.5-1.9-21.7-2.9-3.6-0.6-7.2-1.1-10.8-1.7l-10.8-1.7q-10.8-1.7-21.6-3.4l-21.6-3.5c-28.8-4.8-57.6-9.4-86.3-14.6-14.5-2.6-29.1-4.2-43.8-4.5-14.7-0.2-29.6 1-44 4.4-7.2 1.8-14.4 4.1-21.2 7.2-6.8 3.1-13.3 7-19.1 11.9q-4.4 3.6-8.2 7.9-1.4 1.7-2.8 3.6z"/>
							<path id="&lt;Path&gt;" class="s2" d="m503.1 121.5l8.7 0.5q4.1-2.5 8.5-4.6c6.3-3 12.9-5.3 19.7-7.1 6.8-1.7 13.8-2.9 20.9-3.7 7-0.8 14.1-1.1 21.2-1.1 14.2 0 28.4 1.4 42.5 3.7 28.3 4.9 56.5 9.9 85 14 3.5 0.5 7.1 1 10.6 1.5 3.6 0.4 7.1 0.9 10.7 1.3l10.7 1.3c3.6 0.4 7.1 0.7 10.7 1.1 7.1 0.7 14.3 1.2 21.5 1.6l5.4 0.3 5.3 0.1c3.6 0 7.2 0 10.8-0.5-1.8 0.2-3.6 0.1-5.4 0.1-0.9 0-1.8 0-2.7-0.1q-1.3 0-2.6-0.1l-5.4-0.4-5.3-0.4c-1.8-0.2-3.6-0.4-5.4-0.6-1.8-0.2-3.6-0.3-5.3-0.6l-5.4-0.6c-1.7-0.2-3.5-0.4-5.3-0.6-3.6-0.5-7.1-0.9-10.7-1.4l-10.6-1.5-10.6-1.6c-3.6-0.5-7.1-1-10.7-1.6-14.1-2.2-28.3-4.5-42.4-6.9-14.1-2.3-28.2-5-42.3-7.6-14.2-2.6-28.6-4.3-43.1-4.5-7.2-0.2-14.4 0.1-21.7 0.8-7.2 0.6-14.4 1.7-21.5 3.5-7.1 1.7-14.1 4-20.8 7-5.2 2.4-10.3 5.3-15 8.7z"/>
						</g>
						<g id="&lt;Group&gt;">
							<path id="&lt;Path&gt;" class="s2" d="m452.6 119l-2.6 0.4-3.8 0.3c-0.6-3.4-1.4-6.8-2.5-10.1-1.2-3.3-2.7-6.6-4.5-9.7q-2.7-4.7-6.2-8.8c-2.3-2.7-4.9-5.2-7.7-7.6-2.8-2.3-5.8-4.4-8.9-6.3q-4.7-2.8-9.7-5.1c-6.7-3-13.8-5.3-21-7-14.4-3.4-29.4-4.5-44.3-4.3-7.5 0.2-15 0.7-22.4 1.5q-5.6 0.6-11.2 1.4c-3.7 0.5-7.4 1.2-11.1 1.8-29.8 4.9-59.4 10.1-89.2 14.8-14.9 2.5-29.8 4.7-44.7 7-14.9 2.2-29.8 4.4-44.8 6.3l44.5-8c14.9-2.7 29.7-5.3 44.6-7.9 29.6-5.2 59.4-10.1 89-15.3q5.6-1 11.2-2 5.6-0.9 11.3-1.6c7.5-0.9 15.1-1.6 22.6-1.8 15.2-0.6 30.5 0.3 45.5 3.6 7.5 1.6 14.9 3.9 22 6.9q5.3 2.3 10.4 5.2c3.3 2 6.5 4.2 9.6 6.6 3 2.5 5.9 5.2 8.6 8.1 2.6 2.9 4.9 6.1 7 9.5 2.1 3.4 3.8 7 5.2 10.7 1.3 3.7 2.4 7.5 3.1 11.4z"/>
							<path id="&lt;Path&gt;" class="s2" d="m443.3 119.8l-6.4 0.4q-1.3-3.5-3.1-6.8c-3.1-5.8-7.3-11.1-12.2-15.6-4.9-4.5-10.5-8.3-16.5-11.4-6-3.1-12.4-5.6-18.9-7.5-6.6-1.9-13.3-3.3-20.1-4.3-6.8-0.9-13.6-1.5-20.5-1.7-13.7-0.4-27.6 0.6-41.2 2.4-6.9 1-13.7 2.2-20.6 3.3l-20.5 3.4-20.6 3.5c-6.8 1.1-13.7 2.3-20.5 3.4l-20.6 3.3-20.6 3.2c-6.9 1.1-13.7 2-20.6 3q-5.2 0.8-10.3 1.5c-3.5 0.4-6.9 0.9-10.4 1.3 27.3-5.1 54.6-10.2 82-15l82.2-14.2c13.8-2.1 27.8-3.3 41.8-3.1 7 0.1 14 0.5 21 1.4 7 0.8 13.9 2.1 20.8 4 6.8 1.9 13.5 4.3 19.9 7.5 6.4 3.2 12.4 7.2 17.9 11.9 5.4 4.8 10.1 10.4 13.7 16.8q2.5 4.5 4.3 9.3z"/>
							<path id="&lt;Path&gt;" class="s2" d="m432.6 120.5l-6.9 0.4q-0.2-0.2-0.3-0.3-3.3-4-7.3-7.5c-5.3-4.6-11.4-8.4-17.8-11.4-6.4-3.1-13.2-5.4-20.1-7.2-13.9-3.6-28.4-5-42.8-5-14.5 0-29 1.4-43.3 3.7-28.8 4.7-57.6 9.6-86.5 14l-10.8 1.6-5.4 0.8-5.4 0.8q-10.9 1.5-21.7 2.9-10.9 1.4-21.8 2.6-5.4 0.6-10.9 1.1c-3.6 0.3-7.2 0.7-10.9 0.8 7.3-0.8 14.5-1.9 21.7-2.9 3.6-0.6 7.2-1.1 10.8-1.7l10.8-1.7q10.8-1.7 21.6-3.4l21.6-3.5c28.8-4.8 57.6-9.4 86.3-14.6 14.5-2.6 29.1-4.2 43.8-4.5 14.7-0.2 29.6 1 44 4.4 7.2 1.8 14.3 4.1 21.2 7.2 6.8 3.1 13.3 7 19.1 11.9q4.4 3.6 8.1 7.9 1.5 1.7 2.9 3.6z"/>
							<path id="&lt;Path&gt;" class="s2" d="m415.6 121.5l-8.7 0.5q-4.1-2.5-8.5-4.6c-6.3-3-12.9-5.3-19.7-7.1-6.9-1.7-13.8-2.9-20.9-3.7-7-0.8-14.1-1.1-21.2-1.1-14.2 0-28.4 1.4-42.5 3.7-28.3 4.9-56.5 9.9-85 14-3.5 0.5-7.1 1-10.6 1.5-3.6 0.4-7.1 0.9-10.7 1.3l-10.7 1.3c-3.6 0.4-7.1 0.7-10.7 1.1-7.1 0.7-14.3 1.2-21.5 1.6l-5.4 0.3-5.3 0.1c-3.6 0-7.2 0-10.8-0.5 1.8 0.2 3.6 0.1 5.4 0.1 0.9 0 1.8 0 2.6-0.1q1.4 0 2.7-0.1l5.4-0.4 5.3-0.4c1.8-0.2 3.6-0.4 5.4-0.6 1.8-0.2 3.6-0.3 5.3-0.6l5.4-0.6c1.7-0.2 3.5-0.4 5.3-0.6 3.5-0.5 7.1-0.9 10.7-1.4l10.6-1.5 10.6-1.6c3.6-0.5 7.1-1 10.6-1.6 14.2-2.2 28.4-4.5 42.5-6.9 14.1-2.3 28.2-5 42.3-7.6 14.2-2.6 28.6-4.3 43.1-4.5 7.2-0.2 14.4 0.1 21.7 0.8 7.2 0.6 14.4 1.7 21.5 3.5 7.1 1.7 14.1 4 20.8 7 5.2 2.4 10.3 5.3 15 8.7z"/>
						</g>
					</g>
					<g id="&lt;Group&gt;">
						<path id="&lt;Path&gt;" class="s4" d="m842.4 143v24.5l-345.8-14.7c0 0-13.6 14.7-36 14.7-22.4 0-36.1-14.7-36.1-14.7l-345.8 14.7v-24.5l31-2.9 318-22.3h65.7l318 22.3z"/>
						<path id="&lt;Path&gt;" class="s5" d="m842.4 159.4v8.1l-345.8-14.7c0 0-13.6 14.7-36 14.7-22.4 0-36.1-14.7-36.1-14.7l-345.8 14.7v-6.6l349.9-26.4c0 0 8 18.9 32 18.9 23.9 0 30.7-18.9 30.7-18.9z"/>
					</g>
				</g>
			</g>
		</g>
		<g id="&lt;Group&gt;">
			<path id="&lt;Path&gt;" class="s6" d="m676.7-358.1c0 124.5-101 225.6-225.6 225.6-124.6 0-225.6-101.1-225.6-225.6 0-124.6 101-225.6 225.6-225.6 124.6 0 225.6 101 225.6 225.6z"/>
			<g id="&lt;Group&gt;">
			</g>
		</g>
		<g id="&lt;Group&gt;">
			<g id="&lt;Group&gt;">
				<g id="&lt;Group&gt;">
					<path id="&lt;Compound Path&gt;" fill-rule="evenodd" class="s3" d="m730.9-112.1c-4.8-1.8-7.5-7.9-7.6-17.3 0-8.7 2.2-19.4 6.1-30.2 4-10.7 9.4-20.2 15.1-26.8 6.1-7.1 12.2-10 16.9-8.2 4.8 1.8 7.5 7.9 7.6 17.3 0 8.7-2.1 19.4-6.1 30.1-4 10.8-9.3 20.3-15.1 26.9-6.1 7.1-12.1 10-16.9 8.2zm29.2-78.9c-6.2-2.3-18.8 10.6-27 32.8-8.2 22.1-7.1 40.1-0.9 42.4 6.2 2.3 18.8-10.6 27-32.7 8.3-22.2 7.1-40.2 0.9-42.5z"/>
					<g id="&lt;Group&gt;">
						<g id="&lt;Group&gt;">
							<path id="&lt;Compound Path&gt;" fill-rule="evenodd" class="s7" d="m713.4-138.6c-6.7-2.5-10.6-6.1-11-10.4-0.5-5.1 3.8-10.2 12.2-14.4 7.8-3.8 18.4-6.6 29.8-7.7 11.4-1.1 22.3-0.5 30.8 1.8 9 2.4 14.2 6.5 14.7 11.6 0.5 5.1-3.8 10.2-12.2 14.3-7.8 3.9-18.4 6.7-29.8 7.8-11.4 1.1-22.3 0.5-30.7-1.8q-2-0.5-3.8-1.2zm64.3-25.9q-1.7-0.6-3.6-1.1c-7.9-2.1-18.4-2.7-29.3-1.7-23.5 2.4-39.2 11.3-38.6 17.9 0.4 3.3 4.7 6.3 12 8.3 8 2.1 18.4 2.7 29.3 1.6 11-1.1 21.1-3.7 28.5-7.3 6.7-3.4 10.4-7.2 10.1-10.5-0.3-2.7-3.3-5.3-8.4-7.2z"/>
						</g>
					</g>
					<path id="&lt;Compound Path&gt;" fill-rule="evenodd" class="s4" d="m761.4-120.8q-1.8-0.6-3.7-1.5c-7.8-3.8-16.5-10.5-24.4-18.7-8-8.3-14.2-17.3-17.6-25.3-3.6-8.7-3.6-15.3 0.1-18.9 3.7-3.5 10.4-3.2 18.8 0.8 7.9 3.8 16.5 10.4 24.5 18.7 7.9 8.3 14.1 17.3 17.5 25.3 3.7 8.6 3.6 15.3-0.1 18.8-3.1 3-8.4 3.3-15.1 0.8zm-31.9-61.5c-5.1-1.9-9.1-2-11-0.1-4.8 4.6 1.2 21.6 17.6 38.7 7.6 7.9 15.9 14.3 23.3 17.8 6.8 3.3 12.1 3.8 14.5 1.5 2.4-2.3 2.1-7.6-0.9-14.5-3.2-7.6-9.1-16.2-16.7-24.1-7.6-8-15.9-14.3-23.4-17.9q-1.8-0.8-3.4-1.4z"/>
				</g>
				<path id="&lt;Path&gt;" class="s8" d="m755.2-150c-1.8 5-7.4 7.5-12.4 5.7-5-1.9-7.5-7.4-5.7-12.4 1.9-5 7.4-7.6 12.4-5.7 5 1.8 7.6 7.4 5.7 12.4z"/>
				<path id="&lt;Path&gt;" class="s8" d="m756.9-189.4c-1.1 2.9-4.3 4.4-7.3 3.4-2.9-1.1-4.4-4.4-3.3-7.3 1.1-3 4.3-4.5 7.3-3.4 2.9 1.1 4.4 4.4 3.3 7.3z"/>
				<path id="&lt;Path&gt;" class="s8" d="m782.2-127.1c-1.1 2.9-4.3 4.4-7.3 3.3-2.9-1.1-4.4-4.3-3.3-7.3 1.1-2.9 4.3-4.4 7.3-3.3 2.9 1.1 4.4 4.3 3.3 7.3z"/>
				<path id="&lt;Path&gt;" class="s8" d="m717.8-157.8c-1.1 2.9-4.4 4.4-7.3 3.3-2.9-1.1-4.4-4.3-3.3-7.3 1-2.9 4.3-4.4 7.2-3.3 3 1.1 4.5 4.3 3.4 7.3z"/>
			</g>
			<g id="&lt;Group&gt;">
				<g id="&lt;Group&gt;">
					<path id="&lt;Compound Path&gt;" fill-rule="evenodd" class="s3" d="m150.2-24.6c-4.8-1.8-7.4-7.9-7.5-17.3-0.1-8.7 2.1-19.4 6.1-30.2 4-10.7 9.3-20.3 15-26.8 6.2-7.1 12.2-10 17-8.2 4.8 1.7 7.5 7.9 7.5 17.2 0.1 8.8-2.1 19.5-6.1 30.2-3.9 10.8-9.3 20.3-15 26.9-6.2 7-12.2 9.9-17 8.2zm29.2-78.9c-6.1-2.3-18.8 10.6-27 32.8-8.2 22.1-7 40.1-0.8 42.4 6.2 2.3 18.8-10.6 27-32.7 8.2-22.2 7-40.2 0.8-42.5z"/>
					<path id="&lt;Compound Path&gt;" fill-rule="evenodd" class="s9" d="m132.7-51.1c-6.7-2.5-10.5-6.1-11-10.5-0.5-5.1 3.9-10.1 12.3-14.3 7.8-3.9 18.4-6.6 29.8-7.7 11.4-1.2 22.3-0.5 30.7 1.7 9 2.5 14.3 6.6 14.8 11.7 0.5 5.1-3.9 10.2-12.2 14.3-7.9 3.9-18.4 6.6-29.8 7.8-11.4 1.1-22.4 0.5-30.8-1.8q-2-0.5-3.8-1.2zm64.3-25.9q-1.6-0.6-3.5-1.1c-8-2.2-18.4-2.8-29.4-1.7-23.5 2.3-39.2 11.3-38.5 17.9 0.3 3.3 4.7 6.3 11.9 8.3 8 2.1 18.4 2.7 29.4 1.6 10.9-1.1 21-3.7 28.4-7.4 6.8-3.3 10.4-7.1 10.1-10.4-0.2-2.8-3.3-5.3-8.4-7.2z"/>
					<g id="&lt;Group&gt;">
						<g id="&lt;Group&gt;">
							<path id="&lt;Compound Path&gt;" fill-rule="evenodd" class="s10" d="m180.7-33.3q-1.7-0.7-3.6-1.6c-7.9-3.7-16.6-10.4-24.5-18.7-7.9-8.2-14.1-17.2-17.5-25.3-3.7-8.6-3.7-15.3 0-18.8 3.7-3.5 10.4-3.2 18.8 0.8 7.9 3.8 16.6 10.4 24.5 18.7 7.9 8.3 14.2 17.3 17.6 25.3 3.6 8.6 3.6 15.3-0.1 18.8-3.2 3-8.5 3.3-15.2 0.8zm-31.8-61.5c-5.2-1.9-9.1-2-11.1-0.1-4.8 4.6 1.3 21.6 17.6 38.7 7.6 7.9 15.9 14.3 23.4 17.8 6.7 3.3 12 3.8 14.4 1.5 2.4-2.3 2.1-7.6-0.8-14.5-3.2-7.6-9.2-16.2-16.8-24.1-7.6-8-15.9-14.3-23.3-17.9q-1.8-0.8-3.4-1.4z"/>
						</g>
					</g>
				</g>
				<path id="&lt;Path&gt;" class="s8" d="m174.6-62.5c-1.9 5-7.4 7.5-12.4 5.7-5-1.9-7.6-7.4-5.7-12.4 1.8-5 7.4-7.6 12.4-5.7 5 1.8 7.5 7.4 5.7 12.4z"/>
				<path id="&lt;Path&gt;" class="s8" d="m176.2-101.9c-1 2.9-4.3 4.4-7.2 3.3-3-1.1-4.5-4.3-3.4-7.2 1.1-3 4.4-4.5 7.3-3.4 2.9 1.1 4.4 4.4 3.3 7.3z"/>
				<path id="&lt;Path&gt;" class="s8" d="m201.6-39.7c-1.1 3-4.4 4.5-7.3 3.4-2.9-1.1-4.4-4.4-3.4-7.3 1.1-2.9 4.4-4.4 7.3-3.3 3 1 4.5 4.3 3.4 7.2z"/>
				<path id="&lt;Path&gt;" class="s8" d="m137.1-70.4c-1.1 3-4.3 4.5-7.2 3.4-3-1.1-4.5-4.4-3.4-7.3 1.1-2.9 4.4-4.4 7.3-3.3 2.9 1 4.4 4.3 3.3 7.2z"/>
			</g>
		</g>
		<g id="&lt;Group&gt;">
			<g id="&lt;Group&gt;">
				<path id="&lt;Path&gt;" class="s11" d="m329.1-61.6c0 0 18.1 6 55.6 7.3 0 0-145.1-38.1-214.7-191.9l-33.7 6.7c6.4 39.7 27.9 107.1 98.3 164.1 0 0-25.8-32.9-22.8-41.5 0 0 124 158 291.4 63.4 0 0-91.8 35.4-174.1-8.1z"/>
				<g id="&lt;Group&gt;">
					<g id="&lt;Group&gt;">
						<path id="&lt;Path&gt;" class="s9" d="m171.4-230.9c-2.1 12.9-4.9 20.9-3 48.2q0 0 0 0.1 0-0.1 0-0.1c-11.6-24.8-17.9-30.4-26.1-40.7-8.2-10.3-6.7-25.9-6.7-25.9l14.2-4.8h0.1l14.8-2.7c0 0 8.8 12.8 6.7 25.9z"/>
						<path id="&lt;Path&gt;" class="s8" d="m162.3-206.1c-4.3-6.9-8-11.4-11.9-16.1q-1.9-2.3-3.8-4.7c-4.3-5.5-6.3-17.5-6.4-22.1l9.8-2.5 10.2-2.7c2 4.1 6.9 15.4 5.7 22.2q-0.5 3.2-1 6c-1.1 6-2.2 11.7-2.6 19.9z"/>
						<path id="&lt;Path&gt;" class="s12" d="m158.9-219.4c-1.8-2.7-3.6-5-5.3-7.4q-2-2.7-4-5.6c-2.6-3.6-4.6-11.7-5.6-17.6l12.4-3.2c2.4 6.1 4.7 13.8 4.3 17.9q-0.4 3.6-0.8 6.9c-0.4 2.9-0.7 5.8-1 9z"/>
					</g>
					<g id="&lt;Group&gt;">
						<g id="&lt;Group&gt;">
							<path id="&lt;Path&gt;" class="s7" d="m115-277.8c-1.6 2.2-2.8 4.9-3.6 7.9-3.8 14.7 1.7 35.5 1.7 35.5q0 0 0 0c-0.4 0-17.1-0.4-27.9-18.9-5.6-9.8-5.9-20.5-4.9-28.6 0.2-1.5 1.2-2.4 2.3-2.7 0.9-0.2 1.8-0.1 2.5 0.3 0.7 0.4 1.2 1.1 1.5 2l5.6-21.7 4.3-16.3q0 0 0 0c11.6 16.1 18.5 42.5 18.5 42.5z"/>
						</g>
						<g id="&lt;Group&gt;">
							<path id="&lt;Path&gt;" class="s13" d="m113.1-234.4c-0.4 0-17.1-0.4-27.9-18.9-5.6-9.8-5.9-20.5-4.9-28.6 0.2-1.5 1.2-2.4 2.3-2.7 0.9-0.2 1.8-0.1 2.5 0.3q0.7 1 1.5 2c0 0-1.2 17.7 8.2 31.8 9.3 13.8 18.1 16 18.3 16.1z"/>
						</g>
						<g id="&lt;Group&gt;">
							<path id="&lt;Path&gt;" class="s13" d="m115-277.8c-1.6 2.2-2.8 4.9-3.6 7.9-9.2-9.9-15.3-23.1-19.2-34.1l4.3-16.3q0 0 0 0c11.6 16.1 18.5 42.5 18.5 42.5z"/>
						</g>
					</g>
					<g id="&lt;Group&gt;">
						<g id="&lt;Group&gt;">
							<path id="&lt;Path&gt;" class="s7" d="m168.7-291.8c2.6 1.2 4.9 3 7 5.2 10.5 11 15.8 31.8 15.8 31.8q0 0 0 0c0.3-0.2 14.8-8.7 15.1-30.1 0.2-11.2-4.7-20.8-9.6-27.4-0.8-1.2-2.1-1.5-3.3-1.2-0.8 0.3-1.6 0.8-2 1.5-0.4 0.7-0.5 1.5-0.3 2.4l-15.5-16.2-11.7-12.1q0 0 0 0c-2.3 19.7 4.5 46.1 4.5 46.1z"/>
						</g>
						<g id="&lt;Group&gt;">
							<path id="&lt;Path&gt;" class="s13" d="m191.5-254.8c0.3-0.2 14.8-8.7 15.1-30.1 0.2-11.2-4.7-20.8-9.6-27.4-0.8-1.2-2.1-1.5-3.3-1.2-0.8 0.3-1.6 0.8-2 1.5q-0.2 1.2-0.3 2.4c0 0 9.6 15 8.3 31.8-1.4 16.6-8 22.8-8.2 23z"/>
						</g>
						<g id="&lt;Group&gt;">
							<path id="&lt;Path&gt;" class="s13" d="m168.7-291.8c2.6 1.2 4.9 3 7 5.2 3.3-13.2 2.2-27.7 0.2-39.2l-11.7-12.1q0 0 0 0c-2.3 19.7 4.5 46.1 4.5 46.1z"/>
						</g>
					</g>
					<path id="&lt;Path&gt;" class="s3" d="m164.6-335.8c1.7 6.7 3 12.1 3.8 17.5 0.8 5.3 1.1 10.7 1 17.4q0 0.3-0.1 0.6l-0.9 10.7-1.1 11.8-2.1 22.4-29.6 7.7-1.4-2.1-11.3-16.5-6.7-9.8c-8.4-12.3-14.9-26.1-18.8-40.8q-0.2-0.7-0.4-1.3c-5.2-20.2-5.9-37.6-4.4-52q0.1-1.6 0.3-3 0.5-3.6 1.1-6.9 0.2-1.4 0.5-2.8 0.2-0.7 0.3-1.4c1.3-5.8 2.9-10.9 4.5-15.2 1.9-5 3.8-9 5.3-11.8 1.6-3 5.1-3.9 8.1-2.1 5 3.2 13.1 9.1 21.7 18.8q0.5 0.6 1 1.2 0.9 1.1 1.8 2.2 2.1 2.5 4.3 5.4 0.8 1.2 1.7 2.4c8.3 11.9 16.2 27.5 21.4 47.6z"/>
					<g id="&lt;Group&gt;">
						<path id="&lt;Path&gt;" class="s14" d="m166.3-267.1l-1.1 11.7q-1.7 1-3.5 1.9-1.5 0.8-3.1 1.4-5.5 2.4-11.1 3.5-5.9 1.2-11.9 0.9l-6.6-9.7q7.6 0 14.9-1.4 8.6-1.7 16.7-5.4 1.3-0.6 2.6-1.3 1.6-0.8 3.1-1.6z"/>
					</g>
					<path id="&lt;Path&gt;" class="s15" d="m147.5-248.6q-5.9 1.2-11.9 0.9l-6.6-9.7-6.1-8.9-6.7-9.8c-8.4-12.3-14.9-26.1-18.8-40.8q-0.2-0.7-0.4-1.3c-7.1-27.3-5.8-49.6-2.2-66.1 1.3-5.8 2.9-10.9 4.5-15.2 3.8 1.4 5.1 0.2 8.3 8 0 0-12.8 45.4 3.1 81.1 14.5 32.7 22.9 22.2 22.9 22.2l10.3 29.4z"/>
					<g id="&lt;Group&gt;">
						<g id="&lt;Group&gt;">
							<path id="&lt;Path&gt;" class="s7" d="m155.8-237.4c-0.1 0.8-0.6 1.3-1.3 1.5-0.7 0.2-1.4 0-1.9-0.7-17.9-24.9-22.7-72.2-23.9-91.5-0.1-1 0.6-1.7 1.3-1.9 0.8-0.2 1.7 0.1 2.1 1 8.4 17.5 27.2 61.1 23.7 91.6z"/>
						</g>
						<g id="&lt;Group&gt;">
							<path id="&lt;Path&gt;" class="s13" d="m130-330l24.5 94.1c-0.7 0.2-1.4 0-1.9-0.7-17.9-24.9-22.7-72.2-23.9-91.5-0.1-1 0.6-1.7 1.3-1.9z"/>
						</g>
					</g>
					<g id="&lt;Group&gt;">
						<g id="&lt;Group&gt;">
							<g id="&lt;Group&gt;">
								<path id="&lt;Path&gt;" class="s14" d="m140.2-359.1c2.4 9.2-3.1 18.5-12.3 20.9-9.2 2.4-18.5-3.1-20.9-12.3-2.4-9.1 3.1-18.5 12.3-20.9 9.1-2.4 18.5 3.1 20.9 12.3z"/>
							</g>
							<path id="&lt;Path&gt;" class="s10" d="m136.7-358.2q0 0.1 0.1 0.2c1.7 7.1-2.5 14.4-9.6 16.3q-0.1 0-0.2 0.1-1.9 0.4-3.7 0.4c-2.2-0.1-4.3-0.6-6.2-1.7-1.6-0.9-3.1-2.1-4.2-3.6-1.1-1.4-2-3-2.4-4.9-1.9-7.2 2.4-14.6 9.7-16.5 1.8-0.5 3.7-0.5 5.4-0.3 1.9 0.3 3.6 1 5.2 2 1.8 1.1 3.4 2.7 4.5 4.6q0.9 1.6 1.4 3.4z"/>
							<g id="&lt;Group&gt;" style="opacity: .1">
								<path id="&lt;Path&gt;" class="s16" d="m135.3-361.6c-1.1-1.9-2.7-3.5-4.5-4.6-1.6-1-3.3-1.7-5.2-2-1.7-0.2-3.6-0.2-5.4 0.3-7.3 1.9-11.6 9.3-9.7 16.5q0.1 0.6 0.3 1.1c-1.2-6.9 3.1-13.7 9.9-15.4 1.9-0.5 3.7-0.6 5.5-0.3 1.8 0.3 3.6 0.9 5.2 1.9 1.8 1.2 3.3 2.7 4.5 4.6q0.6 1.2 1 2.4 0-0.4-0.1-0.9-0.1-0.1-0.1-0.2-0.5-1.8-1.4-3.4z"/>
							</g>
						</g>
						<path id="&lt;Path&gt;" class="s17" d="m125.5-364.5c0 0 6.7 4 6.6 10.5 0 7.1-5.4 9.7-11.8 9.6 0 0 5.5 3 11.5-1.9 6.2-5.1 3.3-15.7-6.3-18.2z"/>
					</g>
					<g id="&lt;Group&gt;">
						<g id="&lt;Group&gt;">
							<path id="&lt;Path&gt;" class="s7" d="m134.4-394.6q-18.9 8.6-39.6 10.3c2.8-12.6 7-21.8 9.8-27 1-1.8 2.7-2.9 4.5-3 1.2-0.1 2.4 0.2 3.6 0.9 5 3.2 13.1 9.1 21.7 18.8z"/>
						</g>
						<path id="&lt;Path&gt;" class="s18" d="m117.3-407.3c-0.9-0.7-1.5-1.3-2.8-2.4-2.2-1.8-3.4-2-4.4-0.4-1.8 2.9 8 13.4 14.5 13 5-0.4-3.4-7.2-7.3-10.2z"/>
						<g id="&lt;Group&gt;">
							<path id="&lt;Path&gt;" class="s13" d="m134.4-394.6q-18.9 8.6-39.6 10.3c2.8-12.6 7-21.8 9.8-27 1-1.8 2.7-2.9 4.5-3-0.7 1-5.3 8.2-3.5 14.9 1.9 7.3 12.8 11.2 28.8 4.8z"/>
						</g>
					</g>
				</g>
			</g>
			<g id="&lt;Group&gt;">
				<path id="&lt;Path&gt;" class="s19" d="m618.4-611.4c0 0-17.6-7.4-54.8-11.7 0 0 141.5 49.6 198.6 208.5l34.1-4c-3.2-40.2-19.2-109-84.8-171.5 0 0 23.1 34.8 19.4 43.2 0 0-111-167.4-285.4-86.5 0 0 94.3-27.9 172.9 22z"/>
				<g id="&lt;Group&gt;">
					<g id="&lt;Group&gt;">
						<path id="&lt;Path&gt;" class="s9" d="m762-430c3.2-12.8 6.7-20.5 6.9-47.8q0-0.1 0-0.2 0 0.1 0 0.2c9.5 25.6 15.4 31.7 22.8 42.6 7.3 10.9 4.6 26.3 4.6 26.3l-14.6 3.8-15 1.5c0 0-7.8-13.6-4.7-26.4z"/>
						<path id="&lt;Path&gt;" class="s8" d="m773.1-454c3.7 7.3 7.1 12 10.6 17q1.7 2.4 3.4 5c3.9 5.8 4.9 17.9 4.7 22.5l-10.1 1.7-10.3 1.9c-1.7-4.2-5.7-15.9-4-22.6q0.8-3.1 1.5-5.9c1.6-5.9 3.1-11.5 4.2-19.6z"/>
						<path id="&lt;Path&gt;" class="s12" d="m775.5-440.4c1.6 2.7 3.1 5.2 4.6 7.7q1.8 2.9 3.6 5.9c2.2 3.8 3.6 12 4.1 18l-12.6 2.2c-1.9-6.2-3.5-14.1-2.8-18.2q0.7-3.5 1.4-6.8c0.5-2.8 1.1-5.7 1.7-8.8z"/>
					</g>
					<g id="&lt;Group&gt;">
						<path id="&lt;Path&gt;" class="s4" d="m814.5-378.7c1.9-2.1 3.2-4.8 4.2-7.6 5-14.4 1.1-35.6 1.1-35.6q0 0 0.1 0c0.4 0.1 17 1.8 26.3 21.1 4.8 10.2 4.2 20.9 2.6 28.9-0.3 1.4-1.4 2.3-2.5 2.5-0.9 0.1-1.8-0.1-2.5-0.6-0.6-0.4-1.1-1.1-1.3-2l-7.4 21.2-5.5 15.8q0 0.1 0 0.1c-10.3-17-15.1-43.8-15.1-43.8z"/>
						<path id="&lt;Path&gt;" class="s5" d="m819.9-421.9c0.4 0.1 17 1.8 26.3 21.1 4.8 10.2 4.2 20.9 2.6 28.9-0.3 1.4-1.4 2.3-2.5 2.5-0.9 0.1-1.8-0.1-2.5-0.6q-0.6-0.9-1.3-2c0 0 2.6-17.6-5.7-32.3-8.1-14.6-16.7-17.5-16.9-17.6z"/>
						<path id="&lt;Path&gt;" class="s5" d="m814.5-378.7c1.9-2.1 3.2-4.8 4.2-7.6 8.5 10.6 13.5 24.2 16.4 35.5l-5.5 15.8q0 0.1 0 0.1c-10.3-17-15.1-43.8-15.1-43.8z"/>
					</g>
					<g id="&lt;Group&gt;">
						<path id="&lt;Path&gt;" class="s4" d="m759.9-369.1c-2.5-1.4-4.6-3.3-6.6-5.7-9.6-11.8-13.2-33-13.2-33q0 0 0 0c-0.3 0.2-15.4 7.5-17.5 28.8-1.1 11.2 3.1 21.1 7.4 28 0.8 1.3 2.1 1.7 3.2 1.5 0.9-0.1 1.7-0.6 2.2-1.3 0.4-0.7 0.6-1.5 0.5-2.4l14.1 17.4 10.7 13q0 0 0 0c3.8-19.4-0.8-46.3-0.8-46.3z"/>
						<path id="&lt;Path&gt;" class="s5" d="m740.1-407.8c-0.3 0.2-15.4 7.5-17.5 28.8-1.1 11.2 3.1 21.1 7.4 28 0.8 1.3 2.1 1.7 3.2 1.5 0.9-0.1 1.7-0.6 2.2-1.3q0.2-1.2 0.5-2.4c0 0-8.5-15.6-5.7-32.3 2.6-16.5 9.7-22.1 9.9-22.3z"/>
						<path id="&lt;Path&gt;" class="s5" d="m759.9-369.1c-2.5-1.4-4.6-3.3-6.6-5.7-4.3 12.9-4.3 27.4-3.3 39l10.7 13q0 0 0 0c3.8-19.4-0.8-46.3-0.8-46.3z"/>
					</g>
					<path id="&lt;Path&gt;" class="s3" d="m760.5-324.9c-1.2-6.9-2.1-12.3-2.4-17.7-0.4-5.5-0.3-10.8 0.4-17.4q0-0.4 0.1-0.7l1.8-10.5 2-11.7 3.8-22.2 30.2-5.3 1.3 2.2 9.9 17.3 5.9 10.3c7.4 13 12.7 27.3 15.5 42.2q0.1 0.7 0.2 1.3c3.6 20.6 2.9 38 0.3 52.2q-0.3 1.6-0.6 3-0.7 3.6-1.6 6.8-0.3 1.4-0.7 2.7-0.2 0.7-0.4 1.4c-1.8 5.7-3.8 10.7-5.7 14.8-2.3 4.9-4.5 8.6-6.2 11.3-1.9 2.9-5.5 3.5-8.3 1.5-4.7-3.6-12.3-10.2-20.1-20.5q-0.4-0.6-0.9-1.3-0.8-1.1-1.7-2.3-1.9-2.7-3.8-5.8-0.7-1.2-1.5-2.5c-7.3-12.5-13.9-28.6-17.5-49.1z"/>
					<g id="&lt;Group&gt;">
						<path id="&lt;Path&gt;" class="s14" d="m764.2-393.5l2-11.6q1.9-0.9 3.7-1.6 1.6-0.7 3.2-1.2 5.7-1.9 11.4-2.6 5.9-0.7 11.9 0.1l5.8 10.2q-7.6-0.6-14.9 0.2-8.7 1-17.1 4.1-1.4 0.5-2.8 1-1.6 0.7-3.2 1.4z"/>
					</g>
					<path id="&lt;Path&gt;" class="s15" d="m784.5-410.5q5.9-0.7 11.9 0.1l5.8 10.2 5.4 9.3 5.9 10.3c7.4 13 12.7 27.3 15.5 42.2q0.1 0.7 0.2 1.3c4.9 27.8 1.9 50-3 66.1-1.8 5.7-3.8 10.7-5.7 14.8-3.7-1.7-5.1-0.6-7.6-8.6 0 0 16.3-44.2 3.3-81.1-11.9-33.7-21.1-24-21.1-24l-7.8-30.1z"/>
					<g id="&lt;Group&gt;">
						<path id="&lt;Path&gt;" class="s4" d="m777.1-422.3c0.1-0.8 0.7-1.3 1.4-1.4 0.7-0.1 1.4 0.2 1.9 0.9 15.8 26.2 16.8 73.7 16.5 93.1 0 1-0.7 1.6-1.5 1.8-0.8 0.1-1.7-0.2-2-1.2-6.9-18.1-22.3-63.1-16.3-93.2z"/>
						<path id="&lt;Path&gt;" class="s5" d="m795.4-327.9l-16.9-95.8c0.7-0.1 1.4 0.2 1.9 0.9 15.8 26.2 16.8 73.7 16.5 93.1 0 1-0.7 1.6-1.5 1.8z"/>
					</g>
					<g id="&lt;Group&gt;">
						<g id="&lt;Group&gt;">
							<g id="&lt;Group&gt;">
								<path id="&lt;Path&gt;" class="s14" d="m782.9-299.7c-1.6-9.4 4.6-18.3 14-19.9 9.3-1.7 18.2 4.6 19.8 13.9 1.7 9.3-4.6 18.2-13.9 19.9-9.3 1.6-18.2-4.6-19.9-13.9z"/>
							</g>
							<path id="&lt;Path&gt;" class="s10" d="m786.5-300.4q0-0.1-0.1-0.1c-1.1-7.3 3.7-14.2 10.9-15.5q0.1-0.1 0.2-0.1 1.9-0.3 3.7-0.1c2.2 0.2 4.3 1 6.1 2.1 1.5 1.1 2.8 2.4 3.9 3.9 0.9 1.5 1.7 3.2 2 5.1 1.3 7.4-3.7 14.4-11 15.7-1.9 0.4-3.7 0.3-5.5-0.1-1.8-0.5-3.5-1.3-5-2.4-1.7-1.2-3.1-2.9-4.1-4.9q-0.8-1.7-1.1-3.6z"/>
							<g id="&lt;Group&gt;" style="opacity: .1">
								<path id="&lt;Path&gt;" class="s16" d="m787.6-296.8c1 2 2.4 3.7 4.1 4.9 1.5 1.1 3.2 1.9 5 2.4 1.8 0.4 3.6 0.5 5.5 0.1 7.3-1.3 12.3-8.3 11-15.7q-0.1-0.5-0.3-1.1c0.7 7-4.1 13.4-11.1 14.6-1.9 0.4-3.7 0.3-5.5-0.1-1.8-0.5-3.5-1.3-5-2.4-1.7-1.2-3.1-2.9-4.1-4.9q-0.5-1.2-0.9-2.5 0.1 0.5 0.1 1 0.1 0 0.1 0.1 0.3 1.9 1.1 3.6z"/>
							</g>
						</g>
						<path id="&lt;Path&gt;" class="s20" d="m797.2-293.2c0 0-6.4-4.5-5.8-11 0.6-7.1 6.1-9.2 12.6-8.6 0 0-5.3-3.4-11.7 1-6.6 4.6-4.5 15.3 4.9 18.6z"/>
					</g>
					<g id="&lt;Group&gt;">
						<path id="&lt;Path&gt;" class="s4" d="m785.9-263.9q19.5-7.1 40.3-7.1c-3.8 12.4-8.7 21.2-11.9 26.1-1.2 1.8-3 2.7-4.8 2.7-1.2 0-2.4-0.4-3.5-1.2-4.7-3.6-12.3-10.2-20.1-20.5z"/>
						<path id="&lt;Path&gt;" class="s18" d="m801.9-249.8c0.8 0.7 1.4 1.4 2.6 2.6 2 1.9 3.3 2.2 4.4 0.7 2-2.7-7-14-13.4-14.1-5 0 2.7 7.4 6.4 10.8z"/>
						<path id="&lt;Path&gt;" class="s5" d="m785.9-263.9q19.5-7.1 40.3-7.1c-3.8 12.4-8.7 21.2-11.9 26.1-1.2 1.8-3 2.7-4.8 2.7 0.7-0.9 5.9-7.8 4.7-14.6-1.3-7.4-11.9-12.2-28.3-7.1z"/>
					</g>
				</g>
			</g>
		</g>
		<g id="&lt;Group&gt;">
			<g id="&lt;Group&gt;">
				<g id="&lt;Group&gt;">
					<path id="&lt;Path&gt;" class="s7" d="m203.2-525.3q-0.1 0.8-0.2 1.6c-0.6 3.9-1.8 7.7-3.5 11.3q-1.6 3.4-3.8 6.5-0.7 1-1.4 2-1 1.2-2.1 2.3-0.4 0.5-0.9 0.9-0.6 0.7-1.2 1.2c-4.3 4.1-9.2 7.1-14.4 9q-4.4 1.5-8.9 2.1c-3.8 0.6-7.7 0.6-11.6 0q-4-0.5-7.9-1.9-0.6-0.1-1.1-0.3-3.7-1.4-7.3-3.6-4.3-2.7-8.1-6.5-0.3-0.3-0.7-0.7-1.1-1.2-2.2-2.5-0.8-1-1.4-2-0.4-0.5-0.8-1-1.5-2.3-2.7-4.7-0.2-0.4-0.4-0.8c-1.6-3.6-2.8-7.4-3.4-11.3q-0.1-0.8-0.2-1.6c-0.5-3.8-0.4-7.5 0.1-11.3q0.2-1.6 0.6-3.2 0.8-3.5 2.2-6.8c1.2-3.1 2.9-6.1 4.9-8.9q0.2-0.2 0.4-0.5 1.8-2.3 3.9-4.4 0.1-0.1 0.2-0.2 0.4-0.4 0.7-0.7 0.2-0.2 0.4-0.4 1.2-1 2.4-2 1.5-1.2 3.1-2.3 2.3-1.4 4.6-2.6 3.5-1.7 7.2-2.7 4.2-1.1 8.6-1.4 1.5-0.1 3.1-0.1 4.3 0 8.5 0.9c3.1 0.7 6.1 1.7 9 3 3 1.4 5.8 3.1 8.5 5.2q1.3 1.1 2.7 2.3 0.5 0.5 0.9 1 0.4 0.3 0.7 0.7 0.2 0.1 0.3 0.3 0.1 0 0.1 0 1.7 1.9 3.2 3.9c2.1 2.8 3.7 5.8 5 8.9q1.4 3.3 2.1 6.8 0.4 1.6 0.7 3.2c0.5 3.8 0.5 7.5 0.1 11.3z"/>
				</g>
				<g id="&lt;Group&gt;">
					<path id="&lt;Path&gt;" class="s13" d="m200.3-546.6h-78.4c1.2-3.1 2.9-6.1 4.9-8.9h68.5c2.1 2.8 3.7 5.8 5 8.9z"/>
				</g>
				<g id="&lt;Group&gt;">
					<path id="&lt;Path&gt;" class="s13" d="m199.5-512.4q-1.6 3.4-3.8 6.5h-69.2q-0.4-0.5-0.8-1-1.5-2.3-2.7-4.7-0.2-0.4-0.4-0.8z"/>
				</g>
				<g id="&lt;Group&gt;">
					<path id="&lt;Path&gt;" class="s13" d="m194.3-503.9q-1 1.2-2.1 2.3-0.4 0.5-0.9 0.9h-60.5q-0.3-0.3-0.7-0.7-1.1-1.2-2.2-2.5z"/>
				</g>
				<g id="&lt;Group&gt;">
					<path id="&lt;Path&gt;" class="s13" d="m203.1-536.6h-84q0.2-1.6 0.6-3.2h82.7q0.4 1.6 0.7 3.2z"/>
				</g>
				<g id="&lt;Group&gt;">
					<path id="&lt;Path&gt;" class="s13" d="m203.2-525.3q-0.1 0.8-0.2 1.6h-83.8q-0.1-0.8-0.2-1.6z"/>
				</g>
				<g id="&lt;Group&gt;">
					<path id="&lt;Path&gt;" class="s13" d="m191-560.4h-59.9q0.1-0.1 0.2-0.2 0.4-0.4 0.7-0.7 0.2-0.2 0.4-0.4 1.2-1 2.4-2h52.6q1.3 1.1 2.7 2.3 0.5 0.5 0.9 1z"/>
				</g>
				<path id="&lt;Path&gt;" class="s15" d="m192-559.4c16.1 17.1 15.2 43.9-1.9 59.9-11.9 11.2-28.4 14.2-42.8 9.2 23.1 3.7 45-25.8 34.7-49.7-13-30.2-44.1-26-44.1-26 17-11 39.8-8.7 54.1 6.6z"/>
				<path id="&lt;Path&gt;" class="s21" d="m129.7-554.7c-5 7.2-15.6 27.5 1.7 49 1.7 2.1 4.8 2.3 6.7 0.4l1-0.9c1.6-1.7 1.8-4.3 0.3-6.1-4.5-5.4-11.5-18.1-1.9-37.9 1.2-2.4 0-5.3-2.6-6.2-1.9-0.7-4.1 0-5.2 1.7z"/>
			</g>
			<g id="&lt;Group&gt;">
				<g id="&lt;Group&gt;">
					<path id="&lt;Path&gt;" class="s10" d="m485.5-121.9q0.8 0 1.5 0 0.1 0 0.1 0c10.6 0.3 20.2 5.1 26.7 12.7 5.4 6.2 8.8 14.4 8.9 23.4q0.1 4.6-0.9 8.9-0.3 1.4-0.8 2.7c-4.6 14.6-18.1 25.3-34.3 25.6-3.4 0.1-6.6-0.3-9.7-1.1q-2.9-0.8-5.6-2c-6.7-2.9-12.3-7.7-16.2-13.8-2.6-4-4.4-8.5-5.2-13.4q-0.5-2.8-0.6-5.7c-0.2-14.2 7.6-26.6 19.2-32.9q0 0 0 0 3-1.6 6.2-2.6c3.4-1.1 7-1.7 10.7-1.8z"/>
				</g>
				<g id="&lt;Group&gt;">
					<path id="&lt;Path&gt;" class="s22" d="m455.1-77.7c6.3 2 11 0.2 15.7 1 4.6 0.7 6 8.4 2.7 12.2-3.3 3.9-7.6 3.1-6.7 6.1 0.9 2.9 5.1 3.4 4.6 6.7-6.7-2.9-12.3-7.7-16.2-13.8-2.6-4-4.4-8.5-5.2-13.4 1.4 0.2 3.1 0.5 5.1 1.2z"/>
				</g>
				<g id="&lt;Group&gt;">
					<path id="&lt;Path&gt;" class="s22" d="m455.8-86.2c0 0 1.3 3.3 3.4 2.5 2.1-0.9 5.1-1.4 5-3.1 0-1.7 0-3-1.3-3.8-1.3-0.8-8.5 1.8-7.1 4.4z"/>
				</g>
				<g id="&lt;Group&gt;">
					<path id="&lt;Path&gt;" class="s22" d="m485.5-121.9q0.8 0 1.5 0 0.1 0 0.1 0c10.6 0.3 20.2 5.1 26.7 12.7-2.5-0.5-6.7-3.3-9.7-0.3-4.6 4.7-11.8 3.2-13.1 1.1-1.3-2.1-4.3-5.5-10.7-6.2-3.8-0.4-5-3.3-5.5-5.5 3.4-1.1 7-1.7 10.7-1.8z"/>
				</g>
				<g id="&lt;Group&gt;">
					<path id="&lt;Path&gt;" class="s22" d="m515.5-85.5c0.1 5.9-9.2 4.4-9.5 10.7-0.4 6.4 5.6 9.3 9.8 3.7 1.5-2.1 3.8-4.2 6-5.8-3.7 16-17.9 28-35.1 28.3-3.4 0.1-6.6-0.3-9.7-1.1-0.2-1.8 0.1-5.4 2.9-9.8 4.2-6.4 6 1.6 7.6-4.8 1.6-6.4-1-9.7 5.7-12.8 6.7-3.1 1.5-11 7.8-13.3 6.4-2.2 14.4-1.1 14.5 4.9z"/>
				</g>
				<g id="&lt;Group&gt;">
					<path id="&lt;Path&gt;" class="s22" d="m477.9-106.5c0 0 5.5-2.7 6 2.4 0.5 5.1-2.4 9-5.9 6.5-3.4-2.5-8-0.3-11.4-1.9-3.5-1.7-5.6-3.3-3.5-5.5 2.1-2.2 5.7-10.3 8.8-6.5 3 3.8 4.7 5.4 6 5z"/>
				</g>
				<path id="&lt;Path&gt;" class="s15" d="m468.6-117.5c-0.3 0.2-10.6 8.6-8.6 28.7 2 20 37.8 34.9 61 14.6-4.6 14.6-18.1 25.3-34.3 25.6-3.4 0.1-6.6-0.3-9.7-1.1q-2.9-0.8-5.6-2c-6.7-2.9-12.3-7.7-16.2-13.8-2.6-4-4.4-8.5-5.2-13.4q-0.5-2.8-0.6-5.7c-0.2-14.2 7.6-26.6 19.2-32.9z"/>
				<path id="&lt;Path&gt;" class="s23" d="m520.5-90.3c-2.4-8.4-11.3-29.1-38.3-29.6-3.2-0.1-5.5 2.4-5.2 5.6v0.1c0.2 2.7 2.5 4.6 5.1 4.6 7.1 0.1 20.9 3 30 22.5 1.1 2.4 4.1 3.3 6.4 1.9 1.8-1 2.6-3.2 2-5.1z"/>
			</g>
		</g>
		<g id="&lt;Group&gt;">
			<path id="&lt;Path&gt;" class="s24" d="m901.7-87.1c0 1.2-0.9 2.1-2.1 2.1-1.1 0-2-0.9-2-2.1 0-1.1 0.9-2.1 2-2.1 1.2 0 2.1 1 2.1 2.1z"/>
			<path id="&lt;Path&gt;" class="s25" d="m725.4-232.3c0 1.1-0.9 2.1-2.1 2.1-1.1 0-2.1-1-2.1-2.1 0-1.2 1-2.1 2.1-2.1 1.2 0 2.1 0.9 2.1 2.1z"/>
			<path id="&lt;Path&gt;" class="s26" d="m903.8-254.8c0 1.2-0.9 2.1-2.1 2.1-1.1 0-2.1-0.9-2.1-2.1 0-1.2 1-2.1 2.1-2.1 1.2 0 2.1 0.9 2.1 2.1z"/>
			<path id="&lt;Path&gt;" class="s27" d="m896.5-354.8c0 1.2-1 2.1-2.1 2.1-1.2 0-2.1-0.9-2.1-2.1 0-1.1 0.9-2.1 2.1-2.1 1.1 0 2.1 1 2.1 2.1z"/>
			<path id="&lt;Path&gt;" class="s28" d="m729.9 247.5c0 1.2-0.9 2.1-2.1 2.1-1.1 0-2-0.9-2-2.1 0-1.2 0.9-2.1 2-2.1 1.2 0 2.1 0.9 2.1 2.1z"/>
			<path id="&lt;Path&gt;" class="s29" d="m706.5-63.7c0 1.2-1 2.1-2.1 2.1-1.2 0-2.1-0.9-2.1-2.1 0-1.1 0.9-2.1 2.1-2.1 1.1 0 2.1 1 2.1 2.1z"/>
			<path id="&lt;Path&gt;" class="s30" d="m854.4 96.4c0 1.2-0.9 2.1-2.1 2.1-1.1 0-2.1-0.9-2.1-2.1 0-1.2 1-2.1 2.1-2.1 1.2 0 2.1 0.9 2.1 2.1z"/>
			<path id="&lt;Path&gt;" class="s31" d="m922.1 202.8c0 1.1-0.9 2.1-2.1 2.1-1.2 0-2.1-1-2.1-2.1 0-1.2 0.9-2.1 2.1-2.1 1.2 0 2.1 0.9 2.1 2.1z"/>
			<path id="&lt;Path&gt;" class="s32" d="m774.3-3.1c0 1.2-0.9 2.1-2.1 2.1-1.1 0-2.1-0.9-2.1-2.1 0-1.2 1-2.1 2.1-2.1 1.2 0 2.1 0.9 2.1 2.1z"/>
			<path id="&lt;Path&gt;" class="s33" d="m256.5 204.9c0 1.1-0.9 2-2.1 2-1.2 0-2.1-0.9-2.1-2 0-1.2 0.9-2.1 2.1-2.1 1.2 0 2.1 0.9 2.1 2.1z"/>
			<path id="&lt;Path&gt;" class="s34" d="m453.9 209c0 1.2-0.9 2.1-2.1 2.1-1.2 0-2.1-0.9-2.1-2.1 0-1.1 0.9-2.1 2.1-2.1 1.2 0 2.1 1 2.1 2.1z"/>
			<path id="&lt;Path&gt;" class="s35" d="m26.9 236c0 1.2-1 2.1-2.1 2.1-1.2 0-2.1-0.9-2.1-2.1 0-1.1 0.9-2.1 2.1-2.1 1.1 0 2.1 1 2.1 2.1z"/>
			<path id="&lt;Path&gt;" class="s36" d="m163.6 245.4c0 1.2-0.9 2.1-2.1 2.1-1.1 0-2-0.9-2-2.1 0-1.2 0.9-2.1 2-2.1 1.2 0 2.1 0.9 2.1 2.1z"/>
			<path id="&lt;Path&gt;" class="s37" d="m19.7-21.2c0 1.1-0.9 2.1-2.1 2.1-1.2 0-2.1-1-2.1-2.1 0-1.2 0.9-2.1 2.1-2.1 1.2 0 2.1 0.9 2.1 2.1z"/>
			<path id="&lt;Path&gt;" class="s38" d="m12.8 115.9c0 1.2-0.9 2.1-2.1 2.1-1.2 0-2.1-0.9-2.1-2.1 0-1.2 0.9-2.1 2.1-2.1 1.2 0 2.1 0.9 2.1 2.1z"/>
			<path id="&lt;Path&gt;" class="s39" d="m670.1-520.8c0 1.2-1 2.1-2.1 2.1-1.2 0-2.1-0.9-2.1-2.1 0-1.1 0.9-2.1 2.1-2.1 1.1 0 2.1 1 2.1 2.1z"/>
			<path id="&lt;Path&gt;" class="s40" d="m31-308.1c0 1.2-0.9 2.1-2.1 2.1-1.1 0-2-0.9-2-2.1 0-1.1 0.9-2.1 2-2.1 1.2 0 2.1 1 2.1 2.1z"/>
			<path id="&lt;Path&gt;" class="s41" d="m237-522.9c0 1.2-0.9 2.1-2.1 2.1-1.2 0-2.1-0.9-2.1-2.1 0-1.1 0.9-2.1 2.1-2.1 1.2 0 2.1 1 2.1 2.1z"/>
			<path id="&lt;Path&gt;" class="s42" d="m80-560c0 1.2-1 2.1-2.1 2.1-1.2 0-2.1-0.9-2.1-2.1 0-1.1 0.9-2.1 2.1-2.1 1.1 0 2.1 1 2.1 2.1z"/>
			<path id="&lt;Path&gt;" class="s43" d="m344.9-641.8c0 1.2-0.9 2.1-2.1 2.1-1.2 0-2.1-0.9-2.1-2.1 0-1.1 0.9-2.1 2.1-2.1 1.2 0 2.1 1 2.1 2.1z"/>
			<path id="&lt;Path&gt;" class="s44" d="m500.5-603.7c0 1.1-0.9 2.1-2.1 2.1-1.1 0-2.1-1-2.1-2.1 0-1.2 1-2.1 2.1-2.1 1.2 0 2.1 0.9 2.1 2.1z"/>
			<path id="&lt;Path&gt;" class="s45" d="m812.6-605.5c0 1.2-0.9 2.1-2.1 2.1-1.1 0-2.1-0.9-2.1-2.1 0-1.1 1-2.1 2.1-2.1 1.2 0 2.1 1 2.1 2.1z"/>
			<path id="&lt;Path&gt;" class="s46" d="m866.6-672.5c0 1.1-1 2.1-2.1 2.1-1.2 0-2.1-1-2.1-2.1 0-1.2 0.9-2.1 2.1-2.1 1.1 0 2.1 0.9 2.1 2.1z"/>
			<path id="&lt;Path&gt;" class="s47" d="m908.8-564.6c0 1.1-0.9 2.1-2.1 2.1-1.1 0-2.1-1-2.1-2.1 0-1.2 1-2.1 2.1-2.1 1.2 0 2.1 0.9 2.1 2.1z"/>
			<path id="&lt;Path&gt;" class="s48" d="m10.7-186.4c0 1.2-0.9 2.1-2.1 2.1-1.2 0-2.1-0.9-2.1-2.1 0-1.1 0.9-2.1 2.1-2.1 1.2 0 2.1 1 2.1 2.1z"/>
			<path id="&lt;Path&gt;" class="s49" d="m107.3-448c0 1.2-0.9 2.1-2.1 2.1-1.1 0-2-0.9-2-2.1 0-1.1 0.9-2.1 2-2.1 1.2 0 2.1 1 2.1 2.1z"/>
			<path id="&lt;Path&gt;" class="s50" d="m856.5-173.8c0 1.2-0.9 2.1-2.1 2.1-1.2 0-2.1-0.9-2.1-2.1 0-1.1 0.9-2.1 2.1-2.1 1.2 0 2.1 1 2.1 2.1z"/>
			<path id="&lt;Path&gt;" class="s51" d="m626.9 214.4c0 1.2-1 2.1-2.1 2.1-1.2 0-2.1-0.9-2.1-2.1 0-1.2 0.9-2.1 2.1-2.1 1.1 0 2.1 0.9 2.1 2.1z"/>
			<path id="&lt;Path&gt;" class="s52" d="m839.2 214.4c0 1.2-1 2.1-2.1 2.1-1.2 0-2.1-0.9-2.1-2.1 0-1.2 0.9-2.1 2.1-2.1 1.1 0 2.1 0.9 2.1 2.1z"/>
			<path id="&lt;Path&gt;" class="s53" d="m883.3 21.5c0 1.2-0.9 2.1-2.1 2.1-1.1 0-2-0.9-2-2.1 0-1.1 0.9-2.1 2-2.1 1.2 0 2.1 1 2.1 2.1z"/>
			<path id="&lt;Path&gt;" class="s54" d="m248.1-44c0 1.1-0.9 2.1-2.1 2.1-1.1 0-2.1-1-2.1-2.1 0-1.2 1-2.1 2.1-2.1 1.2 0 2.1 0.9 2.1 2.1z"/>
			<path id="&lt;Path&gt;" class="s55" d="m649.4-646.6c0 1.1-0.9 2.1-2.1 2.1-1.1 0-2.1-1-2.1-2.1 0-1.2 1-2.1 2.1-2.1 1.2 0 2.1 0.9 2.1 2.1z"/>
			<path id="&lt;Path&gt;" class="s56" d="m20.6-636.5c0 1.1-0.9 2.1-2.1 2.1-1.1 0-2.1-1-2.1-2.1 0-1.2 1-2.1 2.1-2.1 1.2 0 2.1 0.9 2.1 2.1z"/>
			<path id="&lt;Path&gt;" class="s57" d="m173.4-629.5c-6.5 0.7-7.1 1.3-7.9 7.8-0.7-6.5-1.3-7.1-7.8-7.8 6.5-0.8 7.1-1.3 7.8-7.9 0.8 6.6 1.4 7.1 7.9 7.9z"/>
			<path id="&lt;Path&gt;" class="s8" d="m67.3-102.2c-14.4 1.7-15.7 3-17.3 17.4-1.6-14.4-2.9-15.7-17.3-17.4 14.4-1.6 15.7-2.9 17.3-17.3 1.6 14.4 2.9 15.7 17.3 17.3z"/>
			<path id="&lt;Path&gt;" class="s3" d="m362.5-115.2c-14.4 1.6-15.7 2.9-17.3 17.3-1.7-14.4-3-15.7-17.4-17.3 14.4-1.7 15.7-3 17.4-17.4 1.6 14.4 2.9 15.7 17.3 17.4z"/>
			<path id="&lt;Path&gt;" class="s3" d="m635.1-69.7c-14.4 1.6-15.7 2.9-17.4 17.3-1.6-14.4-2.9-15.7-17.3-17.3 14.4-1.7 15.7-3 17.3-17.4 1.7 14.4 3 15.7 17.4 17.4z"/>
			<path id="&lt;Path&gt;" class="s3" d="m278.6-586.4c-14.4 1.6-15.7 2.9-17.3 17.3-1.7-14.4-3-15.7-17.4-17.3 14.4-1.6 15.7-2.9 17.4-17.3 1.6 14.4 2.9 15.7 17.3 17.3z"/>
			<path id="&lt;Path&gt;" class="s3" d="m913.8-505.9c-14.4 1.7-15.7 3-17.3 17.4-1.6-14.4-3-15.7-17.3-17.4 14.3-1.6 15.7-2.9 17.3-17.3 1.6 14.4 2.9 15.7 17.3 17.3z"/>
			<path id="&lt;Path&gt;" class="s8" d="m854.4-69.7c-14.4 1.6-15.7 2.9-17.3 17.3-1.6-14.4-3-15.7-17.3-17.3 14.3-1.7 15.7-3 17.3-17.4 1.6 14.4 2.9 15.7 17.3 17.4z"/>
			<path id="&lt;Path&gt;" class="s8" d="m837.2-539.8c-14.4 1.6-15.7 2.9-17.3 17.3-1.7-14.4-3-15.7-17.4-17.3 14.4-1.7 15.7-3 17.4-17.4 1.6 14.4 2.9 15.7 17.3 17.4z"/>
			<path id="&lt;Path&gt;" class="s58" d="m491.9-654.5c-6.5 0.7-7.1 1.3-7.8 7.9-0.8-6.6-1.4-7.2-7.9-7.9 6.5-0.7 7.1-1.3 7.9-7.8 0.7 6.5 1.3 7.1 7.8 7.8z"/>
			<path id="&lt;Path&gt;" class="s59" d="m727.2-579.8c-6.5 0.7-7.1 1.3-7.8 7.8-0.7-6.5-1.3-7.1-7.9-7.8 6.6-0.8 7.2-1.4 7.9-7.9 0.7 6.5 1.3 7.1 7.8 7.9z"/>
			<path id="&lt;Path&gt;" class="s60" d="m24.3-440.1c-6.5 0.7-7.1 1.3-7.9 7.8-0.7-6.5-1.3-7.1-7.8-7.8 6.5-0.7 7.1-1.3 7.8-7.9 0.8 6.6 1.4 7.2 7.9 7.9z"/>
			<path id="&lt;Path&gt;" class="s61" d="m73.5 33.4c-6.5 0.8-7.1 1.4-7.8 7.9-0.7-6.5-1.3-7.1-7.9-7.9 6.6-0.7 7.2-1.3 7.9-7.8 0.7 6.5 1.3 7.1 7.8 7.8z"/>
			<path id="&lt;Path&gt;" class="s62" d="m119.2-147.9c-6.5 0.8-7.1 1.4-7.9 7.9-0.7-6.5-1.3-7.1-7.8-7.9 6.5-0.7 7.1-1.3 7.8-7.8 0.8 6.5 1.4 7.1 7.9 7.8z"/>
			<path id="&lt;Path&gt;" class="s63" d="m874.4-456.7c-6.5 0.8-7.1 1.4-7.8 7.9-0.8-6.5-1.4-7.1-7.9-7.9 6.5-0.7 7.1-1.3 7.9-7.8 0.7 6.5 1.3 7.1 7.8 7.8z"/>
		</g>
	</g>
	<g id="DESIGNED BY FREEPIK">
		<g id="&lt;Group&gt;">
			<g id="&lt;Group&gt;">
				<g id="&lt;Group&gt;">
					<path id="&lt;Path&gt;" class="s64" d="m480.2 229.9q-1.3 1.4-2.2 2.9l-0.9-0.4c-0.2-0.6-0.7-1.1-1.4-1-0.6 0.1-1.1 0.7-1 1.4 0.1 0.6 0.7 1.1 1.3 1q0.2 0 0.4-0.1l0.9 0.5q-0.8 1.7-1.1 3.5l1.5 0.2c0.5-2.6 1.7-5 3.6-6.9z"/>
					<path id="&lt;Path&gt;" class="s64" d="m491.2 225.3q-0.5 0-1 0.1l-0.2-1.3c0.4-0.3 0.6-0.8 0.5-1.3 0-0.8-0.8-1.3-1.5-1.2-0.8 0.1-1.4 0.8-1.3 1.6 0.1 0.5 0.4 0.9 0.8 1.1l0.2 1.2q-2.2 0.4-4.2 1.3l0.7 1.4q2.8-1.4 6-1.4 1.5 0 2.9 0.4l0.4-1.5q-1.7-0.4-3.3-0.4z"/>
					<path id="&lt;Path&gt;" class="s64" d="m504.4 230.4c0.7-0.1 1.1-0.7 1-1.3 0-0.7-0.6-1.2-1.3-1.1-0.6 0.1-1.1 0.6-1.1 1.2l-0.8 0.8q-1.3-1.3-2.8-2.3l-0.8 1.3c2.2 1.4 4 3.4 5.1 5.8l1.4-0.6q-0.8-1.7-1.9-3.1l0.8-0.7q0.2 0 0.4 0z"/>
					<path id="&lt;Path&gt;" class="s64" d="m490.1 245.7q-1.2 0.1-2.3 0.1c-1.8 0-3.5-0.1-5-0.3-0.8-0.2-1.7-0.4-2.5-0.6 2.1 3.7 6.1 6.2 10.8 6.2 5.7 0 10.5-3.8 11.9-9q-2.1 1.4-5 2.3c-2.3 0.7-5.1 1.2-7.9 1.3z"/>
					<path id="&lt;Compound Path&gt;" fill-rule="evenodd" class="s64" d="m503.2 238.8q0.1 0.5 0.1 1.1c-2.7 2.4-7.5 4-13.3 4.3-5.3 0.3-9.4-0.5-10.7-1.4q-0.3-1.3-0.3-2.6c0-6.5 5.5-11.8 12.2-11.8 6.1 0 11.3 4.4 12 10.3zm-12.6-1c0-2.1-1.7-3.7-3.7-3.7-2.1 0-3.7 1.6-3.7 3.7 0 2 1.6 3.7 3.7 3.7 2 0 3.7-1.7 3.7-3.7zm8.5-0.8c0-1.5-1.3-2.8-2.8-2.8-1.5 0-2.7 1.3-2.7 2.8 0 1.5 1.2 2.7 2.7 2.7 1.5 0 2.8-1.2 2.8-2.7z"/>
				</g>
				<path id="&lt;Compound Path&gt;" class="s64" d="m523.2 232.1c-0.6-0.2-1.6-0.6-2.8-0.5-1.1 0.2-1.7 0.7-1.7 2v1.8h4.5v3.4h-4.5v10.9h-3.8v-10.9h-2.7v-3.4h2.7v-1.8c0-3.4 1.8-5.6 5.1-5.6 1.3 0 2.3 0.3 3.2 0.6z"/>
				<path id="&lt;Compound Path&gt;" class="s64" d="m532.6 238.8q-0.5-0.1-1.1-0.1c-1.7 0-3 1.1-3 3.2v7.8h-3.8v-14.3h3.7v1.5c0.9-1.3 2.3-1.9 4-1.9 0.9 0 1.7 0.2 2.2 0.7z"/>
				<path id="&lt;Compound Path&gt;" fill-rule="evenodd" class="s64" d="m547.9 242.5c0 0.5 0 1 0 1.3h-10.2c0.4 2.1 1.9 3 3.7 3 1.2 0 2.6-0.5 3.6-1.4l2.3 2.5c-1.7 1.5-3.7 2.2-6.1 2.2-4.4 0-7.5-3-7.5-7.5 0-4.5 3-7.6 7.3-7.6 4.1 0 6.9 3 6.9 7.5zm-10.2-1.3h6.4c-0.4-1.9-1.5-2.9-3.2-2.9-1.8 0-2.9 1.1-3.2 2.9z"/>
				<path id="&lt;Compound Path&gt;" fill-rule="evenodd" class="s64" d="m563.2 242.5c0 0.5 0 1 0 1.3h-10.2c0.4 2.1 1.9 3 3.7 3 1.2 0 2.6-0.5 3.6-1.4l2.3 2.5c-1.7 1.5-3.7 2.2-6.1 2.2-4.4 0-7.5-3-7.5-7.5 0-4.5 3-7.6 7.3-7.6 4.1 0 6.9 3 6.9 7.5zm-10.2-1.3h6.4c-0.4-1.9-1.5-2.9-3.2-2.9-1.8 0-2.9 1.1-3.2 2.9z"/>
				<path id="&lt;Compound Path&gt;" fill-rule="evenodd" class="s64" d="m579.9 242.5c0 4.3-3 7.6-6.9 7.6-1.9 0-3.3-0.8-4.2-1.9v7.4h-3.9v-20.2h3.8v1.5c0.9-1.1 2.3-1.9 4.3-1.9 3.9 0 6.9 3.2 6.9 7.5zm-11.3 0c0 2.3 1.5 4 3.7 4 2.2 0 3.7-1.8 3.7-4 0-2.2-1.5-3.9-3.7-3.9-2.2 0-3.7 1.7-3.7 3.9z"/>
				<path id="&lt;Compound Path&gt;" class="s64" d="m586.1 230.7c0 1.4-1 2.4-2.4 2.4-1.4 0-2.5-1-2.5-2.4 0-1.4 1.1-2.5 2.5-2.5 1.4 0 2.4 1.1 2.4 2.5zm-0.5 19h-3.8v-14.3h3.8z"/>
				<path id="&lt;Compound Path&gt;" class="s64" d="m592.1 240.5l5.4-5.1h4.7l-7 6.7 7 7.6h-4.7l-5.4-5.8v5.8h-3.9v-21.3h3.9z"/>
			</g>
			<g id="&lt;Group&gt;">
				<path id="&lt;Compound Path&gt;" fill-rule="evenodd" class="s64" d="m328.8 249.6v-2.1c-1 1.4-2.8 2.4-4.8 2.4-3.6 0-6.2-2.8-6.2-7.4 0-4.5 2.5-7.4 6.2-7.4 2 0 3.7 0.9 4.8 2.5v-7.6h2.2v19.6zm0-3.9v-6.4c-0.8-1.2-2.5-2.3-4.2-2.3-2.9 0-4.6 2.4-4.6 5.5 0 3.2 1.7 5.5 4.6 5.5 1.7 0 3.4-1 4.2-2.3z"/>
				<path id="&lt;Compound Path&gt;" fill-rule="evenodd" class="s64" d="m333.9 242.5c0-4.1 2.9-7.4 6.9-7.4 4.3 0 6.8 3.3 6.8 7.6v0.5h-11.4c0.2 2.7 2 4.9 5.1 4.9 1.6 0 3.2-0.6 4.3-1.8l1.1 1.5c-1.4 1.4-3.3 2.1-5.6 2.1-4.2 0-7.2-3-7.2-7.4zm6.9-5.6c-3 0-4.5 2.5-4.6 4.7h9.3c-0.1-2.1-1.5-4.7-4.7-4.7z"/>
				<path id="&lt;Compound Path&gt;" class="s64" d="m349.2 247.7l1.2-1.6c0.9 1.1 2.7 2 4.6 2 2.2 0 3.4-1 3.4-2.4 0-3.4-8.8-1.3-8.8-6.6 0-2.1 1.9-4 5.3-4 2.4 0 4.1 0.9 5.2 2l-1 1.6c-0.9-1.1-2.4-1.8-4.2-1.8-2 0-3.2 0.9-3.2 2.2 0 3.1 8.8 1 8.8 6.6 0 2.3-1.9 4.2-5.6 4.2-2.3 0-4.3-0.7-5.7-2.2z"/>
				<path id="&lt;Compound Path&gt;" class="s64" d="m363 231.9c0-0.8 0.6-1.5 1.4-1.5 0.8 0 1.5 0.7 1.5 1.5 0 0.9-0.7 1.5-1.5 1.5-0.8 0-1.4-0.6-1.4-1.5zm0.3 17.7v-14.2h2.2v14.2z"/>
				<path id="&lt;Compound Path&gt;" fill-rule="evenodd" class="s64" d="m369.2 253.2l1.1-1.6c1.1 1.4 2.6 1.9 4.6 1.9 2.3 0 4.5-1.1 4.5-4.2v-2.1c-1 1.5-2.7 2.6-4.7 2.6-3.7 0-6.3-2.8-6.3-7.4 0-4.5 2.6-7.3 6.3-7.3 1.9 0 3.6 0.9 4.7 2.5v-2.2h2.2v13.8c0 4.7-3.3 6.1-6.7 6.1-2.4 0-4.1-0.4-5.7-2.1zm10.2-7.7v-6.2c-0.7-1.2-2.4-2.3-4.2-2.3-2.8 0-4.5 2.3-4.5 5.4 0 3.1 1.7 5.4 4.5 5.4 1.8 0 3.5-1.1 4.2-2.3z"/>
				<path id="&lt;Compound Path&gt;" class="s64" d="m394.8 249.6v-9.3c0-2.5-1.2-3.3-3.1-3.3-1.8 0-3.4 1.1-4.2 2.2v10.4h-2.2v-14.2h2.2v2.1c1-1.2 2.9-2.4 5-2.4 3 0 4.5 1.5 4.5 4.5v10z"/>
				<path id="&lt;Compound Path&gt;" fill-rule="evenodd" class="s64" d="m399.9 242.5c0-4.1 2.9-7.4 6.9-7.4 4.3 0 6.8 3.3 6.8 7.6v0.5h-11.4c0.2 2.7 2 4.9 5.1 4.9 1.6 0 3.2-0.6 4.3-1.8l1.1 1.5c-1.4 1.4-3.3 2.1-5.6 2.1-4.2 0-7.2-3-7.2-7.4zm6.9-5.6c-3 0-4.5 2.5-4.6 4.7h9.3c-0.1-2.1-1.5-4.7-4.7-4.7z"/>
				<path id="&lt;Compound Path&gt;" fill-rule="evenodd" class="s64" d="m426.7 249.6v-2.1c-1.1 1.4-2.8 2.4-4.8 2.4-3.7 0-6.3-2.8-6.3-7.4 0-4.5 2.6-7.4 6.3-7.4 1.9 0 3.7 0.9 4.8 2.5v-7.6h2.2v19.6zm0-3.9v-6.4c-0.8-1.2-2.5-2.3-4.3-2.3-2.8 0-4.5 2.4-4.5 5.5 0 3.2 1.7 5.5 4.5 5.5 1.8 0 3.5-1 4.3-2.3z"/>
				<path id="&lt;Compound Path&gt;" fill-rule="evenodd" class="s64" d="m439.4 249.6v-19.6h2.2v7.6c1.1-1.6 2.8-2.5 4.8-2.5 3.6 0 6.3 2.9 6.3 7.4 0 4.6-2.7 7.4-6.3 7.4-2 0-3.8-1-4.8-2.4v2.1zm6.4-1.6c2.9 0 4.6-2.3 4.6-5.5 0-3.1-1.7-5.5-4.6-5.5-1.7 0-3.5 1.1-4.2 2.3v6.4c0.7 1.3 2.5 2.3 4.2 2.3z"/>
				<path id="&lt;Compound Path&gt;" class="s64" d="m455.1 253.1c0.3 0.2 0.8 0.3 1.2 0.3 0.9 0 1.6-0.4 2.1-1.5l0.9-2.2-5.9-14.3h2.4l4.7 11.6 4.7-11.6h2.4l-7.1 17c-0.9 2.1-2.3 2.9-4.2 2.9-0.5 0-1.2-0.1-1.6-0.2z"/>
			</g>
		</g>
	</g>
</svg>