<svg version="1.2" xmlns="http://www.w3.org/2000/svg" viewBox="0 0 2160 2906" width="2160" height="2906">
	<title>2091-ai</title>
	<style>
		.s0 { fill: #ffb200 } 
		.s1 { fill: #d66b09 } 
		.s2 { fill: #371a45 } 
		.s3 { fill: #ffc943 } 
		.s4 { fill: #ffec90 } 
		.s5 { fill: #ffffff } 
		.s6 { fill: #32b1d1 } 
		.s7 { fill: #73befd } 
		.s8 { fill: #1f9fff } 
		.s9 { fill: #293856 } 
		.s10 { fill: #371a46 } 
		.s11 { fill: #111a28 } 
		.s12 { fill: #f9195a } 
		.s13 { fill: #102770 } 
		.s14 { fill: #fce5e5 } 
	</style>
	<g id="Layer 1">
		<g id="&lt;Group&gt;">
			<g id="&lt;Group&gt;">
				<g id="&lt;Group&gt;">
					<g id="&lt;Group&gt;">
						<g id="&lt;Group&gt;">
							<g id="&lt;Group&gt;">
								<path id="&lt;Path&gt;" class="s0" d="m1753 2105.6c-2.7 29.4-7.1 58.5-13.4 87.1-8.7 40.3-20.9 79.8-36.4 117.9-66.9 165.5-195.2 306.4-370.6 385.7-175.9 79.6-366.8 82.6-535.5 23.3-37.1-13.1-73.1-29.1-107.6-48-27-14.8-53.1-31.4-78.2-49.6 176.6-44.4 380.7-116.1 592-211.6 211.2-95.5 399.8-201.5 549.7-304.8z"/>
							</g>
						</g>
						<g id="&lt;Group&gt;">
							<g id="&lt;Group&gt;">
								<path id="&lt;Path&gt;" class="s1" d="m1203.3 2410.4c211.2-95.5 399.8-201.5 549.7-304.8-2.7 29.4-7.1 58.5-13.4 87.1-115.4 83.9-299.8 187.4-514.6 284.5-205.6 93.1-397.4 161.3-535.5 194.4-27-14.8-53.1-31.4-78.2-49.6 176.6-44.4 380.7-116.1 592-211.6z"/>
							</g>
						</g>
						<g id="&lt;Group&gt;">
							<g id="&lt;Group&gt;">
								<path id="&lt;Path&gt;" class="s0" d="m1723.8 1827.6c-117.1 94.7-348.4 227.3-624.8 352.3-276.3 124.9-528.7 211.1-677.2 236.5q-23.1-37.9-41.9-79.4c-0.6-1.3-1.2-2.5-1.8-3.9-5.4-12.2-10.5-24.4-15.2-36.8-11-28.9-20.1-58.1-27.2-87.5-0.3-1.2-0.5-2.4-0.8-3.6-10.3-43.6-16.4-87.7-18.4-131.5-3.9-83.5 7-166.2 31.1-244.7 8.3-27 18.2-53.5 29.6-79.4 13.2-30.1 28.6-59.3 45.9-87.4 14.8-24.1 31.1-47.4 48.8-69.6q0 0 0 0c6.9-8.8 14.1-17.5 21.5-26 65.8-75.4 148.6-138.4 245.8-182.3 13.5-6.1 27.1-11.7 40.7-17 183.1-69.8 379.1-59.8 547.4 14.6 1.1 0.5 2.1 0.9 3.2 1.5 15.8 7 31.3 14.7 46.6 22.9 55.3 29.7 106.9 66.7 153.3 110.4 28.9 27.3 55.8 57.2 80.2 89.7 2.6 3.4 5.2 7 7.9 10.6 2.1 2.9 4.2 5.8 6.3 8.8 17.4 24.8 33.4 50.8 47.7 78.2 5.4 10.2 10.5 20.5 15.5 31 1.3 2.8 2.6 5.7 3.9 8.6 12.5 27.7 23.1 55.7 31.9 84z"/>
							</g>
						</g>
						<g id="&lt;Group&gt;">
							<g id="&lt;Group&gt;">
								<path id="&lt;Path&gt;" class="s1" d="m1687.9 1735q2.1 4.3 4 8.6c12.5 27.7 23.2 55.7 31.9 84-117.1 94.7-348.4 227.3-624.8 352.3-276.3 124.9-528.7 211.1-677.2 236.5-15.4-25.2-29.4-51.7-41.9-79.4q-0.9-1.9-1.8-3.9c140.8-15.5 397.7-98.9 679.4-226.3 292.8-132.4 532.3-276.2 630.4-371.8z"/>
							</g>
						</g>
						<g id="&lt;Group&gt;">
							<g id="&lt;Group&gt;">
								<path id="&lt;Path&gt;" class="s1" d="m326.2 2090.4q-5.6 0-10.6-0.2l1.7-33c99.3 5.1 357.4-76.7 627.8-199 284.9-128.8 525.1-276.1 571.3-350.2l28 17.4c-50 80.4-290.8 229.6-585.7 362.9-270.2 122.2-521 202.1-632.5 202.1z"/>
							</g>
						</g>
						<g id="&lt;Group&gt;">
							<g id="&lt;Group&gt;">
								<path id="&lt;Path&gt;" class="s1" d="m350 1845.3l-4.8-32.6c111-16.5 303.1-82.5 501.4-172.2 207.8-93.9 387.8-197.8 469.7-270.9l22 24.6c-84.2 75.3-267.4 181.2-478.1 276.4-200.8 90.9-396.3 157.8-510.2 174.7z"/>
							</g>
						</g>
						<g id="&lt;Group&gt;">
							<g id="&lt;Group&gt;">
								<path id="&lt;Path&gt;" class="s1" d="m336 2221.8q-0.6 0-1.2 0l0.2-33.1q0.5 0 1.1 0c114.2 0 379.9-85.5 662.1-213.1 297-134.3 546.6-285.8 606.9-368.4l26.7 19.5c-64.3 88.1-313.5 240.4-620 379-286.1 129.4-557.3 216.1-675.8 216.1z"/>
							</g>
						</g>
						<g id="&lt;Group&gt;">
							<g id="&lt;Group&gt;">
								<path id="&lt;Path&gt;" class="s1" d="m797.7 2727.8l-0.6-8.2-3.1-7.7 1.2-0.5 1.3-0.1c97.8-7 284-67.2 474.3-153.2 191.3-86.6 354.8-183.7 426.7-253.4l11.5 11.8c-73.1 71-238.4 169.3-431.4 256.6-194.9 88.1-378.8 147.4-479.9 154.7z"/>
							</g>
						</g>
						<g id="&lt;Group&gt;">
							<g id="&lt;Group&gt;">
								<path id="&lt;Compound Path&gt;" fill-rule="evenodd" class="s2" d="m1036.3 2776.1c-153.6 0-306.3-47.9-434.4-141.2l-27.6-20.1 33.1-8.3c182-45.8 385.8-118.6 589.3-210.7 203.4-92 392.7-196.9 547.3-303.4l28.1-19.3-3.1 34c-24.2 263.5-188.9 494.9-429.8 603.8-96.6 43.7-200 65.2-302.9 65.2zm-387.1-147.4c200.7 131.7 456.9 152.5 676.8 53.1 219.9-99.5 373.4-305.6 407.1-543.3-150.5 100.7-330.6 199.4-523.2 286.5-192.7 87.1-385.7 157.2-560.7 203.7z"/>
							</g>
						</g>
						<g id="&lt;Group&gt;">
							<g id="&lt;Group&gt;">
								<path id="&lt;Path&gt;" class="s3" d="m2106.2 1668.2c43.4 96.1-99.9 263-353.2 437.4-149.9 103.3-338.5 209.3-549.7 304.8-211.3 95.5-415.4 167.2-592 211.6-298.3 75-518.1 72.4-561.6-23.7-39.5-87.3 75-232.8 286-389.5 7.1 29.4 16.2 58.6 27.2 87.5-58.3 47.7-87 85.6-77.1 107.6 10.2 22.5 59.2 25.6 136 12.5 148.5-25.4 400.9-111.6 677.2-236.5 276.4-125 507.7-257.6 624.8-352.3 60.6-49 90.6-87.9 80.4-110.4-9.9-22-57.3-25.5-131.7-13.2-14.4-27.4-30.3-53.4-47.7-78.2 257-55 441.9-44.8 481.4 42.4z"/>
							</g>
						</g>
						<g id="&lt;Group&gt;">
							<g id="&lt;Group&gt;">
								<path id="&lt;Path&gt;" class="s4" d="m319.6 2492c-54.7 0-96.3-11.3-110-41.5-19.6-43.3 25.7-109 134.5-195.3l15.4 19.4c-93.2 73.9-140.8 135.9-127.3 165.7 16.1 35.7 134.5 47.2 415.2-37.7 144-43.5 306.8-105.8 470.9-180 164.1-74.2 318.4-155.4 446.2-234.8 249.1-154.7 318.6-251.2 302.5-286.9-13.5-29.8-91.4-34.9-208.4-13.8l-4.5-24.4c136.7-24.7 215.9-15.3 235.5 28 38.2 84.5-179.1 235.6-312 318.2-128.8 79.9-284 161.6-449.1 236.3-165 74.6-328.9 137.3-474 181.2-96.2 29.1-236.7 65.6-334.9 65.6z"/>
							</g>
						</g>
						<g id="&lt;Group&gt;">
							<g id="&lt;Group&gt;">
								<path id="&lt;Path&gt;" class="s4" d="m281.9 2589.1c-89 0-145.8-20.5-164.3-61.4-38.4-84.8 97.1-211.4 217.5-302.7l15 19.7c-155.4 117.9-233.9 219.8-209.9 272.8 30.2 66.7 215.6 62.4 483.8-11.4 164.1-45 348.6-113.1 533.6-196.8 184.9-83.6 357.9-177.2 500.1-270.6 232.5-152.8 358.2-289.2 328-355.9-23.9-52.9-152.3-61.3-343.4-22.5l-4.9-24.3c148-30.1 332.6-48.2 370.9 36.6 36.7 81-86.2 222-337 386.8-143.3 94.1-317.4 188.4-503.5 272.5-186.2 84.2-371.9 152.7-537.2 198.1-143.3 39.4-261.4 59.1-348.7 59.1z"/>
							</g>
						</g>
						<g id="&lt;Group&gt;">
							<g id="&lt;Group&gt;">
								<path id="&lt;Compound Path&gt;" fill-rule="evenodd" class="s2" d="m259 2690.8c-120.3 0-198.1-28.8-223.9-85.9-42.1-93.1 61.3-238.3 291.1-408.9l19.4-14.4 5.7 23.4c7 29 15.9 57.8 26.6 85.6l4.1 10.8-9 7.3c-81.3 66.5-73 87.8-72.6 88.6 0.4 0.9 11.2 21.7 118.8 3.3 151.6-25.9 409.6-116.1 673.2-235.3 263.7-119.2 501.7-253.4 621.4-350.2 84.8-68.6 76.3-90.4 75.9-91.3-0.4-0.9-10.9-21.1-114.5-4l-11.4 1.9-5.4-10.2c-13.9-26.4-29.6-52.1-46.7-76.5l-13.9-19.8 23.6-5c279.9-59.9 457.3-41.6 499.4 51.4 46 101.9-84.7 268.5-358.7 457.2-156.1 107.5-347.1 213.4-552.2 306.2-205.2 92.8-410.9 166.3-594.7 212.5-141.7 35.6-262 53.3-356.2 53.3zm67.2-454.8c-197.4 150.1-295.1 282.4-261.9 355.7 37.9 83.8 246 89.5 543.1 14.8 182-45.8 385.8-118.6 589.3-210.7 203.4-92 392.7-196.9 547.3-303.4 252.3-173.7 385.5-333.7 347.6-417.6-33.2-73.3-197-87.3-440.2-38.2 10.6 16.2 20.6 32.9 29.9 49.8 80.8-12.1 124.6-4.3 137.5 24.2 13.7 30.3-13.3 71.4-84.9 129.4-123.4 99.9-358.3 232.3-628.3 354.5-270 122.1-524.6 210.9-681.1 237.7-90.8 15.5-139.5 8.6-153.2-21.7-12.9-28.5 10.2-66.6 72.7-119.2-6.7-18.2-12.6-36.7-17.8-55.3z"/>
							</g>
						</g>
						<g id="&lt;Group&gt;" style="opacity: .3">
							<g id="&lt;Group&gt;">
								<path id="&lt;Path&gt;" class="s2" d="m1753 2105.6c-2.7 29.4-7.1 58.5-13.4 87.1-8.7 40.3-20.9 79.8-36.4 117.9-66.9 165.5-195.2 306.4-370.6 385.7-175.9 79.6-366.8 82.6-535.5 23.3-37.1-13.1-73.1-29.1-107.6-48-27-14.8-53.1-31.4-78.2-49.6 176.6-44.4 380.7-116.1 592-211.6 211.2-95.5 399.8-201.5 549.7-304.8z"/>
							</g>
						</g>
						<g id="&lt;Group&gt;" style="opacity: .4">
							<g id="&lt;Group&gt;">
								<g id="&lt;Group&gt;">
									<path id="&lt;Path&gt;" class="s5" d="m1723.8 1827.6q-20.4 16.5-45.4 34.5c-6.7-18.9-14.3-37.8-22.7-56.4q-2-4.3-4-8.6-7.3-15.8-15.4-31c-14.4-27.4-30.4-53.5-47.7-78.2-2.1-3-4.2-5.9-6.4-8.8-26.4-36.5-56-70.1-88.1-100.3-59.9-56.6-128.8-102-203-134.8-180.9-80-393.8-85.5-588.1 2.4-129.8 58.7-233.7 151.1-306.2 262.2 71.9-138.6 189.1-255 342.4-324.3 194.4-87.9 407.3-82.4 588.1-2.4 74.2 32.8 143.1 78.2 203.1 134.8 32.1 30.3 61.6 63.7 88.1 100.2 2.1 3 4.2 6 6.3 8.9 17.4 24.8 33.3 50.8 47.7 78.2q8.1 15.3 15.4 31c1.4 2.9 2.7 5.7 4 8.6 12.5 27.7 23.1 55.7 31.9 84z"/>
								</g>
							</g>
						</g>
						<g id="&lt;Group&gt;">
							<g id="&lt;Group&gt;">
								<path id="&lt;Compound Path&gt;" fill-rule="evenodd" class="s2" d="m413.9 2434l-5.7-9.2c-15.8-25.9-30.3-53.2-42.9-81.2-6.2-13.7-12.1-27.7-17.3-41.6-11.2-29.1-20.5-59.2-27.8-89.4-82.9-342.8 90.5-697.3 412.4-842.9 321.9-145.6 702.6-41.7 905.3 246.9 17.9 25.5 34.3 52.4 48.8 80 6.9 13.1 13.6 26.7 19.8 40.4 12.7 28 23.6 56.9 32.6 85.8l3.2 10.4-8.4 6.8c-123.4 99.9-358.3 232.3-628.3 354.5-270 122.1-524.6 210.9-681.1 237.7zm621.8-1097.7c-97.6 0-196.3 20.2-289.8 62.6-307.9 139.2-473.8 478.2-394.5 806.1 7 28.9 15.9 57.7 26.6 85.6 5 13.3 10.6 26.7 16.5 39.8 10.6 23.4 22.5 46.4 35.5 68.3 152.9-28.2 405-117 662.5-233.4 257.5-116.5 490.7-247.2 612.8-343.4-7.9-24.2-17.3-48.3-27.9-71.7-5.9-13.1-12.3-26.2-18.9-38.7-13.9-26.4-29.6-52.2-46.7-76.5-135-192.2-352.5-298.7-576.1-298.7z"/>
							</g>
						</g>
						<g id="&lt;Group&gt;" style="opacity: .3">
							<g id="&lt;Group&gt;">
								<g id="&lt;Group&gt;">
									<path id="&lt;Path&gt;" class="s2" d="m2100.3 1764.4c-39.7 94.2-165 215.8-347.3 341.2-149.9 103.3-338.5 209.3-549.7 304.8-211.3 95.5-415.4 167.2-592 211.6-298.3 75-518.1 72.4-561.6-23.7-26.4-58.3 16-142.7 110.1-239-15.6 36.7-18.1 69.2-5.9 96.2 43.5 96.1 263.4 98.7 561.7 23.7 176.6-44.4 380.7-116.1 591.9-211.6 211.2-95.6 399.8-201.5 549.8-304.8 99.6-68.6 182.1-136 243-198.4z"/>
								</g>
							</g>
						</g>
					</g>
					<g id="&lt;Group&gt;">
						<g id="&lt;Group&gt;">
							<path id="&lt;Path&gt;" class="s5" d="m996.8 1353c156.9 12 432.2 12.4 456-142.3 3.1-20.3 4.8-42.4 5.3-65.7 3.6-154.5-46.4-360.3-107.8-410.7-35-28.7-100.2-37.4-171.8-30.5-142.3 13.6-309.8 88.1-316.2 186.9-6.3 95.1-22.4 450.4 134.5 462.3z"/>
						</g>
					</g>
					<g id="&lt;Group&gt;" style="opacity: .3">
						<g id="&lt;Group&gt;">
							<path id="&lt;Path&gt;" class="s2" d="m996.8 1353c156.9 12 432.2 12.4 456-142.3 3.1-20.3 4.8-42.4 5.3-65.7-44.9 32.2-104-0.8-109.5-42.8-33.7-259.5-125.2-362.6-170.1-398.4-142.3 13.6-309.8 88.1-316.2 186.9-6.3 95.1-22.4 450.4 134.5 462.3z"/>
						</g>
					</g>
					<g id="&lt;Group&gt;">
						<g id="&lt;Group&gt;">
							<path id="&lt;Compound Path&gt;" fill-rule="evenodd" class="s2" d="m1113.8 1373.8c-39.8 0-79.8-1.9-118.2-4.8-156.5-11.9-160.7-305.4-149.3-479.3 3.9-59.9 57.9-115.3 152-156.1 118.4-51.4 290.6-70.4 362.2-11.7 80.8 66.4 131 341.7 108.1 491.2-19.5 127-185 160.7-354.8 160.7zm108.9-656.5c-64.6 0-142.4 15.6-211.7 45.7-81.3 35.2-129.7 82.2-132.8 128.8-6.7 101.8-17.8 434.8 119.8 445.3 154.7 11.8 417.5 10.7 438.9-128.8 22.9-149.1-31.3-408-96.7-461.6-24.1-19.8-66.7-29.4-117.5-29.4z"/>
						</g>
					</g>
					<g id="&lt;Group&gt;">
						<g id="&lt;Group&gt;">
							<path id="&lt;Path&gt;" class="s5" d="m1323.4 994.4l71-24.7c16-5.6 33.4 4.1 36.9 20.7 12.2 57.2 29.6 175.3-28.3 196.8-70.2 26-91.1-54.5-98.5-164.3-0.8-12.6 7-24.3 18.9-28.5z"/>
						</g>
					</g>
					<g id="&lt;Group&gt;" style="opacity: .3">
						<g id="&lt;Group&gt;">
							<path id="&lt;Path&gt;" class="s2" d="m1304.7 1022.7c7 109.8 27.8 190.5 98.1 164.6 28.8-10.6 39-45.3 40.5-84.4-6.2 10.9-14.8 19.2-26.6 23.6-62.9 23.1-86.1-39.1-95.3-131.2-10.7 4.6-17.5 15.6-16.7 27.4z"/>
						</g>
					</g>
					<g id="&lt;Group&gt;">
						<g id="&lt;Group&gt;">
							<path id="&lt;Compound Path&gt;" fill-rule="evenodd" class="s2" d="m1378.1 1208.2c-12.2 0-23.3-3.3-33.3-9.8-32.8-21.4-49.6-73.6-56.1-174.6-1.3-19.8 10.9-38.1 29.7-44.6l71-24.6c12-4.1 25.3-2.9 36.3 3.3 11.1 6.3 18.9 17 21.5 29.4 17.9 84.9 25.6 191.2-38.9 215q-16 5.9-30.2 5.9zm25.8-224c-1.2 0-2.6 0.2-4 0.7l-71 24.6c-5.2 1.8-8.6 6.8-8.3 12.2 2.1 31.7 8.3 128.2 41.6 149.8 9 5.9 20.4 6.1 35 0.8 38.5-14.2 34.9-101.5 18.7-178.4-1-4.7-4.2-7.1-5.9-8.1-1.3-0.7-3.4-1.6-6.1-1.6zm-80.3 10.1h0.1z"/>
						</g>
					</g>
					<g id="&lt;Group&gt;">
						<g id="&lt;Group&gt;">
							<path id="&lt;Path&gt;" class="s2" d="m1370.8 765.1c-7.9 4.3-16.4 7.3-24.9 9.9-8.5 2.6-17.3 4.5-26.2 6.3-8.8 1.9-17.7 3.6-26.7 5-9 1.4-18.1 2.8-27.5 3.5-1.2 0.1-2.3-0.8-2.4-2 0-0.8 0.3-1.5 0.8-2 7.3-6 15-11.2 22.8-16.2 7.8-4.8 15.7-9.4 23.8-13.7 8.1-4.2 16.2-8.4 24.7-11.7 8.4-3.3 17-6.1 26.2-7.6 8.2-1.3 16 4.4 17.3 12.7 1 6.5-2.2 12.8-7.7 15.7z"/>
						</g>
					</g>
					<g id="&lt;Group&gt;">
						<g id="&lt;Group&gt;">
							<path id="&lt;Path&gt;" class="s5" d="m1084.2 1286.7l-57.8-17.6c-65.3-19.9-136.3-16.6-198.2 11.8-21.4 9.8-42.2 22.7-59.3 39.7-62.7 62.2-64.5 187-21.9 237.6 16.8 19.9 34.8 42.1 34.8 42.1-11.9 17.1-94 155.6-27.9 210.7 57.8 48.3 164.7 40.4 220.9-35.5 37.2-50.2 44.8-108 42.7-152.3-2.5-51.7-28.8-121.5 14-139.7 63.8-27.1 121.7-12.1 214-82.6 107.9-82.5 124.8-260.3 76.9-410.5-34.5-108.1-244.5-312.8-244.5-312.8l66.3 607.8z"/>
						</g>
					</g>
					<g id="&lt;Group&gt;">
						<g id="&lt;Group&gt;">
							<path id="&lt;Path&gt;" class="s5" d="m758.3 1020.4l-211.2 192.4-2.2-3.6-90.5-145.7c106.8-45.5 173.3-180.8 173.3-180.8l8.5 8.9z"/>
						</g>
					</g>
					<g id="&lt;Group&gt;" style="opacity: .3">
						<g id="&lt;Group&gt;">
							<path id="&lt;Path&gt;" class="s2" d="m758.3 1020.4l-211.2 192.4-2.2-3.6c60.9-93.6 84.4-257.3 91.3-317.6z"/>
						</g>
					</g>
					<g id="&lt;Group&gt;">
						<g id="&lt;Group&gt;">
							<path id="&lt;Compound Path&gt;" fill-rule="evenodd" class="s2" d="m543.6 1237.5l-112.7-181.4 17.2-7.3c100.2-42.7 164.6-171.9 165.2-173.2l10.2-20.6 157.6 166.3zm-66.2-167.3l73.1 117.7 185-168.3-104.2-110c-21.9 37.9-76 119.8-153.9 160.6z"/>
						</g>
					</g>
					<g id="&lt;Group&gt;">
						<g id="&lt;Group&gt;">
							<path id="&lt;Path&gt;" class="s5" d="m519.3 1043.1c0 0-126.6-113.8-207.2-144.4l-22.6 52.9 169.1 166.5z"/>
						</g>
					</g>
					<g id="&lt;Group&gt;">
						<g id="&lt;Group&gt;">
							<path id="&lt;Compound Path&gt;" fill-rule="evenodd" class="s2" d="m458.6 1134.1c-4.2 0-8.2-1.6-11.2-4.6l-169.1-166.5c-4.7-4.6-6.1-11.6-3.5-17.7l22.6-52.8c3.3-7.9 12.3-11.8 20.3-8.7 82.5 31.2 207.1 142.7 212.3 147.4 6.3 5.7 7.1 15.4 1.7 22l-60.7 75c-2.8 3.5-7 5.6-11.5 5.9q-0.4 0-0.9 0zm-150.1-186.2l148.8 146.4 39.9-49.3c-30.2-26.1-114.2-96.2-176.7-125.3z"/>
						</g>
					</g>
					<g id="&lt;Group&gt;">
						<g id="&lt;Group&gt;">
							<path id="&lt;Path&gt;" class="s5" d="m643.3 733.1c63.6 253.6-11.7 485.6-11.7 485.6-246.2 88.4-111.9 331.2-111.9 331.2 0 0-169.7 98.2-89.7 196.4 69.7 85.5 303.8-12.7 315.1-137.4 0 0-40.2-126.6 22.2-170"/>
						</g>
					</g>
					<g id="&lt;Group&gt;" style="opacity: .3">
						<g id="&lt;Group&gt;">
							<path id="&lt;Path&gt;" class="s2" d="m1723.8 1827.6c-266.7 219.6-1028.9 549.6-1302 588.8-143-227.2-140.6-539 9.2-766.7q4-6.3 8.3-12.6c10.3-15.2 21.1-30.1 32.6-44.5q0 0 0 0c16.1-10 27.6-15.7 27.6-15.7 0 0-2.4-3.7-6.1-10.3 65.8-75.4 148.6-138.4 245.8-182.3 13.5-6.1 27.1-11.7 40.7-17 183.1-69.8 379.1-59.8 547.4 14.6 1.1 0.5 2.1 0.9 3.2 1.5 15.8 7 31.3 14.7 46.6 22.9q-13.2 11.7-28.3 21.7c-108 70.5-175.8 55.4-250.4 82.6-25.6 9.3-30.1 32-28 59-3 30.2 9.7 70.6 11.6 103.7 0 0.7 0 1.3 0 1.9-1.9 39.8-14.2 86.2-50 127.3-63.5 73.3-182.2 83.2-251.3 40.3q-3.7-2.2-7.2-4.8c-18-12.7-26.6-30-29.1-49.2 5.4-49.5 37.4-103.8 53.8-128 3.6-5.2 6.4-9 8-11 0 0-3.6-3.9-9.2-9.9-4.3-4.5-9.7-10.3-15.6-16.6-5.2-5.4-10.6-11.1-16-16.7-5.3-5.5-10.1-12-14.2-19.1 4.3 27.6 12.1 48.4 12.1 48.4-13 122.2-259.2 269.2-363.7 165.9-3.8 260.9 267.6 475.4 539.7 366 290.2-116.7 613.8-277.4 767.5-388.7q9.5 24.1 17 48.5z"/>
						</g>
					</g>
					<g id="&lt;Group&gt;">
						<g id="&lt;Group&gt;">
							<path id="&lt;Path&gt;" class="s5" d="m1347.8 1157.6c-1.4 98.6-33.2 190.5-102.3 243.3-92.3 70.5-150.2 55.5-214 82.6-21.9 9.3-25.7 32.1-23.9 59.1-2.6 30.1 8.3 70.5 9.9 103.7 0 0.6 0 1.3 0.1 1.9-1.7 39.7-12.2 86.1-42.8 127.3-54.3 73.2-155.7 83.1-214.7 40.3q-3.2-2.3-6.2-4.8c-15.4-12.8-22.7-30.1-24.8-49.3 4.5-49.5 31.9-103.7 45.9-127.9 3-5.2 5.4-9 6.8-11.1 0 0-3-3.9-7.8-9.8-3.7-4.6-8.3-10.3-13.4-16.6-4.4-5.4-9-11.1-13.6-16.7-4.6-5.6-8.6-12-12.2-19.2 3.7 27.6 10.4 48.4 10.4 48.4-11.4 124.8-245.5 223-315.2 137.5-12.7-15.5-19.1-31.1-20.9-46.2-9.7-80.6 110.7-150.2 110.7-150.2 0 0-67-121-19.8-223.3 19.7-42.6 59.2-81.9 131.6-107.9 0 0 17.8-54.9 28.8-140.4 2.8-21.9 5.2-45.8 6.7-71.3 2.8-47.9 2.6-101.4-3.4-158l414.2-171.4q0 0 0.6 0.6 0.3 0.3 0.8 0.8l0.9 0.9q0.6 0.6 1.3 1.3c2.1 2.1 5.1 5.2 8.9 9.1 17.7 18.2 52.2 54.4 89.5 97.5 58.8 67.8 124.5 152.4 142.5 210.2 5.2 16.5 9.6 33.4 13.2 50.4 7.7 36.1 11.8 73 12.2 109.2z"/>
						</g>
					</g>
					<g id="&lt;Group&gt;">
						<g id="&lt;Group&gt;">
							<path id="&lt;Path&gt;" class="s2" d="m737.7 1461c-5.1 0-9.8-3.2-11.4-8.3-43.3-136.9-223.4-113.1-225.2-112.9-6.6 1-12.6-3.6-13.5-10.2-1-6.5 3.6-12.6 10.2-13.5 2-0.3 202-26.6 251.3 129.3 2 6.3-1.5 13.1-7.8 15.1q-1.8 0.5-3.6 0.5z"/>
						</g>
					</g>
					<g id="&lt;Group&gt;">
						<g id="&lt;Group&gt;">
							<path id="&lt;Path&gt;" class="s5" d="m663.7 849.1l-20.4-116c9.9 39.4 16.4 78.4 20.4 116z"/>
						</g>
					</g>
					<g id="&lt;Group&gt;">
						<g id="&lt;Group&gt;">
							<path id="&lt;Compound Path&gt;" fill-rule="evenodd" class="s2" d="m512 1794.5c-40.6 0-73.9-13-94.4-38.1-21-25.7-28.8-53.8-23.4-83.4 11.1-60.8 76.6-110.2 104.8-128.9-15.8-34.1-51-126-18.8-211.6 21.4-56.6 67.9-99 138.4-126 11.7-41 64.7-248.2 9.2-469.5-2.2-8.6 3-17.3 11.6-19.4 8.6-2.1 17.3 3.1 19.4 11.6 64 255.1-8.8 484.8-11.9 494.4l-2.5 7.5-7.4 2.6c-65.4 23.6-108.1 60.5-126.8 110-34.5 91.3 23 197.4 23.5 198.5l7.6 13.7-13.5 7.9c-0.9 0.5-90.9 53.3-102.1 115-3.7 20.3 1.7 39 16.7 57.4 22.7 27.9 73.3 34 131.9 16.1 71.3-21.8 146.6-77.3 154.6-141.9-6.4-21.8-36.7-138.8 29.3-184.6 7.2-5.1 17.2-3.3 22.2 4 5.1 7.2 3.3 17.2-4 22.3-43.1 29.9-26.2 119.8-16 151.9l1 3.1-0.3 3.2c-7.6 83.6-97.3 148.1-177.5 172.6-25.4 7.8-49.6 11.6-71.6 11.6zm119.6-575.8h0.1z"/>
						</g>
					</g>
					<g id="&lt;Group&gt;">
						<g id="&lt;Group&gt;">
							<path id="&lt;Path&gt;" class="s5" d="m1096.4 1234.8l-47.9 40.6-509.3-232.2c0 0 34.6-20.4 128.5-48 62.7-18.5 151.8-40.2 274.7-61.4l26.9 52.4z"/>
						</g>
					</g>
					<g id="&lt;Group&gt;">
						<g id="&lt;Group&gt;">
							<path id="&lt;Compound Path&gt;" fill-rule="evenodd" class="s2" d="m1051.1 1294.2l-546.5-249.3 26.6-15.6c4-2.3 102.2-58.5 408.5-111.3l11.6-2 165.1 322.8zm-473.5-251.2l468.2 213.6 30.5-25.8-142.8-279.3c-201 35.4-308.6 72.1-355.9 91.5z"/>
						</g>
					</g>
					<g id="&lt;Group&gt;">
						<g id="&lt;Group&gt;">
							<path id="&lt;Path&gt;" class="s5" d=""/>
						</g>
					</g>
					<g id="&lt;Group&gt;">
						<g id="&lt;Group&gt;">
							<path id="&lt;Path&gt;" class="s6" d=""/>
						</g>
					</g>
					<g id="&lt;Group&gt;">
						<g id="&lt;Group&gt;">
							<path id="&lt;Path&gt;" class="s7" d="m706.9 1362.1l351.7-89.2-145.6-286.2-351.8 76.8z"/>
						</g>
					</g>
					<g id="&lt;Group&gt;">
						<g id="&lt;Group&gt;">
							<path id="&lt;Path&gt;" class="s7" d="m706.9 1362.1l351.7-89.2-145.6-286.2-351.8 76.8z"/>
						</g>
					</g>
					<g id="&lt;Group&gt;" style="opacity: .3">
						<g id="&lt;Group&gt;">
							<path id="&lt;Path&gt;" class="s2" d="m1042.6 1312.9l-269.9 68.4c-3.2 62.3-8.7 168.6-12.1 215-4.4-5.4-9-11.1-13.6-16.7-4.6-5.6-8.6-12-12.2-19.2 3.7 27.6 10.4 48.4 10.4 48.4-11.4 124.8-245.5 223-315.2 137.5-12.7-15.5-19.1-31.1-20.9-46.2 56 80.6 216.1 4.7 244.1-20.9 30.4-27.7 34.5-42.6 15.4-147.4-10.3-56.6 3.9-99.4 25-130.4l-2.7 0.6h-53.2l-114.5-41-23.2-34.4c19.7-42.6 59.2-81.9 131.6-107.9 0 0 17.8-54.9 28.8-140.4l236.6-51.6z"/>
						</g>
					</g>
					<g id="&lt;Group&gt;">
						<g id="&lt;Group&gt;">
							<path id="&lt;Path&gt;" class="s8" d="m1058.6 1272.9l-351.7 89.1-9.7-19.8-136-278.7 351.8-76.8 33.4 65.7z"/>
						</g>
					</g>
					<g id="&lt;Group&gt;" style="opacity: .7">
						<g id="&lt;Group&gt;">
							<path id="&lt;Path&gt;" class="s5" d="m612.4 1112.2l103.4 247.6-8.9 2.2-9.7-19.8-136-278.7 351.8-76.8 5.9 11.7-288.8 77.6c-15.6 4.2-24 21.2-17.7 36.2z"/>
						</g>
					</g>
					<g id="&lt;Group&gt;" style="opacity: .3">
						<g id="&lt;Group&gt;">
							<path id="&lt;Path&gt;" class="s2" d="m1058.6 1272.9l-351.7 89.1-9.7-19.8c6.1-80.4 172.3-121.6 172.3-121.6-28.6-101.5 48.9-153.1 76.9-168.2z"/>
						</g>
					</g>
					<g id="&lt;Group&gt;">
						<g id="&lt;Group&gt;">
							<path id="&lt;Compound Path&gt;" fill-rule="evenodd" class="s2" d="m706.9 1377.1c-5.6 0-10.9-3.2-13.5-8.5l-145.6-298.5c-2.1-4.2-2.1-9-0.1-13.2 2-4.1 5.8-7.1 10.3-8.1l351.8-76.8c6.6-1.4 13.4 1.8 16.5 7.9l145.7 286.2c2.1 4 2.2 8.8 0.3 13-1.9 4.1-5.6 7.2-10 8.3l-351.7 89.2q-1.9 0.5-3.7 0.5zm-123.8-303l131.9 270.4 321.7-81.6-131.9-259.1z"/>
						</g>
					</g>
					<g id="&lt;Group&gt;">
						<g id="&lt;Group&gt;">
							<path id="&lt;Path&gt;" class="s8" d="m561.2 1063.5l-67 0.5 159.5 298.1h53.2z"/>
						</g>
					</g>
					<g id="&lt;Group&gt;" style="opacity: .7">
						<g id="&lt;Group&gt;">
							<path id="&lt;Path&gt;" class="s5" d="m575.3 1092.3l-65.7 0.5-15.4-28.8 67-0.5z"/>
						</g>
					</g>
					<g id="&lt;Group&gt;">
						<g id="&lt;Group&gt;">
							<path id="&lt;Compound Path&gt;" fill-rule="evenodd" class="s2" d="m706.9 1377.1h-53.2c-5.5 0-10.6-3.1-13.2-8l-159.6-298c-2.4-4.7-2.3-10.2 0.4-14.8 2.6-4.5 7.5-7.3 12.7-7.3l67.1-0.5c5.6 0 11.1 3.2 13.6 8.4l145.7 298.6c2.3 4.6 2 10.1-0.8 14.5-2.7 4.4-7.5 7.1-12.7 7.1zm-44.2-30h20.2l-131-268.6-32.8 0.3z"/>
						</g>
					</g>
					<g id="&lt;Group&gt;">
						<g id="&lt;Group&gt;">
							<path id="&lt;Path&gt;" class="s8" d="m653.7 1362l-114.5-41-46.3-68.6-28.4-42-73-107.9-102-150.9 204.7 112.4 158.5 296.1z"/>
						</g>
					</g>
					<g id="&lt;Group&gt;" style="opacity: .7">
						<g id="&lt;Group&gt;">
							<path id="&lt;Path&gt;" class="s5" d="m653.7 1362l-21.1-7.5-155.7-270.6-161.4-93.9-26-38.4 204.7 112.4 158.5 296.1z"/>
						</g>
					</g>
					<g id="&lt;Group&gt;">
						<g id="&lt;Group&gt;">
							<path id="&lt;Compound Path&gt;" fill-rule="evenodd" class="s2" d="m653.7 1377.1c-1.7 0-3.4-0.3-5.1-0.9l-114.4-41.1c-3-1.1-5.6-3.1-7.4-5.7l-249.7-369.4c-3.9-5.7-3.3-13.4 1.3-18.5 4.7-5.1 12.3-6.4 18.4-3l204.6 112.3c2.5 1.4 4.6 3.6 6 6.1l159.5 298.1c3 5.5 2.2 12.2-1.8 16.9-2.9 3.3-7.1 5.2-11.4 5.2zm-104.8-68.6l73.2 26.3-139.1-259.8-146.3-80.3z"/>
						</g>
					</g>
					<g id="&lt;Group&gt;">
						<g id="&lt;Group&gt;">
							<path id="&lt;Path&gt;" class="s2" d="m494.2 1064c0 0 1.1-37.2 31.4-41.5 25-3.6 42.6 39.4 42.6 39.4z"/>
						</g>
					</g>
					<g id="&lt;Group&gt;">
						<g id="&lt;Group&gt;">
							<path id="&lt;Path&gt;" class="s5" d="m1347.8 1154.7c0 1 0 1.9 0 2.9-1.4 98.6-33.2 190.5-102.3 243.3-92.3 70.5-150.2 55.5-214 82.6-21.9 9.3-25.7 32.1-23.9 59.1 1.8 25.8 8.6 55.4 9.9 80.6 0.3 8 0.4 16.3 0.1 25-1.7 39.7-12.2 86.1-42.8 127.3-56.2 75.9-163 83.8-220.9 35.5-15.4-12.8-22.7-30.1-24.8-49.3-0.1-0.6-0.1-1.3-0.2-1.9-4.7-52.4 28.3-118.3 45.1-146.9 3.5-6 6.3-10.4 7.8-12.7 0 0-18-22.1-34.8-42-42.6-50.6-40.8-175.4 21.9-237.6 17.1-17 37.9-30 59.3-39.8 33.1-15.1 68.8-23.1 104.7-24.2 31.4-1 63.1 3.2 93.5 12.4l57.8 17.6 60-1.2-29.6-271.7c14.2-14.1 25.5-36.5 23.7-71.5l-7.6-36.8-36.3-175.1-2.6-12.7c0 0 47.8 36.6 101.4 92 52.6 54.2 110.6 126.5 135 200.3q0 0.2 0.1 0.4c3.9 13.7 7.1 27.5 9.8 41.5 6.6 34.2 9.9 69 9.7 102.9z"/>
						</g>
					</g>
					<g id="&lt;Group&gt;" style="opacity: .3">
						<g id="&lt;Group&gt;">
							<path id="&lt;Path&gt;" class="s2" d="m1347.8 1154.7c0 1 0 1.9 0 2.9-1.4 98.6-33.2 190.5-102.3 243.3-92.3 70.5-150.2 55.5-214 82.6-21.9 9.3-25.7 32.1-23.9 59.1 1.8 25.8 8.6 55.4 9.9 80.6 0.3 8 0.4 16.3 0.1 25-1.7 39.7-12.2 86.1-42.8 127.3-56.2 75.9-163 83.8-220.9 35.5-15.4-12.8-22.7-30.1-24.8-49.3-0.1-0.6-0.1-1.3-0.2-1.9 61 51 165.2 68.6 223-38.9 66-123.1-8.9-173.5-10.4-232.4-1.6-59 107.5-44.2 264.4-116.2 93-42.6 128.4-142.9 141.9-217.6z"/>
						</g>
					</g>
					<g id="&lt;Group&gt;">
						<g id="&lt;Group&gt;">
							<path id="&lt;Path&gt;" class="s2" d="m1082.7 1291.8c-13.6-1.8-26.9-4.1-40.2-6.8-6.6-1.3-13.3-2.6-19.8-4.1-6.4-1.2-12.7-2.5-19.1-3.5-25.3-4.1-50.9-5.6-76.2-3.8-25.2 1.9-50.1 7-73.8 15.5-23.7 8.5-46.5 20.1-65.2 35.8-4.7 3.9-9 8.2-12.8 12.7-2 2.2-4.2 4.2-5.9 6.7l-5.3 7.3-2.6 3.7-2.2 4-4.6 7.9c-2.7 5.5-5.2 11.1-7.5 16.8-8.8 23.2-13.1 48.4-13.4 73.5-0.4 25 4.1 50.2 13.6 71.8 2.8 5 5.2 10.4 8.7 14.6l2.4 3.4c0.8 1.1 2.1 2.5 3.1 3.8l6.5 7.8 25.8 31.3 7.6 9.1-6.9 10.1c-2.2 3.2-4.7 7.4-7 11.3q-3.5 6-6.8 12.2c-4.4 8.2-8.6 16.6-12.5 25.1-7.6 17-14.2 34.4-18.7 52-4.3 17.5-6.9 35.5-4.7 51.7 1.1 8.1 3.3 15.6 6.8 22.1 3.6 6.6 8.1 11.9 14.6 16.8 26.6 20.7 63.6 28 98.1 23 34.9-4.7 67.4-22.8 90.2-49.2 2.8-3.4 5.7-6.6 8.3-10.2 2.6-3.7 5.2-7.3 7.5-11.2 4.8-7.5 8.8-15.5 12.6-23.7 7.2-16.4 12.3-33.9 15.2-51.8 3-17.9 3.8-36.3 2.9-54.6-1-17.8-4.6-36.7-7.3-56.4-1.3-9.9-2.5-20-2.8-30.7-0.2-10.7 0.1-22.1 4.2-34.3 2-6 5.1-12.3 9.6-17.8 4.5-5.5 10.3-10 16.4-13.1 1.4-0.7 3.2-1.6 4.4-2l3.6-1.5 7.3-2.8c4.9-1.7 9.9-3.3 14.8-4.8 19.8-5.7 39.3-9.1 57.8-13.2 18.6-3.9 36.3-8.8 53.3-15.6 17-6.7 33.2-15.5 48.8-25.5 7.9-4.9 15.3-10.5 22.9-16 3.7-2.7 7-5.6 10.5-8.4 3.3-3.1 6.7-6 9.9-9.2 25.5-25.4 44.4-57.5 56.5-92.3 12.3-34.8 18.5-72 20-109.5 1.6-37.4-1.5-75.2-8.5-112.2-3.4-18.5-7.9-36.8-13.4-54.8l-2-6.8c-0.7-2.2-1.5-4.1-2.2-6.2-1.4-4.1-3.3-8.3-5.1-12.4-1.8-4.1-3.9-8.2-5.9-12.3l-6.7-12.2c-18.6-32.4-41.5-63.2-65.5-93.1-48.3-59.8-104.7-112.3-147.8-178.4-1.6-2.5-0.9-5.9 1.6-7.5 1.8-1.2 4.1-1.2 5.8-0.1 17.2 10.5 32.5 22.7 47.3 35.6 14.9 12.8 28.7 26.6 42.2 40.7 27.1 28.3 51.4 59 76 89.6 24.4 30.8 48.1 62.4 68.2 97.3l7.3 13.4c2.2 4.6 4.6 9.1 6.7 13.9 2 4.8 4.3 9.4 5.9 14.5 0.9 2.5 1.9 5.1 2.7 7.5l2.2 7.2c5.7 19.1 10.5 38.6 14.2 58.2 7.4 39.3 10.7 79.3 9 119.5-1.7 40-8.2 80.3-21.8 118.7-13.4 38.4-34.6 75-64.2 104.4-3.7 3.7-7.7 7.1-11.5 10.7-4 3.2-8 6.7-12.1 9.7-8.2 5.9-16.2 12.1-24.9 17.4-17 11-35.1 20.8-54.2 28.3-19.1 7.6-39 13.1-58.3 17.2-19.4 4.2-38.2 7.5-55.7 12.6-4.4 1.4-8.7 2.7-12.9 4.2l-6.3 2.4-3.1 1.3c-1.1 0.4-1.4 0.7-2.2 1-5.1 2.7-8.1 6.3-10.3 12.6-2.2 6.3-2.7 14.6-2.5 23.3 0.2 8.7 1.2 17.8 2.5 27.2 2.5 18.7 6.3 38 7.6 59 1 20.5 0 41.1-3.3 61.5-6.6 40.7-23.3 80.5-51 112.7-27.8 32.2-67.6 54.1-109.8 59.9-21 3-42.6 2.4-63.6-2.3-21-4.7-41.3-13.6-58.8-27.2l-3.3-2.5-3.3-3c-2.2-2.1-4.4-4.1-6.3-6.5-1.9-2.3-3.9-4.6-5.5-7.1-1.6-2.6-3.4-5-4.7-7.7-5.7-10.6-8.9-22-10.3-33.2-2.9-22.4 0.5-43.6 5.4-63.6 5.1-20.1 12.3-39.1 20.6-57.4q6.3-13.8 13.4-27.1 3.6-6.6 7.4-13.2c2.6-4.4 5.1-8.6 8.4-13.4l0.7 19.3-25.6-31-6.4-7.7c-1.1-1.4-2.1-2.5-3.3-4.1l-3.5-4.8c-5-6.3-8.2-13.2-11.9-20-2.7-7-6.1-13.9-7.8-21-1-3.6-2.2-7.1-3-10.7l-2.2-10.7c-0.8-3.6-1.3-7.2-1.7-10.8l-1.2-10.8c-0.3-7.2-0.9-14.4-0.7-21.6 0.3-28.7 5.2-57.4 15.5-84.6 2.7-6.7 5.6-13.5 8.8-20l5.3-9.7 2.7-4.8 3.2-4.6 6.4-9.1c2.2-3.1 4.9-5.8 7.3-8.6 2.5-2.8 4.9-5.8 7.6-8.3 2.6-2.6 5.4-5.1 8.1-7.5 22.3-19.4 48-33.3 74.8-43.2 13.4-5 27.3-8.9 41.3-11.7 14.1-2.6 28.3-4.3 42.5-4.9 28.5-0.8 57.1 2.1 84.2 10.2 6.8 1.8 13.5 4.4 20 6.8 6.4 2.4 12.6 5 18.8 7.6 12.5 5.2 24.9 10.6 37.2 16.7 2.6 1.4 3.7 4.6 2.4 7.3-1.1 2.1-3.3 3.2-5.5 3z"/>
						</g>
					</g>
					<g id="&lt;Group&gt;" style="opacity: .3">
						<g id="&lt;Group&gt;">
							<path id="&lt;Path&gt;" class="s2" d="m1339.6 1088.4c-0.9 13.9-3.5 27.6-8.2 41.1-37.2 107.7-167.8 171.5-268.8 171.5-60.7 0-99.8-10.3-129.7-44.4-5.3-6-10.3-12.8-15.1-20.5-35.1-55.9-17.4-130.2 57-165 6-2.9 19.2-4.4 19.2-4.4l-20.8-40.5-6.9-13.5c0 0 9.9 2.2 23.8 5.2 31.4 6.8 83.5 17.5 91 15.3 9.9-2.8 22.5-8.7 33.5-19.5 14.2-14.1 25.5-36.5 23.7-71.5l20.1-38.1-51.3-171-15.3-15.5c0 0 47.8 36.6 101.4 92 52.6 54.2 110.6 126.5 135 200.3q0 0.2 0.1 0.4c4.5 13.8 7.9 27.7 9.8 41.5 1.7 12.2 2.2 24.5 1.5 36.6z"/>
						</g>
					</g>
					<g id="&lt;Group&gt;">
						<g id="&lt;Group&gt;">
							<path id="&lt;Path&gt;" class="s5" d="m1335.6 1048.4c-0.9 13.9-3.5 27.6-8.2 41.1-37.2 107.7-167.8 171.5-268.8 171.5-71.5 0-113-14.2-144.8-64.9-35.1-55.9-17.4-130.2 57-165 6-2.9 19.2-4.4 19.2-4.4l-20.8-40.5-6.9-13.5c0 0 9.9 2.2 23.8 5.2 31.4 6.8 83.5 17.5 91 15.3 22.7-6.5 60.5-29.2 57.2-91l-7.6-36.8-36.3-175.1-2.6-12.7c0 0 47.8 36.6 101.4 92 71.2 73.6 152.7 180.3 146.4 278.8z"/>
						</g>
					</g>
					<g id="&lt;Group&gt;" style="opacity: .3">
						<g id="&lt;Group&gt;">
							<path id="&lt;Path&gt;" class="s2" d="m1335.6 1048.4c-0.9 13.9-3.5 27.6-8.2 41.1-37.2 107.7-167.8 171.5-268.8 171.5-71.5 0-113-14.2-144.8-64.9-9-14.4-14.6-30.1-16.5-46 30.2 37.2 69.9 48.3 132.9 48.3 101 0 231.6-63.8 268.8-171.5 4.7-13.5 7.3-27.2 8.2-41.1 1.6-26-2.8-52.6-11.6-78.9 26.2 46.1 43 94.7 40 141.5z"/>
						</g>
					</g>
					<g id="&lt;Group&gt;">
						<g id="&lt;Group&gt;">
							<path id="&lt;Path&gt;" class="s2" d="m1091 673.4c12.4 5.2 23.7 11.8 34.6 19 10.9 7.1 21.2 15 31.2 23.3 19.8 16.8 38.6 34.8 56.1 54 17.5 19.2 34.1 39.3 50 60 15.8 20.8 30.9 42.3 44.2 65.2 13.2 22.8 24.8 47 33 72.8 8.2 25.7 13 53.2 11.3 81.2-0.1 7-1.4 14-2.5 20.9-0.8 7-3.3 13.7-5.1 20.5-0.5 1.7-0.9 3.4-1.5 5.1l-2 4.8-3.9 9.6c-2.3 6.5-6 12.4-9.1 18.5-13.4 24.1-31.1 45.3-51 63.5-20 18.3-42.5 33.5-66.2 45.8-23.8 12.4-48.8 22.1-74.7 28.9-25.9 6.7-52.8 10.6-79.9 10.4-13.2 0-26.5-0.7-40-2.2-13.5-1.6-27.2-4.1-40.7-8.7-13.5-4.6-26.7-11.4-38.3-20.4-11.6-8.9-21.4-19.6-29.5-31-8-11.1-15.3-24.3-19.9-38-4.9-13.8-6.9-28.6-6.4-43.3 0.5-14.7 3.3-29.4 9.2-42.9 5.8-13.4 13.7-25.9 23.2-36.7 2.5-2.7 5.1-5.1 7.6-7.7 1.3-1.3 2.6-2.6 3.9-3.8l4.2-3.3c2.8-2.2 5.5-4.6 8.4-6.6l8.9-5.9c2.9-2 6-3.6 9.1-5.2l4.7-2.5 2.3-1.2 1.2-0.6 0.6-0.3 0.9-0.4c5.2-2.2 8.7-2.8 12.4-3.6 3.7-0.8 7-1.3 10.8-1.8l-12.4 23.2-27.6-54-15.6-30.4 33.4 7.5c18.8 4.2 37.8 8.3 56.7 12.1 9.4 1.9 18.9 3.7 28.2 5.3 4.7 0.8 9.3 1.4 13.9 2 2.1 0.2 4.5 0.5 6.4 0.6h2.6 0.3c0 0-0.1 0-0.2 0q-0.2 0-0.4 0c-0.3 0-0.7 0.2-0.9 0.3 7.3-2.5 14.2-6.3 20.2-10.9 6-4.6 11.1-10.1 15.6-16.3 4.3-6.3 7.9-13.5 11.3-21.4 3.5-8 5.7-16.8 9.4-26.3l0.2-0.5c1.1-2.9 4.3-4.4 7.2-3.3 1.5 0.6 2.7 1.8 3.2 3.2 2 5 3.8 10.1 4.5 15.5 0.4 2.6 0.9 5.3 1.1 8.1q0.2 4.1 0.1 8.3c-0.5 11.1-3.3 22.6-8.9 33-5.4 10.6-13.5 19.9-23 27-9.5 7.2-20.3 12.1-31.7 15.2-1.4 0.3-3 0.6-4.5 0.7l-2.2 0.2h-1.1-0.6l-4.7-0.4c-3-0.3-5.4-0.7-8.1-1q-7.7-1.2-15-2.5c-9.9-1.7-19.6-3.5-29.2-5.4-19.3-3.9-38.3-8-57.5-12.3l17.8-22.9 27.6 54 10.4 20.3-22.8 2.9c-2.5 0.3-5.5 0.8-8.1 1.3-2.5 0.5-5.3 1.3-6 1.6l-7.3 3.9c-2.5 1.3-5.2 2.6-7.5 4.2l-7.1 4.7c-2.3 1.6-4.4 3.5-6.6 5.2l-3.3 2.7c-1.1 0.9-2 1.9-3 2.9-2 2-4.1 3.9-5.9 5.9-7.4 8.3-13.2 17.7-17.5 27.7-4.4 10-6.4 20.8-6.8 31.6-0.4 10.8 1 21.8 4.7 32.1 3.6 10.4 8.6 19.9 15.6 29.5 13.4 18.9 30.7 32.7 52.1 39.8 91.3 25.6 198-3.6 269.7-67.6 17.7-16.1 33-34.7 44.5-55.3 2.7-5.2 5.9-10.2 7.8-15.8l3.3-8.1 1.7-4.1c0.5-1.3 0.8-2.7 1.2-4.1 1.4-5.6 3.5-10.9 4.1-16.7 0.9-5.6 2-11.2 2-17.1 1.4-23-2.5-46.7-9.8-69.5-7.3-23-17.9-45.2-30.2-66.5-24.8-42.7-56.6-81.9-91.5-117.8-17.4-18.1-35-36-52.7-53.9-8.9-9-17.6-18.2-26.1-27.7-8.5-9.4-16.8-19.2-24.6-29.6l-0.1-0.2c-1.8-2.4-1.2-5.9 1.2-7.7 1.6-1.2 3.7-1.3 5.4-0.6z"/>
						</g>
					</g>
					<g id="&lt;Group&gt;">
						<g id="&lt;Group&gt;">
							<g id="&lt;Group&gt;">
								<path id="&lt;Path&gt;" class="s5" d="m421.2 810.5c444.7 418.7 1048-178 665.7-624.9-445.1-439.4-1068.1 178-665.7 624.9z"/>
							</g>
						</g>
						<g id="&lt;Group&gt;">
							<g id="&lt;Group&gt;">
								<path id="&lt;Path&gt;" class="s5" d="m421.2 810.5c444.7 418.7 1048-178 665.7-624.9-445.1-439.4-1068.1 178-665.7 624.9z"/>
							</g>
						</g>
						<g id="&lt;Group&gt;" style="opacity: .3">
							<g id="&lt;Group&gt;">
								<path id="&lt;Path&gt;" class="s2" d="m1189.2 769.6q-4.4 9.2-9.3 18.2c-15 27.6-32.9 53.6-53.2 77.6-39 46.2-86.9 84.8-140.6 112.5-5.5 2.9-11.1 5.7-16.8 8.3l-26.9-52.4c-122.9 21.2-212 42.9-274.7 61.4 2.1-44.8 1.5-94.2-4-146.2l414.2-171.4q0 0 0.6 0.6 0.3 0.3 0.8 0.8l0.9 0.9q0.6 0.6 1.3 1.3c2.1 2.1 5.1 5.2 8.9 9.1l-2.6-12.7c0 0 47.8 36.6 101.4 92z"/>
							</g>
						</g>
						<g id="&lt;Group&gt;">
							<g id="&lt;Group&gt;">
								<path id="&lt;Path&gt;" class="s5" d="m421.2 810.5c444.7 418.7 1048-178 665.7-624.9-445.1-439.4-1068.1 178-665.7 624.9z"/>
							</g>
						</g>
						<g id="&lt;Group&gt;">
							<g id="&lt;Group&gt;">
								<path id="&lt;Compound Path&gt;" fill-rule="evenodd" class="s2" d="m445.8 172.4c149.6-142.9 411.3-197.3 632.7 21 194 227.1 123.7 481.9-23.9 622.6-151 144-402.8 195.7-625.2-13.4-204.3-227.2-134.7-485.9 16.4-630.2zm320 791.4c111.5-3.7 219.7-50.3 304.6-131.3 85.1-81.1 137.5-187.6 147.6-299.6 11.2-125.3-31.2-248-122.5-354.7l-0.6-0.7c-105.1-103.7-228.1-157-355.5-153.9-113.1 2.7-222.9 49.7-309.4 132.3-86.6 82.7-139.3 190.9-148.4 304.6-10.2 127.4 35.2 251.1 131.1 357.7l0.7 0.6c101.1 95.2 217.7 145.2 338 145.2q7.2 0 14.4-0.2z"/>
							</g>
						</g>
						<g id="&lt;Group&gt;" style="opacity: .3">
							<g id="&lt;Group&gt;">
								<path id="&lt;Path&gt;" class="s2" d="m421.2 810.5c377.8 368.3 948.7-47.8 742.1-510.9 15.6 164.6-36.6 186.3-96.3 289.5-178.3 333.5-630.4 255.1-770.9-46.4 10.9 102.2 56.1 196 125.1 267.8z"/>
							</g>
						</g>
						<g id="&lt;Group&gt;">
							<g id="&lt;Group&gt;">
								<path id="&lt;Compound Path&gt;" fill-rule="evenodd" class="s9" d="m448.9 175.7c148.1-141.4 407.1-195.1 626.2 20.8 192 224.9 122.4 477-23.6 616.2-149.4 142.5-398.7 193.5-618.8-13.4-202.1-224.8-133.3-480.8 16.2-623.6zm317 792.7c112.7-3.7 221.9-50.8 307.7-132.5 85.9-82 138.8-189.4 148.9-302.6 11.4-126.6-31.3-250.4-123.5-358.1l-0.9-1c-106-104.6-230-158.2-358.8-155.2-114.2 2.8-225.2 50.2-312.5 133.6-87.4 83.5-140.6 192.7-149.8 307.5-10.3 128.7 35.5 253.6 132.3 361.1l1 1c101.9 96 219.6 146.4 341.1 146.4q7.3 0 14.5-0.2z"/>
							</g>
						</g>
						<g id="&lt;Group&gt;">
							<g id="&lt;Group&gt;">
								<path id="&lt;Compound Path&gt;" fill-rule="evenodd" class="s2" d="m448.9 175.7c148.1-141.4 407.1-195.1 626.2 20.8 192 224.9 122.4 477-23.6 616.2-149.4 142.5-398.7 193.5-618.8-13.4-202.1-224.8-133.3-480.8 16.2-623.6zm317 792.7c112.7-3.7 221.9-50.8 307.7-132.5 85.9-82 138.8-189.4 148.9-302.6 11.4-126.6-31.3-250.4-123.5-358.1l-0.9-1c-106-104.6-230-158.2-358.8-155.2-114.2 2.8-225.2 50.2-312.5 133.6-87.4 83.5-140.6 192.7-149.8 307.5-10.3 128.7 35.5 253.6 132.3 361.1l1 1c101.9 96 219.6 146.4 341.1 146.4q7.3 0 14.5-0.2z"/>
							</g>
						</g>
						<g id="&lt;Group&gt;">
							<g id="&lt;Group&gt;">
								<path id="&lt;Path&gt;" class="s10" d="m512.4 883.8c510.5 164.2 774.4-447.8 363.9-675.6-475.3-227.3-816.3 371-363.9 675.6z"/>
							</g>
						</g>
						<g id="&lt;Group&gt;" style="opacity: .3">
							<g id="&lt;Group&gt;">
								<path id="&lt;Path&gt;" class="s11" d="m970.8 278c136 268.7-115.5 643.6-528.4 510.8-36.5-24.6-67.9-51.2-94.4-79 34.3 62.8 88 122.6 164.4 174 464.7 149.4 725-344.2 458.4-605.8z"/>
							</g>
						</g>
						<g id="&lt;Group&gt;">
							<g id="&lt;Group&gt;">
								<path id="&lt;Compound Path&gt;" fill-rule="evenodd" class="s2" d="m724.5 960.6q-6.4 0-12.8-0.2c-106.4-3.7-209.9-52.4-299.3-141-146.9-147.8-191.5-432.5-24.1-620.9l1.6-1.5c96.5-77.1 227.1-110.3 358.3-91.1 130.8 19.2 245.9 87.9 315.6 188.6 65.1 99.2 88.2 209.3 67 318.7-19.2 99.2-73.6 189.6-153.1 254.6-73.6 60.1-163 92.8-253.2 92.8zm-294.4-158.9c196.5 194.7 409.3 146.9 531.8 46.7 140.8-115.1 214-337.5 81.2-539.9-65.7-94.8-174.5-159.7-298.5-177.8-124-18.2-247.3 12.9-338.3 85.2-157.3 177.9-114.8 446.3 23.8 585.8z"/>
							</g>
						</g>
						<g id="&lt;Group&gt;">
							<g id="&lt;Group&gt;">
								<path id="&lt;Compound Path&gt;" fill-rule="evenodd" class="s2" d="m679.3 927.4c-55.3 0-113-9.5-171.8-28.4l-2.1-0.7-1.9-1.2c-109.5-73.8-181.5-170-208.2-278.2-23.8-97.1-9.7-198.2 39.8-284.8 48.4-84.7 125.8-146.9 218.1-175.2 102.5-31.4 216.6-19.4 330 34.8l0.8 0.5c96.7 53.6 163.5 131.7 193.1 225.6 26.9 85.1 21.4 178.8-15.5 264-40 92.1-112.4 165.5-204.1 206.6-54.9 24.6-115 37-178.2 37zm-159.8-58.1c259.1 82.3 444.1-40.1 512.7-198.3 62.2-143.5 35.8-337.8-163.3-448.6-235.1-112.2-423.5-16.8-506 127.6-84.8 148.3-69.1 366.1 156.6 519.3z"/>
							</g>
						</g>
						<g id="&lt;Group&gt;">
							<g id="&lt;Group&gt;">
								<path id="&lt;Path&gt;" class="s5" d="m1275.7 471.4c18.5 214.6-195 251.2-233.3 48.1-27.6-224.1 200.6-263.3 233.3-48.1z"/>
							</g>
						</g>
						<g id="&lt;Group&gt;" style="opacity: .3">
							<g id="&lt;Group&gt;">
								<path id="&lt;Path&gt;" class="s2" d="m1178.2 653.2c-63.9 11.4-127.9-54.7-137.2-144.4 61.1 81.8 121.5-91.3 118-136 171.7 2.7 137.1 261.9 19.2 280.4z"/>
							</g>
						</g>
						<g id="&lt;Group&gt;">
							<g id="&lt;Group&gt;">
								<path id="&lt;Compound Path&gt;" fill-rule="evenodd" class="s2" d="m1163.2 669.7c-56.3 0-117-43.8-136.5-147.2l-0.2-1c-15.3-123.9 44.9-198.1 112.3-207.4 60.9-8.4 134.7 36.5 152.7 154.9l0.1 1.1c10.7 124.3-51.4 190.1-113.7 198.6q-7.3 1-14.7 1zm-105-152.6c17.4 91.3 70.4 126.1 115.3 119.9 47.7-6.5 95-60.5 86.3-163.7-14.9-96.5-70.8-133.8-116.6-127.5-51.8 7.2-97.5 68.3-85 171.3z"/>
							</g>
						</g>
						<g id="&lt;Group&gt;">
							<g id="&lt;Group&gt;">
								<path id="&lt;Path&gt;" class="s5" d="m1286.6 481.1c14.8 173.9-144.7 204-175.7 39.8-23.5-183.6 149.8-216.2 175.7-39.8z"/>
							</g>
						</g>
						<g id="&lt;Group&gt;">
							<g id="&lt;Group&gt;">
								<path id="&lt;Compound Path&gt;" fill-rule="evenodd" class="s2" d="m1203 645.1c-43.9 0-91.8-36.2-107.8-121.3l-0.2-0.9c-13.3-104.2 33.9-166.2 87.4-173.5 47.7-6.6 105.6 31.1 120 129.4l0.1 0.9c8.8 103.6-39.9 158-88.8 164.7q-5.3 0.7-10.7 0.7zm-76.3-126.8c13.6 71.1 51.2 98.6 82.6 94.4 35.5-4.9 67.9-51 61.4-129.8-11.4-76.3-51.4-106.3-83.9-101.8-37.9 5.2-70.6 54-60.1 137.2z"/>
							</g>
						</g>
						<g id="&lt;Group&gt;" style="opacity: .7">
							<g id="&lt;Group&gt;">
								<path id="&lt;Path&gt;" class="s5" d="m980.6 438.8c-3.8 90.5-106.8 87.9-116.8 9-6.9-100.2 114.6-98.9 116.8-9z"/>
							</g>
						</g>
						<g id="&lt;Group&gt;" style="opacity: .7">
							<g id="&lt;Group&gt;">
								<path id="&lt;Path&gt;" class="s5" d="m960.7 584.3c-3.4 34.6-48.5 34.3-48.3-3.6 3.5-34.6 48.6-34.3 48.3 3.6z"/>
							</g>
						</g>
						<g id="&lt;Group&gt;" style="opacity: .7">
							<g id="&lt;Group&gt;">
								<path id="&lt;Path&gt;" class="s5" d="m376.3 623.6c-137.6-317.9 195.7-445.4 317.2-400.7-216.7 69.3-280.8 229.4-317.2 400.7z"/>
							</g>
						</g>
						<g id="&lt;Group&gt;" style="opacity: .3">
							<g id="&lt;Group&gt;">
								<path id="&lt;Path&gt;" class="s2" d="m1111.8 560.9c-8.9-22.9-11.4-48.3-8.6-72.8 57.6 105.9 159.3 28 165.8-59.8 66.3 161.4-84.8 281.5-157.2 132.6z"/>
							</g>
						</g>
						<g id="&lt;Group&gt;">
							<g id="&lt;Group&gt;">
								<path id="&lt;Path&gt;" class="s2" d="m1018.2 396.2c-2.2 0-4.1-0.3-5.9-0.7-21.6-4.7-30.5-34.1-32.7-43-2.1-8.6 3.1-17.2 11.7-19.4 8.6-2.1 17.2 3.1 19.4 11.7 1.7 6.7 5.1 14.5 7.8 18.1 0.7-0.6 1.6-1.5 2.7-2.8 5.5-7 15.5-8.1 22.4-2.6 6.9 5.6 8.1 15.6 2.6 22.5-10.2 12.7-20.2 16.2-28 16.2z"/>
							</g>
						</g>
					</g>
					<g id="&lt;Group&gt;" style="opacity: .3">
						<g id="&lt;Group&gt;">
							<path id="&lt;Path&gt;" class="s2" d="m653.7 1362l-114.5-41-46.3-68.6-28.4-42-73-107.9c-0.5-5.7-1-11.6-1.3-17.7 0 0 66.3 14.8 109 77.8 19.8 29.4 23.5 62.2 15.1 79 31.9 36.3 53.9 84.4 138.4 118.5z"/>
						</g>
					</g>
					<g id="&lt;Group&gt;">
						<g id="&lt;Group&gt;">
							<path id="&lt;Path&gt;" class="s5" d="m357.4 1044.8c0 0 66.3 14.8 109 77.9 27.8 40.9 24 88.8-0.3 90.1-24.3 1.2-101.6-33.6-108.7-168z"/>
						</g>
					</g>
					<g id="&lt;Group&gt;" style="opacity: .3">
						<g id="&lt;Group&gt;">
							<path id="&lt;Path&gt;" class="s2" d="m466.1 1212.8c-23.2 1.2-94.7-30.5-107.3-150.3 25.1 72.3 75.9 93.1 94.8 92.2 10.1-0.5 16.7-9.2 18.9-22.1 20.9 38.4 15.9 79-6.4 80.2z"/>
						</g>
					</g>
					<g id="&lt;Group&gt;">
						<g id="&lt;Group&gt;">
							<path id="&lt;Compound Path&gt;" fill-rule="evenodd" class="s2" d="m464.7 1228.8c-37.2 0-115.9-44.6-123.3-183.2l-1.1-21 20.6 4.6c3 0.6 73.1 17 118.8 84.5 21.5 31.8 28.2 70.9 16.2 95-6 12.1-16.6 19.4-29 20q-1.1 0.1-2.2 0.1zm-89.1-160.7c13.7 105.8 75.8 128.7 89.1 128.7q0.3 0 0.6 0c0.7 0 1.6-1.5 2-2.4 4.8-9.7 3.7-36.4-14.1-62.8-24-35.3-56.4-54.2-77.6-63.5z"/>
						</g>
					</g>
					<g id="&lt;Group&gt;">
						<g id="&lt;Group&gt;">
							<path id="&lt;Path&gt;" class="s2" d="m1290 1166.7c-1.7 0-3.5-0.4-5.2-1.2-6-2.8-8.5-10-5.6-16 25.6-53.3-10.9-97.5-35-119.2-46.1-41.4-107.8-57.5-130.2-43.7-5.6 3.5-13 1.7-16.5-3.9-3.5-5.7-1.7-13.1 3.9-16.6 38.1-23.4 112.9 5 158.9 46.4 49.4 44.4 64.2 98.2 40.5 147.4-2 4.3-6.3 6.8-10.8 6.8z"/>
						</g>
					</g>
					<g id="&lt;Group&gt;">
						<g id="&lt;Group&gt;">
							<path id="&lt;Path&gt;" class="s2" d="m1007.8 1532.7q-1 0-2-0.2c-6.5-1-11-7.2-9.9-13.8 19.1-115.3-34.7-167.8-68.5-188.8-46.7-29-109.1-31.4-145.2-5.5-5.4 3.9-12.9 2.7-16.8-2.7-3.8-5.4-2.6-12.9 2.8-16.8 44.2-31.7 116.5-29.8 171.9 4.6 66.1 41.1 95.1 118.8 79.5 213.2-1 5.8-6.1 10-11.8 10z"/>
						</g>
					</g>
					<g id="&lt;Group&gt;">
						<g id="&lt;Group&gt;">
							<path id="&lt;Path&gt;" class="s2" d="m778.8 1577.9c4 2.4 8.8 5.6 13.4 8.2q6.9 4.2 14.1 7.9c9.5 4.9 19.3 9.4 29.5 12.4 10.3 3.2 20.9 4.4 31.8 4.2l8.2-0.5 8.2-1.5c1.4-0.2 2.9-0.4 4.2-0.8l4.1-1.3 8.4-2.5 0.2-0.1c0.9-0.2 1.9 0.3 2.1 1.2 0.3 0.7 0 1.4-0.5 1.8-2.4 1.9-4.8 3.8-7.3 5.6l-3.7 2.7c-1.4 0.8-2.7 1.5-4.1 2.2-2.8 1.5-5.6 2.9-8.4 4.3l-9 3c-12.3 3.3-25.5 4.7-38.2 3-12.8-1.6-25.4-4.9-36.9-10.3-2.9-1.3-5.8-2.6-8.5-4.2-2.8-1.6-5.6-3.2-8.2-5-5.4-3.5-10.1-7.1-15.1-12.2-4.7-4.7-4.7-12.3-0.1-16.9 4-4.1 10.2-4.6 14.8-1.8z"/>
						</g>
					</g>
					<g id="&lt;Group&gt;">
						<g id="&lt;Group&gt;">
							<path id="&lt;Path&gt;" class="s2" d="m524.4 1532.2c0-0.1 0.4 0.5 0.7 0.8l1.1 1.1c0.6 0.9 1.6 1.7 2.3 2.6 1.7 1.6 3.3 3.3 5.2 4.8 3.6 3.3 7.7 6 11.9 8.8 8.5 5.2 18.2 9.4 28.6 12.3 10.3 3.2 21.5 4.5 32.8 5.7l17.3 0.8q8.7-0.1 17.7 0.1h0.1c0.9 0 1.7 0.8 1.7 1.8 0 0.7-0.5 1.3-1.1 1.5q-8.5 3.2-17.2 6c-5.8 1.6-11.8 2.8-17.8 4.1-12.2 1.7-24.7 2.9-37.5 1.3-12.7-1.4-25.8-4.5-37.6-11.1-5.9-3.3-11.7-7.1-16.6-12-2.6-2.3-4.8-5.1-7-7.8-1.1-1.5-2.2-2.9-3.1-4.5-0.5-0.8-1-1.5-1.4-2.5-0.5-0.9-0.9-1.5-1.6-3-2.9-5.9-0.5-13.2 5.4-16.1 5.9-3 13.1-0.6 16.1 5.3z"/>
						</g>
					</g>
				</g>
				<g id="&lt;Group&gt;">
					<g id="&lt;Group&gt;">
						<g id="&lt;Group&gt;">
							<g id="&lt;Group&gt;">
								<path id="&lt;Path&gt;" class="s12" d="m1482.9 537.5c-3.3 0-6.6-1.3-9.1-3.8-4.2-4.1-5-10.6-2.1-15.7l31.7-54.2c6.8-11.7 5.4-26.3-3.6-36.3-31.9-35.3-49.7-80.9-50-128.4-0.8-105.9 84.5-193.7 190.3-195.7q2-0.1 3.9-0.1c52.4 0 101.6 20.6 138.4 58 36.8 37.4 56.6 86.9 55.7 139.4-1.6 105.3-88.8 191-194.2 191 0 0-1.6 0-1.6 0-16.5-0.1-32.9-2.3-48.7-6.6-2.5-0.7-5-1-7.6-1-5.3 0-10.5 1.4-15.1 4.1l-81.4 47.6c-2.1 1.2-4.3 1.7-6.6 1.7z"/>
							</g>
						</g>
						<g id="&lt;Group&gt;">
							<g id="&lt;Group&gt;">
								<g id="&lt;Group&gt;">
									<path id="&lt;Compound Path&gt;" fill-rule="evenodd" class="s2" d="m1791.6 152.2c39.3 39.9 60.4 92.7 59.5 148.7-1.8 112.4-94.7 203.8-207.2 203.8h-1.7c-17.6-0.1-35.1-2.5-52-7.1q-2-0.5-4.2-0.5c-3 0-5.9 0.8-8.5 2.3l-81.5 47.6c-4.1 2.4-8.6 3.5-13.1 3.5-6.7 0-13.3-2.6-18.3-7.6-8.4-8.3-10-21.2-4.1-31.4l31.7-54.2c3.9-6.8 3.1-15.3-2.1-21.1-34-37.6-52.9-86.3-53.3-137-0.9-113 90.2-206.6 203.1-208.8q2 0 4.1 0c55.9 0 108.4 21.9 147.6 61.8zm-151.2-35.8c-98.7 1.9-178.4 83.9-177.6 182.6 0.3 46.1 17.9 88.1 46.6 119.8 12.8 14.2 14.8 35.1 5.2 51.6l-31.7 54.2 81.5-47.6c6.6-3.9 14.1-5.9 21.6-5.9 3.7 0 7.3 0.5 10.9 1.5 14.5 3.9 29.8 6 45.5 6.1q0.8 0.1 1.5 0.1c98.4 0 179.7-79.8 181.3-178.3 1.6-101.5-80.2-184.2-181.2-184.2q-1.8 0-3.6 0.1z"/>
								</g>
							</g>
						</g>
					</g>
					<g id="&lt;Group&gt;" style="opacity: .5">
						<g id="&lt;Group&gt;">
							<g id="&lt;Group&gt;">
								<path id="&lt;Path&gt;" class="s5" d="m1630.9 130.6c102.7-2 186.4 81.5 184.7 184.1-0.5 32.8-9.8 63.4-25.7 89.8 21.6-29.3 34.6-65.2 35.3-104 1.6-102.6-82.1-186.1-184.8-184.1-64.4 1.2-120.7 36.5-151.8 88.3 32.3-43.9 84-72.9 142.3-74.1z"/>
							</g>
						</g>
					</g>
					<g id="&lt;Group&gt;" style="opacity: .3">
						<g id="&lt;Group&gt;">
							<path id="&lt;Path&gt;" class="s13" d="m1670.9 440.7c-15.7-0.1-30.9-2.3-45.4-6.2-1.6-0.4-3.9-0.7-6.7-0.9-27-1.8-51.1-16.3-67.6-37.7-4.1-5.3-8.7-10.1-13.2-15.1-28.7-31.8-46.3-73.8-46.7-119.9-0.3-32.5 8.3-63.3 23.3-89.9-32.3 33.1-52.2 78.4-51.8 128 0.3 45.8 17.7 87.6 46.1 119.3 12.9 14.4 15.6 35.1 5.9 51.8l-31.9 54.5 81.5-47.6c9.9-5.8 21.7-7.3 32.7-4.4 14.5 3.9 29.7 6 45.3 6.1 68.1 0.6 128.3-37.1 159.7-93-33.4 34.2-80 55.4-131.2 55z"/>
						</g>
					</g>
					<g id="&lt;Group&gt;">
						<g id="&lt;Group&gt;">
							<path id="&lt;Path&gt;" class="s5" d="m1577.9 237c18.5-18.5 48.5-15.2 67 3.3l2.9 2.9 2.9-2.9c18.5-18.5 48.5-21.8 67-3.3 18.6 18.5 18.6 48.5 0 67l-2.8 2.9-58.3 58.2c-4.8 4.9-12.7 4.9-17.6 0l-58.2-58.2-2.9-2.9c-18.5-18.5-18.5-48.5 0-67z"/>
						</g>
					</g>
					<g id="&lt;Group&gt;" style="opacity: .5">
						<g id="&lt;Group&gt;">
							<path id="&lt;Path&gt;" class="s14" d="m1583.9 262.5c5.7-7.9 16.8-8.2 20.1-5.8 3.4 2.4-2.3 6.7-8 14.6-5.7 7.8-9.3 16.2-12.6 13.8-3.3-2.4-5.2-14.8 0.5-22.6z"/>
						</g>
					</g>
					<g id="&lt;Group&gt;" style="opacity: .5">
						<g id="&lt;Group&gt;">
							<g id="&lt;Group&gt;">
								<path id="&lt;Path&gt;" class="s14" d="m1619.3 246.3c0.3 2.3-1.3 4.5-3.4 5.3-2.1 0.8-4.7 0.3-6-1.6-1.4-1.9-0.2-5 3-6.3 3.1-1.2 6.1 0.3 6.4 2.6z"/>
							</g>
						</g>
					</g>
				</g>
			</g>
		</g>
	</g>
</svg>