<svg version="1.2" xmlns="http://www.w3.org/2000/svg" viewBox="0 0 381 314" width="400" height="400">
	<title>4730-ai</title>
	<defs>
		<radialGradient id="g1" cx="240.6" cy="51.1" r="130.7" gradientUnits="userSpaceOnUse">
			<stop offset="0" stop-color="#ff2c36"/>
			<stop offset=".544" stop-color="#f0171c"/>
			<stop offset="1" stop-color="#a60000"/>
		</radialGradient>
		<linearGradient id="g2" x1="274.2" y1="12.6" x2="288.6" y2="68.7" gradientUnits="userSpaceOnUse">
			<stop offset="0" stop-color="#000000"/>
			<stop offset=".445" stop-color="#ffffff"/>
			<stop offset="1" stop-color="#000000"/>
		</linearGradient>
		<linearGradient id="g3" x1="152.4" y1="-43.7" x2="214.4" y2="74.1" gradientUnits="userSpaceOnUse">
			<stop offset="0" stop-color="#000000"/>
			<stop offset=".445" stop-color="#ffffff"/>
			<stop offset="1" stop-color="#000000"/>
		</linearGradient>
		<linearGradient id="g4" x1="-3.2" y1="163.8" x2="36.3" y2="100.4" gradientUnits="userSpaceOnUse">
			<stop offset="0" stop-color="#000000"/>
			<stop offset=".374" stop-color="#ffffff"/>
			<stop offset=".928" stop-color="#000000"/>
		</linearGradient>
		<linearGradient id="g5" x1="70" y1="74.2" x2="118" y2="87.6" gradientUnits="userSpaceOnUse">
			<stop offset="0" stop-color="#96c938"/>
			<stop offset="1" stop-color="#597a00"/>
		</linearGradient>
		<linearGradient id="g6" x1="68.6" y1="55.7" x2="69" y2="123.4" gradientUnits="userSpaceOnUse">
			<stop offset="0" stop-color="#c2e33b"/>
			<stop offset="1" stop-color="#6b940f"/>
		</linearGradient>
		<linearGradient id="g7" x1="-1.7" y1="65.8" x2="-0.2" y2="115.9" gradientUnits="userSpaceOnUse">
			<stop offset="0" stop-color="#b3e659"/>
			<stop offset="1" stop-color="#597a00"/>
		</linearGradient>
		<linearGradient id="g8" x1="140.3" y1="109.1" x2="103.6" y2="85.7" gradientUnits="userSpaceOnUse">
			<stop offset="0" stop-color="#263603"/>
			<stop offset=".346" stop-color="#5b5e33"/>
			<stop offset=".939" stop-color="#80a800"/>
		</linearGradient>
		<linearGradient id="g9" x1="188.4" y1="158.7" x2="92.4" y2="158.5" gradientUnits="userSpaceOnUse">
			<stop offset="0" stop-color="#f1fb94"/>
			<stop offset="1" stop-color="#6a7500"/>
		</linearGradient>
		<radialGradient id="g10" cx="134.5" cy="127.1" r="20.1" gradientUnits="userSpaceOnUse">
			<stop offset=".225" stop-color="#5d5a00"/>
			<stop offset="1" stop-color="#6e7e00"/>
		</radialGradient>
		<radialGradient id="g11" cx="129.6" cy="80.8" r="45.1" gradientUnits="userSpaceOnUse">
			<stop offset="0" stop-color="#cc7d45"/>
			<stop offset=".731" stop-color="#4c2501"/>
		</radialGradient>
		<radialGradient id="g12" cx="138.4" cy="81.2" r="34.4" gradientUnits="userSpaceOnUse">
			<stop offset="0" stop-color="#a14014"/>
			<stop offset=".857" stop-color="#330f01"/>
		</radialGradient>
	</defs>
	<style>
		.s0 { fill: url(#g1) } 
		.s1 { opacity: .6;mix-blend-mode: screen;fill: url(#g2) } 
		.s2 { opacity: .8;mix-blend-mode: screen;fill: url(#g3) } 
		.s3 { opacity: .5;mix-blend-mode: screen;fill: url(#g4) } 
		.s4 { fill: #ffffff } 
		.s5 { opacity: 0;fill: #ffffff } 
		.s6 { opacity: 0;fill: #f9f9f9 } 
		.s7 { opacity: .1;fill: #f3f3f3 } 
		.s8 { opacity: .1;fill: #ececec } 
		.s9 { opacity: .2;fill: #e6e6e6 } 
		.s10 { opacity: .2;fill: #e0e0e0 } 
		.s11 { opacity: .3;fill: #dadada } 
		.s12 { opacity: .3;fill: #d4d4d4 } 
		.s13 { opacity: .4;fill: #cdcdcd } 
		.s14 { opacity: .4;fill: #c7c7c7 } 
		.s15 { opacity: .5;fill: #c1c1c1 } 
		.s16 { opacity: .5;fill: #bbbbbb } 
		.s17 { opacity: .6;fill: #b5b5b5 } 
		.s18 { opacity: .6;fill: #afafaf } 
		.s19 { opacity: .7;fill: #a8a8a8 } 
		.s20 { opacity: .7;fill: #a2a2a2 } 
		.s21 { opacity: .8;fill: #9c9c9c } 
		.s22 { opacity: .8;fill: #969696 } 
		.s23 { opacity: .9;fill: #909090 } 
		.s24 { opacity: .9;fill: #898989 } 
		.s25 { opacity: 1;fill: #838383 } 
		.s26 { fill: #7d7d7d } 
		.s27 { fill: url(#g5) } 
		.s28 { fill: url(#g6) } 
		.s29 { fill: url(#g7) } 
		.s30 { fill: url(#g8) } 
		.s31 { fill: url(#g9) } 
		.s32 { fill: url(#g10) } 
		.s33 { fill: url(#g11) } 
		.s34 { fill: url(#g12) } 
	</style>
	<g id="Layer 1">
		<g id="&lt;Group&gt;">
			<g id="&lt;Group&gt;">
				<g id="&lt;Group&gt;">
					<g id="&lt;Group&gt;">
						<path id="&lt;Path&gt;" class="s0" d="m238.9 210.6c-1.7-0.9-29.5-14.9-68.8-51.6-40.5-38-35.2-101.8-7-116.5 30.7-16.1 65.2 8.2 75.9 15.8 10.8-7.6 44.5-33.3 75.9-15.8 28.4 15.8 33.5 78.5-7 116.5-39.2 36.7-66.9 50.7-68.7 51.5 0 0-0.1 0.2-0.3 0.1z"/>
						<path id="&lt;Compound Path&gt;" class="s1" d="m312.2 47.8q-0.8-0.5-1.6-1c-31.1-17.3-60.5 10.6-73.5 19.9 4.3 2.6 7.7 5 10.1 6.6 10-7 35.4-34 65-25.5z"/>
						<path id="&lt;Compound Path&gt;" class="s2" d="m155.8 91c1-18 8.2-33.2 19.8-39.2 13.7-7.2 28.4-5.3 40.7-0.7-13.9-7.2-33.1-13.1-50.9-3.8-12.6 6.6-20.1 24.1-19.9 44.1z"/>
						<path id="&lt;Compound Path&gt;" class="s3" d="m254.8 197.1c-1.6-0.8-37.6-15.6-74-49.7-37.7-35.2-38.6-89.1-12.3-102.8 10.6-5.5 8.7-6.2-3-0.2-27.3 14.3-32.4 76 6.8 112.8 37.9 35.5 66.8 49.8 66.8 49.8 0 0 15.9-9.8 15.7-9.9z"/>
					</g>
					<path id="&lt;Path&gt;" class="s4" d="m241.5 160.7c-0.7-0.1-1.3-0.6-1.4-1.4l-5.2-66.2-3.5 28.7c-0.1 0.7-0.7 1.3-1.5 1.3h-10.6l-2.9 7.1c-0.2 0.6-0.7 0.9-1.3 0.9-0.6 0-1.1-0.3-1.3-0.9l-2.9-7.1h-6.4c-0.6 0-1.1-0.4-1.3-0.9l-4-9.9-3.7 10.7c-0.2 0.6-0.8 1-1.4 1h-25.4c-0.8 0-1.5-0.7-1.5-1.5 0-0.8 0.7-1.4 1.5-1.4h24.4l4.6-13.4c0.2-0.5 0.7-0.9 1.3-0.9 0.6-0.1 1.2 0.3 1.4 0.9l5.1 12.5h6.4c0.6 0 1.2 0.3 1.4 0.9l1.8 4.6 1.8-4.6c0.2-0.6 0.8-0.9 1.4-0.9h10.3l5.2-41.7c0.1-0.8 0.7-1.3 1.5-1.3 0.7 0 1.3 0.6 1.4 1.3l5.5 70.4 5.4-26.2c0.1-0.7 0.7-1.2 1.4-1.2h12.7c0.6 0 1.1 0.4 1.3 0.9l1.7 4.3 8.3-27c0.2-0.6 0.8-1 1.4-1 0.7 0 1.2 0.4 1.4 1.1l6.1 21.7h30.6c0.8 0 1.5 0.7 1.5 1.5 0 0.8-0.7 1.4-1.5 1.4h-31.7c-0.7 0-1.3-0.4-1.4-1l-5.1-18.1-8 26.2c-0.2 0.5-0.8 1-1.4 1-0.6 0-1.2-0.4-1.4-0.9l-2.8-7.2h-10.5l-7.2 35.1c-0.1 0.7-0.7 1.2-1.4 1.2q-0.1 0-0.1 0z"/>
				</g>
				<g id="&lt;Group&gt;">
					<g id="&lt;Group&gt;" style="mix-blend-mode: multiply">
						<path id="&lt;Path&gt;" class="s5" d="m64.5 268.9c0 13.4 33.5 24.2 74.8 24.2 41.3 0 74.7-10.8 74.7-24.2 0-13.3-33.4-24.2-74.7-24.2-41.3 0-74.8 10.9-74.8 24.2z"/>
						<path id="&lt;Path&gt;" class="s6" d="m66.8 269c0 12.7 32.4 23.2 72.3 23.2 40 0 72.4-10.5 72.4-23.2 0-12.8-32.4-23.2-72.4-23.2-39.9 0-72.3 10.4-72.3 23.2z"/>
						<path id="&lt;Path&gt;" class="s7" d="m69 269c0 12.2 31.3 22.3 70 22.3 38.7 0 70-10.1 70-22.3 0-12.2-31.3-22.2-70-22.2-38.7 0-70 10-70 22.2z"/>
						<path id="&lt;Path&gt;" class="s8" d="m71.2 269c0 11.6 30.3 21.4 67.7 21.4 37.3 0 67.6-9.8 67.6-21.4 0-11.6-30.3-21.2-67.6-21.2-37.4 0-67.7 9.6-67.7 21.2z"/>
						<path id="&lt;Path&gt;" class="s9" d="m73.4 269.1c0 11 29.3 20.4 65.3 20.4 36.1 0 65.3-9.4 65.3-20.4 0-11.1-29.2-20.3-65.3-20.3-36 0-65.3 9.2-65.3 20.3z"/>
						<path id="&lt;Path&gt;" class="s10" d="m75.7 269.1c0 10.4 28.1 19.5 62.9 19.5 34.7 0 62.9-9.1 62.9-19.5 0-10.4-28.2-19.2-62.9-19.2-34.8 0-62.9 8.8-62.9 19.2z"/>
						<path id="&lt;Path&gt;" class="s11" d="m77.9 269.1c0 9.9 27.1 18.6 60.6 18.6 33.4 0 60.5-8.7 60.5-18.6 0-9.8-27.1-18.2-60.5-18.2-33.5 0-60.6 8.4-60.6 18.2z"/>
						<path id="&lt;Path&gt;" class="s12" d="m80.1 269.2c0 9.2 26.1 17.6 58.2 17.6 32.2 0 58.2-8.4 58.2-17.6 0-9.3-26-17.3-58.2-17.3-32.1 0-58.2 8-58.2 17.3z"/>
						<path id="&lt;Path&gt;" class="s13" d="m82.3 269.2c0 8.7 25 16.7 55.9 16.7 30.8 0 55.8-8 55.8-16.7 0-8.7-25-16.2-55.8-16.2-30.9 0-55.9 7.5-55.9 16.2z"/>
						<path id="&lt;Path&gt;" class="s14" d="m84.6 269.2c0 8.1 23.9 15.8 53.4 15.8 29.6 0 53.5-7.7 53.5-15.8 0-8.1-23.9-15.2-53.5-15.2-29.5 0-53.4 7.1-53.4 15.2z"/>
						<path id="&lt;Path&gt;" class="s15" d="m86.8 269.3c0 7.5 22.9 14.8 51.1 14.8 28.2 0 51.2-7.3 51.2-14.8 0-7.5-23-14.3-51.2-14.3-28.2 0-51.1 6.8-51.1 14.3z"/>
						<path id="&lt;Path&gt;" class="s16" d="m89 269.3c0 6.9 21.8 13.9 48.8 13.9 26.9 0 48.8-7 48.8-13.9 0-6.9-21.9-13.3-48.8-13.3-27 0-48.8 6.4-48.8 13.3z"/>
						<path id="&lt;Path&gt;" class="s17" d="m91.2 269.3c0 6.4 20.8 13 46.4 13 25.6 0 46.5-6.6 46.5-13 0-6.3-20.9-12.2-46.5-12.2-25.6 0-46.4 5.9-46.4 12.2z"/>
						<path id="&lt;Path&gt;" class="s18" d="m93.5 269.4c0 5.7 19.7 11.9 44 11.9 24.3 0 44.1-6.2 44.1-11.9 0-5.8-19.8-11.3-44.1-11.3-24.3 0-44 5.5-44 11.3z"/>
						<path id="&lt;Path&gt;" class="s19" d="m95.7 269.4c0 5.1 18.6 11 41.6 11 23.1 0 41.8-5.9 41.8-11 0-5.2-18.7-10.3-41.8-10.3-23 0-41.6 5.1-41.6 10.3z"/>
						<path id="&lt;Path&gt;" class="s20" d="m97.9 269.4c0 4.6 17.6 10.1 39.3 10.1 21.7 0 39.4-5.5 39.4-10.1 0-4.5-17.7-9.2-39.4-9.2-21.7 0-39.3 4.7-39.3 9.2z"/>
						<path id="&lt;Path&gt;" class="s21" d="m100.1 269.5c0 3.9 16.5 9.1 37 9.1 20.4 0 37-5.2 37-9.1 0-4-16.6-8.3-37-8.3-20.5 0-37 4.3-37 8.3z"/>
						<path id="&lt;Path&gt;" class="s22" d="m102.4 269.5c0 3.4 15.4 8.2 34.5 8.2 19.1 0 34.7-4.8 34.7-8.2 0-3.4-15.6-7.3-34.7-7.3-19.1 0-34.5 3.9-34.5 7.3z"/>
						<path id="&lt;Path&gt;" class="s23" d="m104.6 269.5c0 2.8 14.4 7.3 32.2 7.3 17.8 0 32.3-4.5 32.3-7.3 0-2.8-14.5-6.2-32.3-6.2-17.8 0-32.2 3.4-32.2 6.2z"/>
						<path id="&lt;Path&gt;" class="s24" d="m106.8 269.6c0 2.2 13.3 6.3 29.8 6.3 16.5 0 30-4.1 30-6.3 0-2.3-13.5-5.3-30-5.3-16.5 0-29.8 3-29.8 5.3z"/>
						<path id="&lt;Path&gt;" class="s25" d="m109 269.6c0 1.6 12.3 5.4 27.5 5.4 15.2 0 27.6-3.8 27.6-5.4 0-1.6-12.4-4.3-27.6-4.3-15.2 0-27.5 2.7-27.5 4.3z"/>
						<path id="&lt;Path&gt;" class="s26" d="m111.3 269.6c0 1.1 11.2 4.5 25.1 4.5 13.9 0 25.2-3.4 25.2-4.5 0-1-11.3-3.3-25.2-3.3-13.9 0-25.1 2.3-25.1 3.3z"/>
					</g>
					<g id="&lt;Group&gt;">
						<path id="&lt;Path&gt;" class="s27" d="m61 79.6c1.8-0.3 11.5-2.1 31.9 0.9 21.9 4.9 23.4 13.4 24.1 15.2 1.3 3.3 1.3 4.8 2.3 6.4q0 0-0.1 0.1c-14.8-3-50.7-12.3-69.8-22.2q-0.3-0.2-0.3-0.2c0 0 10.2 0 11.9-0.2z"/>
					</g>
					<path id="&lt;Compound Path&gt;" class="s28" d="m119.1 102.3c-14.5-3.4-50.7-12.5-69.8-22.4 1.2 0.9 5.5 4.2 6.8 5.3 1.6 1.3 6.1 8 8.4 10.4 8.6 9.5 18.6 14.9 30.9 15 1.7 0.1 15.3-2.3 18-3.8 2.4-1.3 5.2-4 5.7-4.5z"/>
					<path id="&lt;Path&gt;" class="s29" d="m119.3 102.2c-2-0.4-4.3-0.9-6.2-1.4-4.2-1.1-35.3-10-41.1-11.8-6-1.9-17.6-6.5-19.3-7.2 1.4 0.7 20.6 8.4 24.8 9.6 4.1 1.2 35.8 10 38.9 10.6 0.8 0.1 1.7 0.3 2.6 0.5 2.4 0.4 3.3 0.3 0.3-0.3z"/>
					<path id="&lt;Path&gt;" class="s30" d="m117.8 102.6c0.6 0 13.2 3.5 15.8 10.2 0.2-1.3-0.5-5.9-0.5-5.9 0 0-12.2-4.8-14.2-4.8-0.3 0.5-1.1 0.5-1.1 0.5z"/>
					<g id="&lt;Group&gt;">
						<path id="&lt;Mesh&gt;" fill-rule="evenodd" class="s31" d="m192.4 247.1q-1.4 1.6-2.9 3.2c-3.1 3.3-5.5 4.9-8.7 7.6-2.1 1.9-5.5 4.4-7.7 5.9-3.7 2.6-6.9 3.4-10.4 5-2.3 1-6.1 2.1-10.9 2.9-3.2 0.5-6.8 0.9-10.6 1.2-10.9 0.6-22.7-0.5-31.4-4.6q-1.2-0.6-2.6-1.3c-3.5-1.8-8.9-3.8-14.3-8.7q-2.6-2.2-5.3-5-1.4-1.5-2.9-3.2-0.9-0.9-1.7-1.9-2.7-3.1-5.3-6.7c-2.7-3.8-5.3-7.9-7.8-12.5-3.1-5.8-6-12.3-8.4-19.5q-1-3.2-2-6.7c-0.9-3.1-1.6-6.7-2-10.5-0.4-4-0.6-8.3-0.4-12.8 0.1-4.4 0.5-8.5 1.4-13.2 0.8-3.8 1.6-9.3 3-13.1 1.6-4.2 3.6-8.4 6.1-12.4l6-5.6q0.3-0.5 0.6-0.9-0.1 0-0.2 0.1-0.2 0.2-0.5 0.4c-1.1 0.6-2.6 0.9-3.3 1.8 0.7-0.9 2.2-1.2 3.3-1.8-1.2 0.7-3.5 2-3.3 1.8 0.9-1.3 1.9-2.7 3-4 0.9-1 2.3-2.3 3.3-3.3 1.8-1.9 3.7-3.6 5.7-5.2 6.3-5 11.7-5 18.2-5.1q2.2 0 4.7 0c7.8 0.3 13.1 4.3 21.1 4.3 0.5 0 7.7-3.8 13.3-3.7q1 0.1 1.9 0.1c5.4 0.3 10.2 1.5 13.1 2.3 1.5 0.4 2.4 0.7 2.6 0.7 4.6 0 9.9-3.7 20.2-2.8q3.1 0.3 6.5 1c2.9 0.6 5.9 1.5 8.8 2.7 4.5 1.7 6.3 3 10.3 6.2q2 1.5 3.8 3.3 1.3 1.2 2.5 2.6 0.3 0.3 0.6 0.7 1.1 1.3 2.1 2.6c2.1 3 4 6.4 5.6 10.2 1.3 3.4 2.3 6.9 2.9 10.6 0.8 4.3 1.1 8.8 1 13.4-0.1 4.4-0.6 8.8-1.4 13.2-1 5.6-2.1 11.9-4.2 17.4-2.5 7-4.7 12.7-8.6 21.1-2.7 5.6-3 4.8-6.5 10.9-1.6 2.8-4.4 6.6-6.4 9.1q-0.9 1.1-1.9 2.2zm-118.2-112.8c0.9-1.3 1.3-3.7 2.3-5-1 1.3-1.4 3.7-2.3 5zm-0.2 0.1c-0.1 0.1 0.9-1.3 0 0q0.2-0.1 0.2-0.1-0.1 0-0.2 0.1z"/>
					</g>
					<path id="&lt;Path&gt;" class="s32" d="m162.7 126.9c-2.3-0.8-6.7-0.8-9.4 0-7.1 1.9-10.5 2.5-11.7 2.7-4.6 1-9.9 1.1-16.7-0.8-7.6-2.1-15.9-5.5-18-4-2.4-0.9 2.6-1.2 6.5-0.3 2.1 0.5 8 1.6 11 2.5 3 0.9 12.1 0.3 17.5-0.3 5.5-0.6 4.6-1.3 10.8-1.8 8.7-0.6 10 2 10 2z"/>
					<g id="&lt;Group&gt;">
						<path id="&lt;Path&gt;" class="s33" d="m140 129.5c0.2-3.6-4.8-28.5-6.4-31.8-1.5-3.3-3.4-6.8-3.8-8.7-0.5-1.9-2.7-6.9-3.9-7.1-1.1-0.3-6.8 0.8-8.4 2.1-1.5 1.4-0.6 2.2 0 2.2 0.7 0 3 2.2 4.4 3 1.3 0.9 2.4 2.2 3.8 4.7 1.4 2.5 8.2 14.2 10.2 36.4 2.5-0.3 4.1-0.8 4.1-0.8z"/>
					</g>
					<path id="&lt;Compound Path&gt;" class="s34" d="m122.6 87.9c-1-0.6-3.4-2.7-5-4q0 0.1-0.1 0.1c-1.5 1.4-0.6 2.2 0 2.2 0.7 0 3 2.2 4.4 3 1.3 0.8 2.4 2.2 3.8 4.7 1.4 2.4 8.2 14.2 10.2 36.3q0.7 0 1.3-0.1c-1.1-23.6-9.4-35.1-10.7-37.5-1.4-2.5-2.5-3.9-3.9-4.7z"/>
				</g>
			</g>
		</g>
	</g>
</svg>