<svg version="1.2" xmlns="http://www.w3.org/2000/svg" viewBox="0 0 875 873" width="875" height="873">
	<title>4354884-ai</title>
	<style>
		.s0 { opacity: .7;fill: #ffffff } 
		.s1 { fill: #92e3a9 } 
		.s2 { fill: none;stroke: #263238;stroke-linecap: round;stroke-linejoin: round;stroke-width: 2 } 
		.s3 { fill: #263238 } 
		.s4 { fill: #ffffff } 
		.s5 { fill: #92e3a9;stroke: #263238;stroke-linecap: round;stroke-linejoin: round;stroke-width: 2 } 
		.s6 { fill: #ffffff;stroke: #263238;stroke-linecap: round;stroke-linejoin: round;stroke-width: 2 } 
		.s7 { fill: none;stroke: #ffffff;stroke-linecap: round;stroke-linejoin: round;stroke-width: 2 } 
		.s8 { opacity: .4;fill: #92e3a9 } 
		.s9 { opacity: .7;fill: #000000 } 
		.s10 { fill: #263238;stroke: #263238;stroke-linecap: round;stroke-linejoin: round;stroke-width: 2 } 
	</style>
	<g id="Background Simple">
		<g id="&lt;Group&gt;">
			<path id="&lt;Path&gt;" class="s0" d="m60.9 274.2c0 0-55.8 143.9 22.6 289 78.3 145 239.7 221.6 368.9 287.1 129.2 65.5 263.3 33.6 327.1-73.7 63.7-107.3-23.7-183.9-23.8-336.8-0.1-153 22.9-193.5-60-322.8-82.8-129.2-286.1-157.8-439.8-62-153.6 95.9-195 219.2-195 219.2z"/>
		</g>
		<path id="&lt;Path&gt;" class="s1" d="m52.4 218.3c53.4-103.7 152.5-182.1 276.1-193.1 84.1-7.6 170.5 17.2 237.5 68.7 33.7 25.9 63.6 59.1 83.5 96.8 22.9 43.4 29.5 93.5 53 136.7 29.3 53.7 84.1 75.8 121 122.2 30.3 38.3 40.8 89.5 37.3 138.2-6.4 88.8-58.4 173.2-135 218.7-64.8 38.5-142.8 49.1-218 45.6-116-5.3-231.5-43.6-322.9-115.3-91.3-71.6-157-177.6-172.5-292.6-10.6-78.2 4.8-157.5 40-225.9z"/>
		<path id="&lt;Path&gt;" class="s0" d="m52.4 218.3c53.4-103.7 152.5-182.1 276.1-193.1 84.1-7.6 170.5 17.2 237.5 68.7 33.7 25.9 63.6 59.1 83.5 96.8 22.9 43.4 29.5 93.5 53 136.7 29.3 53.7 84.1 75.8 121 122.2 30.3 38.3 40.8 89.5 37.3 138.2-6.4 88.8-58.4 173.2-135 218.7-64.8 38.5-142.8 49.1-218 45.6-116-5.3-231.5-43.6-322.9-115.3-91.3-71.6-157-177.6-172.5-292.6-10.6-78.2 4.8-157.5 40-225.9z"/>
	</g>
	<g id="Elements">
		<g id="&lt;Group&gt;">
			<g id="&lt;Group&gt;">
				<path id="&lt;Path&gt;" class="s2" d="m17.1 256.2c2.4 9.4 1.2-7.8 5.9-28.9 4.6-21 12.5-12.5 12.5-12.5"/>
				<path id="&lt;Path&gt;" class="s2" d="m15.7 234.7l14.5-5.9"/>
				<path id="&lt;Path&gt;" class="s2" d="m42.2 221.6c0 0-8.7 18 4.4 25.6"/>
				<path id="&lt;Path&gt;" class="s2" d="m54.5 216.6c0 0 14.3 8 5.3 25.2"/>
				<path id="&lt;Path&gt;" class="s2" d="m44.7 227.7l10.2 7.5"/>
				<path id="&lt;Path&gt;" class="s2" d="m52.7 224.4l-8 12.8"/>
			</g>
			<g id="&lt;Group&gt;">
				<path id="&lt;Path&gt;" class="s2" d="m90 430.1c-9.8 7.1-23.4 4.8-30.5-5-7-9.8-4.7-23.4 5-30.4 9.8-7 23.5-4.8 30.5 5 7 9.8 4.8 23.4-5 30.4z"/>
				<path id="&lt;Path&gt;" class="s2" d="m121 440.6c-10.8 7.8-26 5.3-33.8-5.5-7.8-10.9-5.3-26 5.6-33.8 10.8-7.8 26-5.3 33.8 5.5 7.8 10.9 5.3 26-5.6 33.8z"/>
				<path id="&lt;Path&gt;" class="s2" d="m97.1 403.4l-10 3.6"/>
				<path id="&lt;Path&gt;" class="s2" d="m98.5 407.6l-14.4 5.2"/>
				<path id="&lt;Path&gt;" class="s2" d="m99.1 412.6l-16.1 6.2"/>
				<path id="&lt;Path&gt;" class="s2" d="m97.9 419.4l-14.7 6.7"/>
				<path id="&lt;Path&gt;" class="s2" d="m95.3 424.6l-11.1 4.7"/>
				<path id="&lt;Path&gt;" class="s2" d="m87.8 379.2c-0.6-1.9-7.7-3.3-8 2-0.4 5.2 7.4 0.9 9.6-1.9 0 0-4 5.4-2.3 6.4"/>
				<path id="&lt;Path&gt;" class="s2" d="m127 385.7l-6.3 13.1c0 0 3.1-6.6 6.5-6 4.1 0.8 1.4 7.5-3.6 5"/>
			</g>
			<g id="&lt;Group&gt;">
				<path id="&lt;Path&gt;" class="s2" d="m810.4 598.9l9.9 9.4"/>
				<path id="&lt;Path&gt;" class="s2" d="m820.3 596.5l-8.3 12.3"/>
				<path id="&lt;Path&gt;" class="s2" d="m830 600l9.9-3.6"/>
				<path id="&lt;Path&gt;" class="s2" d="m844.6 586.1l6 5.3"/>
				<path id="&lt;Path&gt;" class="s2" d="m855.2 579.7l-7.6 26.1"/>
			</g>
			<g id="&lt;Group&gt;">
				<path id="&lt;Path&gt;" class="s2" d="m394.9 452.4l26.6-18.2 35.1 2.4 2.2 44.6-25.8 18.4-31.8-2.3z"/>
				<path id="&lt;Path&gt;" class="s2" d="m401.2 497.3l25.7-18.5 31.9 2.4"/>
				<path id="&lt;Path&gt;" class="s2" d="m426.9 478.8l-5.4-44.6"/>
				<path id="&lt;Path&gt;" class="s2" d="m394.9 452.4l35.1 4.1 26.6-19.9"/>
				<path id="&lt;Path&gt;" class="s2" d="m430 456.5l3 43.1"/>
			</g>
			<g id="&lt;Group&gt;">
				<path id="&lt;Path&gt;" class="s2" d="m704.7 302.7l-11.8 36.6 36.6-5z"/>
				<path id="&lt;Path&gt;" class="s2" d="m704.7 302.7l6.5 33.9"/>
				<path id="&lt;Path&gt;" class="s2" d="m710.2 331.2l4.3-0.7 1 5.7"/>
			</g>
			<g id="&lt;Group&gt;">
				<path id="&lt;Path&gt;" class="s2" d="m243.8 637.1l18.3 9"/>
				<path id="&lt;Path&gt;" class="s2" d="m256.2 630.3l-5.3 19.1"/>
				<path id="&lt;Path&gt;" class="s2" d="m258.7 620.9c0 0 2.6-2.3 4.4 0.6 1.8 2.9-1.8 8.9-1.8 8.9l7.4-2.8"/>
			</g>
			<g id="&lt;Group&gt;">
				<path id="&lt;Path&gt;" class="s2" d="m387.3 8.1c17.5 9.8-2.5 33.8-2.5 47.8 0 14 20 12 30 16 4 0 12 0 11.7 10.1"/>
				<path id="&lt;Path&gt;" class="s2" d="m367.8 20.7c3.1 16.6 22.1 10.7 33.7 14.5 20 6.5 8.9 27.1 2.9 39.6-3.6 7.5-7.1 17.9-0.7 25"/>
				<path id="&lt;Path&gt;" class="s2" d="m370.4 27.2l20.8-17.3"/>
				<path id="&lt;Path&gt;" class="s2" d="m378.6 32.3l15.6-13"/>
				<path id="&lt;Path&gt;" class="s2" d="m387.8 45.5l13.2-10.4"/>
				<path id="&lt;Path&gt;" class="s2" d="m385 61l25.9-18.6"/>
				<path id="&lt;Path&gt;" class="s2" d="m395 68.3l18-13.2"/>
				<path id="&lt;Path&gt;" class="s2" d="m402.6 96.4l22.6-18.3"/>
				<path id="&lt;Path&gt;" class="s2" d="m403.2 82l14.7-10.3"/>
			</g>
			<g id="&lt;Group&gt;">
				<path id="&lt;Path&gt;" class="s2" d="m128.3 631.3c-12.7 19.3-38.7 24.6-58 11.9-19.3-12.8-24.7-38.7-11.9-58 12.7-19.4 38.7-24.7 58-12 19.3 12.8 24.7 38.8 11.9 58.1z"/>
				<path id="&lt;Path&gt;" class="s2" d="m103.9 567.7c14.6-17.2 27-26.9 31.8-23.7 7.3 4.8-5.8 37.4-29.2 72.9-23.4 35.5-48.2 60.3-55.5 55.5-4.8-3.1-0.7-18.4 9.3-38.5"/>
				<path id="&lt;Path&gt;" class="s2" d="m52.4 616.8c-20.4-5.9-33.4-12.7-32.6-18.2 1.3-8.6 36.4-10.5 78.4-4.3 42 6.2 75.1 18.2 73.8 26.8-0.9 6-18 8.8-42.3 7.9"/>
				<path id="&lt;Path&gt;" class="s2" d="m57.7 586.5c-15.4-27.8-23-49.4-17.8-52.8 6.8-4.4 33.2 24.3 59 64.1 25.8 39.8 41.1 75.7 34.3 80.1-4.5 2.9-17.6-8.6-33.4-28.3"/>
				<path id="&lt;Path&gt;" class="s3" d="m141.6 562.1c-2.1 3.2-6.4 4.1-9.6 2-3.1-2.1-4-6.4-1.9-9.6 2.1-3.1 6.3-4 9.5-1.9 3.2 2.1 4.1 6.3 2 9.5z"/>
				<path id="&lt;Path&gt;" class="s3" d="m118.8 667.5c-2.1 3.2-6.4 4.1-9.5 2-3.2-2.1-4.1-6.4-2-9.6 2.1-3.2 6.4-4 9.5-1.9 3.2 2.1 4.1 6.3 2 9.5z"/>
				<path id="&lt;Path&gt;" class="s3" d="m82 596c-2 3.2-6.3 4.1-9.5 2-3.2-2.1-4-6.4-2-9.5 2.1-3.2 6.4-4.1 9.6-2 3.2 2.1 4 6.4 1.9 9.5z"/>
			</g>
			<g id="&lt;Group&gt;">
				<path id="&lt;Path&gt;" class="s2" d="m520.7 296.7h23.5l11.8-20.5-11.8-20.4h-23.5l-11.8 20.4z"/>
				<path id="&lt;Path&gt;" class="s2" d="m517.2 341.4l-11.7-20.4h-23.6"/>
				<path id="&lt;Path&gt;" class="s2" d="m485.1 276.2h23.5l11.8-20.4-11.8-20.4h-23.5l-11.8 20.4z"/>
				<path id="&lt;Path&gt;" class="s2" d="m520.7 255.8h23.5l11.8-20.4-11.8-20.4h-23.5l-11.8 20.4z"/>
				<path id="&lt;Path&gt;" class="s3" d="m517.2 255.8c0-1.7 1.5-3.1 3.2-3.1 1.8 0 3.2 1.4 3.2 3.1 0 1.8-1.4 3.2-3.2 3.2-1.7 0-3.2-1.4-3.2-3.2z"/>
				<path id="&lt;Path&gt;" class="s3" d="m468 213c0-1.7 1.5-3.2 3.2-3.2 1.7 0 3.2 1.5 3.2 3.2 0 1.7-1.5 3.2-3.2 3.2-1.7 0-3.2-1.5-3.2-3.2z"/>
				<path id="&lt;Path&gt;" class="s3" d="m514.1 341.4c0-1.7 1.4-3.1 3.1-3.1 1.8 0 3.2 1.4 3.2 3.1 0 1.8-1.4 3.2-3.2 3.2-1.7 0-3.1-1.4-3.1-3.2z"/>
				<path id="&lt;Path&gt;" class="s3" d="m478.7 321c0-1.7 1.4-3.2 3.2-3.2 1.7 0 3.2 1.5 3.2 3.2 0 1.8-1.5 3.2-3.2 3.2-1.8 0-3.2-1.4-3.2-3.2z"/>
				<path id="&lt;Path&gt;" class="s3" d="m578.8 236c0-1.8 1.4-3.2 3.2-3.2 1.7 0 3.1 1.4 3.1 3.2 0 1.7-1.4 3.1-3.1 3.1-1.8 0-3.2-1.4-3.2-3.1z"/>
				<path id="&lt;Path&gt;" class="s3" d="m502.1 321c0-1.7 1.4-3.2 3.1-3.2 1.8 0 3.2 1.5 3.2 3.2 0 1.8-1.4 3.2-3.2 3.2-1.7 0-3.1-1.4-3.1-3.2z"/>
				<path id="&lt;Path&gt;" class="s3" d="m552.8 236c0-1.8 1.5-3.2 3.2-3.2 1.8 0 3.2 1.4 3.2 3.2 0 1.7-1.4 3.1-3.2 3.1-1.7 0-3.2-1.4-3.2-3.1z"/>
				<path id="&lt;Path&gt;" class="s3" d="m517.2 296.7c0-1.8 1.5-3.2 3.2-3.2 1.8 0 3.2 1.4 3.2 3.2 0 1.7-1.4 3.1-3.2 3.1-1.7 0-3.2-1.4-3.2-3.1z"/>
				<path id="&lt;Path&gt;" class="s2" d="m556 236h26"/>
				<path id="&lt;Path&gt;" class="s2" d="m520.4 296.7l-15.2 24.3"/>
				<path id="&lt;Path&gt;" class="s2" d="m485.1 235.4l-13.9-22.4"/>
			</g>
			<g id="&lt;Group&gt;">
				<path id="&lt;Path&gt;" class="s2" d="m652.2 155c5.3-18.1 22-31.3 41.8-31.3 20.5 0 37.7 14.1 42.4 33.2"/>
				<path id="&lt;Path&gt;" class="s2" d="m689.1 210.7c-21.8-2.5-38.7-20.9-38.7-43.4"/>
				<path id="&lt;Path&gt;" class="s2" d="m737.6 167.3c0 24.1-19.5 43.7-43.6 43.7"/>
				<path id="&lt;Path&gt;" class="s2" d="m740.1 139.7c13.6-1.8 22.8-0.8 24.2 3.3 2.8 8.1-26.4 25.6-65.2 39.1-38.8 13.4-72.5 17.8-75.4 9.6-1.5-4.3 6.2-11.3 19.5-19"/>
			</g>
			<path id="&lt;Path&gt;" class="s2" d="m505.2 109.8l4.2 8.5 9.3 1.3-6.7 6.6 1.6 9.3-8.4-4.4-8.3 4.4 1.6-9.3-6.8-6.6 9.3-1.3z"/>
			<g id="&lt;Group&gt;">
				<path id="&lt;Path&gt;" class="s2" d="m209.9 87.3c0 8.1-3.4 15.5-8.9 20.6-5.1 4.8-11.9 7.7-19.4 7.7q-1.4 0-2.7-0.1c-5.9-0.5-11.3-2.9-15.6-6.5-3.6-3.1-6.5-7-8.2-11.6-1.2-3.1-1.9-6.6-1.9-10.1 0-15.7 12.7-28.4 28.4-28.4 4.4 0 8.6 1 12.3 2.8 4.3 2.1 8 5.2 10.7 9 3.4 4.7 5.3 10.4 5.3 16.6z"/>
				<path id="&lt;Path&gt;" class="s2" d="m205.4 92.4c0 2.4-2 4.4-4.4 4.4-2.4 0-4.4-2-4.4-4.4 0-2.4 2-4.4 4.4-4.4 2.4 0 4.4 2 4.4 4.4z"/>
				<path id="&lt;Path&gt;" class="s2" d="m165.9 103.5c0 2.2-1 4.2-2.6 5.5-3.6-3.1-6.5-7-8.2-11.6 1-0.6 2.3-1 3.6-1 4 0 7.2 3.2 7.2 7.1z"/>
				<path id="&lt;Path&gt;" class="s2" d="m201 107.9c-5.1 4.8-11.9 7.7-19.4 7.7q-1.4 0-2.7-0.1-0.3-1.1-0.3-2.3c0-6.5 5.3-11.8 11.8-11.8 4.7 0 8.7 2.6 10.6 6.5z"/>
				<path id="&lt;Path&gt;" class="s2" d="m181.2 69.5c0 3.6-2.9 6.5-6.5 6.5-3.6 0-6.5-2.9-6.5-6.5 0-3.6 2.9-6.5 6.5-6.5 3.6 0 6.5 2.9 6.5 6.5z"/>
				<path id="&lt;Path&gt;" class="s2" d="m180.7 88c0 1.7-1.3 3-3 3-1.6 0-3-1.3-3-3 0-1.7 1.4-3 3-3 1.7 0 3 1.3 3 3z"/>
				<path id="&lt;Path&gt;" class="s2" d="m204.6 70.7c-0.8 0.3-1.6 0.4-2.5 0.4-4.6 0-8.3-3.7-8.3-8.3q0-0.6 0.1-1.1c4.3 2.1 8 5.2 10.7 9z"/>
			</g>
			<path id="&lt;Compound Path&gt;" fill-rule="evenodd" class="s2" d="m851.3 414.7q-1.1 1.5-2.6 2.6l1.6 5.4-7.1 2.7-2.4-5.1q-1.9 0.2-3.7-0.1l-2.7 5-6.9-3.1 1.8-5.3q-1.4-1.2-2.5-2.7l-5.4 1.6-2.7-7.1 5.1-2.4q-0.2-1.8 0.1-3.7l-5-2.7 3.1-6.9 5.3 1.9q1.2-1.5 2.7-2.6l-1.6-5.4 7-2.7 2.5 5.1q1.8-0.2 3.7 0.1l2.7-5 6.9 3.1-1.9 5.3q1.5 1.2 2.6 2.7l5.4-1.6 2.7 7-5.1 2.5q0.2 1.8-0.1 3.7l5 2.7-3.1 6.9zm-4-6.5c1.9-4.4 0-9.5-4.5-11.5-4.4-2-9.5 0-11.5 4.4-2 4.5 0 9.6 4.4 11.6 4.4 1.9 9.6 0 11.6-4.5z"/>
			<path id="&lt;Compound Path&gt;" fill-rule="evenodd" class="s2" d="m812.9 449.4q-1.6 1.9-3.6 3.4l2.1 7.4-9.5 3.6-3.4-6.9q-2.5 0.3-5-0.1l-3.7 6.7-9.3-4.1 2.5-7.3q-1.9-1.6-3.4-3.6l-7.4 2.1-3.7-9.5 6.9-3.4q-0.2-2.4 0.2-4.9l-6.8-3.7 4.2-9.4 7.3 2.5q1.6-1.9 3.6-3.4l-2.2-7.4 9.6-3.6 3.3 6.9q2.5-0.3 5 0.1l3.7-6.7 9.4 4.1-2.6 7.3q2 1.6 3.5 3.6l7.3-2.1 3.7 9.5-6.9 3.4q0.2 2.4-0.1 4.9l6.7 3.7-4.2 9.4zm-5.4-8.8c2.7-6 0-13-6-15.6-6-2.7-13.1 0-15.7 6-2.7 6 0 13 6 15.7 6 2.6 13-0.1 15.7-6.1z"/>
		</g>
	</g>
	<g id="Earth">
		<g id="&lt;Group&gt;">
			<g id="&lt;Clip Group&gt;">
				<g id="&lt;Group&gt;" style="opacity: .6">
					<path id="&lt;Path&gt;" class="s4" d="m405.5 363.2q-4.1 7.9-9.2 15l-2.5-1.9-4.2-2.3-4.4-2.3 0.8-5.3c0 0 0 0-0.3-4.8-0.2-4.9 3.2-0.9 6.1-2.4 2.9-1.5 5.1-5.9 5.1-5.9 0 0 2.1-6.4 1.4-9-0.7-2.6-3.8-8.7-3.8-8.7l-7.2 10-5.9-0.5-5.9-3.1-0.7-7.9-2.9-1.5-1.3-4.5-15.7-4.5c0 0 0 0-1.8-3.1-1.8-3.2-9.1-4.8-9.1-4.8l1.8-4.1c0 0 0 0 2.8-4.6 2.8-4.6 5.7 3 5.7 3l3.4 1.8 6.2-5.2c0 0 0 0 1.6-7.5l10.1 0.6c0 0-0.7-3.7 2.6-5 3.4-1.3 1.9-8.6 0.6-11.3-1.3-2.7-5.9-0.6-5.9-0.6 0 0-5.1-7.8-5.8-10.9-0.7-3.1 9.8-2.1 14.3-5.1 4.5-3.1 2.9-9.4 0.7-9.6-2.1-0.1 4.3-14.2 16.8-10.3 3.5 1.1 5.7 0.7 7.1-0.5 18.3 35.4 19.5 78.9-0.5 116.8z"/>
					<path id="&lt;Path&gt;" class="s4" d="m318.1 309.1c-4.3 5.4-4.3 5.4-4.3 5.4 0 0-1.8-4.3-4.4-2q-3.9 3.6-3.9 3.6l-2.9 8.1-5.2 3.4-3.2-1.7-3-1.6-3.3-1.7-3.1 5.9-2.5 4.8c1.9 3.7 4.5 6.5 4.5 6.5l5.6 9.7 6.5 3.5c4.1 0.1 8.4 1 8.4 1l4.6 2.4-1.6 10c0 0-3.5 5.7-5.8 4.1-2.4-1.5-2.4-1.5-2.4-1.5l-3.8 13.2-0.1 7.2c0 0-2.3 0.9-4.6 1.7-2.3 0.8-0.8 0.4-5.6 1.8-4.8 1.5-4.4 1.5-8.3 2.6-3.9 1.1-9.5 4.4-9.5 4.4l0.4 7-9.2 1.3-5.1-2.7 1.3-4.4 0.6-6.9-0.7-5.1-2.2-4.6 6.1-5.6-1.3-3.5-3.5-6.9-7.4 4-3.8 2-8.6-3.8-1-5.3-2.9-9.4-2.7-5.8-4.7-6.5-1.2-5.5 2.6-5.1 1.5-2.7-4.4-5.9-1.2-4.2-7.4-6.7c0 0 2.1-0.1 1.7-3.1-0.5-3 4.2-8 4.2-8 2.6 1.4 10.6 7 10.6 7l7 0.9c0.1 0 1.4 0 2.8-2.6 1.4-2.7 5.5-6.7 5.5-6.7 0 0-3.2-11.1-0.9-12.6 2.3-1.6 4.6-8.9 4.6-8.9l1.9-3.5c0 0-4.4-1.9-5.2-4.2-0.8-2.3-11.5 0.8-11.5 0.8l-7.4 5.1-5.6 4.5-2.5 4.8c0 0-5.2-6.2-5.2-2.7 0 3.4-2.3 10.4-2.3 10.4 0 0 1 0.5-0.4 3.2-1.4 2.7-2.9 2.6-6 2.9-3.2 0.4-12-0.8-12-0.8 0 0-2 7.4-0.6 8.7 1.4 1.2 1.4 1.2 1.4 1.2 0 0-2.2 5.4-4.3 4.3-2.1-1.1-5.1-2.7-5.1-2.7l-7.3 2.9-7.9 8.8-1.8-0.3c-3.8-25.7 0.2-52.8 13.2-77.5 19.3-36.5 54-59.7 91.8-65.7 0.5 2 1 3.9 1 3.9l-2 9.8-2.5 4.9-2.2 4.2-3.1 5.9 7.7 7.3-1.7 8.7-4.3 2.7-1.2 6.5 7.3 14.4 2.1 5.6c0 0-2.3 5.2-1.8 8.7 0 0 0.9 5.4 4.9 7.5 3.9 2.1 9.1 4.7 9.1 4.7l-0.4 8-1.8 2.1 3 8.6c9 3.6 8.1 6.5 9 3.6 0.9-3 0.9-3 0.9-3l6.1-2.2 7.8 9.3c0 0 2.4-0.3 4.6 2.5 2.2 2.7 5.8 0.2 1.5 5.6z"/>
					<path id="&lt;Path&gt;" class="s4" d="m212.1 378.8c0.2 2.8-3.4 6.4-3.4 6.4l2.9 1.5 0.9 7.9-2.2 4.3c-16-14.1-27.8-31.8-34.9-51.3l1.6-8.4 7.1-1c0 0 6.3-4.2 9.1-3.1 2.8 1.1 5.4 7.9 5.4 7.9 0 0 2 9.3 1.7 9.1l-0.2 0.1 0.2-0.1 2.9 1.5 0.8 3.7-4 7.6h-6.5c0 0-1.2-0.7-1.4 2.7-0.1 3.3 3.4 5.8 3.4 5.8l6.9-1.7c1.9-7.2 1.9-7.2 1.9-7.2l6.8-1.4c0 0-0.9 4.4 0.7 5.3 1.6 0.8 1.6 0.8 1.6 0.8l0.9 5.3c0 0-2.4 1.4-2.2 4.3z"/>
					<path id="&lt;Path&gt;" class="s4" d="m245.2 390.1c-0.7-1.7-0.9-3.2-5.2-5.5-4.2-2.2-4-1.4-5.7 0.5-1.6 1.8-3.5 2.8-6.3 2.2-2.8-0.6-1.4 2.6-1.4 2.6l0.7 8.5-7.9 7.8q3.7 2.7 7.6 5.1l1.7-5.1 13.1 3.9c-2.8-0.9-1.1-4.7-1.1-4.7l-2.8-1.4c0 0 7.9-12.2 7.3-13.9z"/>
					<path id="&lt;Path&gt;" class="s4" d="m327.8 345.7l-4.3-4.3-4.9 1.5-2.1 4-1.5 2.9 2 3.9 4 4.8 2.3-4.3c0 0 6.4 0 9.7-3.7 3.3-3.7-5.2-4.8-5.2-4.8z"/>
					<path id="&lt;Path&gt;" class="s4" d="m315.2 326.1l8 4.2c0 0 0 0 0.3-1.9 0.3-1.8 2.1-4.1 2.1-4.1l-6.1-6.4z"/>
					<path id="&lt;Path&gt;" class="s4" d="m312.4 419.2l-2.3-3.4-2.6-1.4h-8.2l-4.7 8.9c0 0-4.4-0.6-10.3-1.1-5.9-0.6-4.4 1.9-4.4 1.9l-1.5 5.5c14.9 1.9 29.9 1 44.3-2.4-2.4-1.6-5.3-3.2-5.3-3.2z"/>
				</g>
				<path id="&lt;Path&gt;" class="s5" d="m405.5 363.2q-4.1 7.9-9.2 15c-18.2 25.3-44.7 42.2-73.7 49-14.3 3.4-29.3 4.3-44.2 2.4-14.8-1.8-29.4-6.3-43.3-13.6q-4.2-2.2-8.1-4.7-3.9-2.4-7.6-5.1-4.4-3.2-8.5-6.8 0 0 0 0-0.3-0.2-0.5-0.5-0.1 0-0.1 0c-16-14.1-27.8-31.8-34.9-51.3-2.9-7.9-5-16.2-6.3-24.6-3.8-25.7 0.2-52.8 13.2-77.5 19.3-36.5 54-59.7 91.8-65.7 26-4.2 53.6-0.3 78.7 13 23.7 12.5 41.8 31.5 53.2 53.6 18.3 35.4 19.5 78.9-0.5 116.8z"/>
			</g>
			<path id="&lt;Path&gt;" class="s2" d="m322.6 427.2c-14.3 3.4-29.3 4.3-44.2 2.4l1.5-5.5c0 0-1.5-2.5 4.4-1.9 5.9 0.5 10.3 1.1 10.3 1.1l4.7-8.9h8.2l2.6 1.4 2.3 3.4 5 4.8c0 0 2.9 1.6 5.2 3.2z"/>
			<g id="&lt;Group&gt;">
				<path id="&lt;Path&gt;" class="s2" d="m406 246.4c-1.4 1.2-3.6 1.6-7.1 0.5-12.5-3.9-18.9 10.2-16.8 10.3 2.2 0.2 3.8 6.5-0.7 9.6-4.5 3-15 2-14.3 5.1 0.7 3.1 5.8 10.9 5.8 10.9 0 0 4.6-2.1 5.9 0.6 1.3 2.7 2.8 10-0.6 11.3-3.3 1.3-2.6 5-2.6 5l-10.1-0.6c-1.6 7.5-1.6 7.5-1.6 7.5l-6.2 5.2-3.4-1.8c0 0-2.9-7.6-5.7-3-2.8 4.6-2.8 4.6-2.8 4.6l-1.8 4.1c0 0 7.3 1.6 9.1 4.8 1.8 3.1 1.8 3.1 1.8 3.1l15.7 4.5 1.3 4.5 2.9 1.5 0.7 7.9 5.9 3.1 5.9 0.5 7.2-10c0 0 3.1 6.1 3.8 8.7 0.7 2.6-1.4 9-1.4 9 0 0-2.2 4.4-5.1 5.9-2.9 1.5-6.3-2.5-6.1 2.4 0.3 4.8 0.3 4.8 0.3 4.8l-0.8 5.3 4.4 2.3 4.2 2.3 2.5 1.9"/>
				<path id="&lt;Path&gt;" class="s2" d="m169.1 323l1.8 0.3 7.9-8.8 7.3-2.9c0 0 3 1.6 5.1 2.7 2.1 1.1 4.3-4.3 4.3-4.3 0 0 0 0-1.4-1.2-1.4-1.3 0.6-8.7 0.6-8.7 0 0 8.8 1.2 12 0.8 3.1-0.3 4.6-0.2 6-2.9 1.4-2.7 0.4-3.2 0.4-3.2 0 0 2.3-7 2.3-10.4 0-3.5 5.2 2.7 5.2 2.7l2.5-4.8 5.6-4.5 7.4-5.1c0 0 10.7-3.1 11.5-0.8 0.8 2.3 5.2 4.2 5.2 4.2l-1.9 3.5c0 0-2.3 7.3-4.6 8.9-2.3 1.5 0.9 12.6 0.9 12.6 0 0-4.1 4-5.5 6.7-1.4 2.7-2.8 2.6-2.8 2.6l-7-0.9c0 0-8-5.6-10.6-7 0 0-4.7 5-4.2 8 0.4 3-1.7 3.1-1.7 3.1l7.4 6.7 1.2 4.2 4.4 5.9-1.5 2.7-2.6 5.1 1.2 5.5 4.7 6.5 2.7 5.8 2.9 9.4 1 5.3 8.6 3.8 3.8-2 7.4-4 3.5 6.9 1.3 3.5-6.1 5.6 2.2 4.6 0.7 5.1-0.6 6.9-1.3 4.4 5.1 2.7 9.2-1.3-0.4-7c0 0 5.6-3.3 9.5-4.4 3.9-1.1 3.5-1.1 8.3-2.6 4.8-1.4 3.3-1 5.6-1.8 2.3-0.8 4.6-1.7 4.6-1.7l0.1-7.2 3.8-13.2c0 0 0 0 2.4 1.5 2.3 1.6 5.8-4.1 5.8-4.1l1.6-10-4.6-2.4c0 0-4.3-0.9-8.4-1l-6.5-3.5-5.6-9.7c0 0-2.6-2.8-4.5-6.5l2.5-4.8 3.1-5.9 3.3 1.7 3 1.6 3.2 1.7 5.2-3.4 2.9-8.1q0 0 3.9-3.6c2.6-2.3 4.4 2 4.4 2 0 0 0 0 4.3-5.4 4.3-5.4 0.7-2.9-1.5-5.6-2.2-2.8-4.6-2.5-4.6-2.5l-7.8-9.3-6.1 2.2c0 0 0 0-0.9 3-0.9 2.9 0 0-9-3.6l-3-8.6 1.8-2.1 0.4-8c0 0-5.2-2.6-9.1-4.7-4-2.1-4.9-7.5-4.9-7.5-0.5-3.5 1.8-8.7 1.8-8.7l-2.1-5.6-7.3-14.4 1.2-6.5 4.3-2.7 1.7-8.7-7.7-7.3 3.1-5.9 2.2-4.2 2.5-4.9 2-9.8c0 0-0.5-1.9-1-3.9"/>
				<path id="&lt;Path&gt;" class="s2" d="m210.9 399.4c-0.2-0.2-0.4-0.4-0.5-0.5q-0.1 0-0.1 0l2.2-4.3-0.9-7.9-2.9-1.5c0 0 3.6-3.6 3.4-6.4-0.2-2.9 2.2-4.3 2.2-4.3l-0.9-5.3c0 0 0 0-1.6-0.8-1.6-0.9-0.7-5.3-0.7-5.3l-6.8 1.4c0 0 0 0-1.9 7.2l-6.9 1.7c0 0-3.5-2.5-3.4-5.8 0.2-3.4 1.4-2.7 1.4-2.7h6.5l4-7.6-0.8-3.7-2.9-1.5"/>
				<path id="&lt;Path&gt;" class="s2" d="m200.3 352.1c0.3 0.2-1.7-9.1-1.7-9.1 0 0-2.6-6.8-5.4-7.9-2.8-1.1-9.1 3.1-9.1 3.1l-7.1 1-1.6 8.4"/>
				<path id="&lt;Path&gt;" class="s2" d="m228.7 406.2l-1.7 5.1q-3.9-2.4-7.6-5.1l7.9-7.8-0.7-8.5c0 0-1.4-3.2 1.4-2.6 2.8 0.6 4.7-0.4 6.3-2.2 1.7-1.9 1.5-2.7 5.7-0.5 4.3 2.3 4.5 3.8 5.2 5.5 0.6 1.7-7.3 13.9-7.3 13.9l2.8 1.4c0 0-1.7 3.8 1.1 4.7z"/>
				<path id="&lt;Path&gt;" class="s2" d="m318.6 342.9l4.9-1.5 4.3 4.3c0 0 8.5 1.1 5.2 4.8-3.3 3.7-9.7 3.7-9.7 3.7l-2.3 4.3-4-4.8-2-3.9 1.5-2.9z"/>
				<path id="&lt;Path&gt;" class="s2" d="m325.6 324.3c0 0-1.8 2.3-2.1 4.1-0.3 1.9-0.3 1.9-0.3 1.9l-8-4.2 4.3-8.2z"/>
			</g>
		</g>
	</g>
	<g id="Character">
		<g id="&lt;Group&gt;">
			<path id="&lt;Path&gt;" class="s3" d="m759.7 796.1c-10.8 8.9-93.3 65.6-211.2 56.5-6.3-53.7-30.5-274.1-3-308.6 0 0 66.7-31.8 128.2-18.5 61.4 13.4 85.4 26.2 89.7 37.3 3.4 8.4-1.4 164.4-3.7 233.3z"/>
			<path id="&lt;Path&gt;" class="s6" d="m671.6 549.1c-35.4 30.6-81 24.2-80 0.6 0.2-3.7 4.1-8.2 4.1-8.2 0 0-0.5-0.8-1.3-2.1-1.4-2-3.5-5.3-6-9.1-4.4-6.8-9.8-15.3-13.7-21.5-3.2-5.3 76.6-54.4 76.6-26.1 0 39.7 19.5 47.2 19.5 47.2 7.3 3 14.2 7.6 0.8 19.2z"/>
			<path id="&lt;Path&gt;" class="s7" d="m694 609.8c0 0-7.1 24.5-3.7 31.5"/>
			<path id="&lt;Path&gt;" class="s7" d="m685.7 538.7c0 23.6-70.5 46.8-91.1 23.1"/>
			<path id="&lt;Path&gt;" class="s3" d="m627.7 511.5c0 0-4.7 17.8-26.7 31.7 0 0-1.1-2.5-4.7-3.8-0.7-0.2-1.3 0-1.9 0-1.4-2-3.5-5.3-6-9.1 11.2-8.1 39.3-18.8 39.3-18.8z"/>
			<g id="&lt;Group&gt;">
				<path id="&lt;Path&gt;" class="s6" d="m637.6 489.6c0 0-0.2 17.5-4 21.1-27.9 26.8-55.1 28.9-59.6 21.8-30.3-47.5-23.2-60-26.3-68.1-5.4-14.3-12.1-37.6-9.2-51.7 6.6-31.6 66.1-55.9 97.3-24.3 15 15.2 19.8 48.1 16.6 75.6"/>
				<path id="&lt;Path&gt;" class="s2" d="m551.5 449.7c0 0-8.3-3.7-10.1 0.7"/>
				<path id="&lt;Path&gt;" class="s2" d="m571.7 449.9c0 0 17.4-7.3 25.2 1.6"/>
				<path id="&lt;Path&gt;" class="s3" d="m590.9 462.3c0.3 2.6-1 4.9-2.8 5.1-1.9 0.2-3.6-1.8-3.9-4.4-0.3-2.6 1-4.9 2.9-5.1 1.8-0.2 3.5 1.8 3.8 4.4z"/>
				<path id="&lt;Path&gt;" class="s3" d="m557 463.1c0.3 2.6-1 4.9-2.9 5.1-1.8 0.2-3.6-1.8-3.8-4.4-0.3-2.6 0.9-4.9 2.8-5.1 1.9-0.2 3.6 1.8 3.9 4.4z"/>
				<path id="&lt;Path&gt;" class="s6" d="m557.8 456.2c2.5 3.9 1.1 10.6-2.1 19.7-3.1 9.2-0.3 12.5 11.9 13.4"/>
				<path id="&lt;Path&gt;" class="s2" d="m567.6 505.1c0 0 16.1-1.4 23.4-5.5"/>
				<path id="&lt;Path&gt;" class="s3" d="m669 414.4c0-11.8-11.8-36.2-32.3-39-11.8-12.3-28.7-16.9-49.1-12.2-47.3 10.9-61.6 57.5-63.7 65.2-0.2 0.8-0.3 1.2-0.3 1.2l12.6-3.2-5.4 10.6 6.6 4.4-1.5 1.6 7.7 7.4-2.4-13.5c1.5-8.7 11.5-20.9 11.5-20.9-5.9 7-6.6 16.4-6.6 16.4 4-10.4 28-19.9 28-19.9-7.8 6.3-11.9 18.6-11.9 18.6 7.4-9.1 24.7-15 35.8-18.1 3.8 9 9.7 18.4 18.2 23.6 8 5 7.7 15.1 7.7 15.1 13.9 9.1 18 24.7 18 24.7l9.6 13.3c0 0 17.5-21.5 17.5-75.3z"/>
				<path id="&lt;Path&gt;" class="s6" d="m628.3 455c-3.3-6.9 8.5-25.7 16.8-23.4 4.7 1.3 10.8 9.9 12 18.8 1.2 9-5.1 26-11.9 29.7-4.3 2.4-7.8-4.1-7.8-4.1"/>
			</g>
			<g id="&lt;Group&gt;">
				<path id="&lt;Path&gt;" class="s4" d="m118 794.5l226-52.8 471.4 54.4-121.4 83z"/>
				<path id="&lt;Path&gt;" class="s6" d="m118 794.5l226-52.8 471.4 54.4"/>
			</g>
			<path id="&lt;Path&gt;" class="s6" d="m313.6 805.1l91.5-40.4 115.6 5.9-51.4 44z"/>
			<g id="&lt;Group&gt;">
				<path id="&lt;Path&gt;" class="s3" d="m550 542c-29.4 12-35.7 39-85.6 145.6 0 0-22.1 4.6-34 31.5-11.8 26.9 7.9 48.1 30.9 47.4 0 0 9.2 7.9 27.9 7.2 18.8-0.8 102.1-128.1 102.1-128.1z"/>
				<path id="&lt;Path&gt;" class="s7" d="m473.2 693.9c13.1 11.6 20.6 28.8 16.6 47.8"/>
				<path id="&lt;Path&gt;" class="s7" d="m485.8 699.5c0 0 16.2 3.5 18.7 24.1"/>
				<path id="&lt;Path&gt;" class="s7" d="m533 639.1c0 0-12.3-27.2-7.6-59.4"/>
				<path id="&lt;Path&gt;" class="s7" d="m530.7 611.9c-1.2 8.4 7.5 53.1 7.4 100.1"/>
			</g>
			<g id="&lt;Group&gt;">
				<path id="&lt;Path&gt;" class="s3" d="m750 550.8c36.7 18.5 41.1 75.2 6.5 143.1-24.5 47.8-58.2 118.5-79.6 123.3-21.4 4.7-42.2-8.6-42.2-8.6 0 0-18-0.8-23.4-13.6-14.9-35.1 22.9-79.2 37.8-68.6 0 0 47.5-103.4 56.2-109.9"/>
				<path id="&lt;Path&gt;" class="s7" d="m607.9 773.7c-5-24.1 33-52.6 41.2-47.3 0 0 28.2 1.6 32.4 21.1"/>
				<path id="&lt;Path&gt;" class="s7" d="m711.2 778.9c16.6-29.2 45.3-85 45.3-85"/>
				<path id="&lt;Path&gt;" class="s7" d="m649.1 726.4c0 0 19.8-11.9 34.5-0.7"/>
				<path id="&lt;Path&gt;" class="s7" d="m655.8 712c0 0 10.9-23.9 22-46 11.1-22.1 36.4-54.6 47-56.2"/>
			</g>
			<g id="&lt;Group&gt;">
				<g id="&lt;Clip Group&gt;">
					<path id="&lt;Path&gt;" class="s8" d="m447.3 755.1c-0.3-2.3-1-4.8-2-7.3-7.2-17.9-50.4-53.5-50.4-53.5-10.2-0.3-21.5-4.6-30.7-9.1-11.1-14.6-17.1-25.3-17.1-25.3l8.2-34.9c0 0 7.6 19.9 38.5 39.6 30.8 19.8 67.5 26.2 79.4 45.9 10.5 17.6-8 45.5-25.9 44.6z"/>
					<path id="&lt;Path&gt;" class="s6" d="m447.3 755.1c-2.3-0.1-4.6-0.7-6.8-1.8-34-17.8-60.4-47.1-76.3-68.1-11.1-14.6-17.1-25.3-17.1-25.3l8.2-34.9c0 0 7.6 19.9 38.5 39.6 30.8 19.8 67.5 26.2 79.4 45.9 10.5 17.6-8 45.5-25.9 44.6z"/>
				</g>
				<path id="&lt;Path&gt;" class="s6" d="m370.3 657.9c0 0-4.2 18.6-15.3 14.4-6.1-2.2-17.6-20.1-19.8-29.2z"/>
				<g id="&lt;Group&gt;">
					<path id="&lt;Path&gt;" class="s6" d="m321.3 543.1l9.1-4.7c0 0 25.6 0.2 41.6 13.2 14.4 11.7 21.8 30.2 21.8 30.2 0 0 56.1-31.1 113.5-13.3l23.4 130.5-107.6 7.1-67.1-63.9z"/>
					<g id="&lt;Clip Group&gt;">
						<g id="&lt;Group&gt;" style="opacity: .3">
							<path id="&lt;Path&gt;" class="s9" d="m415.9 711.6c-2.7-4.1-24.7-35.5-56-48.3l-44.3-123.9c0 0 46 2.1 71.2 43.6z"/>
						</g>
						<g id="&lt;Group&gt;" style="opacity: .3">
							<path id="&lt;Path&gt;" class="s9" d="m508.6 704.4c-25.5 0.8-60.8 3.6-76.9 13l-0.7-0.2-29.5-125.2c0 0 24.1-5.4 31.5-2.6 0 0 49 36.1 75.6 115z"/>
						</g>
						<path id="&lt;Path&gt;" class="s5" d="m538.1 704.2c0 0-12.6-0.4-29.5 0.2-25.5 0.8-60.8 3.6-76.9 13l-0.7-0.2-14.8-5.2q0 0-0.3-0.4c-2.7-4.1-24.7-35.5-56-48.3l-44.3-123.9c0 0 46 2.1 71.2 43.6l12.6 4.5c0 0 75.1-22.2 117.1-14.2z"/>
					</g>
					<path id="&lt;Path&gt;" class="s2" d="m399.4 587.5l28.9 120.1"/>
					<path id="&lt;Path&gt;" class="s2" d="m416.2 712l-28.1-120"/>
				</g>
				<g id="&lt;Group&gt;">
					<path id="&lt;Path&gt;" class="s6" d="m344.8 660.1c-6.5-1.8-19.4-40.4-13.5-57 0 0 7.1-12.2 9.9-13 4.5-1.3 22.6-1 21.7 2.1-2 7-15.9 6.9-15.9 6.9l-4.5 8.2 0.2 4.6c0 0 6.6-4.8 9-4.6 1.2 0 7.6 3.2 12.7 5.8 4.3 2.3 7 3.6 6 5.7-3.2 6.9-16.9 2-16.9 2l-5.2 7.8c0 0 5 0.9 7.2 1.1 2.4 0.3 20.3 12.3 19.7 13.8-2.1 5.9-19.3-0.5-19.3-0.5l-3 2.6c0 0 12.6 3.2 13.9 3.7 2 0.8 9.7 6.7 9.6 7.4-0.9 5.2-11.5 1.3-11.5 1.3l-9.3-0.3c0 0-1.9 1.8-5 2.5"/>
					<path id="&lt;Path&gt;" class="s2" d="m342.7 611.9c0 0-5.9 5-7.5 6.5-1.6 1.4-1.2 6.1-1.2 6.1"/>
					<path id="&lt;Path&gt;" class="s2" d="m338.4 634.7c-0.1 5.1 3.4 8.2 4.9 9.8 1.6 1.7-2.5 6.1 2 9.3"/>
				</g>
				<g id="&lt;Group&gt;">
					<g id="&lt;Clip Group&gt;">
						<path id="&lt;Path&gt;" class="s8" d="m591.3 752.5c-11.1-16.1-23.6-33.1-37.9-44.1 2.6 0 4.5-0.3 5.6-0.8 0 0 22.6 18.4 32.3 44.9z"/>
						<path id="&lt;Path&gt;" class="s6" d="m634.6 795.7c-12.7 3.5-26.5-18.8-43.3-43.2-11.1-16.1-23.6-33.1-37.9-44.1q-1.7-1.3-3.4-2.5l8.3-41.9c17.4 9.1 28.1 23.7 46.2 38.7 29 24.1 54.7 38.9 61.8 49.6 7.1 10.7-9.9 37.5-31.7 43.4z"/>
					</g>
					<g id="&lt;Clip Group&gt;">
						<path id="&lt;Path&gt;" class="s8" d="m557.2 708.1c-13.4 3.5-43.6-3.7-43.6-3.7 0 0-19.8-9.4-21-11.7-0.7-1.4-1.6-3.8-2.2-5.4l24.3 2.8c0 0-3 4.7 0 9.9 2.7 4.9 33.4 9.8 42.5 8.1z"/>
						<path id="&lt;Path&gt;" class="s6" d="m563 704.4c-0.7 1.4-2.1 2.5-4 3.2q-0.7 0.3-1.4 0.5-0.2 0-0.4 0c-13.4 3.5-43.6-3.7-43.6-3.7 0 0-19.8-9.4-21-11.7-0.7-1.4-1.6-3.8-2.2-5.4-0.3-0.9-0.6-1.5-0.6-1.5 0 0-7.1-4-7.9-7.2-0.8-3.1-2.4-3.9 2-4.5 4.4-0.6 28.1 0 28.1 0l-25.7-10.5c0 0-17-8.6-18.6-11.6-1.6-3-3.6-5 5.1-3.8 8.7 1.2 27.7 6.7 27.7 6.7l14.9 3.2-14.9-6.4c0 0-29.3-3.5-23.7-12.6 0 0 11.1 0 16.6 0 5.5 0 23.3 2.1 28.1 3.5 4.8 1.5 36.8 21.4 36.8 21.4"/>
					</g>
					<path id="&lt;Path&gt;" class="s2" d="m489.8 685.8l29.3 4.3"/>
				</g>
			</g>
			<g id="&lt;Group&gt;">
				<g id="&lt;Clip Group&gt;">
					<g id="&lt;Group&gt;" style="opacity: .3">
						<path id="&lt;Path&gt;" class="s9" d="m198.6 775.2l73.2 22.1 134-30.6c0 0-81.8-23.3-82.6-22.7-0.8 0.5-124.6 31.2-124.6 31.2z"/>
					</g>
					<path id="&lt;Path&gt;" class="s5" d="m198.6 775.2l73.2 22.1 134-30.6c0 0-81.8-23.3-82.6-22.7-0.8 0.5-124.6 31.2-124.6 31.2z"/>
				</g>
				<g id="&lt;Clip Group&gt;">
					<g id="&lt;Group&gt;" style="opacity: .3">
						<path id="&lt;Path&gt;" class="s9" d="m199.6 749.4c-5.1 0.4-6.4 18.9-1 25.8l118.3-24.5 9.5-22.5z"/>
					</g>
					<path id="&lt;Path&gt;" class="s5" d="m199.6 749.4c-5.1 0.4-6.4 18.9-1 25.8l118.3-24.5 9.5-22.5z"/>
				</g>
				<path id="&lt;Path&gt;" class="s6" d="m400.1 749.2c0 0-1.8 9.7-0.7 15.7l-127.7 28.9-67.4-19.8c0 0-7-12.3-0.9-21.9l123.1-20.9z"/>
				<path id="&lt;Path&gt;" class="s5" d="m199.6 749.4l126.8-21.2 78.7 20-132.4 26.4z"/>
				<path id="&lt;Path&gt;" class="s2" d="m204.1 761.3l67 19.9 109.7-22"/>
				<path id="&lt;Path&gt;" class="s2" d="m399.1 761.2l-118 25.2"/>
				<path id="&lt;Path&gt;" class="s2" d="m205.7 769.1c1 0.1 50.5 15.4 50.5 15.4"/>
				<path id="&lt;Path&gt;" class="s2" d="m389.4 756.6l9.4-1.5"/>
				<path id="&lt;Path&gt;" class="s2" d="m269 788.2l-5-1.1"/>
				<g id="&lt;Clip Group&gt;">
					<g id="&lt;Group&gt;" style="opacity: .3">
						<path id="&lt;Path&gt;" class="s0" d="m203.4 752.1c0 0 9.1 9.6 0.9 21.9 0 0-7.6-10-0.9-21.9z"/>
					</g>
					<path id="&lt;Path&gt;" class="s10" d="m203.4 752.1c0 0 9.1 9.6 0.9 21.9 0 0-7.6-10-0.9-21.9z"/>
				</g>
			</g>
			<g id="&lt;Clip Group&gt;">
				<path id="&lt;Path&gt;" class="s8" d="m477.1 781.2l127.9 5.3-12.4 44-157.4-6z"/>
				<path id="&lt;Path&gt;" class="s6" d="m477.1 781.2l127.9 5.3-12.4 44-157.4-6z"/>
			</g>
		</g>
	</g>
</svg>