<svg version="1.2" xmlns="http://www.w3.org/2000/svg" viewBox="0 0 981 845" width="981" height="845">
	<title>6642844-ai</title>
	<style>
		.s0 { fill: #ebebeb } 
		.s1 { fill: #f0f0f0 } 
		.s2 { fill: #e0e0e0 } 
		.s3 { fill: #fafafa } 
		.s4 { fill: #f5f5f5 } 
		.s5 { fill: #455a64 } 
		.s6 { fill: #ba68c8 } 
		.s7 { fill: #ffffff } 
		.s8 { fill: #000000 } 
		.s9 { fill: #ffc4c3 } 
		.s10 { fill: #263238 } 
		.s11 { fill: #37474f } 
		.s12 { fill: #ffa8a7 } 
		.s13 { fill: #f0997a } 
		.s14 { fill: #b16668 } 
		.s15 { fill: #f28f8f } 
		.s16 { opacity: .2;fill: #000000 } 
		.s17 { fill: #9a4a4d } 
	</style>
	<g id="Fence">
		<g id="Fence">
			<g id="&lt;Group&gt;">
				<g id="Puck 1 ">
					<g id="&lt;Group&gt;">
						<path id="&lt;Path&gt;" class="s0" d="m62.5 122c0-0.7-0.5-1.5-1.5-2.1-2-1.1-5.2-1.1-7.2 0-1 0.6-1.5 1.4-1.5 2.1 0 0.3 0 345.9 0 346.2 0 0.8 0.5 1.5 1.5 2.1 2 1.1 5.2 1.1 7.2 0 1-0.6 1.5-1.3 1.5-2.1 0-0.3 0-345.9 0-346.2z"/>
					</g>
					<g id="&lt;Group&gt;">
						<path id="&lt;Path&gt;" class="s1" d="m53.8 119.9c-1 0.6-1.5 1.4-1.5 2.1 0 0.8 0.5 1.5 1.5 2.1 2 1.2 5.2 1.2 7.2 0 1-0.6 1.5-1.3 1.5-2.1 0-0.7-0.5-1.5-1.5-2.1-2-1.1-5.2-1.1-7.2 0z"/>
					</g>
				</g>
				<g id="Puck 2 ">
					<g id="&lt;Group&gt;">
						<path id="&lt;Path&gt;" class="s0" d="m223.5 25.2c0-0.8-0.5-1.5-1.5-2.1-2-1.2-5.2-1.2-7.2 0-1 0.6-1.5 1.3-1.5 2.1 0 0.2 0 345.9 0 346.1 0 0.8 0.5 1.6 1.5 2.1 2 1.2 5.2 1.2 7.2 0 1-0.5 1.5-1.3 1.5-2.1 0-0.2 0-345.9 0-346.1z"/>
					</g>
					<g id="&lt;Group&gt;">
						<path id="&lt;Path&gt;" class="s1" d="m214.8 23.1c-1 0.6-1.5 1.3-1.5 2.1 0 0.7 0.5 1.5 1.5 2.1 2 1.1 5.2 1.1 7.2 0 1-0.6 1.5-1.4 1.5-2.1 0-0.8-0.5-1.5-1.5-2.1-2-1.2-5.2-1.2-7.2 0z"/>
					</g>
				</g>
				<g id="Puck 3 ">
					<g id="&lt;Group&gt;">
						<path id="&lt;Path&gt;" class="s0" d="m394.5-20.8c0-0.8-0.5-1.5-1.5-2.1-2-1.2-5.2-1.2-7.2 0-1 0.6-1.5 1.3-1.5 2.1 0 0.2 0 345.9 0 346.2 0 0.7 0.5 1.5 1.5 2.1 2 1.1 5.2 1.1 7.2 0 1-0.6 1.5-1.4 1.5-2.1 0-0.3 0-346 0-346.2z"/>
					</g>
					<g id="&lt;Group&gt;">
						<path id="&lt;Path&gt;" class="s1" d="m385.8-22.9c-1 0.6-1.5 1.3-1.5 2.1 0 0.7 0.5 1.5 1.5 2.1 2 1.1 5.2 1.1 7.2 0 1-0.6 1.5-1.4 1.5-2.1 0-0.8-0.5-1.5-1.5-2.1-2-1.2-5.2-1.2-7.2 0z"/>
					</g>
				</g>
				<g id="Puck 6 ">
					<g id="&lt;Group&gt;">
						<path id="&lt;Path&gt;" class="s0" d="m910.2 122c0-0.7 0.5-1.5 1.5-2.1 2-1.1 5.2-1.1 7.2 0 1 0.6 1.5 1.4 1.5 2.1 0 0.3 0 345.9 0 346.2 0 0.8-0.5 1.5-1.5 2.1-2 1.1-5.2 1.1-7.2 0-1-0.6-1.5-1.3-1.5-2.1 0-0.3 0-345.9 0-346.2z"/>
					</g>
					<g id="&lt;Group&gt;">
						<path id="&lt;Path&gt;" class="s1" d="m918.9 119.9c1 0.6 1.5 1.4 1.5 2.1 0 0.8-0.5 1.5-1.5 2.1-2 1.2-5.2 1.2-7.2 0-1-0.6-1.5-1.3-1.5-2.1 0-0.7 0.5-1.5 1.5-2.1 2-1.1 5.2-1.1 7.2 0z"/>
					</g>
				</g>
				<g id="Puck 5 ">
					<g id="&lt;Group&gt;">
						<path id="&lt;Path&gt;" class="s0" d="m749.2 25.2c0-0.8 0.5-1.5 1.5-2.1 2-1.2 5.2-1.2 7.2 0 1 0.6 1.5 1.3 1.5 2.1 0 0.2 0 345.9 0 346.1 0 0.8-0.5 1.6-1.5 2.1-2 1.2-5.2 1.2-7.2 0-1-0.5-1.5-1.3-1.5-2.1 0-0.2 0-345.9 0-346.1z"/>
					</g>
					<g id="&lt;Group&gt;">
						<path id="&lt;Path&gt;" class="s1" d="m757.9 23.1c1 0.6 1.5 1.3 1.5 2.1 0 0.7-0.5 1.5-1.5 2.1-2 1.1-5.2 1.1-7.2 0-1-0.6-1.5-1.4-1.5-2.1 0-0.8 0.5-1.5 1.5-2.1 2-1.2 5.2-1.2 7.2 0z"/>
					</g>
				</g>
				<g id="Puck 4 ">
					<g id="&lt;Group&gt;">
						<path id="&lt;Path&gt;" class="s0" d="m578.2-20.8c0-0.8 0.5-1.5 1.5-2.1 2-1.2 5.2-1.2 7.2 0 1 0.6 1.5 1.3 1.5 2.1 0 0.2 0 345.9 0 346.2 0 0.7-0.5 1.5-1.5 2.1-2 1.1-5.2 1.1-7.2 0-1-0.6-1.5-1.4-1.5-2.1 0-0.3 0-346 0-346.2z"/>
					</g>
					<g id="&lt;Group&gt;">
						<path id="&lt;Path&gt;" class="s1" d="m586.9-22.9c1 0.6 1.5 1.3 1.5 2.1 0 0.7-0.5 1.5-1.5 2.1-2 1.1-5.2 1.1-7.2 0-1-0.6-1.5-1.4-1.5-2.1 0-0.8 0.5-1.5 1.5-2.1 2-1.2 5.2-1.2 7.2 0z"/>
					</g>
				</g>
			</g>
			<g id="&lt;Group&gt;">
				<path id="&lt;Path&gt;" class="s1" d="m962.8 394.5c-24.6-36.3-63.2-70.2-115.8-99.4-197.7-109.5-518.3-109.5-716 0-52.6 29.2-91.2 63.1-115.8 99.4v139h947.6z"/>
			</g>
			<g id="&lt;Group&gt;">
				<path id="&lt;Path&gt;" class="s0" d="m962.8 398.5c-1.3 0-2.5-0.6-3.3-1.7-25.1-36.9-63.6-69.9-114.5-98.1-196.3-108.7-515.7-108.7-712 0-50.9 28.2-89.4 61.2-114.5 98-1.2 1.9-3.8 2.4-5.6 1.1-1.9-1.2-2.4-3.8-1.1-5.6 25.8-38 65.2-71.8 117.2-100.6 198.5-109.9 521.5-109.9 720 0 52 28.8 91.4 62.6 117.2 100.6 1.3 1.8 0.8 4.4-1.1 5.6-0.7 0.5-1.5 0.7-2.3 0.7z"/>
			</g>
			<g id="&lt;Group&gt;">
				<path id="&lt;Path&gt;" class="s2" d="m962.8 188.4c-0.3 0-0.6-0.1-0.8-0.4-25.3-37.3-64.2-70.6-115.5-99-197.1-109.2-517.9-109.2-715 0-51.3 28.4-90.2 61.7-115.5 99-0.3 0.5-0.9 0.6-1.4 0.3-0.5-0.3-0.6-1-0.3-1.4 25.5-37.6 64.6-71.1 116.2-99.7 197.7-109.5 519.3-109.4 717 0 51.6 28.6 90.7 62.1 116.2 99.7 0.3 0.4 0.2 1.1-0.3 1.4q-0.3 0.1-0.6 0.1z"/>
			</g>
		</g>
	</g>
	<g id="Floor">
		<path id="Floor 00000183228226126543611550000015132325015905439419 " class="s3" d="m144.2 752.5c-190.5-110-190.5-288.3 0-398.2 190.4-110 499.2-110 689.6 0 190.5 109.9 190.5 288.2 0 398.2-190.4 109.9-499.2 109.9-689.6 0z"/>
	</g>
	<g id="Clouds">
		<path id="Cloud 3 " class="s1" d="m334.8-28.9c-2.3-1-4.9-1.1-6.9-1.2-2.2-0.2-2.9-0.7-3.3-1.1-5.4-7.8-14.4-8.1-19.7-5.8-1.3-5.4-7.8-10-14.8-8.4 0.2-7-8.6-14.4-16.6-16.1-7.6-1.6-14.2-0.9-18.6 4.1-4.6-9.1-22.8-11.6-32.7-6.8-5.6 2.7-10.5 5.6-12.8 10.7-1.6 3.5-2.1 5.8-2.1 10.4-3.9-3.4-11.6-4.3-16.7-2.3-5.5 2.1-6 6.3-6.2 10.5-5.5-1.4-9.1-0.5-10.1-0.2-3.5 1.1-5.5 3.8-5 6-2.8-0.1-9.4 2.1-8.6 5 0.8 3.3 8.4 2.9 11.2 2.8 2.3 0 5.3-0.7 7.8-1.2 0.8 0.4 2.8 0.8 4.1 0.8 4.8-0.1 6.8-2.1 7.5-3.9 2.4 4.9 10.7 8.7 16.5 10.2 11.1 2.8 26.7 1.1 33.5-7.2 0.7 1.5 1.9 2.9 3.3 4 2.7 2.3 6.4 3.8 10.2 4.2 4.6 0.4 16.8 1 20.2-6.2 2.4 4.8 13.2 6.9 21.5 5.8 3.1-0.5 6.5-1.5 9.2-2.8 2.2-1 3.4-2 5.3-3.2 1.7-1 2.4-1 4.6-0.3 5.6 1.7 12.2 2.4 17.9 0 4.7-2 5.6-5.8 1.3-7.8z"/>
		<path id="Cloud 4 " class="s4" d="m160.6-64c-1.5-0.6-3.3-0.7-4.5-0.8-1.5-0.1-1.9-0.4-2.2-0.7-3.5-5.1-9.4-5.2-12.9-3.8-0.8-3.5-5-6.5-9.7-5.5 0.2-4.5-5.6-9.4-10.8-10.5-5-1-9.3-0.6-12.1 2.7-3.1-5.9-15-7.6-21.4-4.5-3.7 1.8-6.9 3.7-8.4 7.1-1 2.2-1.4 3.7-1.4 6.7-2.5-2.2-7.6-2.8-10.9-1.5-3.6 1.4-3.9 4.1-4.1 6.9-3.5-0.9-5.9-0.3-6.6-0.1-2.3 0.7-3.6 2.5-3.3 3.9-1.8-0.1-6.1 1.4-5.6 3.3 0.6 2.1 5.5 1.9 7.3 1.8 1.5 0 3.5-0.4 5.2-0.8 0.5 0.3 1.8 0.5 2.6 0.5 3.2 0 4.5-1.3 5-2.5 1.5 3.2 6.9 5.7 10.8 6.6 7.2 1.9 17.4 0.8 21.9-4.6 0.4 0.9 1.2 1.8 2.1 2.6 1.8 1.4 4.2 2.5 6.7 2.7 3 0.3 10.9 0.6 13.2-4.1 1.6 3.2 8.6 4.6 14 3.8 2-0.3 4.3-1 6.1-1.8 1.4-0.7 2.2-1.3 3.4-2.1 1.1-0.6 1.6-0.6 3-0.2 3.7 1.1 8 1.6 11.8 0 3-1.2 3.6-3.8 0.8-5.1z"/>
	</g>
	<g id="Sun">
		<path id="Sun" class="s4" d="m834.6-49c0 15.6-12.6 28.2-28.2 28.2-15.5 0-28.1-12.6-28.1-28.2 0-15.5 12.6-28.1 28.1-28.1 15.6 0 28.2 12.6 28.2 28.1z"/>
	</g>
	<g id="Shadows">
		<path id="Shadow 34 " class="s2" d="m569.1 548c39.2 22.7 39.2 59.4 0 82.1-39.3 22.6-102.9 22.6-142.2 0-39.3-22.7-39.3-59.4 0-82.1 39.3-22.7 102.9-22.7 142.2 0z"/>
		<path id="Shadow 00000151518621049276696210000001255866590151450269 " class="s2" d="m261.4 605.9c41.3 23.9 41.3 62.5 0 86.4-41.3 23.8-108.3 23.8-149.6 0-41.3-23.9-41.3-62.5 0-86.4 41.3-23.8 108.3-23.8 149.6 0z"/>
		<path id="Shadow 00000089567844164792237020000005061915045739440262 " class="s2" d="m875.7 495.5c41.3 23.8 41.3 62.5 0 86.3-41.3 23.8-108.2 23.8-149.4 0-41.3-23.8-41.3-62.5 0-86.3 41.2-23.8 108.1-23.8 149.4 0z"/>
	</g>
	<g id="Hopscotch">
		<g id="Hopscotch 00000143608890011189707620000016638160889718735272 ">
			<g id="&lt;Group&gt;">
				<g id="&lt;Group&gt;">
					<path id="&lt;Compound Path&gt;" fill-rule="evenodd" class="s5" d="m87.3 412.3l122.6-70.8c1-0.6 2.5-0.6 3.4 0l78.4 45.2c0.9 0.6 0.9 1.4 0 2l-122.7 70.8c-0.9 0.5-2.4 0.5-3.4 0l-78.3-45.2c-1-0.6-1-1.5 0-2zm124.3-67.9l-119.2 68.9 74.9 43.2 119.3-68.8z"/>
				</g>
				<g id="&lt;Group&gt;">
					<path id="&lt;Compound Path&gt;" fill-rule="evenodd" class="s5" d="m165.6 457.5l122.7-70.8c0.9-0.5 2.5-0.5 3.4 0l78.4 45.2c0.9 0.6 0.9 1.5 0 2l-122.7 70.8c-0.9 0.6-2.5 0.6-3.4 0l-78.4-45.2c-0.9-0.5-0.9-1.4 0-2zm124.4-67.8l-119.3 68.8 75 43.3 119.2-68.9z"/>
				</g>
				<g id="&lt;Group&gt;">
					<path id="&lt;Compound Path&gt;" fill-rule="evenodd" class="s5" d="m244 502.8l122.7-70.9c0.9-0.5 2.4-0.5 3.4 0l78.3 45.3c1 0.5 1 1.4 0 2l-122.6 70.8c-1 0.5-2.5 0.5-3.5 0l-78.3-45.3c-0.5-0.2-0.7-0.6-0.7-0.9 0-0.4 0.2-0.8 0.7-1zm124.4-67.9l-119.3 68.9 75 43.2 119.2-68.8z"/>
				</g>
				<g id="&lt;Group&gt;">
					<path id="&lt;Compound Path&gt;" fill-rule="evenodd" class="s5" d="m400.7 593.3l122.7-70.9c0.9-0.5 2.4-0.5 3.4 0l78.4 45.3c0.9 0.5 0.9 1.4 0 1.9l-122.7 70.9c-1 0.5-2.5 0.5-3.4 0l-78.4-45.3c-0.9-0.5-0.9-1.4 0-1.9zm124.4-67.9l-119.3 68.8 75 43.3 119.2-68.8z"/>
				</g>
				<g id="&lt;Group&gt;">
					<path id="&lt;Compound Path&gt;" fill-rule="evenodd" class="s5" d="m540.4 603.1l122.7-70.8c0.9-0.6 2.4-0.6 3.4 0l78.4 45.2c0.9 0.5 0.9 1.4 0 2l-122.7 70.8c-1 0.5-2.5 0.5-3.4 0l-78.4-45.2c-0.4-0.3-0.7-0.7-0.7-1 0-0.4 0.3-0.8 0.7-1zm124.4-67.9l-119.3 68.9 75 43.2 119.2-68.8z"/>
				</g>
				<g id="&lt;Group&gt;">
					<path id="&lt;Compound Path&gt;" fill-rule="evenodd" class="s5" d="m417.7 673.9l122.7-70.8c0.9-0.6 2.5-0.6 3.4 0l78.4 45.2c0.4 0.3 0.7 0.6 0.7 1 0 0.4-0.3 0.7-0.7 1l-122.7 70.8c-0.9 0.6-2.5 0.6-3.4 0l-78.4-45.2c-0.9-0.6-0.9-1.4 0-2zm124.4-67.9l-119.2 68.9 74.9 43.3 119.3-68.9z"/>
				</g>
				<g id="&lt;Group&gt;">
					<path id="&lt;Compound Path&gt;" fill-rule="evenodd" class="s5" d="m557.4 683.7l122.7-70.8c0.9-0.5 2.5-0.5 3.4 0l78.4 45.3c0.9 0.5 0.9 1.4 0 1.9l-122.7 70.9c-0.4 0.2-1.1 0.4-1.7 0.4-0.6 0-1.3-0.2-1.7-0.4l-78.4-45.3c-0.9-0.5-0.9-1.4 0-2zm124.4-67.8l-119.2 68.8 74.9 43.3 119.3-68.9z"/>
				</g>
				<g id="&lt;Group&gt;">
					<path id="&lt;Compound Path&gt;" fill-rule="evenodd" class="s5" d="m383.7 512.6l122.7-70.8c0.9-0.6 2.4-0.6 3.4 0l78.3 45.2c1 0.6 1 1.4 0 2l-122.6 70.8c-1 0.6-2.5 0.6-3.5 0l-78.3-45.2c-1-0.6-1-1.5 0-2zm124.4-67.9l-119.3 68.9 75 43.3 119.2-68.9z"/>
				</g>
				<g id="&lt;Group&gt;">
					<path id="&lt;Compound Path&gt;" fill-rule="evenodd" class="s5" d="m261 583.4l122.7-70.8c0.9-0.5 2.5-0.5 3.4 0l78.4 45.2c0.9 0.6 0.9 1.5 0 2l-122.7 70.8c-1 0.6-2.5 0.6-3.4 0l-78.4-45.2c-0.9-0.5-0.9-1.4 0-2zm124.4-67.8l-119.3 68.8 75 43.3 119.2-68.9z"/>
				</g>
				<g id="&lt;Group&gt;">
					<path id="&lt;Compound Path&gt;" fill-rule="evenodd" class="s5" d="m625.1 735.1l144-83.1c30.4-17.5 79.8-17.5 110.1 0 30.4 17.5 30.4 46 0 63.6l-144 83.1c-14.7 8.5-34.2 13.2-55 13.2-20.8 0-40.4-4.7-55.1-13.2-30.3-17.5-30.3-46 0-63.6zm106.7 61.6l144-83.1c28.5-16.4 28.5-43.2 0-59.6-28.4-16.5-74.8-16.5-103.2 0l-144.1 83.1c-28.4 16.5-28.4 43.2 0 59.6 13.8 8 32.2 12.4 51.7 12.4 19.5 0 37.8-4.4 51.6-12.4z"/>
				</g>
			</g>
			<g id="&lt;Group&gt;">
				<path id="&lt;Compound Path&gt;" class="s6" d="m746.9 697.2q-1.2-0.7-1.4-1.5-0.3-0.8 1.1-1.6l0.3-0.1q0.6-0.4 1.6-0.8 1-0.3 2-0.5 1-0.2 2-0.1 1 0.1 1.7 0.5l38.4 22.2v-5.6l-0.1 0.3q-0.2-0.4 0-1 0.1-0.5 0.9-0.9 0.3-0.2 1-0.4 0.7-0.2 1.5-0.1 1.2 0 2.9 0.2 1.6 0.3 2.4 0.8 1 0.5 1 1.2l0.4 12.9q0.1 0.5-0.1 1.1-0.3 0.6-0.9 0.9l-1.5 0.9q-1 0.6-2.1 0.5-1.2-0.1-2.1-0.5z"/>
				<path id="&lt;Compound Path&gt;" fill-rule="evenodd" class="s6" d="m698.6 738.5q-2.5-3.8-2.2-7.7 0.2-4 3.4-7.9 3.1-3.9 9.3-7.4 7-4.1 14.6-5.5 7.6-1.5 14.9-0.9 7.3 0.6 13.9 2.9 6.6 2.3 11.7 5.7 4.8 3.1 7.6 6.8 2.7 3.7 3 7.6 0.2 3.9-2.4 7.8-2.7 3.9-8.7 7.4-7.3 4.2-15.1 5.9-7.7 1.7-15.2 1.3-7.5-0.4-14.5-2.6-6.9-2.3-12.6-6-5.2-3.5-7.7-7.4zm26.6 7.8q5.1 1.7 10.4 2 5.2 0.3 10.5-0.8 5.2-1.2 10-4 4-2.3 5.8-5 1.7-2.7 1.4-5.6-0.2-2.8-2.4-5.6-2.1-2.7-5.9-5.3-4.3-2.8-9.2-4.6-4.9-1.7-10-2.1-5.1-0.5-10 0.4-4.9 1-9.3 3.5-4.3 2.5-6.5 5.3-2.2 2.8-2.3 5.7-0.2 2.9 1.8 5.8 2 2.9 6 5.5 4.6 3.1 9.7 4.8z"/>
			</g>
			<g id="&lt;Group&gt;">
				<g id="&lt;Group&gt;">
					<path id="&lt;Compound Path&gt;" fill-rule="evenodd" class="s6" d="m641.3 681q-2.8-3-3.8-5.8-1.1-2.9-0.8-5.6 0.3-2.7 1.4-5.2 1.1-2.4 2.7-4.4 1.6-2 3.1-3.5 1.5-1.5 2.7-2.4 1.1-0.8 1.3-0.9 1.2-0.7 2.8-0.7 1.5 0 3.6 0.8l0.5 0.3q0.8 0.5 0.7 1.1-0.1 0.7-1.2 1.7-0.9 0.7-2.3 2.1-1.4 1.4-2.7 3.2-1.3 1.8-2.1 4.1-0.8 2.3-0.5 4.9 0.4 2 1.4 4 1 1.9 2.6 3.6 0.7-1.9 2.4-4 1.8-2 5.1-3.9 3.7-2.2 7.7-3.4 4.1-1.2 8.2-1.4 4.1-0.2 8 0.6 3.9 0.9 7.3 2.8 4 2.3 5.2 4.8 1.2 2.5 0.4 4.9-0.7 2.3-3 4.5-2.2 2.1-5.1 3.8-4.8 2.8-9.8 4-5.1 1.1-10 1-4.9-0.2-9.5-1.5-4.5-1.3-8.5-3.6-5-2.9-7.8-5.9zm20.8-5.2q-1.3 1.4-2 2.9-0.7 1.4-0.6 2.9 0 1.5 0.9 2.7 1.7 1 4.3 1.6 2.6 0.6 5.2 0.6 2.8-0.1 5.5-0.8 2.7-0.6 4.9-1.9 1.6-0.9 2.9-2.2 1.3-1.3 1.9-2.7 0.5-1.4-0.1-2.9-0.5-1.4-2.7-2.7-3.9-2.2-8.5-2.2-4.5 0-8.6 2.3-1.7 1-3.1 2.4z"/>
				</g>
				<g id="&lt;Group&gt;" style="opacity: .4">
					<path id="&lt;Compound Path&gt;" fill-rule="evenodd" class="s7" d="m641.3 681q-2.8-3-3.8-5.8-1.1-2.9-0.8-5.6 0.3-2.7 1.4-5.2 1.1-2.4 2.7-4.4 1.6-2 3.1-3.5 1.5-1.5 2.7-2.4 1.1-0.8 1.3-0.9 1.2-0.7 2.8-0.7 1.5 0 3.6 0.8l0.5 0.3q0.8 0.5 0.7 1.1-0.1 0.7-1.2 1.7-0.9 0.7-2.3 2.1-1.4 1.4-2.7 3.2-1.3 1.8-2.1 4.1-0.8 2.3-0.5 4.9 0.4 2 1.4 4 1 1.9 2.6 3.6 0.7-1.9 2.4-4 1.8-2 5.1-3.9 3.7-2.2 7.7-3.4 4.1-1.2 8.2-1.4 4.1-0.2 8 0.6 3.9 0.9 7.3 2.8 4 2.3 5.2 4.8 1.2 2.5 0.4 4.9-0.7 2.3-3 4.5-2.2 2.1-5.1 3.8-4.8 2.8-9.8 4-5.1 1.1-10 1-4.9-0.2-9.5-1.5-4.5-1.3-8.5-3.6-5-2.9-7.8-5.9zm20.8-5.2q-1.3 1.4-2 2.9-0.7 1.4-0.6 2.9 0 1.5 0.9 2.7 1.7 1 4.3 1.6 2.6 0.6 5.2 0.6 2.8-0.1 5.5-0.8 2.7-0.6 4.9-1.9 1.6-0.9 2.9-2.2 1.3-1.3 1.9-2.7 0.5-1.4-0.1-2.9-0.5-1.4-2.7-2.7-3.9-2.2-8.5-2.2-4.5 0-8.6 2.3-1.7 1-3.1 2.4z"/>
				</g>
			</g>
			<g id="&lt;Group&gt;">
				<g id="&lt;Group&gt;">
					<path id="&lt;Compound Path&gt;" fill-rule="evenodd" class="s6" d="m508.9 601.8q-0.9-0.5-0.9-1.1 0.1-0.7 1.2-1.7 1-0.8 2.4-2.1 1.4-1.3 2.7-3.2 1.2-1.9 2-4.2 0.8-2.3 0.6-4.8-0.3-2.2-1.5-4.1-1.1-1.9-2.8-3.6-0.7 1.9-2.3 4-1.7 2.1-5 4-3.7 2.1-7.8 3.4-4 1.2-8.1 1.4-4.1 0.2-8-0.7-3.9-0.8-7.3-2.8-4-2.3-5.1-4.7-1.2-2.4-0.5-4.8 0.8-2.4 3-4.5 2.3-2.2 5.2-3.9 4.8-2.8 9.8-3.9 5-1.2 9.9-1.1 4.9 0.2 9.5 1.5 4.5 1.4 8.5 3.6 6.6 3.9 9.4 7.9 2.8 3.9 3 7.6 0.2 3.7-1.4 7-1.6 3.2-3.7 5.7-2.1 2.4-3.9 3.9-1.9 1.5-2.1 1.7-1.2 0.7-2.8 0.6-1.6 0-3.7-0.9zm-19.3-17.5q4.6 0 8.7-2.3 1.7-1 3-2.4 1.3-1.4 2.1-2.9 0.7-1.5 0.7-3 0-1.5-0.9-2.7-1.7-0.8-4.4-1.5-2.6-0.6-5.2-0.6l0.1-0.1q-2.8 0.1-5.5 0.8-2.7 0.7-5 2-1.6 1-2.9 2.2-1.3 1.3-1.9 2.7-0.5 1.4 0 2.8 0.6 1.5 2.8 2.8 3.9 2.2 8.4 2.2z"/>
				</g>
				<g id="&lt;Group&gt;" style="opacity: .2">
					<path id="&lt;Compound Path&gt;" fill-rule="evenodd" class="s7" d="m508.9 601.8q-0.9-0.5-0.9-1.1 0.1-0.7 1.2-1.7 1-0.8 2.4-2.1 1.4-1.3 2.7-3.2 1.2-1.9 2-4.2 0.8-2.3 0.6-4.8-0.3-2.2-1.5-4.1-1.1-1.9-2.8-3.6-0.7 1.9-2.3 4-1.7 2.1-5 4-3.7 2.1-7.8 3.4-4 1.2-8.1 1.4-4.1 0.2-8-0.7-3.9-0.8-7.3-2.8-4-2.3-5.1-4.7-1.2-2.4-0.5-4.8 0.8-2.4 3-4.5 2.3-2.2 5.2-3.9 4.8-2.8 9.8-3.9 5-1.2 9.9-1.1 4.9 0.2 9.5 1.5 4.5 1.4 8.5 3.6 6.6 3.9 9.4 7.9 2.8 3.9 3 7.6 0.2 3.7-1.4 7-1.6 3.2-3.7 5.7-2.1 2.4-3.9 3.9-1.9 1.5-2.1 1.7-1.2 0.7-2.8 0.6-1.6 0-3.7-0.9zm-19.3-17.5q4.6 0 8.7-2.3 1.7-1 3-2.4 1.3-1.4 2.1-2.9 0.7-1.5 0.7-3 0-1.5-0.9-2.7-1.7-0.8-4.4-1.5-2.6-0.6-5.2-0.6l0.1-0.1q-2.8 0.1-5.5 0.8-2.7 0.7-5 2-1.6 1-2.9 2.2-1.3 1.3-1.9 2.7-0.5 1.4 0 2.8 0.6 1.5 2.8 2.8 3.9 2.2 8.4 2.2z"/>
				</g>
			</g>
			<g id="&lt;Group&gt;">
				<g id="&lt;Group&gt;">
					<path id="&lt;Compound Path&gt;" class="s6" d="m339.4 501q-0.9-2.6 0.2-5-5 0.7-10.1-0.1-5.1-0.7-8.6-2.7-3-1.7-4.2-3.5-1.2-1.8-1.1-3.6 0-1.7 1-3.4 1-1.7 2.4-3.1 1.4-1.4 3-2.6 1.7-1.1 2.8-1.8 2.9-1.6 5.7-3 2.8-1.3 4.7-2 1.3-0.4 2.7-0.5 1.3-0.1 2.5 0.5 0.1 0.1 0.3 0.3 0.2 0.1 0.4 0.4v-0.2q0.3 0.3 0.7 0.8 0.3 0.4 0.5 0.8 0.1 0.5 0 0.9-0.1 0.4-0.8 0.8-0.6 0.4-1.5 0.7-0.1 0-0.3 0.1l-1.6 0.6h0.1q-1.4 0.5-3.2 1.3-1.9 0.8-4.1 2.1-0.6 0.3-1.4 0.9-0.9 0.6-1.8 1.5-0.8 0.8-1.5 1.8-0.7 1-0.7 2-0.1 1.1 0.5 2.1 0.7 1.1 2.4 2.1 2 1.2 4.5 1.5 2.5 0.3 5 0 2.6-0.2 5-1 2.5-0.8 4.5-2l2.4-1.4q1.9-1.1 3.2-0.8 1.2 0.3 2.8 1.2l0.5 0.2q1.2 0.7 1.4 1.4 0.2 0.7-1.1 1.5l-1.3 0.7q-0.3 0.2-0.7 0.4-0.4 0.2-0.8 0.4-1.2 0.7-2.6 1.9-1.3 1.2-2 2.7-0.6 1.5-0.3 3 0.4 1.6 2.6 2.9 1.6 0.9 3.6 1.1 2 0.2 4-0.1 2.1-0.3 4.1-1.1 2.1-0.7 3.8-1.7 1.7-1 3.1-2 1.4-1 2.4-1.9 1.1-0.8 1.7-1.4 0.6-0.5 0.7-0.6l0.3-0.2q0.8-0.4 1.9-0.5 1 0 2.2 0.2 0.5 0.1 0.9 0.2 0.4 0.1 0.9 0.2 0.3 0.2 0.5 0.3 0.2 0.1 0.4 0.2 0.9 0.5 1 1.1 0.1 0.6-1 1.4-1.7 1.7-4.1 3.4-2.3 1.7-4.9 3.2-3.3 1.9-7.1 3.1-3.9 1.2-7.8 1.5-3.9 0.4-7.6-0.3-3.8-0.6-6.9-2.4-3.3-2-4.2-4.5z"/>
				</g>
				<g id="&lt;Group&gt;" style="opacity: .6">
					<path id="&lt;Compound Path&gt;" class="s7" d="m339.4 501q-0.9-2.6 0.2-5-5 0.7-10.1-0.1-5.1-0.7-8.6-2.7-3-1.7-4.2-3.5-1.2-1.8-1.1-3.6 0-1.7 1-3.4 1-1.7 2.4-3.1 1.4-1.4 3-2.6 1.7-1.1 2.8-1.8 2.9-1.6 5.7-3 2.8-1.3 4.7-2 1.3-0.4 2.7-0.5 1.3-0.1 2.5 0.5 0.1 0.1 0.3 0.3 0.2 0.1 0.4 0.4v-0.2q0.3 0.3 0.7 0.8 0.3 0.4 0.5 0.8 0.1 0.5 0 0.9-0.1 0.4-0.8 0.8-0.6 0.4-1.5 0.7-0.1 0-0.3 0.1l-1.6 0.6h0.1q-1.4 0.5-3.2 1.3-1.9 0.8-4.1 2.1-0.6 0.3-1.4 0.9-0.9 0.6-1.8 1.5-0.8 0.8-1.5 1.8-0.7 1-0.7 2-0.1 1.1 0.5 2.1 0.7 1.1 2.4 2.1 2 1.2 4.5 1.5 2.5 0.3 5 0 2.6-0.2 5-1 2.5-0.8 4.5-2l2.4-1.4q1.9-1.1 3.2-0.8 1.2 0.3 2.8 1.2l0.5 0.2q1.2 0.7 1.4 1.4 0.2 0.7-1.1 1.5l-1.3 0.7q-0.3 0.2-0.7 0.4-0.4 0.2-0.8 0.4-1.2 0.7-2.6 1.9-1.3 1.2-2 2.7-0.6 1.5-0.3 3 0.4 1.6 2.6 2.9 1.6 0.9 3.6 1.1 2 0.2 4-0.1 2.1-0.3 4.1-1.1 2.1-0.7 3.8-1.7 1.7-1 3.1-2 1.4-1 2.4-1.9 1.1-0.8 1.7-1.4 0.6-0.5 0.7-0.6l0.3-0.2q0.8-0.4 1.9-0.5 1 0 2.2 0.2 0.5 0.1 0.9 0.2 0.4 0.1 0.9 0.2 0.3 0.2 0.5 0.3 0.2 0.1 0.4 0.2 0.9 0.5 1 1.1 0.1 0.6-1 1.4-1.7 1.7-4.1 3.4-2.3 1.7-4.9 3.2-3.3 1.9-7.1 3.1-3.9 1.2-7.8 1.5-3.9 0.4-7.6-0.3-3.8-0.6-6.9-2.4-3.3-2-4.2-4.5z"/>
				</g>
			</g>
			<g id="&lt;Group&gt;">
				<path id="&lt;Compound Path&gt;" class="s6" d="m263.4 459.8q-1.1-0.6-2-1.1l-0.6-0.4q-4-2.7-6-6.2-2.1-3.5-2.9-7-0.8-3.5-0.7-6.8 0.1-3.3 0.5-5.6l-16.4 9.5q-0.8 0.4-1.6 0.5-0.8 0.2-1.6 0.1-0.8-0.1-1.7-0.3-0.8-0.1-1.5-0.3-0.1-0.1-0.3-0.1-0.1-0.1-0.2-0.1l-0.2-0.2q-0.1 0-0.2 0-0.2 0-0.2-0.1-1.2-0.6-0.8-1.4 0.5-0.8 1.5-1.4l27-15.5q0.7-0.5 1.5-0.6 0.7-0.1 1.5 0 0.7 0 1.4 0.2 0.6 0.2 1.1 0.5l0.5 0.2q0.7 0.4 0.8 0.8 0.1 0.4 0.1 1v0.1q0 0.2-0.1 0.8-0.1 0.5-0.2 1.2-0.2 1.4-0.5 3.5-0.2 2.1-0.3 4.6-0.1 2.4 0.2 5.1 0.3 2.7 1.1 5.3 0.8 2.5 2.4 4.8 1.7 2.2 4.3 3.8 0.4 0.3 1.2 0.6 0.8 0.3 1.5 0.6 3.3 1.1 6.7 0.7 3.4-0.4 6.6-2.3 2.9-1.6 4.5-3.1 1.6-1.5 2.2-2.1 0.3-0.5 0.5-0.7 0.2-0.2 0.8-0.5 0.3-0.2 1.3-0.3 1.1-0.1 2.1 0 1.1 0.1 2.1 0.3 1.1 0.1 1.5 0.4 0.9 0.5 1 1 0.2 0.6-0.7 1.6l-0.3 0.2q-0.8 0.9-2.8 2.7-2 1.8-6.1 4.2-2.9 1.6-6.2 2.6-3.3 1.1-6.8 1.4-3.5 0.4-6.9 0.1-3.4-0.4-6.4-1.5-0.7-0.3-1.7-0.8z"/>
			</g>
			<g id="&lt;Group&gt;">
				<g id="&lt;Group&gt;">
					<path id="&lt;Compound Path&gt;" class="s6" d="m162.5 391.3q-1.1-0.6-1.3-1.3-0.2-0.8 1.1-1.5l0.2-0.1q0.6-0.3 1.4-0.6 0.9-0.3 1.8-0.5 0.9-0.2 1.8-0.1 0.9 0.1 1.5 0.4l34.1 19.7-0.1-4.9-0.1 0.3q-0.1-0.5 0-0.9 0.2-0.5 0.8-0.9 0.3-0.2 1-0.3 0.6-0.2 1.3-0.1 1.1 0 2.5 0.2 1.5 0.2 2.2 0.7 0.9 0.4 0.9 1.1l0.3 11.4q0.1 0.4-0.1 1-0.2 0.5-0.7 0.8l-1.4 0.8q-0.8 0.5-1.9 0.4-1 0-1.8-0.5z"/>
				</g>
				<g id="&lt;Group&gt;" style="opacity: .4">
					<path id="&lt;Compound Path&gt;" class="s7" d="m162.5 391.3q-1.1-0.6-1.3-1.3-0.2-0.8 1.1-1.5l0.2-0.1q0.6-0.3 1.4-0.6 0.9-0.3 1.8-0.5 0.9-0.2 1.8-0.1 0.9 0.1 1.5 0.4l34.1 19.7-0.1-4.9-0.1 0.3q-0.1-0.5 0-0.9 0.2-0.5 0.8-0.9 0.3-0.2 1-0.3 0.6-0.2 1.3-0.1 1.1 0 2.5 0.2 1.5 0.2 2.2 0.7 0.9 0.4 0.9 1.1l0.3 11.4q0.1 0.4-0.1 1-0.2 0.5-0.7 0.8l-1.4 0.8q-0.8 0.5-1.9 0.4-1 0-1.8-0.5z"/>
				</g>
			</g>
			<g id="&lt;Group&gt;">
				<g id="&lt;Group&gt;">
					<path id="&lt;Compound Path&gt;" class="s6" d="m645.8 613.7q-0.2-0.1-0.4-0.2-0.1-0.1-0.3-0.4l-25.7-33.4h0.1q-0.6-0.9-0.5-1.4 0.1-0.6 1.2-1.3 0.8-0.4 2.3-0.8 1.5-0.5 2.4-0.7 1-0.2 1.5 0 0.5 0.2 0.9 0.4 0.3 0.2 0.5 0.4 0.3 0.1 0.4 0.4v-0.1l23.4 30.5 20.5-11.8q0.7-0.4 1.4-0.5 0.8-0.1 1.6-0.1 0.9 0.1 1.7 0.2 0.8 0.2 1.6 0.4l0.6 0.1 0.5 0.3q1.2 0.7 0.8 1.4-0.4 0.7-1.6 1.4l-26.9 15.5q-1.3 0.8-2.9 0.6-1.5-0.2-2.6-0.6z"/>
				</g>
				<g id="&lt;Group&gt;" style="opacity: .2">
					<path id="&lt;Compound Path&gt;" class="s8" d="m645.8 613.7q-0.2-0.1-0.4-0.2-0.1-0.1-0.3-0.4l-25.7-33.4h0.1q-0.6-0.9-0.5-1.4 0.1-0.6 1.2-1.3 0.8-0.4 2.3-0.8 1.5-0.5 2.4-0.7 1-0.2 1.5 0 0.5 0.2 0.9 0.4 0.3 0.2 0.5 0.4 0.3 0.1 0.4 0.4v-0.1l23.4 30.5 20.5-11.8q0.7-0.4 1.4-0.5 0.8-0.1 1.6-0.1 0.9 0.1 1.7 0.2 0.8 0.2 1.6 0.4l0.6 0.1 0.5 0.3q1.2 0.7 0.8 1.4-0.4 0.7-1.6 1.4l-26.9 15.5q-1.3 0.8-2.9 0.6-1.5-0.2-2.6-0.6z"/>
				</g>
			</g>
			<g id="&lt;Group&gt;">
				<path id="&lt;Compound Path&gt;" fill-rule="evenodd" class="s6" d="m514 673.6q-1.2-2.1-0.8-4.2-5.4 0.8-10.4-0.2-4.9-1-8.8-3.2-3.2-1.9-4.7-4.2-1.4-2.2-1.2-4.6 0.3-2.4 2.2-4.8 1.9-2.3 5.3-4.3 3.5-2 7.6-3.1 4.1-1.1 8.2-1.3 4.1-0.1 8.1 0.7 3.9 0.9 7.1 2.7 3.9 2.3 5.5 5.2 1.6 2.9 0.3 6.1 3.7-0.3 7.3 0.4 3.6 0.6 6.1 2.1 2.5 1.4 3.7 3.3 1.2 1.9 1 4-0.1 2.1-1.7 4.1-1.5 2.1-4.5 3.8-3.1 1.8-6.7 2.7-3.6 0.9-7.1 1-3.6 0.1-6.9-0.6-3.3-0.7-5.8-2.1-2.5-1.5-3.8-3.5zm-8.1-9.9q2.2 0.5 4.5 0.5 2.3 0 4.6-0.6 2.4-0.6 4.5-1.8 2.1-1.2 3-2.6 0.9-1.4 0.8-2.8-0.1-1.4-1.1-2.7-1-1.3-2.8-2.4-1.8-1-4-1.5-2.1-0.5-4.5-0.5-2.3 0-4.6 0.5-2.3 0.5-4.2 1.6-2.1 1.2-3 2.6-1 1.5-1 2.9 0 1.4 0.9 2.7 0.9 1.4 2.6 2.3l0.2 0.1q1.9 1.1 4.1 1.7zm25.4 10.8q3.4 0 6.3-1.7 1.5-0.9 2.3-1.9 0.7-1.1 0.8-2.1 0.1-1.1-0.6-2.1-0.6-1-1.9-1.7-1.3-0.8-2.8-1-1.6-0.3-3.2-0.2-1.6 0.1-3.2 0.5-1.6 0.5-3 1.3-1.4 0.8-2.1 1.8-0.8 1-0.8 1.9-0.1 1 0.5 2 0.6 1 1.9 1.7 2.5 1.5 5.8 1.5z"/>
			</g>
			<g id="&lt;Group&gt;">
				<path id="&lt;Compound Path&gt;" fill-rule="evenodd" class="s6" d="m463.8 506.5q-0.9-0.4-1.1-1.2-0.2-0.7 1-1.3l4.7-2.8-15.3-8.8q-1.1-0.7-1.3-1.4-0.2-0.7 1.3-1.6l0.3-0.2q0.7-0.3 1.6-0.7 0.9-0.3 1.9-0.4 1-0.2 2-0.1 1 0 1.6 0.4l15.1 8.7 18.5-10.7q1.3-0.8 2.9-0.8 1.5 0 2.4 0.5 0.9 0.6 1.1 1.5l2.7 27q0.1 0.4-0.1 1.1-0.2 0.7-0.9 1.1l-1.2 0.7q-1.1 0.7-2.2 0.6-1.1 0-1.9-0.4l-22.3-12.9-4 2.3q-0.6 0.3-1.5 0.4-0.9 0.1-1.7 0-0.9-0.1-1.7-0.3-0.9-0.2-1.5-0.4zm18-5.9l11.2 6.5-1.3-12.2z"/>
			</g>
			<g id="&lt;Group&gt;">
				<g id="&lt;Group&gt;">
					<path id="&lt;Compound Path&gt;" class="s6" d="m368.6 589.5q-0.8-0.5-1.1-1.2-0.3-0.6 0.5-1.3l15.6-9.6-9.3-7.3q-0.9 0.8-2.1 1.5-1.2 0.8-2.4 1.5-3.7 2.1-8.1 3.4-4.3 1.2-8.7 1.5-4.4 0.2-8.5-0.6-4.2-0.8-7.6-2.8-3.7-2.1-5.1-4.7-1.4-2.5-0.9-5.1 0.4-2.5 2.5-5 2-2.4 5.4-4.3 4.9-2.9 8.3-4.3 3.4-1.5 5-2 1-0.3 2.2-0.3 1.1 0 2.1 0.6l0.3 0.2q0.5 0.4 0.9 0.9 0.5 0.5 0.7 1 0.2 0.5 0.1 1-0.1 0.5-0.7 0.9-0.5 0.2-0.7 0.3-0.2 0.1-0.6 0.2l-0.2 0.1q-1.7 0.6-4.7 1.7-3 1.2-6.5 3.2-1.8 1-2.8 2.5-1.1 1.5-1.2 3-0.1 1.6 0.8 3.1 0.9 1.5 2.9 2.7 2.1 1.2 4.4 1.6 2.4 0.5 4.8 0.5 2.4-0.1 4.7-0.8 2.4-0.7 4.5-1.9 2.7-1.6 4.4-3 1.6-1.3 2.3-1.9l0.2-0.1q0.4-0.6 0.7-0.9 0.4-0.3 0.5-0.5 0.2-0.2 0.4-0.3 0.2-0.1 0.4-0.2 1.2-0.7 2.7-0.7 1.5 0 2.5 0.6 0.2 0.1 0.4 0.3 0.3 0.1 0.6 0.5h0.1l17.5 13.9-20.3 12.5q-0.6 0.4-1.5 0.5-0.9 0.1-1.8 0-0.9-0.1-1.7-0.3-0.8-0.2-1.4-0.4z"/>
				</g>
				<g id="&lt;Group&gt;" style="opacity: .2">
					<path id="&lt;Compound Path&gt;" class="s8" d="m368.6 589.5q-0.8-0.5-1.1-1.2-0.3-0.6 0.5-1.3l15.6-9.6-9.3-7.3q-0.9 0.8-2.1 1.5-1.2 0.8-2.4 1.5-3.7 2.1-8.1 3.4-4.3 1.2-8.7 1.5-4.4 0.2-8.5-0.6-4.2-0.8-7.6-2.8-3.7-2.1-5.1-4.7-1.4-2.5-0.9-5.1 0.4-2.5 2.5-5 2-2.4 5.4-4.3 4.9-2.9 8.3-4.3 3.4-1.5 5-2 1-0.3 2.2-0.3 1.1 0 2.1 0.6l0.3 0.2q0.5 0.4 0.9 0.9 0.5 0.5 0.7 1 0.2 0.5 0.1 1-0.1 0.5-0.7 0.9-0.5 0.2-0.7 0.3-0.2 0.1-0.6 0.2l-0.2 0.1q-1.7 0.6-4.7 1.7-3 1.2-6.5 3.2-1.8 1-2.8 2.5-1.1 1.5-1.2 3-0.1 1.6 0.8 3.1 0.9 1.5 2.9 2.7 2.1 1.2 4.4 1.6 2.4 0.5 4.8 0.5 2.4-0.1 4.7-0.8 2.4-0.7 4.5-1.9 2.7-1.6 4.4-3 1.6-1.3 2.3-1.9l0.2-0.1q0.4-0.6 0.7-0.9 0.4-0.3 0.5-0.5 0.2-0.2 0.4-0.3 0.2-0.1 0.4-0.2 1.2-0.7 2.7-0.7 1.5 0 2.5 0.6 0.2 0.1 0.4 0.3 0.3 0.1 0.6 0.5h0.1l17.5 13.9-20.3 12.5q-0.6 0.4-1.5 0.5-0.9 0.1-1.8 0-0.9-0.1-1.7-0.3-0.8-0.2-1.4-0.4z"/>
				</g>
			</g>
		</g>
	</g>
	<g id="Character 3">
		<g id="Character 6 ">
			<g id="Bottom 13 ">
				<g id="&lt;Group&gt;">
					<path id="&lt;Path&gt;" class="s9" d="m871 544.2c-2-16-5.9-22.1-7-30.5-1.1-8.8-0.6-18.6-1.5-22.4 0 0 2.8-51.3 3.4-72 0.6-20.8-3.7-37.9-3.7-37.9 0 0 0.3-41.1 0.1-72.7-0.1-8.6-0.2-15.8-0.5-22-0.2-10.9-0.7-21-1.6-29.5h-103.9c0 0-6.3 80.8-6 117.4 0.2 21.8 1.2 36.7 3 51.9 3.1 27 5.4 46.5 6.1 57.8 0.5 10.3-1.4 12-8.3 21.7-6.9 9.7-17.3 19.3-24.5 23.2-7.1 3.8-9.5 10-1.1 13.5 7 2.9 21.4 4.1 29.8-1.5 8.3-5.7 13.7-12.9 22.4-16.9 3.4-1.5 14.3-1.6 16-8.5 1.8-7-1.3-19.7-2.7-28.4v-2.9c1.5-17.5 3.6-34.8 5.1-49.9 2.3-22.8 2-37.2 2-37.2l4.9-68.6 2.6-0.5c3.3 20.9 7.6 48.2 9.6 60.3 2 11.8 10.1 63.1 12.6 75.8 1.8 9 4.5 21 5.9 28.6-1.4 5.7 1.5 23 0.4 40.7-0.4 5.9-3.2 20.4 2.7 29.4 5.5 8.3 14.8 12.6 26.8 3.6 11.7-8.8 8.1-16.2 7.4-22.5z"/>
					<g id="&lt;Group&gt;">
						<path id="&lt;Path&gt;" class="s10" d="m832.3 552.8c0.5 8.4 2 13.9 5.6 18.8 3.5 4.8 10.2 6.1 17 4.3 6.8-1.7 15.6-5.9 17.6-13.3 2-7.4 1.6-12.4 0.1-20.2z"/>
						<path id="&lt;Path&gt;" class="s11" d="m862.5 491.3c2.8 0 0.9 10.5 2.4 21.8 1.7 12.1 5.9 17 7.4 26.9 1.7 11.4 0.9 16.5-3.9 23.6-4.8 7.1-21.6 14.5-29.8 5-6.7-7.8-6.9-16.7-6.2-28.1 0.7-11.8 1.3-20.1 0.8-29.1-0.5-8.5-2-17.4 0.5-18.4 0.2 1.2 2 10.6 3.2 9.7 0.2-0.2 0.3-0.5 0.4-0.8q0.4-1.8 0.3-3.7c-0.1-0.5-0.1-0.9 0-1.4 0.1-0.3 0.3-0.6 0.5-0.8 0.9-0.9 2.1-1.2 3.3-1.5 5.5-1.2 11.2-1.8 16.7-1 0.4 0.1 0.9 0.2 1.1 0.5 0.2 0.2 0.3 0.4 0.3 0.7 0.2 1.2 0.2 2.4 0.3 3.6 0 0.3 0.1 0.7 0.3 1.1 0.1 0.3 0.5 0.6 0.9 0.5 1 0 0.9-1.4 1-2.1 0.2-0.9 0.4-1.8 0.5-2.7 0.1-1.1 0.4-2.8 0-3.8z"/>
						<path id="&lt;Path&gt;" class="s5" d="m871.7 536.8c0.3 1.6 1.8 12.5-1.7 14.6-3.8 2.3-5.9-6.2-5.9-6.2 0 0-8.9-2-22 3.4 0.7 1.7-1.4 7.6-4.9 6.5-3.6-1-4.9-13.5-4.9-13.6-0.6 10.9-0.2 19.5 6.3 27.1 8.2 9.5 25 2.1 29.8-5 4.8-7.1 5.6-12.2 3.9-23.6q-0.2-1.7-0.6-3.2z"/>
						<path id="&lt;Path&gt;" class="s10" d="m863.1 546c0 4.1 4.9 2.5 5.1-3.3 0.3-5.9-3.4-19.6-3.3-29.6-1.5-11.3 0.4-21.8-2.4-21.8 0 0.1-0.9 7.3-0.9 8.2 0 8.4 0 24.2 0.8 31.9 0.8 7.6 0.7 10.4 0.7 14.6z"/>
						<path id="&lt;Path&gt;" class="s10" d="m843.7 548.4c-0.9-4-1.7-6.7-2.6-14.4-0.9-7.6-3.2-23.4-5.1-31.7-0.4-1.8-2.3-9.3-2.3-9.3-1.9 0.6-1.1 6-0.8 11.7 0.3 3.3 0.9 7.3 1.7 12.2 2.3 9.7 1.8 24 3.3 29.6 1.6 5.6 6.6 5.9 5.8 1.9z"/>
						<g id="&lt;Group&gt;">
							<g id="&lt;Group&gt;">
								<path id="&lt;Path&gt;" class="s1" d="m841.9 548.9q0.2 0 0.3-0.1c0.1 0 10.4-4.8 21.7-2.8 0.5 0.1 1.1-0.2 1.2-0.6 0.2-0.5-0.1-1-0.7-1.1-12.1-2.2-22.7 2.8-23.1 3-0.5 0.2-0.7 0.8-0.5 1.2 0.2 0.3 0.7 0.5 1.1 0.4z"/>
							</g>
							<g id="&lt;Group&gt;">
								<path id="&lt;Path&gt;" class="s1" d="m839.6 540.1q0.2-0.1 0.3-0.1c0.1-0.1 11.6-5.1 24.2-3.1 0.6 0.1 1.2-0.3 1.3-0.7 0.1-0.5-0.2-1-0.8-1.1-13.3-2-25.1 3.1-25.5 3.3-0.6 0.2-0.8 0.8-0.5 1.2 0.1 0.3 0.6 0.5 1 0.5z"/>
							</g>
							<g id="&lt;Group&gt;">
								<path id="&lt;Path&gt;" class="s1" d="m863.5 528.4c0.4-0.1 0.8-0.3 0.9-0.6 0.2-0.5-0.1-1-0.6-1.1-12.6-3.1-25 2.8-25.6 3.1-0.5 0.2-0.7 0.7-0.4 1.2 0.3 0.4 0.9 0.5 1.4 0.3 0.1-0.1 12.2-5.8 23.9-2.9q0.2 0 0.4 0z"/>
							</g>
							<g id="&lt;Group&gt;">
								<path id="&lt;Path&gt;" class="s1" d="m863.1 521.5c0.4 0 0.7-0.3 0.9-0.6 0.2-0.5-0.1-1-0.7-1.1-13.8-3.6-25.5 2.8-26 3-0.5 0.3-0.7 0.8-0.4 1.2 0.3 0.5 1 0.6 1.5 0.3 0.1-0.1 11.4-6.2 24.2-2.8q0.3 0 0.5 0z"/>
							</g>
							<g id="&lt;Group&gt;">
								<path id="&lt;Path&gt;" class="s1" d="m862.7 513.5c0.3-0.1 0.7-0.3 0.8-0.6 0.2-0.5 0-1-0.6-1.1-12.9-3.6-25.7 3-26.2 3.3-0.5 0.2-0.7 0.8-0.4 1.2 0.3 0.4 0.9 0.5 1.4 0.2 0.1 0 12.5-6.3 24.5-3q0.2 0 0.5 0z"/>
							</g>
						</g>
					</g>
				</g>
				<g id="&lt;Group&gt;">
					<path id="&lt;Path&gt;" class="s11" d="m868.8 412.6c-0.9-14-4.5-32.4-4.5-32.4 0 0-0.4-11.9-0.3-27.3 0.1-15.5-0.2-29.7-0.5-50.3-0.3-20.6-1.9-35.1-3.1-50.3h-104.2c-5.6 42.6-7.3 89.8-7.7 118.1-0.3 17.5 1 36.1 3.4 56.4 1.6 13.2 5.5 45 5.5 45 2.5 2.4 9.2 5.3 17.6 5.5 11.8 0.4 18.8-4.9 18.8-4.9 0 0 4.8-25.3 6.7-47.4 0.4-5.5 0.4-19.4-1.1-27.4l6.5-49.4 5 26.1c4.8 29.2 18.5 105.3 18.5 105.3 0 0 6 4.9 17.5 3.7 12.1-1.3 17.1-5.3 17.1-5.3 0 0 5.8-51.5 4.8-65.4z"/>
					<path id="&lt;Path&gt;" class="s10" d="m805.9 348.2l-3.8-25.9c0 0-21.1-5.5-27.1-17 0 0 1.7 15.4 23.8 24.1l3.1 19.6-2.5 48.6z"/>
				</g>
				<g id="&lt;Group&gt;">
					<g id="&lt;Group&gt;">
						<path id="&lt;Path&gt;" class="s10" d="m716.3 536.4c-0.6 0-1.3 5.8 1.6 8.2 3.3 2.8 13 7.3 25.7 5.4 12.7-1.9 16.2-4.5 21.2-8.8 5-4.3 9.6-8.9 15.3-10.3 5.4-1.2 13.5-3.5 15.1-5.2 1.7-1.7 1.4-9 1.4-9z"/>
						<path id="&lt;Path&gt;" class="s11" d="m791.2 485c0 0 1.8 0 2.1 1.7 0.5 2 1 7.9 1.9 11.2 1.2 4.6 1.8 17.6 1.2 21.3-0.7 3.8-11.7 6.3-17.2 8.5-5.6 2.3-9.7 5.3-15.4 10.1-5.9 5.1-15 9-23.3 9-9.8 0.1-20.9-2.9-23.5-7.4-3.2-5.5-3.8-10.9 10.6-17.9 2.8-1.3 10.2-6.5 13.5-8.6 3.5-2.3 6.4-5.2 9.4-8.1 2.1-2 3.3-3.9 4.9-6.4 0.8-1.3 1.7-2.8 2.2-4.3 0.5-1.6 0.4-3 0.8-4.6 0.2-0.9 0.5-2.1 1.3-2.5 1.6-0.7 3.5-0.5 4.1-0.4 3.3 0.3 6.6 1 9.8 2 1.3 0.4 2.6 0.9 3.3 2 0.5 0.8 0.7 1.8 0.7 2.7 0 0.9 0 1.9 0.1 2.8 0.1 0.4 0.2 0.7 0.4 0.9 0.5 0.5 1.3 0.1 1.7-0.3 1.5-1.4 2.6-3.1 3.9-4.7 0.6-0.9 3.7-1.5 4.6-2.2 0.7-0.6 2.1-1.4 2.8-2.1 0.9-0.9 0-1.5 0.1-2.7z"/>
						<path id="&lt;Path&gt;" class="s5" d="m763.8 537.8c2.5-2.1 4-3.4 6.7-5.2v-0.1c0 0-15.4 6.4-22.4 1.8-4.5-2.9-2.4-6.7-2.4-7.8 0.1-1.2-10.9-6.1-15.2-6.5-1.2 0.6-2.2 1.2-2.9 1.5-14.4 7-13.8 12.4-10.6 17.9 2.6 4.5 10.6 7.9 23.3 7.7 8.3-0.1 17.6-4.2 23.5-9.3z"/>
						<path id="&lt;Path&gt;" class="s10" d="m746.9 523c-9 3.8-5.1 5.4-2.6 5.7 2.6 0.3 15.2-7.2 24.3-14.7 9.6-7.9 17.9-16.1 21.4-19 1.3-1 2.8-2.3 4-3.6-0.2-1.9-0.5-3.8-0.7-4.7-0.3-1.7-2.3-2.2-2.3-2.2v2.9c-0.7 0.7-2.2 1.4-3.1 1.7-2 0.8-3.6 2-4.2 2.9-1.3 1.6-2.4 3.3-3.9 4.7-7.7 10.2-23.9 22.5-32.9 26.3z"/>
						<g id="&lt;Group&gt;">
							<g id="&lt;Group&gt;">
								<path id="&lt;Path&gt;" class="s1" d="m744.9 527.4q0.4 0 0.6-0.3c0.4-0.3 0.4-0.8 0.1-1.2-2.6-3.1-10-7.1-16.6-6.3-0.5 0.1-0.9 0.5-0.8 1 0 0.5 0.4 0.9 1 0.8 6.2-0.8 13 3.2 15 5.6 0.2 0.3 0.5 0.4 0.7 0.4z"/>
							</g>
							<g id="&lt;Group&gt;">
								<path id="&lt;Path&gt;" class="s1" d="m752.8 522.8q0.3 0 0.5-0.2c0.4-0.3 0.5-0.9 0.2-1.3-2.6-3.1-9.9-7.3-16.5-6.6-0.5 0-0.9 0.5-0.8 1 0 0.5 0.4 0.8 0.9 0.8 6.3-0.7 13 3.5 15 5.9 0.2 0.3 0.4 0.4 0.7 0.4z"/>
							</g>
							<g id="&lt;Group&gt;">
								<path id="&lt;Path&gt;" class="s1" d="m760 517.6q0.3 0 0.5-0.2c0.4-0.3 0.5-0.9 0.1-1.3-2.6-3.1-10-7.1-16.6-6.2-0.5 0-0.9 0.5-0.8 1 0.1 0.5 0.5 0.8 1 0.7 6.2-0.7 13 3.2 15.1 5.7 0.2 0.2 0.4 0.3 0.7 0.3z"/>
							</g>
							<g id="&lt;Group&gt;">
								<path id="&lt;Path&gt;" class="s1" d="m765.7 512.5q0.3 0 0.5-0.2c0.4-0.3 0.5-0.8 0.2-1.2-2.5-3.2-9.7-7.5-16.4-7-0.5 0.1-0.8 0.5-0.8 1 0 0.5 0.5 0.8 1 0.8 6.2-0.5 12.8 3.8 14.8 6.3 0.1 0.2 0.4 0.3 0.7 0.3z"/>
							</g>
							<g id="&lt;Group&gt;">
								<path id="&lt;Path&gt;" class="s1" d="m772.4 506.6q0.3 0 0.6-0.2c0.4-0.3 0.4-0.8 0.1-1.2-3.4-4.5-11.2-7.6-17.9-7-0.5 0-0.8 0.5-0.8 1 0 0.4 0.5 0.8 1 0.8 6-0.5 13.3 2.3 16.3 6.3 0.2 0.2 0.4 0.3 0.7 0.3z"/>
							</g>
						</g>
					</g>
				</g>
			</g>
			<g id="Top 3 ">
				<g id="&lt;Group&gt;">
					<g id="Arm 00000072260922681734078860000003711008337882506931 ">
						<path id="&lt;Path&gt;" class="s9" d="m722.2 105.1c5.2-17.6 8-30.6 9.2-37 0.5-2.8 0.7-5.6 0.5-8.4-0.2-2.5-0.1-6.1 0.9-10.9q0.7-3.2 1.3-6.4c1.4-5.8 3.6-19.6 11.4-19 0.4-2.3 2.5-4.2 4.9-4.4 1 0 2.2 0.2 3.2-0.2 2.1-1.7 4.8-3.2 7.5-1.8 0.6-1.5 2-3.5 4-3 2.7 1.3 2.1 5.6 1.8 8.1-1.5 6.6-6.5 15.5-7.1 21.4 0.2 3.6 4.5-4.7 5.1-5.3 1.2-1.6 3.2-2.4 5.2-2.2 3.7 0.3 1 4.4 0.7 6.5-1.1 5.1-2.9 10.3-6.2 14.4-1.2 1.4-2.3 2.6-3.3 3.6-2.8 3-4.5 6.8-4.8 10.9l-4.2 48.1c0 0 2 4.2 10.6 17 5.8 8.5 13.3 13.9 21.7 18.8 10.2 25.3-26.1 57.2-29.1 43.2-2.6-12.6-10.2-23.2-16.2-35-9.8-18.8-11.7-22.7-15.1-29.2-4.4-8.2-7.5-11-2-29.2z"/>
						<path id="&lt;Path&gt;" class="s11" d="m786.6 154.9c-1.6-0.2-8.8-4.1-13.3-8.1-4.4-4-8.8-8.7-10.8-12-2-3.4-6.2-9.2-6.2-9.2 0 0-7.9 1.1-15.1 8.7-7.2 7.5-9.2 16.8-9.2 16.8 0 0 6.9 13.4 11.8 22.3 4.8 8.8 13.9 27.1 14 35.5 7.3 8.4 12.5-3.7 17.4-7.5 14.4-11 26.1-39.3 11.4-46.5z"/>
						<path id="&lt;Path&gt;" class="s12" d="m745.9 55c0.4-1.5 1.1-3 1.9-4.4 1.6-2.7 4.3-5.3 7.5-6 0.3 0 0.2 0.4 0.1 0.6-1.1 1-2.4 1.9-3.5 3q-1.6 1.6-2.7 3.6-1.1 1.9-1.7 3.9-0.3 1.1-0.4 2.1c-0.1 0.8 0 1.5-0.4 2.1-0.2 0.3-0.8 0.5-1 0.1-0.6-1.5-0.2-3.5 0.2-5z"/>
					</g>
					<g id="Chest 8 ">
						<path id="&lt;Path&gt;" class="s6" d="m863.1 205.1c2.3-22.2 0-24.1-2.7-32.2-2.6-7.9-9-15.8-16.6-16.6 0 0-23.6-1.8-26.6-1.9-13-0.7-20.4-0.5-26.3 0-6.5 0.5-10-0.2-15.6 4.6-5.5 4.8-15.5 14.5-17 39.4-2 34.9-2 48.6-5.3 77.7 8.5 19.3 61.8 31.7 110.8 8.7 0 0-2.3-26.4-2.9-37.9-0.6-10.4 0.2-24 2.2-41.8z"/>
					</g>
					<path id="&lt;Path&gt;" class="s5" d="m860.4 172.9c-7.1-16.2-8.9-16.9-12.4-17.5-4.7-0.7-29.2-1-30.8-1-13-0.7-20.4-0.5-26.3-0.1-6.5 0.5-10.5 0-16 4.7-5.3 4.7-14.8 13.7-16.4 37.1 0.3-1.8 2.4-12.6 7.7-19.2 5.9-7.2 19.3-12.6 19.3-12.6 0 0-0.1 4.7 6.4 8.1 7.6 3.9 24.9 0.8 31.8-5.6 0 0 8.5 18.8 13.1 25.6 5.4 8 13.7 18.7 25.8 17.1 2.3-19.3 1.2-28.8-2.2-36.6z"/>
				</g>
				<g id="Head 9 ">
					<path id="&lt;Path&gt;" class="s13" d="m818.8 69.8q-0.4-1.1-0.6-2.2c-0.3-2.3 0.1-4.7 1.2-6.7 2.2-3.8 7-6.1 11.3-5.2 2.3 0.4 4.5 1.6 6.8 1.4 4.5-0.4 7.6-6.1 12.5-4.3 2.2 0.8 3.8 2.6 5.3 4.5 1.4 1.8 2.8 3.8 4.7 5.2 2.1 1.4 4.7 2 7.2 2.1 1 0.1 6.4-0.1 8.5 5.7 1.3 3.7-2.4 7.7-1.5 11.6 0.7 2.9 3.6 4.6 6.1 6.3 2.4 1.6 5 4.1 4.7 7-0.3 2.7-2.9 4.4-5.2 5.7-2.4 1.3-5 2.8-5.8 5.3-1.1 3.5 1.9 7.4 0.6 10.8-0.9 2.6-3.7 3.8-6.4 4.3-2.7 0.4-5.5 0.4-7.9 1.6-2 1-3.5 2.6-5.3 4-1.7 1.3-4 2.3-6.1 1.6-2.8-1-3.9-4.5-6.4-6-3.3-2.1-8.1-0.3-11.3-2.5-3-2.2-2.8-6.8-1.9-10.4 1-3.6 2.4-7.5 0.9-10.9-1.1-2.5-3.5-4.1-6-5.3-2.4-1.3-4.9-2.4-6.8-4.4-1.8-2-2.6-5.3-1-7.5 0.6-0.7 1.4-1.4 2.2-1.7 0.7-0.3 1.1-0.3 1.5-1 0.8-1.6 0.7-3.6 0.5-5.3-0.1-1-0.9-1.8-1.4-2.6q-0.2-0.5-0.4-1.1z"/>
					<path id="&lt;Path&gt;" class="s6" d="m841.4 67.5c5.8 4.5 12.6 14.4 8 21.5-7.1 5.2-15.7-4.6-18.9-10.6-3.7-8.8 1.3-18.5 10.9-10.9z"/>
					<g id="&lt;Group&gt;">
						<path id="&lt;Path&gt;" class="s13" d="m766.5 71.8c-10 16.7-2.9 32.1 0.8 34.9l58.3 39.3c4-9.1 17.4-13.3 24.1-32.5 3.8-11.2 1.4-28.9-8.5-35.1-6.4-26.5-57.9-34.7-74.7-6.6z"/>
					</g>
					<g id="&lt;Group&gt;">
						<path id="&lt;Path&gt;" class="s9" d="m837.8 129.3c3.1-1.1 5.8-4.6 7.1-7.1 2.2-4.3 2.2-10.6 0.7-13.2-1.9-3.3-5.6-4.9-9-4.4-3 0.5-4.2 2.2-5.6 4.6-0.8 1.5-2.3 5.3-4.4 4.6-3.1-1-1.8-7.5-1.9-10.7-0.2-19.1-14.3-27.6-28.4-26.5-13.2-5.8-22.3 1-26.7 10.6-3.3 7.2-0.9 14.9-1.4 17.1-0.6 2.3-1.7 2.7-2.7 10.7-0.8 6.3-0.8 13.5 4.5 21 4.2 5.9 12.1 10.6 21.5 11.6l0.1 11.6c-12.3 13.1 23.3 17.3 35.2-1.1l1.2-30.9c0 0 4.5 4 9.8 2.1z"/>
						<path id="&lt;Path&gt;" class="s12" d="m791.5 147.5c0 0 11.8 1.4 23.1-4 3.9-1.8 7.6-5.7 10.2-11.6 0 0 1.5 8.7-6.5 14.2-9.9 6.8-26.8 6.4-26.8 6.4z"/>
					</g>
					<g id="&lt;Group&gt;">
						<path id="&lt;Path&gt;" class="s10" d="m781.4 95.1l-7.5 1.7c-0.5-2.2 0.9-4.3 3-4.7 2.1-0.5 4.1 0.9 4.5 3z"/>
						<path id="&lt;Path&gt;" class="s10" d="m812.7 101.3l-6.1-4.7c1.3-1.8 3.7-2.1 5.4-0.8 1.7 1.3 2 3.8 0.7 5.5z"/>
						<path id="&lt;Path&gt;" class="s10" d="m802 107.2c-0.2 1.8 1.2 3.5 3 3.7 1.9 0.2 3.6-1.2 3.8-3 0.2-1.9-1.2-3.5-3-3.7-1.9-0.2-3.6 1.1-3.8 3z"/>
						<path id="&lt;Path&gt;" class="s10" d="m775.4 103.6c-0.2 1.9 1.1 3.5 3 3.7 1.8 0.2 3.5-1.1 3.7-3 0.2-1.8-1.2-3.5-3-3.7-1.9-0.2-3.5 1.1-3.7 3z"/>
						<path id="&lt;Path&gt;" class="s14" d="m803 125c-2.1-2.5-4.3 0.3-9.3 0.7-5 0.4-7.7-2.5-8.9 0.6-1 2.6 1.6 8.6 9.9 8.5 7.1-0.1 10.2-7.5 8.3-9.8z"/>
						<path id="&lt;Path&gt;" class="s3" d="m793.7 125.7c3.2-0.3 5.3-1.5 6.9-1.7v2.3c0 0-1.6 1.4-5.6 1.9-4.7 0.5-7.8-1.2-7.8-1.2l-0.4-2.2c1.5 0.1 3.7 1.1 6.9 0.9z"/>
						<path id="&lt;Path&gt;" class="s12" d="m794.7 134.8c-1.7 0-3.2-0.3-4.5-0.7 2-3.6 6-5.7 10.2-4.9 0.8 0.1 1.5 0.4 2.3 0.7-1.3 2.5-4 4.8-8 4.9z"/>
						<path id="&lt;Path&gt;" class="s12" d="m764.6 109.6c0.3 2.9 2.7 5 5.5 4.7 2.8-0.2 4.9-2.8 4.6-5.7-0.2-2.8-2.7-5-5.5-4.7-2.8 0.2-4.8 2.8-4.6 5.7z"/>
						<path id="&lt;Path&gt;" class="s12" d="m819.9 115.9c-0.6 2.8-3.4 4.5-6.1 3.9-2.7-0.7-4.4-3.5-3.8-6.3 0.6-2.8 3.4-4.6 6.1-3.9 2.7 0.6 4.4 3.4 3.8 6.3z"/>
						<path id="&lt;Path&gt;" class="s12" d="m793.2 100.2l-3.2 18.5-9.7-5.3z"/>
					</g>
					<path id="&lt;Path&gt;" class="s13" d="m788.8 71.9c-7.7 1.7-15.9 5.1-19.6 12.8-0.9 1.4-1.4 3-1.7 4.6 0.1 0.7 1.2 0.9 1.7 1 3.5 1.2 7.2 1.2 10.8 1.4 0.5 0 1.4 0.1 1.9-1.2 0.6-1.7 1.1-2.9 2.2-4.6 0.5-0.8 2-2.8 1.9-1.1-0.1 2.6-0.5 5-0.1 7.5 0.2 0.8 0.9 1.3 1.6 1.6 4.3 2.3 11.9 3.2 13.8 3.4 1.8 0.2 2.4 0.1 3.4-0.2 1.5-0.9 1.9-3.2 1.9-8.2 0-0.6-0.1-1 0.2-1.1 1.4 0.2 2.9 5.9 3.1 6.8 0.2 0.9 0.2 1.9 2.7 2.3 4.3 0.8 8.9 1 13.2-0.3 0.2-0.1 0.6-0.1 0.8-0.3 0.4-0.6 0.3-1.5 0.4-2.3 0-3.9-2.5-7.1-4.9-10-1.5-1.8-5.3-5.7-8.3-7.3-9.7-5.3-16.4-6.1-25-4.8z"/>
				</g>
				<g id="Arm 6 ">
					<path id="&lt;Path&gt;" class="s9" d="m840.2 155.8c4.4 0 12.3-7.6 19.7-19.9 8.2-13.7 12.8-23.9 12.8-23.9l1.6-48c-0.5-4.2-8-10.9-9.5-17.1-1.5-6.1-2.2-9.3-3.5-13.8-1.3-2.6 2.1-4.1 4.1-2.7 4.2 0.8 6 10.6 8.4 9.4 0.6-0.7-0.2-3.5-0.5-4.8-1.3-7-4.1-16.8-3.7-21 0.3-4.2 3.2-6.1 5.8-3.7 1.3 1.3 1.1 2 1.6 2.9 2-0.9 3.4-0.8 5.8 1.1 0.6 0.4 1.3 1.7 1.3 1.7 1.5-0.4 3.1-0.1 4.7 1.1 1.6 1.2 1.9 1.9 2.8 3.6 6.5 0.8 7.8 12.1 8.6 17.5 0.4 3.3 0.6 6.7 1 10 0.5 5.1 0.1 8.7-0.3 11.3-0.5 3.1-0.5 6.3-0.1 9.4 1.2 9.4 3.9 30.2 5.4 47.1 0.8 9.4 0.9 12.1-3 20.2-5.3 10.9-14.5 22.1-24.7 40.4-6.8 12.2-12 20.6-16 31.3-6.5 1.3-12.2-3.1-18.3-12.5-8.3-13-9.6-31.2-4-39.6z"/>
					<path id="&lt;Path&gt;" class="s11" d="m839.6 154.9c2.2-0.4 5-2.3 9.4-6 4.5-3.7 16.5-22.7 16.5-22.7 0 0-0.5 12.3 10.4 21.1 10.8 8.9 16.7 6.6 16.7 6.6 0 0-8.9 15.1-13.7 23.9-4.8 8.9-15.3 26.1-16.3 31.7-5.6 1.2-17.4-4.5-23.6-21.7-6.1-17.1-1.8-30.1 0.6-32.9z"/>
					<path id="&lt;Path&gt;" class="s12" d="m876.6 42.3c1.5-0.5 3.4 0.5 4.7 1.2 1.4 0.9 2.7 2.1 3.8 3.4 2.2 2.9 3.2 6.9 1.8 10.4-0.1 0.2-0.4 0.2-0.4-0.1-0.3-1.5-0.2-3-0.6-4.5-0.4-1.7-1.1-3.4-2.1-4.9-1.7-2.4-4.3-4.1-7.2-4.9-0.3-0.1-0.2-0.5 0-0.6z"/>
				</g>
			</g>
			<g id="&lt;Group&gt;">
				<path id="&lt;Compound Path&gt;" class="s11" d="m724.8 34.2c0.9-4.2 1.5-8.2 3.9-11.8 1.2-1.9 2.7-3.6 4.5-5 1.8-1.4 4.1-2.3 5.9-3.9 0.3-0.2 0.4-1-0.2-1-2.6 0-5.1 1.7-7.1 3.3-2 1.5-3.7 3.5-5 5.6-2.3 3.8-3.9 8.8-2.8 13.2 0.2 0.5 0.8-0.2 0.8-0.4zm-5.7-16.5c1.5-2.4 3.8-4.3 5.8-6.4 0.1-0.2 0.3-0.8-0.2-0.8-3.1 0.6-5.6 3.6-7.2 6.2-1.6 2.7-2.8 6-2.2 9.2 0.1 0.3 0.5 0 0.6-0.2 0.8-2.8 1.7-5.5 3.2-8z"/>
				<path id="&lt;Compound Path&gt;" class="s11" d="m916.2 117.6c0.9 4.1 2 8 1.4 12.3-0.3 2.2-1 4.4-2 6.4-1.1 2.1-2.8 3.9-3.8 6-0.2 0.3 0.1 1.1 0.6 0.9 2.3-1.2 3.9-3.7 5.1-6 1.1-2.2 2-4.7 2.2-7.2 0.5-4.4 0-9.6-2.9-13.1-0.4-0.4-0.7 0.4-0.6 0.7zm12.1 12.6c-0.4 2.9-1.7 5.5-2.6 8.2-0.1 0.3 0 0.9 0.4 0.7 2.7-1.8 3.7-5.6 4-8.6 0.4-3.1 0.1-6.7-1.7-9.3-0.3-0.3-0.6 0.2-0.5 0.4 0.4 2.8 0.7 5.7 0.4 8.6z"/>
			</g>
		</g>
	</g>
	<g id="Character 2">
		<g id="Character 00000089537660084652275030000005528329367694031516 ">
			<g id="Bottom 00000101785298182557823220000006243019358035462051 ">
				<g id="&lt;Group&gt;">
					<path id="&lt;Path&gt;" class="s12" d="m551.3 300.4c6.7 25.5 14 50.8 17.1 68.5 3 17.8 8.1 42.9 1.7 53.5-6.2 10.3-13.9 12.7-31.1 9.8-14.1-2.3-77.4-24.4-80.6-25.1-7.1-1.6-14.4 11.1-17 19.6-1.9 6-1.1 8.2-5.2 16.9-1.5 3.1-4.2 7.5-15.8 11.8-3.1 1.2-10.3 2.3-13.2-5.1-1.1-2.8-3.8-7.3 0.5-20.4 1.2-3.8 3.6-9 5.7-12.3 3.4-5.7 5.8-11.8 7-17.3 1.2-5.5 1.7-11 2-14.3 0.8-8.4 6.1-17.2 16-15.3 6.1 1.2 11.8 6.8 17.8 8.6 10.2 3 57.9 5.3 70.2 13.4l-56.6-92.3z"/>
					<path id="&lt;Path&gt;" class="s11" d="m552 300.4c0 0 12.7 34.3 21.2 65.5 8.6 31.8 5.2 49.8-1.3 57.9-6.5 8-15 11.2-30.1 9.6-15.1-1.6-67.3-20.5-67.3-20.5 0 0-9.3-18.8 1.5-31.3 0 0 26 2 36 4.4 5.3 1.3 6.9 2.3 6.9 2.3l-49.1-87.9z"/>
					<g id="&lt;Group&gt;">
						<path id="&lt;Path&gt;" class="s10" d="m438.4 370.7c-3-1.6-5.8-3.8-11.4 0-5.5 3.7-7.3 8.9-8.4 17.7-1.1 8.8-1.4 14-4.4 20.8-3.1 6.7-5.7 9.6-8.5 15.1-2.9 5.4-4.6 16.2-2.8 21.7 1.7 5.5 5.8 8 7.5 9z"/>
						<path id="&lt;Path&gt;" class="s11" d="m437 446.3q0.6-1.5 1.1-3c1.5-4.8 2.1-9.7 3.7-14.4 1.7-5.3 4.8-11 8.8-14.8 0-0.5 2.8-2.2 3.3-2.5 1.1-0.7 2.2-1.4 3.3-2.2 0.5-0.3 1-0.7 1.1-1.2 0.2-0.7-0.1-1.3-0.4-1.9q-2.2-3.9-4.6-7.6c-1.9-2.9-3.8-4.1-7.3-3.6q-1.9 0.3-3.8 0.6c0.7-1.1 1.8-2 2.9-2.7 0.7-0.3 1.5-0.6 2-1.2 0.8-0.9 0.9-2.1 0.9-3.2-0.1-1.4-0.3-3.2 0.3-4.5 1.2-2.3 4.2-3.1 5.8-5 0.3-0.3 0.5-0.8 0.4-1.2q0-0.1-0.1-0.1c-0.1-0.2-0.3-0.4-0.6-0.5-4.9-2.5-9.7-6.5-15.2-7.6-10.1-1.9-15.5 7.1-16.3 15.7-0.4 3.4-1.2 9-2.4 14.6-1.2 5.6-3.3 11.4-6.9 17.2-2.1 3.4-4.8 8.9-6 12.7-1.3 3.9-2.2 7.9-2.4 12-0.1 3.3 0.1 6.8 2 9.6 1.8 2.6 4.7 5 7.7 5.9 3.9 1.1 11.2 0.8 15.7-1.7 3.3-2 5.4-5.8 7-9.4z"/>
						<path id="&lt;Path&gt;" class="s3" d="m409.8 423c7 7.2 20.4 16.2 29.9 14.2-0.2 6.9-2.9 19.4-14.8 21.5-10.2 1.8-18.2-4.6-19.2-7.9-2.1-6.5-2.3-17.4 4.1-27.8z"/>
					</g>
				</g>
				<g id="&lt;Group&gt;">
					<path id="&lt;Path&gt;" class="s12" d="m445.5 300.4c-3.8 10.8-8.3 30.7-1.9 57 6.3 26.2 26.6 79.5 27.6 85.1 0 0-4.1 15.9-1.5 36.5 2.5 20.6 7.1 38.8 5.6 50.6-1.6 11.7-8 15.3-8.9 25.4-0.5 5.6 3.6 10.2 10 13.7 6.4 3.5 11.8 13.2 14.9 19.9 3.1 6.7 16.9 14.5 30.2 12.7 13.3-1.9 16.8-7.8 13.5-12.7-3.4-4.9-7-5.3-13.5-13.4-6.5-8.1-13.5-17.9-14.4-29-1.8-19.1 3.7-37.3 6.9-58.6 3.2-21.3 7.1-43.7 6.1-57-0.9-13.4-4.2-83.2-4.2-83.2 0 0 29.4-11.4 32.7-47z"/>
					<path id="&lt;Path&gt;" class="s5" d="m473.9 523.1c6.3 7.1 24.7 8.7 35.8 2.3 6.9-42.4 11.3-75.9 11.6-85.7 0.2-9.8-4.2-82.7-4.2-82.7 0 0 39.2-15 36.8-56.6l-109.6-0.6c0 0-3.9 11.9-3.8 26 0.2 13.1-0.2 26.4 6.7 49.4 7 23 23.4 67.3 23.4 67.3-1.8 6.5-3 15.6-3 24 0 8.3 6.3 56.6 6.3 56.6z"/>
					<g id="&lt;Group&gt;">
						<path id="&lt;Path&gt;" class="s10" d="m465.6 556.6c-1.3 1.9-1.8 6.6 0 9 1.8 2.4 9.2 6.3 12 8.5 2.7 2.1 7.2 9 9.6 14 2.4 5 5.3 11 18.2 15.6 13 4.6 22 1.5 26.2-0.5 4.2-2 5.8-5.6 5.2-9.4 0 0-13.7 9.1-30 0-16.3-9.2-15.9-17.1-24.1-25.1-8.2-8-17.1-12.1-17.1-12.1z"/>
						<path id="&lt;Path&gt;" class="s11" d="m526.2 577.7q-2.4-2.3-4.7-4.8c-3.2-3.5-5.4-7.4-7.5-11.7-2.6-5.5-4.4-11.5-4.4-17.6 0-0.9 0-2-0.7-2.5-0.5-0.3-1.1-0.3-1.7-0.3-4.8 0.1-9.6 1-14.2 2.6-2 0.7-4.2 1.7-4.6 3.8-0.3 1.5 0.5 3.2-0.4 4.5-3.2-2.9-4.6-7.5-7.8-10.3-1.4-1.2-3.1-2-4.4-3.3-1.3-1.3-2.1-3.3-1.4-4.9-1.9 0.6-1.7 3.3-2.4 4.8-0.8 1.8-1.7 3.6-2.6 5.3-1.9 3.6-3.4 7.3-3.7 11.3-0.6 5.7 3.6 10.5 10.2 14.1 6.5 3.6 11.6 13.6 15.2 20.3 0.9 1.6 2.3 3.4 3.8 4.8 8.7 6.4 18.1 9.2 28.9 7.7 4.7-0.6 9.7-1.5 12.4-6.1 2.5-4.5-0.1-9.2-3.6-12.1q-3.3-2.6-6.4-5.6z"/>
						<path id="&lt;Path&gt;" class="s3" d="m494.9 593.8c1.9-7.2 12-13.4 20.9-15.2 8.8-1.8 11.4-0.6 12.3 0 0.9 0.6 7.6 5.3 8.8 7.6 1.3 2.3 1.6 6.1 0 9.2-1.4 3.4-9 6.8-18.4 6.8-7.5 0-18-2.5-23.6-8.4z"/>
					</g>
				</g>
			</g>
			<g id="Top 00000179645398469010983220000000500460699164204446 ">
				<g id="&lt;Group&gt;">
					<g id="&lt;Group&gt;">
						<path id="&lt;Path&gt;" class="s12" d="m541.3 192.6c0 0-7.1 15-13.4 31.3-13.3 34.2-15 44.4-16.2 52-1.2 7.6 4.5 14.7 14.1 20 10.6 5.8 25.7 12.5 38.8 17.4 15.6 5.8 28 7 34.1 3.7 1.1-0.6 2-1.7 2.9-2.5 0.7-0.7 1.4-1.4 1.7-2.4 0.2-0.8 0.1-1.7 0.3-2.5 0.3-1 1.2-1.6 1.9-2.3 0.9-1 1.7-2.3 1.8-3.7 0-1.1-0.5-2.3-0.2-3.5 0.3-1.2 1.5-2.1 2.1-3.2 0.8-1.3 0.6-2.8 0.2-4.2-1.4-4.1-3.9-5.1-9.2-4.2-0.8-2.5-1.5-5.9-6.6-4.6-6.7 1.7-15.8 4.6-20.3 2.7-9.6-3.9-24.1-14.3-24.1-14.3 0 0 6.7-13.4 12.3-29.9 5.6-16.5 8.2-37.9-20.2-49.8z"/>
						<path id="&lt;Path&gt;" class="s5" d="m538.4 190.8c14.6 3.7 21.1 11.6 24.1 17.5 3.1 5.8 5.9 19.3-1.9 39l-6.1 15.2c0 0-21.9 0.8-35.7-13.9z"/>
						<path id="&lt;Path&gt;" class="s15" d="m600.2 288.5c0.8 2.9 1.3 6 0.2 8.8-1.2 2.7-2.2 5.8-3.8 8.1q-0.3 0.5-0.6 0.7-0.3 0.2-0.7 0.2c-0.5-0.1-1.1-0.5-1.6-1-0.9-1-1.4-2.5-1.4-3.9 0-2.9 0.7-6.2-0.5-9.1 0.4 1.1 0.3 2.2 0.2 3.3-0.7 0.1-1.4 0.4-1.9 1-0.7 0.5-1.1 1.3-1.4 2.1-0.3 0.8-0.3 1.7-0.2 2.5 0.1 0.7 0.4 1.3 0.7 1.9-1.2 0.9-2 2.5-1.9 4 0.2 1.6 1 2.8 2 3.8-0.9 0.8-1.7 1.8-1.6 3.1 0 0.7 0.4 1.3 0.8 1.8 0.4 0.5 1 0.9 1.6 1.1-0.5-0.3-1-0.8-1.3-1.3-0.4-0.5-0.5-1.1-0.5-1.6 0.1-1.2 1-2.1 2-2.6l0.6-0.3-0.5-0.5c-1-1-1.8-2.2-1.9-3.6-0.1-1.3 0.6-2.6 1.7-3.2l0.5-0.4-0.3-0.4c-0.9-1.2-1.3-2.7-1-4.1 0.3-1.4 1.2-2.7 2.6-3.2q0 0.6-0.1 1.1c-0.1 1.6-0.4 3-0.5 4.6-0.1 1.6 0.4 3.3 1.5 4.6 0.6 0.6 1.3 1.2 2.2 1.4 0.5 0.1 1.1 0 1.5-0.3q0.6-0.5 1-1c0.9-1.3 1.5-2.8 2-4.2 0.6-1.5 1.2-2.8 1.7-4.3 1-3.1 0.1-6.4-1.1-9.1z"/>
					</g>
					<g id="Chest 00000005233752101306997860000006938209777942703784 ">
						<path id="&lt;Path&gt;" class="s6" d="m446.6 231.8c0-22.6 5.8-25.4 12-31.3 8-7.7 18.4-14.9 18.4-14.9 0 0 23.9 0.7 26.9 0.9 13.1 0.8 20.4 1.7 26.3 2.8 6.5 1.2 10.1 0.9 15.1 6.3 5.1 5.4 14 16.2 12.9 41.3-1.7 35.2-3.3 53.9-0.3 80-9.3 20.9-73 37-119.1 2.6 0 0 5.9-34.3 6.3-45.9 0.7-18.6 1.5-23.8 1.5-41.8z"/>
					</g>
					<path id="&lt;Path&gt;" class="s5" d="m545.3 195.6c-5-5.4-8.6-5.1-15.1-6.3-5.9-1.1-13.2-2-26.3-2.8-3-0.2-26.9-0.9-26.9-0.9 0 0-10.4 7.2-18.4 14.9-6.2 5.9-12 8.7-12 31.3 0 4.6-0.1 8.5-0.1 11.9 13.7-2.7 22.9-10.6 30.4-17 10.7-9.3 19.1-28.4 19.1-28.4 6.3 7.1 23.3 12.1 31.3 8.9 6.9-2.7 7.3-7.4 7.3-7.4 0 0 12.9 6.9 18 14.7 4.4 6.9 5.5 17.4 5.6 19.8 0.5-23.2-8-33.5-12.9-38.7z"/>
					<g id="&lt;Group&gt;">
						<path id="&lt;Path&gt;" class="s12" d="m475.1 187c-14.5 0-24.2-0.6-45.8 28.8-21.6 29.6-28.6 44.3-30.8 51.7-2.1 7.4 2.6 15.1 11.4 21.6 9.8 7.1 24 15.7 36.3 22.2 14.8 7.7 26.9 10.6 33.4 8.1 1.1-0.5 2.1-1.5 3.1-2.2 0.8-0.6 1.7-1.2 2.1-2.1 0.3-0.8 0.3-1.7 0.6-2.5 0.5-0.9 1.4-1.4 2.1-2 1.1-0.9 2.1-2 2.3-3.4 0.2-1.2-0.1-2.4 0.3-3.5 0.5-1.2 1.7-1.9 2.5-2.9 0.9-1.2 0.9-2.7 0.7-4.1-0.9-4.3-3.2-5.6-8.6-5.4-0.4-2.6-0.7-6.1-6-5.4-6.8 0.9-13.1 4.7-20.5 0.1-8.7-5.5-22-17.2-22-17.2l32.4-43.9c0 0 11.9-21.1 6.5-37.9z"/>
						<path id="&lt;Path&gt;" class="s15" d="m484.7 291.3c0 0-1.4-0.3-3.1 0.3-1.7 0.6-3.5 2.7-6.6 2.6 2.9 1 6.6-0.4 6.6-0.4 0 0 2-1.1 4.3 0.3-1.9-1.8-3.7-1.4-3.7-1.4 0 0 1.2-1.2 2.5-1.4z"/>
						<path id="&lt;Path&gt;" class="s5" d="m477 185.6c-12.1 0-22.3-0.9-34.5 12.2-10 10.7-22 28.9-22 28.9 0 0 12 20.4 31.2 22.6 0 0 11.8-14.3 18-24.2 6.2-9.9 11.2-30.8 7.3-39.5z"/>
					</g>
				</g>
				<g id="Head 00000037677345647359545170000002310477309025900196 ">
					<g id="&lt;Group&gt;">
						<path id="&lt;Path&gt;" class="s11" d="m560.8 106.1c8.2 17.8 1.5 28.3-4.8 32.3l-61.4 36.5c-3-9.6-10.8-13.9-18.3-37.2-3.5-10.9 0.6-29.1 12-29.3 2.6-27.4 58.7-32.2 72.5-2.3z"/>
					</g>
					<g id="&lt;Group&gt;">
						<path id="&lt;Path&gt;" class="s12" d="m486 159.2c-3.1-1.5-5.4-5.2-6.4-7.9-1.8-4.5-1.1-10.9 0.7-13.3 2.2-3.2 6.1-4.3 9.4-3.4 3 0.8 4.1 2.6 5.2 5.1 0.7 1.6 1.7 5.6 3.9 5.1 2.3-0.5 2.7-4.1 2.8-6.1 0-0.9-0.4-2-0.1-2.9 0.4-1.3 1.9-2.2 2.8-3.2 1.9-2.2 2.7-5.1 3.1-7.9 0.5-2.9 0.5-5.7 1-8.6 0.1-0.6 0.3-1.2 0.7-1.6 0.7-0.8 1.9-0.9 3-0.8 12.1 0.4 24.5 1.4 36.3-1.5 0.9-0.2 1.9-0.5 2.8-0.2 3.3 0.8 4.8 5.5 5.8 8.3 2.1 5.2 3.1 10.7 2.1 16.3-0.2 1.5-0.9 3.4-0.7 5 0.3 2.3 1.4 2.8 1.5 11 0.2 6.3-0.6 13.6-6.8 20.6-4.8 5.4-13.2 9.3-22.7 9.2l-1.3 11.7c10.9 14.4-27.2 14.1-37.2-5.6l4-30.4c0 0-4.9 3.5-9.9 1.1z"/>
						<path id="&lt;Path&gt;" class="s15" d="m530.4 182.4c0 0-12 0.1-22.8-6.5-3.6-2.2-6.9-6.6-8.9-12.7 0 0-2.5 8.5 5 14.9 9.2 7.8 26.1 9.2 26.1 9.2z"/>
					</g>
					<g id="&lt;Group&gt;">
						<path id="&lt;Path&gt;" class="s10" d="m546.1 130.9l7.3 2.5c0.7-2.1-0.4-4.4-2.4-5.1-2.1-0.6-4.3 0.5-4.9 2.6z"/>
						<path id="&lt;Path&gt;" class="s10" d="m514.1 133.8l6.6-4.1c-1.1-1.9-3.5-2.5-5.3-1.4-1.9 1.1-2.5 3.6-1.3 5.5z"/>
						<path id="&lt;Path&gt;" class="s10" d="m524.1 140.8c0 1.9-1.5 3.4-3.4 3.4-1.9 0-3.4-1.5-3.4-3.4 0-1.9 1.5-3.4 3.4-3.4 1.9 0 3.4 1.5 3.4 3.4z"/>
						<path id="&lt;Path&gt;" class="s10" d="m551.2 140.1c0 1.9-1.5 3.4-3.4 3.4-1.8 0-3.4-1.5-3.4-3.4 0-1.9 1.6-3.4 3.4-3.4 1.9 0 3.4 1.5 3.4 3.4z"/>
						<path id="&lt;Path&gt;" class="s14" d="m521.2 158.6c2.4-2.3 4.4 0.7 9.4 1.6 4.8 1 7.9-1.6 8.8 1.6 0.7 2.8-2.6 8.5-10.9 7.5-7-0.9-9.3-8.6-7.3-10.7z"/>
						<path id="&lt;Path&gt;" class="s3" d="m530.6 160.2c-3.3-0.6-5.3-2-6.9-2.4l-0.2 2.4c0 0 1.5 1.6 5.4 2.4 4.7 1 8-0.3 8-0.3l0.7-2.2c-1.6-0.1-3.9 0.7-7 0.1z"/>
						<path id="&lt;Path&gt;" class="s15" d="m528.5 169.3c1.8 0.2 3.3 0.1 4.6-0.2-1.6-3.8-5.4-6.4-9.6-6.1-0.9 0.1-1.7 0.3-2.4 0.5 1 2.6 3.5 5.3 7.4 5.8z"/>
						<path id="&lt;Path&gt;" class="s15" d="m561.4 147.2c-0.6 2.9-3.3 4.8-6.1 4.2-2.7-0.6-4.5-3.3-4-6.2 0.6-2.9 3.3-4.7 6.1-4.2 2.7 0.6 4.5 3.3 4 6.2z"/>
						<path id="&lt;Path&gt;" class="s15" d="m505.3 147.6c0.3 2.9 2.9 5 5.7 4.6 2.8-0.4 4.8-3 4.5-5.9-0.4-2.9-2.9-4.9-5.7-4.6-2.8 0.4-4.8 3-4.5 5.9z"/>
						<path id="&lt;Path&gt;" class="s15" d="m533.7 134.8l1.2 18.8 10.4-4.2z"/>
					</g>
				</g>
			</g>
			<g id="Lines 00000134963080040294313640000005524085127762598323 ">
				<path id="&lt;Compound Path&gt;" class="s11" d="m397.5 288.6c-3-3.1-5.9-5.8-7.6-9.8-0.9-2.1-1.5-4.3-1.6-6.5-0.2-2.4 0.3-4.7 0.1-7.1-0.1-0.3-0.7-0.9-1-0.4-1.4 2.2-1.5 5.2-1.3 7.7 0.2 2.5 0.8 5.1 1.9 7.4 1.9 4 5.1 8.1 9.4 9.6 0.5 0.2 0.3-0.7 0.1-0.9zm-16.9-4.5c-1.2-2.6-1.4-5.5-2.1-8.3 0-0.3-0.5-0.8-0.7-0.3-1.3 2.9-0.2 6.6 1.1 9.4 1.3 2.8 3.4 5.7 6.3 7 0.4 0.1 0.4-0.5 0.2-0.7-1.8-2.2-3.6-4.4-4.8-7.1z"/>
				<path id="&lt;Compound Path&gt;" class="s11" d="m607.9 276.3c3.1 2.9 6.2 5.5 8.1 9.4 1 2 1.6 4.2 1.9 6.4 0.2 2.4-0.2 4.8 0.2 7.1 0 0.4 0.7 0.9 1 0.4 1.3-2.2 1.2-5.2 0.9-7.7-0.3-2.6-1-5.1-2.2-7.3-2-3.9-5.4-7.9-9.8-9.2-0.5-0.2-0.2 0.7-0.1 0.9zm17.1 3.7c1.3 2.6 1.7 5.5 2.5 8.3 0 0.2 0.5 0.7 0.6 0.3 1.3-3 0-6.7-1.4-9.4-1.4-2.8-3.7-5.6-6.6-6.7-0.4-0.2-0.4 0.4-0.2 0.6 1.9 2.1 3.8 4.3 5.1 6.9z"/>
				<path id="&lt;Compound Path&gt;" class="s11" d="m526 471c0.8 4.2 1.8 8.1 1 12.4-0.4 2.2-1.1 4.3-2.2 6.3-1.2 2.1-2.9 3.8-4 5.9-0.1 0.3 0.1 1.1 0.6 0.9 2.4-1.1 4.1-3.6 5.3-5.8 1.2-2.2 2.1-4.7 2.4-7.2 0.7-4.4 0.2-9.6-2.5-13.2-0.4-0.4-0.7 0.4-0.6 0.7zm11.6 12.9c-0.4 2.9-1.8 5.5-2.8 8.2-0.1 0.3 0.1 0.9 0.4 0.7 2.7-1.7 3.9-5.5 4.3-8.5 0.4-3.1 0.2-6.6-1.5-9.3-0.2-0.4-0.5 0.2-0.5 0.4 0.3 2.8 0.6 5.7 0.1 8.5z"/>
			</g>
		</g>
	</g>
	<g id="Character 1">
		<g id="Character 16 ">
			<g id="Bottom 5 ">
				<g id="&lt;Group&gt;">
					<path id="&lt;Path&gt;" class="s10" d="m272.6 662.4c0.7 2.1 0.9 6.6 0.2 8.1-0.8 1.6-5.7 7-15.6 9-10 1.9-24.2-0.9-30-1.2-5.9-0.4-23 2.1-28.9 2.8-9.2 1.3-16.9-1.5-20.3-4.9-1.4-1.3-1.7-4.1-1.6-5.7 0.1-3.9 0.8-4.3 0.8-4.3z"/>
					<g id="&lt;Group&gt;">
						<g id="&lt;Group&gt;">
							<path id="&lt;Path&gt;" class="s5" d="m177.9 656.5c-0.3 1.9-1 4.3-1.3 8.3-0.2 3.1 0.1 5.4 2.3 7.7 6.3 6.5 21.2 5.5 29.3 4 4.6-0.9 13.1-2.3 18.7-1.9 6 0.4 15.4 2.2 21.4 1.6 5.2-0.5 10.3-1 15.1-3.1 4-1.7 8.2-3.9 9.1-8.1 1.2-8.8-2.4-12.6-6.6-15.1-4.4-2.5-10.6-3.4-16.9-3.8-5.7-0.4-9.9-0.4-14.9-0.8-3.5-0.3-8-1.3-11.4-2.4-3.8-1.2-6.4-5.1-8-5.3 0 0-30.9 1-33.3 1.2-3 0.2-3.1 7.1-3.1 9.2-0.1 2.8-0.1 5.7-0.4 8.5z"/>
						</g>
					</g>
					<path id="&lt;Path&gt;" class="s14" d="m171.1 555.4c-0.8 27 11.3 88.5 11.3 88.5 0 0 6.9 5.5 17.2 5.2 10.3-0.3 14.6-6.2 14.6-6.2 0 0 4.5-62 5.4-89.1z"/>
					<path id="&lt;Path&gt;" class="s3" d="m257.2 675c0.7-6.3 1.3-21.2-10.3-29.1h-1.5c0 0 7.3-1.3 16.6 1.1 9.3 2.5 13.4 10 11.1 18 0 0-2.1 7.7-15.9 10z"/>
				</g>
				<g id="&lt;Group&gt;">
					<g id="&lt;Group&gt;">
						<path id="&lt;Path&gt;" class="s10" d="m161.4 600.8c0.4-0.4 1.1-0.1 1.1 0.4 0.2 4.2 0.3 8.2-1.8 12.8-3.3 7.3-9.6 10.4-13.3 13.1-3.7 2.8-7.1 4.6-10.2 9.5-2.4 3.8-4.1 10.1-12.4 14.5-3.8 2.1-13.9 2.1-18.4 0.1-4.4-2.1-8.4-6.2-7.8-13 0.7-6.2 23.9-6.2 26.2-6.3q0.3-0.1 0.4-0.2z"/>
						<path id="&lt;Path&gt;" class="s5" d="m103.2 613.4c-1.9 0.6-2.2 3.6-2.9 10.3-0.6 5-3.5 12.4-0.6 17.4 4.6 9.1 22 9 27 5.2 9.3-6.9 9.3-13.7 17-20.5 6.7-5.8 13.3-7.6 16.9-19.9 2.3-7.9 1.1-11.3-4.6-14-7.9-3.6-21.1 6-27.5 7.2-5.5 1.1-23.3 13.8-25.3 14.3z"/>
						<path id="&lt;Path&gt;" class="s3" d="m156.3 614.9c0-0.1 0.2-14.9-21.3-18.3l-1.2 0.6c0 0 3.8-5.6 11.1-7 7.3-1.3 12.9 0.8 16.4 5.5 3.5 4.8-1 16.6-5 19.2z"/>
					</g>
					<g id="&lt;Group&gt;">
						<path id="&lt;Path&gt;" class="s14" d="m103 534.8c-2.6 23.1 0.4 82.7 0.4 82.7 4.3 7.9 26.9 8.2 28.9 0.6 0.8-3.2 17.1-72.4 17.2-74.8 2-35.4-44-31.7-46.5-8.5z"/>
					</g>
				</g>
				<g id="&lt;Group&gt;">
					<path id="&lt;Path&gt;" class="s6" d="m170.3 566.1c-0.6-13.4 0-21.2-1-34.7-1.4-20.9-7.2-72.5-7.2-72.5-3.3 25.5-4.2 58.8-13 94 0 0-33.8 4.5-47.4-7.1 0-13.9 1.1-23.3 2.8-37.7 0 0 2-18.1 2-42.3 0-18.4 0.2-30 0-49.7-0.2-18.8 1-30.8 3.1-48.3 30.3-2 111.4 23.4 111.4 23.4 0 0 2.5 83.5 2.1 135.9-0.2 14.8-1.1 27.1-2.1 38.9 0 0-15 11.5-50.7 0.1z"/>
					<path id="&lt;Path&gt;" class="s16" d="m170.3 566.1c-0.6-13.4 0-21.2-1-34.7-1.4-20.9-7.2-72.5-7.2-72.5-3.3 25.5-4.2 58.8-13 94 0 0-33.8 4.5-47.4-7.1 0-13.9 1.1-23.3 2.8-37.7 0 0 2-18.1 2-42.3 0-18.4 0.2-30 0-49.7-0.2-18.8 1-30.8 3.1-48.3 30.3-2 111.4 23.4 111.4 23.4 0 0 2.5 83.5 2.1 135.9-0.2 14.8-1.1 27.1-2.1 38.9 0 0-15 11.5-50.7 0.1z"/>
					<path id="&lt;Path&gt;" class="s16" d="m128.7 420.5c12.7 14 30 13.3 30 13.3l3.4 25.1c-2.3 17.7-3.4 39.2-6.9 62.5l2.1-59.7-5.5-22.4c-22.1-8.1-23.1-18.8-23.1-18.8z"/>
				</g>
			</g>
			<g id="Top 5 ">
				<g id="&lt;Group&gt;">
					<g id="&lt;Group&gt;">
						<g id="&lt;Group&gt;">
							<path id="&lt;Path&gt;" class="s17" d="m201 187.7c0 0 9.9 12.3 9.1 13.7-0.9 1.4-7.2 3.1-7.2 3.1z"/>
						</g>
						<g id="&lt;Group&gt;">
							<path id="&lt;Path&gt;" class="s14" d="m174.2 159.7c17.2-1.5 24.7 5.8 28.6 30.2 4.1 25.4 0.5 35.5-2.8 39.5-4.9 6.1-17.1 6.4-24.5 5.4-9.3-1.4-31-2.9-42.6-19.2-11-15.4-15.5-34.7-4.3-44.3 15.9-13.6 38.4-11 45.6-11.6z"/>
						</g>
						<path id="&lt;Path&gt;" class="s14" d="m181.8 230.2l-7.5 36.2-37.1-7.8 6.5-25.8z"/>
					</g>
					<g id="&lt;Group&gt;">
						<g id="&lt;Group&gt;">
							<g id="&lt;Group&gt;">
								<path id="&lt;Path&gt;" class="s10" d="m190.3 171.4c0.8-0.1 2.4 4.2-0.6 7.4-1.8 1.8-5.2 2.2-7.8 1.1 1.8 2.7 3 8.2 2.5 10.4-0.7 2.7-2.4 4.1-5.4 5.6 0 0-3.5-9.2-12.2-7.1-8.7 2-9 12.4-2.8 18.1 6.1 5.6 11.1 2.7 11.1 2.7 0 0-2.9 15.3-8.8 23.7 0 0-11.3 2.4-22.6-0.5 0 0-11.1-11.5-17.5-20.9-13.2-19.6-15.1-39.7-5.3-44.9-2.2-8.3 0.2-15.5 7.9-21 5.8-4.3 14.2-5.2 20.8-2.5 0.5 0.2 2.2-3.9 2.3-4.2 1.3-2 3.1-3.7 5.2-4.8 3-1.7 6.4-2.5 9.8-2.6 3.9-0.3 7.9 0.3 11.3 2 3.4 1.8 6.1 4.7 6.9 8.2-0.2-0.9 6.3-1.4 6.9-1.5 1.8-0.2 3.3 0 5.1 0.7 3.6 1.3 6.7 3.9 8.5 7.4 1.7 3.1 2.2 6.8 1.7 10.3-0.3 1.8-0.9 3.7-1.8 5.2-0.9 1.6-5.7 7.2-15.2 7.2z"/>
							</g>
						</g>
					</g>
				</g>
				<g id="Arm 00000158725304968835125050000010771484210435857851 ">
					<path id="&lt;Path&gt;" class="s14" d="m76.3 173.7c4-21.4 5-25 6.5-31.7 1.2-5.2 2.6-11.5 2.6-14.5 0.1-2.6 0.4-11.7 2-16.7q1-3.3 1.9-6.6c0.3-0.6 0.5-1.2 0.6-1.8 1.3-3.8 2.5-7.7 4.5-11.2 0.9-1.6 2-3.2 3.4-4.3 1.7-1.3 3.1-1.4 5-1.4q0.2 0 0.3-0.1c0.2 0 0.2-0.2 0.3-0.3 0.7-1.6 1.6-3.3 3.2-4.1 0.9-0.5 1.9-0.6 2.9-0.6 2.3-0.1 2.2-3.2 4.2-3.9 0.7-0.2 1.5-0.1 2.2 0.2 2.1 0.9 3.7 3.1 3.3 5.3 5.8 2.3 2 9.9 0.3 13.7q-2.4 5.1-4.3 10.4c-0.4 1.2-2.1 5.3 0.8 3.9 0.7-0.3 1.2-0.9 1.6-1.4 1.6-1.9 2.5-4.3 4.3-5.9 1.4-1.5 3.6-2.2 5.6-1.9 3.9 0.8 0.7 4.7 0.2 6.9-1.7 5.3-4.8 13.5-8.6 17.5-1.4 1.3-2.7 2.5-3.8 3.4-3.2 2.9-4.4 5.3-5.6 15.6-1 9.1-1.5 42.2-1.5 42.2 0 0 4 14.4 11.3 31.5 4.2 9.9 7.5 15.5 14.4 23.9 8.3 27.3-30.3 65-32.1 50-1.6-13.4-6.3-26-10.7-39.2-7.9-23.9-11.4-33.9-13.4-41.3-4.2-16.3-5.1-18.1-1.4-37.6z"/>
					<path id="&lt;Path&gt;" class="s6" d="m139.3 242.1c-1.6-0.4-5.6-2.9-10.5-9.7-3.6-5.1-6.3-11-8.1-14.7-1.7-3.7-9.5-23.2-9.5-23.2 0 0-4.1-2.9-19.2 2.9-10.2 3.8-16.2 11.2-16.2 11.2 0 0 8.3 27.1 13.9 43.6 3.4 10 9.4 30.4 12.4 47.7 5 0.9 16.7-7.5 20.6-12.7 15.4-20.8 19.3-40.8 16.6-45.1z"/>
				</g>
				<g id="&lt;Group&gt;">
					<path id="&lt;Path&gt;" class="s11" d="m122.1 243.3c-13.4 4.2-23.1 21.7-19.5 63.1 3.1 36.6 6.7 46.3 4.7 78.4 5.9 17.6 48.3 28.8 66.4 29.7 28.1 1.3 44.5-5.6 48.3-10.9 0-67.5-2-112.4-7.4-124.1-3.6-5.9-16-17.8-16-17.8 0 0-16.3-7.7-26.9-11.3-20.3-6.9-36.7-11.1-49.6-7.1z"/>
				</g>
				<g id="&lt;Group&gt;">
					<path id="Arm 12 " class="s14" d="m235.8 338.4c0 0-1.2-6.7-5.2-28.7-4.1-21.9-4.8-37.1-32-46.7-5.7 6.3-8.4 18.9-6.8 32.2 1.5 13.3 10.2 43.2 11.6 49.6 1.3 6.4 2.6 8.3 4.8 12.1 4.4 7.9 6.7 12.1 14.6 23.5 4.4 6.5 10.2 14 14.7 20.5 4.5 6.3 7.2 10.2 12.2 16 3.5 4.2 5.7 6.2 7.8 7.8 2.8 2.3 5.6 3.7 9.3 4.3 0.6 0.1 1.1 0.2 1.7 0.3 0.6 0.2 1.2 0.5 1.9 0.8 1.4 0.8 3 1.4 4.6 1.4 1.4-0.1 2.7-0.7 4.1-0.5 1 0.1 1.9 0.7 2.9 1.1q1.3 0.5 2.8 0.5c1.4 0 2.9-0.5 3.4-1.8 0.5-1.2-0.1-2.5-0.8-3.7 0.7-1.3 1.1-2 0.8-3.4-0.2-1.1-0.6-2.1-1.2-3-1.3-1.9-3.1-3.4-4.9-4.8q-4.3-3.5-8.4-7.2c-1-0.9-6.7-5.1-5.3-6.9 0.8-1 5.4 1.8 6.3 2.1 3 1.1 7.9 2 10.7 0 2.2-1.4 1.4-3.3-0.6-4.2-3.5-1.6-6.7-3.2-9.9-5.3-3.3-2-6.3-4.3-9.6-6.2-1.7-1-3.5-1.8-5.4-2.6-5.1-2.1-8.6-9.5-10.6-14.4-3.6-8.9-11.3-25-13.5-32.8z"/>
					<g id="&lt;Group&gt;">
						<path id="&lt;Path&gt;" class="s6" d="m198.6 261.7c8.9 4.2 22.6 8.7 27.2 23.7 4.6 14.9 9.5 46.2 9.5 46.2 0 0-2.4 6.8-14.5 9.5-12.1 2.7-20.1 1.4-20.1 1.4 0 0-8.9-33.3-10.3-41.2-3.1-17.7 0-32.8 8.2-39.6z"/>
					</g>
				</g>
			</g>
			<g id="&lt;Group&gt;">
				<path id="&lt;Compound Path&gt;" class="s11" d="m80.4 93.9c0.8-4.2 1.4-8.2 3.8-11.8 1.2-1.9 2.7-3.6 4.5-5 1.8-1.5 4.1-2.4 5.9-3.9 0.3-0.2 0.4-1.1-0.2-1-2.6 0-5.1 1.6-7.1 3.2-2 1.6-3.7 3.5-5 5.7-2.3 3.8-3.9 8.7-2.7 13.2 0.1 0.5 0.7-0.2 0.8-0.4zm-5.8-16.5c1.6-2.5 3.8-4.3 5.8-6.4 0.1-0.2 0.3-0.8-0.2-0.8-3.1 0.5-5.6 3.6-7.2 6.2-1.6 2.6-2.8 6-2.2 9.1 0.1 0.4 0.6 0.1 0.6-0.1 0.8-2.8 1.7-5.6 3.2-8z"/>
				<path id="&lt;Compound Path&gt;" class="s11" d="m227.8 264c3.1 3 6.1 5.6 8 9.6 0.9 2 1.5 4.2 1.8 6.4 0.2 2.4-0.2 4.7 0.1 7.1 0.1 0.3 0.7 0.9 1 0.4 1.3-2.2 1.3-5.2 1-7.8-0.3-2.5-1-5-2.1-7.3-2-3.9-5.3-7.9-9.7-9.3-0.5-0.1-0.3 0.7-0.1 0.9zm17 3.9c1.3 2.7 1.7 5.5 2.4 8.3 0.1 0.3 0.5 0.7 0.7 0.3 1.2-2.9 0-6.6-1.4-9.4-1.4-2.7-3.6-5.5-6.5-6.7-0.4-0.2-0.4 0.4-0.2 0.6 1.9 2.1 3.8 4.3 5 6.9z"/>
			</g>
		</g>
	</g>
</svg>