<svg version="1.2" xmlns="http://www.w3.org/2000/svg" viewBox="0 0 1406 791" width="1406" height="791">
	<title>7355083-ai</title>
	<style>
		.s0 { fill: #000000 } 
		.s1 { fill: #fcab00 } 
		.s2 { fill: #ed6c71 } 
		.s3 { fill: #ee5952 } 
		.s4 { fill: #fbb4b8 } 
		.s5 { fill: #00cdcc } 
		.s6 { fill: #f8a3a8 } 
		.s7 { mix-blend-mode: multiply;fill: #ee5952 } 
		.s8 { fill: #ffffff } 
		.s9 { fill: #3f2532 } 
		.s10 { fill: #c0dbf9 } 
		.s11 { fill: #ebf7fa } 
		.s12 { mix-blend-mode: multiply;fill: #fcab00 } 
		.s13 { mix-blend-mode: multiply;fill: #ed6c71 } 
		.s14 { mix-blend-mode: multiply;fill: #c0dbf9 } 
		.s15 { mix-blend-mode: multiply;fill: #f8a3a8 } 
	</style>
	<g id="OBJECTS">
		<g id="&lt;Group&gt;">
			<path id="&lt;Compound Path&gt;" fill-rule="evenodd" class="s0" d="m1230.4 290.1q-0.1 0-0.1 0c-0.3-0.1-0.5-0.4-0.4-0.7 2-6.5 2.6-12.5 1.8-17.9-0.9-5.3-3.3-10.1-6.7-13.5q-0.2 0.4-0.4 0.8c-1.6 3.2-4.8 5.3-7.9 5-1.8-0.1-3.6-1.2-4.6-2.9-0.9-1.4-1.1-3-0.5-4.4 0.5-1.5 1.7-2.5 3.3-3 2.6-0.7 6.2 0 8.7 1.9q0.4 0.3 0.8 0.6c0.5-1.8 0.5-3.9 0.3-6.5-0.8-6.8-4.3-14.6-10.4-18.4q-0.1 1.2-0.5 2.2c-1.2 3.5-4.4 6.1-7.6 6-1.8 0-3.7-1-4.9-2.6-1-1.4-1.3-3.1-0.9-4.6 1.1-3.5 5.6-4.8 9.4-3.9q1.8 0.4 3.5 1.1c-0.1-2-0.6-3.9-1.2-5.4-3.8-10.3-15.4-17.1-26.3-15.4-0.3 0-0.6-0.2-0.6-0.5-0.1-0.3 0.1-0.6 0.4-0.6 11.4-1.7 23.5 5.4 27.6 16.2 0.8 2.2 1.2 4.3 1.2 6.3 6.7 3.8 10.6 12.2 11.4 19.4 0.3 3 0.2 5.5-0.4 7.6 3.8 3.5 6.4 8.7 7.4 14.4 0.9 5.6 0.3 11.8-1.8 18.4-0.1 0.3-0.3 0.4-0.6 0.4zm-13.4-35.8q-0.9 0-1.8 0.3-1.9 0.6-2.6 2.3c-0.4 1.1-0.2 2.3 0.5 3.4 0.8 1.4 2.2 2.3 3.7 2.4 2.6 0.3 5.4-1.6 6.8-4.4q0.3-0.5 0.5-1.1-0.6-0.5-1.2-0.9c-1.6-1.2-3.9-2-5.9-2zm-9.5-25.3c-2.7 0-5.3 1.1-6 3.4-0.4 1.2-0.1 2.5 0.7 3.6 1 1.3 2.5 2.2 4 2.2q0.1 0 0.1 0c3.1 0 5.6-2.6 6.4-5.2q0.4-1.2 0.5-2.5-1.7-0.8-3.6-1.3-1-0.2-2.1-0.2z"/>
			<path id="&lt;Compound Path&gt;" fill-rule="evenodd" class="s0" d="m685.7 176.5c-3.9 0-7.3-1.5-9.5-3.9-1.5-1.9-2.4-4.3-2.7-7.4-0.4-3.9 0.5-7.4 2.4-9.9 1.8-2.3 4.7-3.9 8.5-4.8 3.9-1 7.2-0.8 9.9 0.5 3.7 1.8 6.2 5.8 6.5 10.4 0.3 4.7-1.4 8.9-4.4 11.3-3 2.4-6.8 3.7-10.6 3.8q0 0-0.1 0zm3.3-25.5q-2.1 0-4.4 0.5c-3.5 0.9-6.1 2.4-7.8 4.5-1.7 2.3-2.5 5.5-2.2 9.1 0.3 2.8 1.1 5.1 2.5 6.7 1.9 2.3 5.2 3.6 8.7 3.6 3.6-0.1 7.1-1.3 9.9-3.5 2.7-2.2 4.2-6.1 4-10.5-0.3-4.1-2.6-7.8-5.9-9.4q-2.1-1-4.8-1zm7 21.3z"/>
			<g id="&lt;Group&gt;">
				<path id="&lt;Compound Path&gt;" class="s1" d="m229 365.3c-2-3.2-5-5.8-8.5-7.3-3.5-1.6-8.2-1.8-10.7 1.2-1.1 1.2-1.6 2.7-1.9 4.3-1.1 5.4 0.5 11.5 4.6 15.2 4.1 3.8 10.8 4.7 15.4 1.6 2.1-1.5 3.3-4.4 3.4-7.2 0.1-2.7-0.8-5.5-2.3-7.8zm44.6 15.6c-2.5-3.8-8-4.8-12.1-2.8-4.2 1.9-6.8 6.2-7.7 10.6-0.5 2.8-0.5 5.7 0.6 8.3 1.1 2.6 3.2 4.9 5.9 5.7 4 0.5 9.2-1.6 11.9-5.6 1.3-1.9 2.1-4.2 2.6-6.5 0.6-3.2 0.7-6.9-1.2-9.7zm-44.3 57.8c-3.4-0.7-7-0.3-10.1 1.1-2.5 1.1-4.9 2.9-5.7 5.5-0.8 2.5-0.2 5.3 1.4 7.3 1.5 2.1 3.8 3.4 6.3 4.2 5.5 1.6 11.8 0.1 15.9-3.8 1.8-1.7 2.2-5.9 0.5-8.8-1.6-3-4.9-4.8-8.3-5.5zm85.9 4.6c0-3.7-1.9-7.4-5.1-9.2-3.5-1.9-8.1-1.4-11.4 1-3.2 2.3-5 6.4-5.1 10.4-0.1 2.2 0.4 4.4 1.6 6.3 1.2 1.8 3.2 3.2 5.4 3.3 2.8 0.1 6.6-0.3 9.5-2.5 3-2.1 5-5.6 5.1-9.3z"/>
				<path id="&lt;Compound Path&gt;" class="s0" d="m311.7 568.3c-5.6-28.7-14-56.7-24.9-83.6 1.7-8.1 5.5-15.6 9.2-22.9q1.5-2.9 3-5.8c1.3-2.8 2.6-5.7 3.9-8.4 2-4.5 4.1-9 6.5-13.4 0.1-0.2 0-0.6-0.3-0.7-0.2-0.2-0.6-0.1-0.7 0.2-2.4 4.4-4.5 9-6.5 13.4-1.3 2.8-2.6 5.6-3.9 8.4q-1.5 2.9-3 5.8c-3.5 6.9-7.1 14-8.9 21.6q-6.3-15.4-13.6-30.4 0-0.1-0.2-0.3-7-14.3-15.1-28.2c1.9-15.9 5.8-31.5 11.6-46.4 0.1-0.3 0-0.6-0.3-0.7-0.3-0.1-0.6 0-0.7 0.3-5.7 14.6-9.5 29.8-11.5 45.3-13-22.3-27.9-43.5-44.6-63.4-0.2-0.3-0.5-0.3-0.8-0.1-0.2 0.2-0.2 0.5 0 0.8 23.6 28.2 43.7 59.2 60 92-19-4.1-38.4-5.8-57.8-5-0.3 0-0.5 0.3-0.5 0.6 0 0.2 0.2 0.5 0.4 0.5q0.1 0 0.2 0c19.6-0.8 39.2 1 58.3 5.2q7.7 15.6 14.2 31.7 0 0.2 0.1 0.4c10.9 26.8 19.2 54.8 24.8 83.3 0.1 0.2 0.3 0.4 0.5 0.4q0.1 0 0.2 0c0.3 0 0.5-0.3 0.4-0.6z"/>
			</g>
			<g id="&lt;Group&gt;">
				<path id="&lt;Compound Path&gt;" class="s2" d="m159.4 468.8c-11-13.6-33.2-10.8-50.2-8.6-9.2 1.2-18.7 4.2-24.8 11.2-2.6 2.9-4.5 6.7-4.3 10.6 0.2 5.1 4 9.6 8.6 11.9 4.6 2.2 9.9 2.6 15 2.4 7.3-0.3 14.7-1.7 21.3-4.9 8.6-4.1 15.5-11.2 24-15.7-4.1 6.4-7.3 13.3-8.9 20.8-1.5 7.4-1.3 15.2 1.2 22.4 0.8 2.2 1.8 4.4 3.4 6.1 1.7 1.7 4 2.9 6.4 2.7 3.1-0.2 5.6-2.7 7.3-5.3 2.2-3.4 3.4-7.3 4.4-11.2 2.1-9 2.7-18.5 1.7-27.7-0.6-5.2-1.8-10.6-5.1-14.7zm26.4-60c-0.9-2.8-2.6-5.7-5.4-6.4-2.2-0.6-4.6 0.4-6.5 1.6-4.9 3.2-8.4 8.1-11.1 13.3-6.5 12.5-8.8 27.1-6.6 41 0.3 2 0.8 4.1 2.3 6 5.1-1 9.6-3.9 13.2-7.7 3.5-3.7 6.1-8.2 8.5-12.8 2.7-5.4 5.1-11.1 6.3-17 1.2-6 1.2-12.3-0.7-18zm-83.8 20.8q0.2 0.2 0.4 0.3l-0.3 0.4c7.5-6.3 11.7-15.6 15.1-24.9 6-16.8 9.6-35 6.7-52.6-0.7-4.2-1.8-8.4-4.1-12-2.4-3.6-6-6.5-10.3-6.9-3.8-0.5-7.6 1.1-10.5 3.5-2.9 2.4-5.1 5.6-6.8 9-4.6 9.1-6.6 19.4-6.8 29.5-0.1 10.2 1.6 20.4 4 30.3 0.6 2.4 1.3 4.9 2.1 7.3-7.9-7.2-17.5-12.6-27.6-16.3-11.5-4.1-23.8-6.2-36-4.8-8.2 1-17.1 4.2-20.7 11.6-2 4.2-2 9-0.6 13.4 1.4 4.3 4.2 8.1 7.4 11.3 7.6 7.4 17.9 11.4 28.2 13.7 10.3 2.3 21.1 3.1 31.6 1.3 10.4-1.8 20.5-6.3 28.3-13.5q-0.1-0.3-0.1-0.6z"/>
				<path id="&lt;Compound Path&gt;" class="s0" d="m311.9 677.4c-34.1-66.8-81.9-149.2-153.4-209.9 1.8-18.6 7.7-37.1 17-53.4 0.1-0.3 0-0.6-0.3-0.8-0.2-0.1-0.6 0-0.7 0.2-9.2 16.2-15.1 34.6-17 53.1-6.3-5.3-12.8-10.5-19.6-15.5-13.1-9.7-24.4-16.6-35.2-21.6-2.9-9.4-3.1-19.6-2.7-32.1 0.5-11.8 1.4-23.8 2.8-35.6 0.7-5.5 1.5-10.8 3.5-15.7 0.1-0.3 0-0.6-0.3-0.8-0.3-0.1-0.6 0.1-0.7 0.3-2.1 5.1-2.9 10.5-3.6 16.1-1.4 11.8-2.4 23.8-2.8 35.7-0.4 10.5-0.3 21.6 2.5 31.5q-5.1-2.3-10.1-4c-11.8-4.2-24.3-6.3-36.5-8.4-12.6-2.2-25.6-4.5-37.7-8.9-0.3-0.1-0.6 0.1-0.7 0.4-0.1 0.3 0 0.6 0.3 0.7 12.2 4.4 25.3 6.7 37.9 8.9 12.1 2.1 24.6 4.2 36.3 8.3q5.5 1.9 11 4.4 0.1 0.2 0.3 0.2 0.1 0 0.1 0c10.7 5 21.9 11.9 35 21.5 6.5 4.9 12.8 9.9 19 15.1-8.5 1.7-16.2 4.4-23.5 6.9l-2.5 0.9c-13.1 4.4-27.1 8.8-41.2 8.2-0.3 0-0.6 0.2-0.6 0.5 0 0.3 0.2 0.6 0.5 0.6 14.3 0.6 28.4-3.8 41.6-8.3l2.5-0.9c7.4-2.5 15-5.1 23.5-6.9-1.9 16.1-4.5 32.2-8 48 0 0.3 0.1 0.6 0.4 0.7q0.1 0 0.2 0c0.2 0 0.5-0.2 0.5-0.4 3.5-15.9 6.1-32.1 8-48.2 71.4 60.6 119.1 142.9 153.3 209.7 0.1 0.2 0.2 0.3 0.4 0.3q0.2 0 0.3-0.1c0.3-0.1 0.4-0.5 0.2-0.7z"/>
			</g>
			<path id="&lt;Compound Path&gt;" fill-rule="evenodd" class="s0" d="m942.6 92.5c-1.7 4.5-5.9 8.2-10.7 9.4q-2.9 0.7-5.4 0.7-3 0-5.4-1.2c-5.1-2.5-7.2-9.7-4.6-15.3 2.3-4.9 7.8-8.4 14.1-8.8 3.2-0.3 6 0.3 8.1 1.6 4.1 2.7 5.8 8.6 3.9 13.6zm-2.9-11.3q-0.7-0.8-1.6-1.3c-1.6-1.1-3.7-1.6-6.1-1.6q-0.7 0-1.4 0.1c-5.8 0.4-10.9 3.7-13.1 8.2-1.7 3.7-1.2 8.1 1 11.2 6.7-6 13.8-11.6 21.2-16.6zm0.7 0.8c-7.4 5.1-14.5 10.7-21.2 16.6q1 1.2 2.4 1.9c2.6 1.3 5.9 1.4 10.1 0.3 4.3-1.1 8.3-4.6 9.9-8.7 1.3-3.4 0.7-7.3-1.2-10.1z"/>
			<path id="&lt;Compound Path&gt;" fill-rule="evenodd" class="s0" d="m304.7 171.3q-0.1 0-0.1 0c-9.4-2.9-18.2-6.9-26.8-10.9q-0.2-0.1-0.3-0.3-0.1-0.2 0.1-0.5c8.9-13.9 19.4-26.9 31.2-38.5 0.2-0.2 0.4-0.2 0.6-0.1 0.2 0.1 0.4 0.3 0.4 0.5-0.6 16.5-2.1 33.1-4.5 49.3q-0.1 0.3-0.3 0.4-0.1 0.1-0.3 0.1zm-25.8-11.6c8.1 3.7 16.5 7.6 25.4 10.3 2.3-15.5 3.7-31.4 4.3-47.1-11.2 11.1-21.2 23.5-29.7 36.8z"/>
			<path id="&lt;Compound Path&gt;" fill-rule="evenodd" class="s0" d="m1371.8 612q-0.1 0-0.2-0.1-0.2-0.1-0.3-0.4c-4.3-15.9-6.8-32.4-7.4-49 0-0.2 0.1-0.4 0.3-0.5 0.2-0.1 0.5-0.1 0.6 0.1 11.8 11.5 23.1 23.8 33.4 36.5q0.2 0.2 0.1 0.5 0 0.2-0.2 0.4c-8.4 5-17.4 8.7-26.1 12.4q-0.1 0.1-0.2 0.1zm-6.8-48.2c0.7 15.8 3.1 31.6 7.2 46.8 8.3-3.5 16.8-7.1 24.8-11.8-10-12.2-20.7-23.9-32-35z"/>
			<path id="&lt;Compound Path&gt;" fill-rule="evenodd" class="s0" d="m384.2 127.8q-0.7 0-1.3-0.3c-2.4-1-2.8-4.2-1.9-6.7q0.6-1.5 1.7-2.8c-1.5-0.4-3.1-0.6-4.7-0.3-2.4 0.4-4.9 1.6-7.8 3.7-1.8 1.3-4 3.1-4.8 5.5-0.1 0.3-0.4 0.4-0.7 0.3-0.3 0-0.4-0.4-0.3-0.6 0.8-2.8 3.2-4.7 5.1-6.1 1.9-1.4 4.9-3.3 8.3-3.9 2-0.3 4-0.1 5.7 0.5 1.6-1.5 3.7-2.7 6-3.3 4.4-1 8.4 0.2 11.1 1.3 2.2 1 6.1 3.1 6.9 7.1 0 0.3-0.2 0.6-0.5 0.6-0.3 0.1-0.6-0.1-0.6-0.4-0.7-3.4-4.2-5.4-6.2-6.3-2.5-1.1-6.4-2.1-10.4-1.2-2 0.5-3.8 1.4-5.2 2.8q1.1 0.6 1.9 1.5c1.6 1.6 2.2 3.9 1.6 5.7-0.4 1.1-1.3 2.1-2.4 2.6q-0.8 0.3-1.5 0.3zm-0.5-9.3q-1.1 1.2-1.7 2.7c-0.7 2-0.4 4.6 1.3 5.3 0.6 0.3 1.3 0.2 2-0.1 0.8-0.3 1.4-1 1.7-1.8 0.5-1.5 0-3.3-1.3-4.7q-0.8-0.8-2-1.4z"/>
			<g id="&lt;Group&gt;">
				<path id="&lt;Compound Path&gt;" class="s2" d="m1248.8 360.5c2.7-11.2 3.5-24-3.3-33.3-2-2.9-5.1-5.4-8.6-5.3-2.4 0.1-4.6 1.4-6.5 2.9-9.7 7.9-13.6 21-14.9 33.4-1.8 17.4 0.5 35.2 6.6 51.6 13.3-13.5 22.3-30.8 26.7-49.3zm-42.9 78.9c-4 7.7-6.5 16.3-6 24.9 0.2 3.5 1.2 7.4 4.4 8.8 4 1.7 8.3-1.9 10.8-5.4 10.4-14.2 13.7-33.4 8.7-50.3-1 0.1-2 0.6-2.9 0.9-5.6 6.6-11 13.5-15 21.1zm34.2-25.1c-4.3-0.7-9-0.9-12.7 1.2 5.2 15 14.5 28.6 26.7 38.8 5.3 4.4 11.4 8.3 18.3 8.6 6.8 0.3 14.3-4.2 15.1-11 0.5-3.9-1.2-7.8-3.3-11.2-9.3-15-26.6-23.9-44.1-26.4zm-45.1-1.9c8 1.2 16.1 0.9 24.2 0.7 0.6-2.4-0.9-5.1-2.5-7.2-8.2-11.2-19.6-20-32.4-25.3-4.6-1.9-10.1-3.3-14.4-0.8-4.1 2.3-5.8 7.6-4.9 12.2 0.9 4.6 4.1 8.5 7.7 11.5 6.3 5.1 14.3 7.7 22.3 8.9zm105.9-53.9c-5.8-1.2-11.8 0.2-17.4 2.1-24.6 8.3-45.7 26.7-57.4 50 28.6 2.9 58.7-4.9 79.2-24.8 4.3-4.2 8.5-9.8 7.7-15.8-0.8-5.9-6.3-10.3-12.1-11.5z"/>
				<path id="&lt;Compound Path&gt;" class="s0" d="m1227.7 415.1c-0.2-0.2-0.6-0.1-0.8 0.1-0.2 0.2-0.1 0.6 0.1 0.8l46.3 35c0.2 0.1 0.4 0.1 0.6 0q0.1 0 0.2-0.1c0.2-0.3 0.1-0.6-0.1-0.8zm-5.6 1.4c-2.4 15.1-6.3 30.2-11.4 44.7-0.1 0.3 0 0.6 0.3 0.7q0.2 0.1 0.4 0 0.2-0.1 0.3-0.4c5.2-14.5 9.1-29.6 11.5-44.9 0.1-0.3-0.1-0.6-0.5-0.6-0.2 0-0.5 0.2-0.6 0.5zm-3.2-1.8c0.2 0.1 0.4 0.1 0.6 0q0.1 0 0.2-0.1c0.2-0.2 0.2-0.6-0.1-0.8-10.9-9.8-24-17.4-37.9-22.2-0.3-0.1-0.6 0.1-0.7 0.4-0.1 0.3 0.1 0.6 0.4 0.7 13.7 4.7 26.7 12.3 37.5 22zm18.3-73.1c-0.3 0-0.5 0.2-0.6 0.5-2.3 23.5-6.8 46.9-13.4 69.6-0.1 0.3 0.1 0.6 0.4 0.7q0.2 0.1 0.4 0 0.2-0.1 0.3-0.3c6.6-22.8 11.1-46.3 13.4-69.9 0.1-0.3-0.2-0.6-0.5-0.6zm61.2 34l-71.2 35.1c-0.3 0.1-0.4 0.5-0.3 0.7 0.1 0.3 0.5 0.4 0.8 0.3l71.2-35.1c0.3-0.2 0.4-0.5 0.3-0.8-0.2-0.2-0.5-0.4-0.8-0.2zm-78.3 40.9c0.3-0.2 0.4-0.5 0.3-0.8-0.2-0.2-0.5-0.4-0.8-0.2-20.9 9.6-40.6 23.8-58.6 42.2-18.9 19.4-31.5 39.4-37.4 59.4-0.1 0.3 0.1 0.6 0.4 0.7q0.2 0 0.4 0 0.2-0.2 0.3-0.4c5.8-19.9 18.3-39.7 37.1-58.9 17.9-18.3 37.5-32.5 58.3-42z"/>
				<path id="&lt;Path&gt;" class="s1" d="m1228.8 418.2c-1.3 2.4-4.3 3.6-6.9 2.8-2.6-0.7-4.6-3.1-5.1-5.7-0.5-3.3 1.4-6.8 4.5-8.1 3-1.2 7 0 8.6 2.9 1.6 2.9 0.6 7-1.1 8.1z"/>
			</g>
			<g id="&lt;Group&gt;">
				<path id="&lt;Path&gt;" class="s3" d="m825.5 72.1c0.2 3.6 1.4 7.1 3.5 10 1.5 1.9 3.3 3.6 4.6 5.6 1.3 2 2.2 4.6 1.2 8.9-9.3 18.8-20.4 36.6-31.4 54.3-1.6 2.6-3.3 5.2-5.6 7-3.1 2.4-7 3.2-10.8 3.4-10.1 0.6-20-3-29-7.6-9.2-4.7-18.1-10.8-23.2-19.8-1.4-2.5-2.5-5.5-1.5-8.5 9.5-21.4 21.7-41.5 36.2-59.7 0.7-0.9 1.4-1.8 2.4-2.4 3.3-2.5 7.9-1.2 12.1-0.7 5.7 0.8 11.9-0.1 16.5-3.6 8 4.9 16.3 9.3 25 13.1z"/>
				<path id="&lt;Path&gt;" class="s4" d="m767.4 85.4q-9.4 14.7-18.8 29.4c-1 1.6-2 3.2-2.6 5-1 3-0.5 6.4 0.5 9.4 2.1 6.1 6.7 11.1 12.1 14.6 5.3 3.6 11.6 5.6 17.9 7 4.6 0.9 9.8 1.4 13.6-1.5 1.7-1.3 2.9-3.1 4-4.9 6.6-10.2 13.2-20.4 19.2-30.9 0.4-0.6 0.7-1.2 0.8-1.9 0-0.6-0.1-1.2-0.4-1.8-1.4-3.4-4.6-5.6-7.6-7.6-12-7.8-25.1-14.4-38.7-16.8z"/>
				<path id="&lt;Path&gt;" class="s5" d="m835.4 77.2c-12.6-3.5-24.6-9-35.6-16.1-3.8-2.5-7.4-5.2-10.3-8.7-0.5-0.5-1-1.2-1.1-2 0-0.5 0.2-1.1 0.4-1.6q1.8-4.6 4.2-8.9c0.5-0.9 1.1-1.9 2-2.6 0.9-0.7 2.1-0.9 3.3-1 2.6-0.2 5.2 0.4 7.7 1.2 14.5 4.5 28 12.4 39.1 22.9 0.6 0.6 1.4 1.3 1.5 2.3 0.1 0.7-0.1 1.5-0.4 2.2-2.1 5.2-5.8 9.8-10.8 12.3z"/>
				<path id="&lt;Path&gt;" class="s0" d="m837.3 63.2q-0.1 0-0.2 0c-9-3-17.8-6.7-26.3-10.9-4.5-2.2-9.5-5-12.5-9.6-0.2-0.3-0.1-0.6 0.2-0.8 0.2-0.1 0.6-0.1 0.7 0.2 2.8 4.3 7.7 7 12.1 9.2 8.4 4.2 17.2 7.9 26.1 10.8 0.3 0.1 0.5 0.4 0.4 0.7-0.1 0.3-0.3 0.4-0.5 0.4z"/>
				<path id="&lt;Path&gt;" class="s6" d="m766.6 85.9c-1.2 3.2 1.4 6.6 4 8.9 8.6 8 19.2 13.7 30.6 16.7 2.4 0.6 4.9 1.1 7.3 1.6 2 0.4 4.5 0.6 5.7-1.1 0.7-1 0.6-2.5 0.1-3.6-0.5-1.1-1.5-2-2.4-2.8-9.6-9-21.3-15.7-33.8-19.8-3-0.9-6.1-1.8-9.2-1.4-0.9 0.1-2 0.6-2.3 1.5z"/>
			</g>
			<path id="&lt;Compound Path&gt;" fill-rule="evenodd" class="s0" d="m1124.5 389.8c0.1 3.3-0.3 6.1-1.4 8.6-1.5 3.6-4.6 6.6-8.5 8.6-3.3 1.6-7.3 2.5-11.8 2.6q-0.4 0-0.8 0c-3.7 0-6.4-0.6-8.6-2-2.4-1.5-4.2-4-5.5-7.5q-0.1 0-0.2-0.2-0.1-0.2 0-0.4-0.2-0.6-0.4-1.2c-1.5-5.3-1.1-10.7-0.4-14.3 0.8-4.9 5.5-8 9.3-9.7 4.1-2 12.2-4.7 19.1-1.1 2.7 1.5 4.8 3.7 6.2 6.1q0.1 0.1 0.2 0.2 0.1 0.2 0.1 0.4c1.7 3.2 2.5 6.8 2.7 9.9zm-35.9 9c10.8-6 21.5-12.4 31.8-19.1-1.3-2.2-3.2-4.2-5.6-5.5-2.3-1.2-4.7-1.6-7.1-1.6-4.4 0-8.5 1.5-11.1 2.7-3.5 1.6-7.8 4.5-8.6 8.9-0.6 3.5-1.1 8.7 0.4 13.8q0.1 0.4 0.2 0.8zm34.8-9c-0.2-2.9-0.9-6.2-2.4-9.1-10.4 6.7-21.2 13.1-32 19.1 1.2 3.2 2.8 5.5 5 6.9 2.2 1.3 4.9 1.9 8.8 1.8 4.3-0.1 8.1-0.9 11.3-2.5 3.7-1.9 6.5-4.7 8-8.1 1-2.2 1.4-5 1.3-8.1z"/>
			<path id="&lt;Compound Path&gt;" fill-rule="evenodd" class="s0" d="m187.7 341.9c-0.3 0.8-0.9 1.4-1.5 1.9-1.2 1.1-2.6 2-4.4 3-6.7 3.9-14.6 5.9-22.3 5.9q-1.8 0-3.5-0.1c-2.7-0.2-4.9-0.6-7-1.3-2.6-0.8-4.3-2-5.3-3.6-1.4-2-1.4-4.3-1.4-6.6-0.1-1.1-0.1-2.2-0.2-3.2q-0.1-0.2 0-0.3c0.2-3.8 3.7-6.6 6-8 8.6-5.4 19.2-7.7 29.2-6.3 2.2 0.3 4.6 0.8 6.6 2.3 0.9 0.7 1.8 1.7 2.3 2.9 0.2 0.1 0.4 0.2 0.4 0.5 0.6 3.5 1 7 1.3 10.6 0 0.6 0.1 1.5-0.2 2.3zm-42.3-8.7c13.2-1.8 26.7-2.9 40.1-3.1-0.2-1.5-1.2-2.8-2.3-3.6-1.8-1.3-4-1.8-6-2.1q-2.8-0.4-5.7-0.4c-8 0-16 2.3-22.8 6.5-0.8 0.5-2.2 1.5-3.3 2.7zm-2.1 5.4c0.3 1.8 1.7 3.5 3.8 4.4 1.9 0.9 4.1 1.1 6.2 1.1 7.6 0.2 15.5-1.2 22.6-4.2 1.4-0.6 4.1-2.4 6.8-4.6 1.1-1 2.4-2.1 2.7-3.6q0.1-0.2 0.1-0.5c-13.7 0.2-27.6 1.3-41.2 3.3q0 0 0 0c-0.8 1.2-1.3 2.6-1 4.1zm43.5 1q-0.3-3.2-0.7-6.5c-0.7 1.2-1.7 2.2-2.7 3-2.2 1.8-5.2 4.1-7.1 4.8-6.8 2.9-14.3 4.4-21.7 4.4q-0.7 0-1.4 0c-2-0.1-4.5-0.3-6.6-1.3-1.3-0.6-2.4-1.5-3.2-2.5 0 2.1 0.1 4 1.2 5.6 0.9 1.4 2.4 2.4 4.8 3.1 1.9 0.7 4.1 1.1 6.7 1.3 8.6 0.7 17.6-1.3 25.1-5.6 1.8-1 3.1-1.9 4.2-2.9 0.5-0.5 1-0.9 1.2-1.5 0.2-0.6 0.2-1.1 0.2-1.9z"/>
			<g id="&lt;Group&gt;">
				<path id="&lt;Path&gt;" class="s3" d="m55.6 265.2q-0.2-17.9-0.4-35.8c-0.1-7.3-0.2-14.7 1.1-21.9 0.8-4.8 2.2-9.5 4.8-13.6 4.5-7.2 12.1-11.9 20-14.8 10-3.7 21-5 31.3-2.4 10.3 2.5 19.8 9.3 24.5 18.8 3.1 6 4.2 12.9 4.8 19.7 1.6 16.1 1.2 32.2 0.3 48.3 0 0.5-0.1 1.1-0.4 1.5-0.4 0.3-0.8 0.4-1.3 0.5-28 4.5-56.7 4.9-84.7-0.3z"/>
				<path id="&lt;Path&gt;" class="s7" d="m136.9 195.5c-3.5-7-9.5-12.4-16.5-15.9 4.8 9.1 6.8 19.7 7.9 30 2.1 19 1.9 38.2 1.6 57.4q5.2-0.7 10.4-1.5c0.5-0.1 1-0.2 1.3-0.5 0.3-0.4 0.4-1 0.4-1.5 0.9-16.1 1.3-32.2-0.3-48.3-0.6-6.8-1.7-13.7-4.8-19.7z"/>
				<path id="&lt;Path&gt;" class="s8" d="m120.7 212.7h-11.1v-11.1h-21.2v11.1h-11.1v21.2h11.1v11.1h21.2v-11.1h11.1z"/>
				<path id="&lt;Path&gt;" class="s9" d="m60.7 262.4q37.5-0.6 75-1.1c4.1-0.1 8.5 0 11.8 2.5 2.5 2 3.9 5.4 3.4 8.6-0.5 3.2-2.8 6.1-5.9 7.2-1.7 0.6-3.5 0.7-5.3 0.8-5.6 0.2-11.2 0.2-16.7 0.2q-31.1 0-62.1 0c-3.6 0-7.3 0-10.6-1.6-3.2-1.6-5.7-5.3-4.7-8.7 0.6-1.9 2-3.4 3.5-4.5 3.3-2.4 7.3-3.3 11.6-3.4z"/>
			</g>
			<g id="&lt;Group&gt;">
				<path id="&lt;Path&gt;" class="s0" d="m677.8 36.8q-0.4-0.1-0.6-0.5c-0.2-0.6 0-1.2 0.6-1.5 11.9-5.6 24.2-11.1 36.4-16.2 0.5-0.3 1.2 0 1.4 0.6 0.3 0.5 0 1.2-0.6 1.4-12.1 5.2-24.3 10.6-36.3 16.2-0.3 0.2-0.6 0.2-0.9 0z"/>
				<path id="&lt;Path&gt;" class="s10" d="m524.6 78.9q63.4-26.9 126.7-53.7c1.5-0.6 3.1-1.3 4.7-1.3 1.9-0.1 3.7 0.6 5.4 1.2q10.9 4.1 21.7 8.2-2 14.1-5.3 28c-0.3 1.1-0.5 2.2-1.3 3.1-0.7 0.8-1.7 1.2-2.7 1.6-44.4 18.1-88.2 37.5-131.4 58.2-7.7-14.7-13.9-30.3-17.8-45.3z"/>
				<path id="&lt;Path&gt;" class="s3" d="m522 85.6q-29.6 13-59.2 26.1c3.4 12.1 8.5 23.7 15.1 34.4q28.9-13.3 57.8-26.5c-2.1-12.5-6.8-24.7-13.7-34z"/>
				<path id="&lt;Compound Path&gt;" class="s0" d="m566.2 88.8c-0.1-0.2-0.4-0.4-0.7-0.3-0.3 0.1-0.4 0.5-0.3 0.8 2.2 5.4 4.8 10.7 7.8 15.8q0.1 0.1 0.3 0.2 0.2 0.1 0.4 0c0.3-0.2 0.4-0.5 0.2-0.8-2.9-5-5.5-10.3-7.7-15.7zm20.8-7.8c-0.1-0.3-0.4-0.4-0.7-0.3-0.3 0.1-0.5 0.4-0.4 0.7l5.4 14.9q0.1 0.3 0.3 0.4 0.2 0 0.4 0c0.3-0.1 0.4-0.4 0.3-0.7zm20.9-8.7c-0.1-0.3-0.5-0.4-0.7-0.2-0.3 0.1-0.4 0.4-0.3 0.7l6.5 13.5q0.1 0.2 0.3 0.2 0.2 0.1 0.4 0c0.3-0.1 0.4-0.4 0.3-0.7zm20-9.3c-0.1-0.3-0.5-0.3-0.7-0.2-0.3 0.2-0.4 0.5-0.2 0.8 2.7 4.3 4.8 9 6.5 13.8q0.1 0.3 0.3 0.4 0.2 0 0.4 0c0.3-0.1 0.4-0.4 0.3-0.7-1.6-4.9-3.8-9.7-6.6-14.1zm29.1 6.1l-6.2-13.9c-0.2-0.3-0.5-0.4-0.8-0.3-0.2 0.1-0.4 0.4-0.2 0.7l6.2 13.9q0.1 0.2 0.3 0.3 0.2 0.1 0.5 0c0.2-0.1 0.4-0.4 0.2-0.7z"/>
				<path id="&lt;Path&gt;" class="s7" d="m471.2 133.9q3 6.2 6.7 12.2 28.9-13.3 57.8-26.5c-0.9-5-2.1-10-3.8-14.7q-30.8 13.5-60.7 29z"/>
				<path id="&lt;Compound Path&gt;" class="s9" d="m481.1 145.7q-7.5-17.6-15.2-35.1c-0.6-1.3-1.5-2.8-2.3-4.2-0.8-1.4-2.3-2.8-3.9-2.6-1.6 0.2-2.7 1.9-2.8 3.5-0.1 1.7 0.5 3.2 1.1 4.7q3.2 7.5 6.4 14.9 2.7 6.4 5.4 12.8c1.7 4.2 3.5 8.4 6.3 11.9 0.7 1 1.6 2 2.8 2.1 1.7 0.2 3.1-1.5 3.3-3.1 0.2-1.7-0.5-3.3-1.1-4.9zm63.3-19.3c-5.6-16.9-12-33.4-19.1-49.7-0.9-2.2-2.8-4.8-5.1-4.2-1.5 0.5-2.3 2.1-2.2 3.7 0.1 1.5 0.4 3 0.8 4q9.3 23.2 18.6 46.5c0.6 1.5 1.3 3.1 2.6 4.1 1.3 1 3.4 1.1 4.4-0.2 0.9-1.2 0.4-2.8 0-4.2z"/>
			</g>
			<g id="&lt;Group&gt;">
				<path id="&lt;Path&gt;" class="s8" d="m1079 157.9q26.4 23.2 52.7 46.4c5.7 5.1 11.6 10.2 15.3 16.9 3.7 6.6 5 15.2 1.3 21.9-2.7 4.8-7.7 8.1-13.1 9.8-3.7 1.2-7.7 1.7-11.6 1.1-5.9-1-11.1-4.6-15.9-8.3-15.5-11.7-30.1-24.7-44.6-37.7-5.3-4.7-10.6-9.5-15.1-15-5.1-6.4-9.2-14.6-7.5-22.7 0.7-3.4 2.4-6.5 4.6-9.2 4.1-5 10.2-8.4 16.6-9 6.5-0.6 13 2 17.3 5.8z"/>
				<path id="&lt;Path&gt;" class="s10" d="m1135.2 252.9c4.3-1.3 8.3-3.7 11.2-7.1-11 4.1-24.9-1.7-36.8-10.6-11.9-9.1-39.7-32.7-53.3-48.3-13.6-15.6-11.8-25-11.8-25-1.9 2.5-3.4 5.3-4 8.4-1.7 8.1 2.4 16.3 7.5 22.7 4.5 5.5 9.8 10.3 15.1 15 14.5 13 29.1 26 44.6 37.7 4.8 3.7 10 7.3 15.9 8.3 3.9 0.6 7.9 0.1 11.6-1.1z"/>
				<path id="&lt;Path&gt;" class="s3" d="m1148.3 243.1c3.7-6.7 2.4-15.3-1.3-21.9-3.7-6.7-9.6-11.8-15.3-16.9q-12.3-10.8-24.5-21.6c-7.3 4.3-14.1 9.5-19.4 16-5.2 6.5-8.9 14.3-9.7 22.6 9.6 8.4 19.4 16.7 29.6 24.4 4.8 3.7 10 7.3 15.9 8.3 3.9 0.6 7.9 0.1 11.6-1.1 5.4-1.7 10.4-5 13.1-9.8z"/>
				<path id="&lt;Path&gt;" class="s7" d="m1137.7 252q0.5-0.2 1-0.5 0.5-0.2 0.9-0.4 0.3-0.2 0.7-0.4 0.5-0.3 1-0.6 0.1 0 0.1 0c1.9-1.2 3.6-2.6 5-4.3q0 0 0 0c-11 4.1-24.9-1.7-36.8-10.6-6.5-5-17.8-14.3-29-24.3-1.3 3.3-2.2 6.8-2.5 10.4q6.8 6 13.9 11.9 0.8 0.7 1.6 1.4 2.6 2.1 5.2 4.2 1 0.8 2 1.5 3.4 2.8 6.9 5.4c4.8 3.7 10 7.3 15.9 8.3 3.9 0.6 7.9 0.1 11.6-1.1q0.9-0.3 1.8-0.6 0.4-0.2 0.7-0.3z"/>
			</g>
			<g id="&lt;Group&gt;">
				<path id="&lt;Path&gt;" class="s11" d="m127.2 594.1q15.8-25.7 31.5-51.4c5-8.1 10.6-16.8 19.6-19.9 5.8-2 12.7-1.2 17.7 2.4 5.1 3.6 8.2 9.9 7.6 16.1-0.4 3.8-2.1 7.3-3.8 10.7-9.1 18.2-20.5 35.2-31.8 52.1-2.6 3.8-5.1 7.5-8 11.1-1.8 2.3-3.9 4.5-6.4 6.2-7.4 4.7-18 2.9-23.8-3.7-5.8-6.5-6.6-17-2.6-23.6z"/>
				<path id="&lt;Path&gt;" class="s10" d="m190.3 550.5c-8.5 13.2-33.9 54.3-40.7 61.8-6.5 7.3-19.7 5.2-20.5 4.6q0.3 0.4 0.7 0.8c5.8 6.6 16.4 8.4 23.8 3.7 2.5-1.7 4.6-3.9 6.4-6.2 2.9-3.6 5.4-7.3 8-11.1 11.3-16.9 22.7-33.9 31.8-52.1 1.7-3.4 3.4-6.9 3.8-10.7 0.6-6.2-2.5-12.5-7.6-16.1 0 0 2.8 12.1-5.7 25.3z"/>
				<path id="&lt;Path&gt;" class="s3" d="m181.4 583.8c-6.8 1.1-13.7-0.5-20-3.3-3.7-1.6-7.3-3.6-10.1-6.5-2.8-2.9-4.9-6.7-5-10.8h-0.1q-9.5 15.4-19 30.9c-4 6.6-3.2 17.1 2.6 23.6 5.8 6.6 16.4 8.4 23.8 3.7 2.5-1.7 4.6-3.9 6.4-6.2 2.9-3.6 5.4-7.3 8-11.1 4.5-6.7 9-13.5 13.4-20.3z"/>
				<path id="&lt;Path&gt;" class="s7" d="m181.4 583.8c-4 0.7-8 0.4-11.9-0.5-8.3 12.9-16.5 25.2-19.9 29-6.5 7.3-19.7 5.2-20.5 4.6q0.3 0.4 0.7 0.8c5.8 6.6 16.4 8.4 23.8 3.7 2.5-1.7 4.6-3.9 6.4-6.2 2.9-3.6 5.4-7.3 8-11.1 4.5-6.7 9-13.5 13.4-20.3z"/>
			</g>
			<g id="&lt;Group&gt;">
				<path id="&lt;Path&gt;" class="s11" d="m316.6 260.9q31.1-25.7 62.3-51.4c5.5-4.5 11.2-9.4 13.7-16 3.1-8.1 0.4-18-6.2-23.7-6.5-5.8-16.4-7.1-24.4-3.7-5 2.1-9 5.7-13 9.2q-27 24-55.3 46.4c-3.4 2.7-6.8 5.4-9.3 9-6.1 8.7-4.6 22 3.5 29.1 8 7 21.4 7.1 28.7 1.1z"/>
				<path id="&lt;Path&gt;" class="s10" d="m378.9 209.5c5.5-4.5 11.2-9.4 13.7-16 2.3-6.2 1.4-13.3-2.1-18.9 0 0.1 1 9.6-14.1 23-15.1 13.4-61.5 50.3-68.5 54.2-6.9 3.9-16.8 7.5-22.8 4.9q1.2 1.7 2.8 3.1c8 7 21.4 7.1 28.7 1.1q31.1-25.7 62.3-51.4z"/>
				<path id="&lt;Path&gt;" class="s1" d="m342 210.7c-5.5-6.3-13.7-10.1-22-10.4q-13 10.8-26.3 21.4c-3.4 2.7-6.8 5.4-9.3 9-6.1 8.7-4.6 22 3.5 29.1 8 7 21.4 7.1 28.7 1.1q16.5-13.6 33.1-27.3c0.6-8.2-2.2-16.7-7.7-22.9z"/>
				<path id="&lt;Path&gt;" class="s12" d="m348 221.1c-17.3 14-35.9 28.3-40.1 30.7-6.9 3.9-16.8 7.5-22.8 4.9q0 0 0 0 0.6 0.8 1.3 1.6 0 0 0 0 0.7 0.8 1.5 1.5c8 7 21.4 7.1 28.7 1.1q16.5-13.6 33.1-27.3c0.3-4.2-0.3-8.5-1.7-12.5z"/>
			</g>
		</g>
		<g id="&lt;Group&gt;">
			<g id="&lt;Group&gt;">
				<path id="&lt;Path&gt;" class="s8" d="m942.3 582.8q6.5-1.2 13.1-2.2c-2.5 4.8-3.3 10.6-3.9 16.2q-1.3 12.3-2.6 24.7c-0.8 7.6-1.6 15.2-1.3 22.8q-13.5-4.1-27.1-8.2c-3.1-16.2-2.6-33.2 1.6-49.2q1-0.2 2-0.4 9-2 18.2-3.7z"/>
				<path id="&lt;Path&gt;" class="s5" d="m955.4 580.6q-6.6 1-13.1 2.2c-21.3-35-42.5-70.1-62.2-106.1-1.8-3.3-3.7-6.7-5.5-10.1 6.4 3.9 13.9 6.3 21.2 8.3 17.2 4.8 34.6 8.5 52.2 11.2 1.9 0.3 3.8 0.6 5.6 0.1 1.8-0.4 3.4-1.5 4.8-2.6 13.8-10.2 25.3-23.3 33.6-38.3 24.2 37.5 38.1 81.5 39.8 126.1q-5 0.5-10.1 1.1c-22.1 2.2-44.3 4.6-66.3 8.1z"/>
				<path id="&lt;Path&gt;" class="s0" d="m838.4 329.7c-14.9-15.6-27.6-34.3-30.8-55.6-3.3-21.3 4.9-45.3 23.6-56 1.7-1 3.5-1.9 4.8-3.5 1.3-1.6 1.8-3.6 2.3-5.6 3.6-12.2 11.9-22.5 22-30.2 10.1-7.6 21.9-12.7 34-16.6 17.5-5.7 36.1-9 54.4-6.8 8.9 1.1 17.7 3.5 26.7 3.2 5.3-0.2 10.5-1.2 15.7-0.5 6 0.9 11.3 4.2 15.8 8.1 18.6 16.1 24.5 42.7 24.1 67.3-0.2 16.8-3.8 35.3-16.1 46.2q-0.2-0.5-0.3-1.1c-5.3-17.1-11.5-34-14.8-50.6-34.1 18.3-72.5 28.7-111.2 29.9 3.3 16.7 0.3 34.4-8.3 49-4.2-3.5-9.5-5.8-15-6.2-9.5-0.6-19.3 4.4-24.3 12.6-2.7 4.5-4.1 10.2-2.8 15.3q0.1 0.6 0.3 1.1z"/>
				<path id="&lt;Compound Path&gt;" class="s8" d="m1175.3 541.4c-14.9-28.4-33.7-55-57.3-76.9-9.9-9.2-21.1-17.8-34.3-21.2-11.7-3-23.9-1.7-35.9-1.4-18.9 0.4-37.8-1.8-56.2-6.5-2.7-0.7-5.6-1.5-8.2-2.6q4.5 6.1 8.6 12.5c24.2 37.5 38.1 81.5 39.8 126.1q-5 0.5-10.1 1.1c-22.1 2.2-44.3 4.6-66.3 8.1-2.5 4.8-3.3 10.6-3.9 16.2q-1.3 12.3-2.6 24.7c-0.8 7.6-1.6 15.2-1.3 22.8q-13.5-4.1-27.1-8.2-11-3.3-22.1-6.6c-5.8-11.6-11.6-23.3-17.8-34.8 13.6-3.8 27.5-6.5 41.5-8q1-0.1 2-0.2 9-2 18.2-3.7c-21.3-35-42.5-70.1-62.2-106.1-1.8-3.3-3.7-6.7-5.5-10.1-3.6-7.1-6.9-14.3-9.4-21.9-35 18.1-79.4 20.1-107.1 48.2-17.7 17.9-25.3 43.9-24.6 69 0.8 25.1 9.3 49.4 20.2 72 9.7 20 21.4 39 34.8 56.7 13.6 17.9 30.6 35.4 52.7 40.2 13.7 2.9 28 0.6 41.8-2.1 59.2-11.4 117.2-28.8 172.9-51.9q8.9 2.7 17.9 5.4c19.6 5.9 39.6 11.9 60 11.5 20.5-0.4 41.9-8.1 53.7-24.8 7.1-9.9 10.3-22 11.3-34.1 2.9-32.4-8.4-64.6-23.5-93.4z"/>
				<path id="&lt;Compound Path&gt;" class="s2" d="m898.4 629.5q11.1 3.3 22.1 6.6c-3.1-16.2-2.6-33.2 1.6-49.2q0-0.1 0-0.2c-14 1.5-27.9 4.2-41.5 8 6.2 11.5 12 23.2 17.8 34.8zm116.5-349.8q-0.2-0.5-0.3-1.1c-5.3-17.1-11.5-34-14.8-50.6-34.1 18.3-72.5 28.7-111.2 29.9 3.3 16.7 0.3 34.4-8.3 49-4.2-3.5-9.5-5.8-15-6.2-9.5-0.6-19.3 4.4-24.3 12.6-2.7 4.5-4.1 10.2-2.8 15.3q0.1 0.6 0.3 1.1c1.5 4.6 4.9 8.5 8.7 11.7 5.9 5.1 13 8.9 20.5 11.1 1.5 0.5 3.1 0.9 4.4 1.9 1.4 1.2 2.1 2.9 2.7 4.5 3.3 8.8 5 18.1 6.4 27.5 2.4 16.8 4 34.7-2.6 50.2-4.3 3.1-8.7 5.8-13.4 8.1 2.5 7.6 5.8 14.8 9.4 21.9 6.4 3.9 13.9 6.3 21.2 8.3 17.2 4.8 34.6 8.5 52.2 11.2 1.9 0.3 3.8 0.6 5.6 0.1 1.8-0.4 3.4-1.5 4.8-2.6 13.8-10.2 25.3-23.3 33.6-38.3q-4.1-6.4-8.6-12.5c-2.7-1.1-5.2-2.5-7.4-4.5-8.4-7.7-8.2-20.6-11.4-31.7 7.2-1.2 14.3-3.3 21-6.2 6.3-2.8 12.4-6.3 17.5-10.9 13.5-11.8 19.9-30.2 20.5-48.1 0.7-17.6-3.6-34.9-8.7-51.7z"/>
				<path id="&lt;Compound Path&gt;" class="s10" d="m1082.9 568.3c6.2-0.1 12.4 0.1 18.5 0.4 16.9 1 33.8 3.8 49.8 9-9.3-9.7-22.8-14.8-36.2-17-3.3-0.6-6.7-1-9.7-2.5 1.6-5.9 9.4-8.7 10.5-14.7-6.6 2-12.3 6.5-15.8 12.3-2.8-2.6-3.5-6.7-4.4-10.4-3-11.8-9.4-22.4-15.6-32.8-1.7-2.7-3.5-5.5-6.4-6.6 1.4 12.2 5.3 24 7.1 36.1 1.3 8.7 1.5 17.4 2.2 26.2zm-0.7 95.3c-36.6-5-92.5-18.1-134.5-28.7-10.6-2.6-20.2-5.1-28.5-7.2q0.5 4.2 1.3 8.4-11-3.3-22.1-6.6-2.1-4.2-4.2-8.5c-4.4-8.8-8.9-17.6-13.6-26.3-14.4-26.6-30.8-52-52.7-72.3 26.4 27.8 42 64.8 56.6 100.6 0.5 1.2 1 2.5 0.6 3.7-0.3 1-1.1 1.8-1.9 2.4-7.2 6.2-15.6 10.6-23.3 16-7.8 5.3-15.1 12-18.5 20.8 5.9 1.6 11.8-2 16.9-5.3 12.1-7.6 25-14.1 38.4-19-9.4 10.5-16.5 23.1-20.6 36.6 12.2-3.2 15.4-19.9 26.2-26.3 8.2-4.9 18.6-2.8 27.9-0.5q58.5 14.5 117 29 4.4-1.8 8.7-3.6 8.9 2.7 17.9 5.4c19.6 5.9 39.6 11.9 60 11.5 20.5-0.4 41.9-8.1 53.7-24.8 3.8-5.3 6.5-11.2 8.3-17.4-17.9 13.8-57.1 19.8-113.6 12.1zm-43.2-151.4q14.9 8.8 30.6 16c-5 13.2-10 26.6-12.3 40.5l1.1-0.1q7.2-21.5 15.7-42.6c-9.3-5.3-18.9-9.9-28.8-13.9q9.2-12.6 19.3-24.5c-14.3-11.8-28.6-23.7-43.1-34.9q17.8 18.1 36.7 35.1c-7 7.6-13.4 15.8-19.2 24.4zm-161.2 12.4q-4.1 9.2-8.2 18.4c-0.4 1-0.8 2-0.7 3 0.2 1 1 1.8 1.7 2.5 9.9 10.4 19.8 20.8 30.6 30.3 4 3.5 8.3 7 13.2 8.9l1.5-0.2q-19.6-19.8-39.3-39.6c-0.8-0.8-1.8-1.8-1.9-3.1-0.1-1 0.4-2.1 0.9-3 3.5-7.1 6.5-14.5 8.7-22.2-11.2 1.1-22.4 1-33.6-0.1-1-0.1-2-0.2-2.7-0.9-0.8-0.7-0.9-1.9-1-3-1.1-14.8-1.3-29.7-0.6-44.6-1.4 17.4-2.6 34.6-3.5 51.9 11.5 2.4 23.3 3 34.9 1.7z"/>
				<path id="&lt;Compound Path&gt;" fill-rule="evenodd" class="s0" d="m977.9 295.4c-0.1-0.2-0.1-0.6 0.2-0.7 0.2-0.2 0.6-0.1 0.8 0.1 4.3 6.7 9.3 12.9 14.9 18.5 0.3 0.3 0.9 0.8 0.9 1.5 0 0.5-0.2 0.9-0.3 1.2-1.3 2.6-2.8 5.1-4.6 7.4q-0.2 0.2-0.5 0.2-0.1 0-0.3-0.1c-0.2-0.2-0.3-0.6-0.1-0.8 1.7-2.2 3.2-4.7 4.5-7.2 0.1-0.2 0.2-0.4 0.2-0.6 0-0.3-0.3-0.5-0.6-0.8-5.6-5.7-10.7-12-15.1-18.7zm-27.2 39.2c-0.2-0.2-0.3-0.6-0.1-0.8 0.2-0.3 0.6-0.3 0.8-0.1 7.6 5.5 17.3 8.2 26.6 7.3 0.3 0 0.6 0.2 0.6 0.5 0.1 0.3-0.2 0.6-0.5 0.6q-1.8 0.2-3.7 0.2c-8.4 0-16.9-2.7-23.7-7.7zm227.7 255.1c-0.2 0.2-0.3 0.3-0.5 0.3q-0.2 0-0.3-0.1c-20.8-11.9-46.5-18.8-76.2-20.6-24.2-1.4-48.6 0.6-69.5 2.7-3.4 0.3-6.8 0.7-10.1 1-22.5 2.3-44.5 4.6-66.1 8.1-2.2 4.5-3 10-3.6 15.8l-2.7 24.7c-0.8 7.4-1.6 15.1-1.2 22.7q0 0.1-0.1 0.2c39.2 12.2 90.2 27.7 107.9 31.8 0.3 0.1 0.5 0.4 0.4 0.7 0 0.2-0.3 0.4-0.5 0.4q-0.1 0-0.1 0c-28.6-6.6-143.2-42.8-156.4-47l0.4 0.7c0.1 0.3 0 0.7-0.2 0.8q-0.2 0-0.3 0c-0.2 0-0.4-0.1-0.5-0.3l-0.9-1.9q0 0 0 0c-5.9-11.8-11.7-23.4-17.8-34.7-13.5-24.9-32.7-56.5-61.3-79.7-0.2-0.2-0.2-0.6 0-0.8 0.1-0.2 0.5-0.3 0.7-0.1 28.8 23.3 48 55 61.6 80 6.1 11.4 11.8 22.8 17.6 34.6 1.4 0.4 9.4 3 21.2 6.7-3-16-2.5-32.7 1.5-48.4q0-0.1-0.1-0.2c0-0.3 0.1-0.5 0.3-0.6 0.1-0.3 0.4-0.4 0.7-0.3q0.1 0 0.2 0.1l0.1-0.1q0.7-0.1 1.3-0.2c5.8-1.4 11.8-2.6 18.3-3.8 4.3-0.7 8.7-1.5 13.1-2.2 21.7-3.4 43.8-5.8 66.4-8.1q5-0.5 10-1c21.1-2.1 45.5-4.1 69.8-2.7 29.9 1.8 55.7 8.7 76.6 20.7 0.3 0.2 0.4 0.5 0.3 0.8zm-224-8.4c-4 0.6-8 1.3-12 2-6.5 1.2-12.4 2.4-18.2 3.7q-0.7 0.2-1.3 0.3l-0.4 0.1c-4 15.8-4.5 32.6-1.4 48.6q0 0 0 0c7.5 2.4 16.3 5.2 26 8.2-0.4-7.6 0.4-15.3 1.2-22.7l2.7-24.8c0.6-5.5 1.3-10.9 3.4-15.4z"/>
				<path id="&lt;Compound Path&gt;" class="s0" d="m935 256.2c-3.2-1.4-6.9-1.5-10.4-0.8-3.5 0.8-6.7 2.3-9.8 4-4 2.2-8.3 5.3-9 9.9-0.1 0.6-0.1 1.3 0.2 1.8 0.6 1 1.9 1.2 3 0.8 1-0.4 1.8-1.2 2.6-1.9 6.2-5.7 15.1-8.3 23.4-6.9 1 0.1 2.5 0 3.1-1 0.7-1.1 0.5-2.5-0.2-3.6-0.6-1-1.7-1.7-2.9-2.3zm71.9-10.1c-1.2-2.1-3.5-3.6-5.9-4.2-2.4-0.7-5-0.6-7.5-0.3-6.4 0.7-13 3.1-16.7 8.3-0.6 0.9-1.2 1.9-1.3 3 0 1.1 0.4 2.2 1.4 2.7 1.2 0.6 2.6 0 3.7-0.8 1-0.7 0.4-0.8 4.9-3 4.5-2.2 10-4.2 16.9-2.6 0.9 0.2 1.9 0.5 2.8 0.4 1-0.2 2-0.8 2.1-1.8 0.1-0.5-0.1-1.1-0.4-1.7z"/>
				<path id="&lt;Compound Path&gt;" class="s2" d="m1020.5 562.5c-4.9-0.3-10-0.6-14.6-2.1-5-1.7-8.8-4.8-10.6-8.5-1.5-3.1-1.7-6.8-1.8-10.2-0.4-18.3 2.6-36.3 8.7-53.5 0.3-0.8-0.1-1.8-1-2.1-0.9-0.3-1.8 0.1-2.1 1-6.3 17.6-9.3 36-8.9 54.6 0.1 3.7 0.3 7.9 2.1 11.7 2.2 4.6 6.7 8.2 12.5 10.1 5.1 1.7 10.4 2 15.5 2.3q0 0 0.1 0c0.8 0 1.6-0.7 1.6-1.6 0.1-0.9-0.6-1.7-1.5-1.7zm43-43.8c-4.1-15.1-10.4-29.5-18.7-42.8-0.5-0.7-1.5-1-2.3-0.5-0.8 0.5-1 1.5-0.5 2.3 8.1 13 14.3 27.1 18.3 41.9 3.5 13.1 3.1 22.3-1.3 29.2-4.2 6.3-11.6 9.8-17.7 12.2-0.8 0.4-1.3 1.3-0.9 2.2 0.2 0.6 0.9 1 1.5 1q0.3 0 0.6-0.1c6.5-2.5 14.6-6.4 19.3-13.5 6.5-10.1 4.1-23 1.7-31.9z"/>
				<path id="&lt;Path&gt;" class="s2" d="m868.7 546.8c4.6-6.8 12.8-10.9 21-10.2 8.1 0.8 15.6 6.6 18 14.4 3.1 10-3 21.7-12.6 26-9.1 4-21.1 1.2-26.6-7.2-4.8-7.3-3.4-17.6 0.2-23z"/>
				<path id="&lt;Path&gt;" class="s0" d="m878.8 565.6q-0.2-0.1-0.3-0.2c-3.7-2.8-4.7-8.1-2.9-12.2 1.3-2.9 3.8-5 6.6-6.3 4-1.9 9-1.9 12.7 0.6 2.3 1.5 3.9 4 4.4 6.8 0.8 3.9-0.8 8-3.8 10.6-3 2.6-7.2 3.7-11.1 3-1.8-0.3-4-1.1-5.6-2.3z"/>
				<path id="&lt;Compound Path&gt;" class="s2" d="m1017.2 465.7c-6.9-26.3-26.8-49-51.9-59.4-1.4-0.5-3.1 0.1-3.7 1.6-0.5 1.4 0.1 3 1.6 3.6 23.5 9.7 42.2 31 48.6 55.6 0.4 1.3 1.5 2.1 2.7 2.1q0.4 0 0.7-0.1c1.5-0.4 2.4-1.9 2-3.4zm-132.2-55.4c-15.8 10.9-26 23.2-30.4 36.7-2.5 7.6-3.4 16.3-2.8 27.4 1.3 25.8 9.1 50.5 22.6 71.5 0.6 0.8 1.5 1.2 2.4 1.2 0.5 0 1-0.1 1.5-0.4 1.3-0.8 1.6-2.6 0.8-3.8-13-20.2-20.5-44-21.8-68.8-0.5-10.3 0.3-18.4 2.6-25.4 4-12.3 13.5-23.7 28.3-33.8 1.3-0.9 1.6-2.6 0.7-3.9-0.9-1.3-2.6-1.6-3.9-0.7z"/>
				<path id="&lt;Compound Path&gt;" class="s0" d="m929 280.4c-3.3 0.5-5.2 5.2-4.3 10.3 0.8 5.2 4.2 8.9 7.4 8.4 3.2-0.6 5.2-5.2 4.3-10.3-0.8-5.2-4.2-8.9-7.4-8.4zm71.5-6.2c-0.8-5.2-4.2-8.9-7.4-8.4-3.3 0.6-5.2 5.2-4.3 10.3 0.8 5.2 4.1 8.9 7.4 8.4 3.2-0.6 5.2-5.2 4.3-10.3z"/>
				<path id="&lt;Compound Path&gt;" class="s0" d="m1027 560.6c-0.1-0.2-0.2-0.3-0.4-0.4-0.2-0.2-0.4-0.2-0.6-0.2-1.9 0.1-3.7 0.9-5.5 1.2-1.2 0.2-0.9 1-1 1.9q-0.1 1.7-0.1 3.3c0 0.1 0 0.3 0.1 0.4q0.1 0.1 0.2 0.1c2 0.7 4 1.1 6.1 1.2 0.5 0 1 0 1.3-0.4 0.2-0.2 0.2-0.6 0.3-0.9q0.2-2.4-0.1-4.8c0-0.5-0.1-1-0.3-1.4zm17.1 2.7c-0.2-0.4-0.5-0.9-0.6-1.3q-0.3-1.1-0.6-2.2c0-0.1-0.1-0.2-0.2-0.3-0.1-0.1-0.3-0.1-0.5-0.1l-6.4 0.3c-0.4 0-1 0.1-1.3 0.5-0.2 0.3-0.1 0.7-0.1 1.1 0.3 1.2 0.7 2.2 1 3.4q0.3 0.9 0.4 1.9c0.1 0.4 0.2 0.9 0.5 1.2 0.5 0.4 1.2 0.3 1.7 0.1 1.6-0.5 3-1.6 4.5-2.4 0.8-0.4 2-1 1.6-2.2z"/>
				<path id="&lt;Path&gt;" class="s0" d="m998.3 487.5c2.3-8.3 6.3-16.8 13.7-21.3 4.9-2.9 11-3.7 16.6-2.5 5.6 1.3 10.7 4.6 14.4 9 1.2 1.4 2.2 3.5 1.2 4.9-0.8 1.2-2.6 1.4-3.9 0.8-1.3-0.6-2.2-1.7-3.3-2.7-5.7-5.6-14.9-8.5-22.1-4.8-5.4 2.7-8.5 8.4-10.4 14.2-0.5 1.5-1 3.3-2.4 4.1-1.5 0.8-4.1-0.4-3.8-1.7z"/>
				<path id="&lt;Compound Path&gt;" class="s13" d="m857.9 314.5c-1.7 0.5-3.4 1.4-4.5 2.8-1.2 1.4-1.8 3.3-1.3 5 0.1 0.4 0.2 0.8 0.6 1 0.5 0.3 1.2 0 1.8-0.3 2.1-1.2 4.2-2.6 6.6-3.3 2.4-0.6 5.2-0.2 6.8 1.6 1.5 1.6 1.7 3.9 2.6 5.8 0.9 2 3.2 3.7 5.7 3.2-0.5-3.2-1-6.5-2.5-9.3-3-5.4-9.9-8.3-15.8-6.5zm36.3 306.5q2.1 4.3 4.2 8.5 11.1 3.3 22.1 6.6-0.8-4.2-1.3-8.4c-11.6-3-20.4-5.4-25-6.7zm70.4-224.4c-19.9 3.2-40.8-0.3-57.2-11.4 2.5 6.8 7.5 12.8 13.4 17.2 7.1 5.2 15.6 8.4 24.1 10.7 7.7 2 16 3.3 23.9 2.2-1.7-6-2.5-12.6-4.2-18.7z"/>
				<path id="&lt;Compound Path&gt;" class="s3" d="m917.5 305.5c-9.9 0-17.9 7.5-17.9 16.7 0 9.2 8 16.6 17.9 16.6 9.9 0 17.9-7.4 17.9-16.6 0-9.2-8-16.7-17.9-16.7zm98.8-21q-2-0.5-4.2-0.5c-9.9 0-18 7.4-18 16.6 0 9.2 8.1 16.7 18 16.7 4 0 7.7-1.3 10.7-3.4-1.2-9.9-3.7-19.8-6.5-29.4z"/>
				<path id="&lt;Compound Path&gt;" class="s7" d="m920.4 312c-0.2-0.2-0.6-0.2-0.8 0-4 4.1-7.8 8.5-11.1 13.1-0.2 0.3-0.2 0.6 0.1 0.8q0.1 0.1 0.3 0.1 0.3 0 0.5-0.2c3.3-4.6 7-9 11-13 0.2-0.2 0.2-0.6 0-0.8zm2.2 4.1c-3 3.7-5.5 7.8-7.5 12.2-0.1 0.3 0 0.6 0.3 0.7q0.1 0.1 0.2 0.1c0.2 0 0.4-0.1 0.5-0.3 1.9-4.3 4.4-8.3 7.4-11.9 0.2-0.3 0.1-0.6-0.1-0.8-0.2-0.2-0.6-0.2-0.8 0zm90.2-20.5c0.2-0.2 0.2-0.5 0-0.8-0.2-0.2-0.6-0.2-0.8 0-3.4 3.1-6.5 6.5-9.2 10.1-0.2 0.2-0.2 0.6 0.1 0.8q0.1 0.1 0.3 0.1 0.3 0 0.5-0.2c2.7-3.6 5.7-7 9.1-10zm4.7 1c-0.2-0.2-0.6-0.2-0.8 0-2.9 2.7-5.6 5.7-8 8.8-0.1 0.3-0.1 0.6 0.2 0.8q0.1 0.1 0.3 0.1 0.3 0 0.4-0.2c2.4-3.1 5-6 7.8-8.7 0.3-0.2 0.3-0.6 0.1-0.8z"/>
				<path id="&lt;Compound Path&gt;" fill-rule="evenodd" class="s0" d="m1005.6 296.7c-2.9 1.2-6 1.8-9.1 1.8-6.8 0-13.7-2.8-18-8-3-3.6-4.7-8.1-5-12.7-6.6-0.2-13.2 1.2-19.2 4.1 2.2 8.1 1.4 18.8-4.5 23.8-5.4 4.4-11.2 7.2-16.9 8.1q-2 0.3-4 0.3c-5.3 0-10.3-1.6-14-4.6-2.4-1.9-4.5-4.4-6.1-7.6-1.1-2.1-1.9-4.3-2.4-6.6q0 0.1 0 0.1l-25.7 11.5q-0.1 0-0.2 0c-0.2 0-0.4-0.1-0.5-0.3-0.1-0.3 0-0.6 0.3-0.7l25.6-11.6q0.1 0 0.3 0c-0.6-3-0.6-6-0.1-8.8 1.2-6.6 5.4-12.7 11.4-16.4 5.6-3.5 12.8-4.7 19.6-3.4 3.2 0.6 6 1.7 8.3 3.2 3.9 2.6 7 6.8 8.6 11.9 6-2.8 12.7-4.3 19.4-4.1-0.2-4.9 1.2-9.9 4.2-13.8 1.7-2.4 4-4.5 6.9-6.4 3.7-2.4 9.4-5.1 16-4.7 10.3 0.7 19.3 9.9 20 20.7 0.7 9.8-5.8 20.2-14.9 24.2zm-52.6-15.5c-1.6-4.8-4.5-8.9-8.2-11.3-2.2-1.5-4.9-2.5-7.9-3.1q-2.6-0.5-5.2-0.5c-4.9 0-9.7 1.3-13.7 3.8-5.6 3.4-9.7 9.3-10.8 15.5-0.9 5.2 0 10.8 2.6 15.8 1.6 3 3.5 5.5 5.8 7.3 4.4 3.5 10.8 5 17.2 4 5.4-0.9 11.1-3.6 16.3-7.9 5.6-4.6 6.4-15.6 3.9-23.6zm66.4-8.7c-0.7-10.2-9.2-19-19-19.6q-0.7 0-1.3 0c-5.7 0-10.7 2.4-14 4.5-2.7 1.8-5 3.9-6.7 6.1-5.6 7.5-5.2 19 0.9 26.3 6 7.1 17.1 9.7 25.8 5.9 8.8-3.8 14.9-13.8 14.3-23.2z"/>
			</g>
			<g id="&lt;Group&gt;">
				<path id="&lt;Compound Path&gt;" class="s8" d="m337.3 682.4c-1.7-2.4-2.3-5.3-2.9-8.1q-14.8-70.7-29.6-141.4-1.3-6.5-2.6-13c-20.2 37.3-37.6 77.6-36.6 119.8 0.3 10.5 1.7 21.1 6 30.7 7.9 17.8 25 30.4 43.5 36.1 12.5 3.8 25.9 4.8 38.5 1.6 7.5-1.8 14.6-5.1 20.7-9.8q-13.1-4.6-26.2-9.3c-4-1.4-8.3-3.1-10.8-6.6zm96.3-228.9q-8.5 4.6-16.8 9.7c-20.2 12.6-38.9 28-54 46.4q11 2.3 22 4.6c3.7 0.8 7.5 1.6 10.5 3.9 2.1 1.5 3.6 3.9 3.9 6.4q20 5.2 39.7 11.1c4.1-10.5 8.3-21 12.6-31.4 5.9-14.5 12.2-29 20.6-42.2 2.6-4.3 5.5-8.4 8.7-12.3 2.1-2.5 4.2-5 6.1-7.8 1.7-2.6 3-5.4 4.1-8.3-20.1 2.5-39.4 10.3-57.4 19.9zm273.6 78.6c-9.9-15.7-22.1-29.8-36.1-41.9-21.4-18.7-47-32.8-74.4-40.8-6.4 11.6-12.8 23.2-19 34.9-8.8 16.8-17.1 33.9-24.1 51.5-10.6 26.5-18.3 54.4-20.1 82.8q-1-0.3-1.9-0.6-4.1 4.9-7.9 10.1c-12.1 16.5-21.9 34.8-29 54q-2.7 7.2-4.9 14.6c8 5.1 16 9.9 24.1 14.5 17.9 10 36.2 18.8 55.4 25.2 28 9.4 57.9 13.9 87.1 9.5 11.2-1.6 22.4-4.6 32.3-10.2 24.1-13.6 37.6-40.9 43.3-68 9.7-46.1 0.3-95.8-24.8-135.6z"/>
				<path id="&lt;Path&gt;" class="s5" d="m513.9 711.2q-20-2.7-39.8-6.6-3.4-18.4-8.1-36.5c2.6 0.5 5.1 1.1 7.7 1.8 7.9 2.2 15.7 6.1 21 12.2q-2.7 7.2-4.9 14.6c8 5.1 16 9.9 24.1 14.5z"/>
				<path id="&lt;Path&gt;" class="s5" d="m577.7 484.3c-8.8 16.8-17.1 33.9-24.1 51.5-10.6 26.5-18.3 54.4-20.1 82.8q-1-0.3-1.9-0.6-4.1 4.9-7.9 10.1c-7.1-2.2-14.3-4.5-21-7.8-16.3-7.8-30.7-21.4-48.2-24.2q-5.5-29.6-10.9-59.1-2.3-0.7-4.7-1.4c4.1-10.5 8.3-21 12.6-31.4 5.9-14.5 12.2-29 20.6-42.2 4 9.9 9.9 19.4 19.1 24.6 6.2 3.6 13.4 4.9 20.5 5.9 13 1.9 26.4 2.9 39.4 1 9.4-1.4 18.6-4.4 26.6-9.2z"/>
				<path id="&lt;Path&gt;" class="s9" d="m302.2 519.9q-1-4.6-1.9-9.2c-0.3-1.2-0.5-2.5 0.2-3.5 0.8-1 2.2-1.2 3.5-1.2q1.6 0 3.2 0c5 0.2 9.9 1 14.9 1.9q5.9 1 11.8 2.1 32.9 6.2 65.3 14.5 20 5.2 39.7 11.1 2.4 0.7 4.7 1.4 5.4 29.5 10.9 59.1 1.7 9.2 3.4 18.4c-19 1.1-38-4-57-5.5-0.8-0.1-1.6-0.1-2.3 0.2-2 1.1-1 4.2 0.5 5.8q0.4 0.4 0.7 0.8c-1.8 0.9-3.5 2.1-3.6 4 0 1.1 0.5 2.1 1 2.9q0.9 1.5 2.1 2.7c-1.3 1.1-2.4 2.5-2.6 4.1-0.3 2.4 1.2 4.6 2.8 6.3q1 1.1 2.1 2.2c-1.2 2.6-0.6 6.1 1.1 8.5 2 2.9 5.2 4.8 8.4 6.4 10.9 5.6 22.6 9.6 34.6 11.9 6.7 1.3 13.6 2 20.3 3.3q4.7 18.1 8.1 36.5 2.1 11.2 3.7 22.5c0.1 1.1 0.3 2.2-0.2 3.2-1.1 2.5-4.8 2-7.4 1.1q-48.1-16.1-95.9-33.1-13.1-4.6-26.2-9.3c-4-1.4-8.3-3.1-10.8-6.6-1.7-2.4-2.3-5.3-2.9-8.1q-14.8-70.7-29.6-141.4-1.3-6.5-2.6-13z"/>
				<path id="&lt;Path&gt;" class="s10" d="m362.8 509.6q11 2.3 22 4.6c3.7 0.8 7.5 1.6 10.5 3.9 2.1 1.5 3.6 3.9 3.9 6.4q-32.4-8.3-65.3-14.5c0-1.6 1-3.3 2.5-4 2.5-1.3 5.5-0.8 8.2-0.2q1.2 0.2 2.4 0.5 7.9 1.6 15.8 3.3z"/>
				<path id="&lt;Path&gt;" class="s9" d="m541 243.7c-14.3-3.8-29.6-4.3-43.8-0.1-14.4 4.2-27.5 13.6-35.2 26.5-4.8 8.2-7.4 17.5-9.8 26.8-3.4 13.3-6.5 26.6-9.6 40-2 8.6-4 17.3-3.8 26.2 0.3 17.9 10.3 35.4 25.6 44.9 9.2 5.7 19.9 8.4 30.6 10-1 5.3-2.1 10.6-4 15.6-20.1 2.5-39.4 10.3-57.4 19.9q-8.5 4.6-16.8 9.7c-23.5-20.9-37-55.2-25.9-84.6 8.8-23.3 30.8-39.6 40-62.8 6.2-15.6 6-32.9 10.1-49.2 6.6-25.8 24.8-48.4 48.7-60.4 23.9-11.9 52.9-12.9 77.6-2.7 1.8 0.7 3.6 1.5 5.5 1.5 2.1-0.1 4-1.2 5.9-2.2 18.1-9.2 40.7-7.3 58.3 2.7 17.7 10 30.4 27.4 37.2 46.6 5.5 15.9 7.3 33.1 14.9 48.2 5.7 11.4 14.5 20.9 21.2 31.8 16.6 27 19.3 61.7 9.4 91.9-8.7 26.4-26.4 49.3-48.6 66.2-21.4-18.7-47-32.8-74.4-40.8q-0.1 0-0.2 0c-4.6-25.7-5.8-52.4-3.4-78.7 10.3 2.5 21.4 3.9 31.2-0.3 9.6-4.3 16.6-16.2 12.1-25.7-1.5-3.3-4.2-6-7.2-8-12.4-8.4-30.9-5.8-40.5 5.6 1.8-10.6-0.5-21.7-6.1-30.9-10-16-29.3-24.9-37.8-41.8-3.9-7.8-5-17.1-3.2-25.7q-0.2-0.1-0.5-0.1 0 0-0.1-0.1z"/>
				<path id="&lt;Compound Path&gt;" class="s5" d="m283.1 476.8q-5.2 7.6-10.3 15.2-0.9 5.6-1.7 11.1c3.5-2.3 7-4.7 10-7 2.8-3.2 5.4-6.6 8-10q-0.2-0.2-0.4-0.4c-2.3-2.7-4.4-5.6-5.6-8.9zm55.1-76.1q-8 10.4-15.9 20.9-3.4 4.6-6.8 9.3c2.7 2.4 5 5.1 6.9 8.1q3.1-4 6.2-8 0.4-0.6 0.8-1.1c6-8.1 11.6-16.5 17.6-24.7q-4.3-2.5-8.8-4.5z"/>
				<path id="&lt;Compound Path&gt;" class="s4" d="m454.5 596.1q1.7 9.2 3.4 18.4c-19 1.1-38-4-57-5.5-0.8-0.1-1.6-0.1-2.3 0.2-2 1.1-1 4.2 0.5 5.8q0.4 0.4 0.7 0.8c-1.8 0.9-3.5 2.1-3.6 4 0 1.1 0.5 2.1 1 2.9q0.9 1.5 2.1 2.7c-1.3 1.1-2.4 2.5-2.6 4.1-0.3 2.4 1.2 4.6 2.8 6.3q1 1.1 2.1 2.2c-1.2 2.6-0.6 6.1 1.1 8.5 2 2.9 5.2 4.8 8.4 6.4 10.9 5.6 22.6 9.6 34.6 11.9 6.7 1.3 13.6 2 20.3 3.3 2.6 0.5 5.1 1.1 7.7 1.8 7.9 2.2 15.7 6.1 21 12.2 7.1-19.2 16.9-37.5 29-54-7.1-2.2-14.3-4.5-21-7.8-16.3-7.8-30.7-21.4-48.2-24.2zm-112.2-120.9c0.7-4.7 2.2-9.3 2.9-14.1 0.8-4.7 0.8-9.8-1.5-14-2.4-4.4-6.9-7.1-10.4-10.6-1.8-1.7-3.3-3.6-4.7-5.5q-3.1 4-6.2 8c-1.9-3-4.2-5.7-6.9-8.1q3.4-4.7 6.8-9.3-1.2-1.8-2.5-3.6c-1.7-2.2-4.1-4.5-6.8-3.9-1.7 0.4-2.9 1.8-3.7 3.3-1.3 2.8-1.3 6.2 0.1 9q-1.1-0.6-2.3-0.8c-2.2-0.4-4.6 0.2-5.8 2-1.6 2.4-0.5 5.5 0.8 8q0.6 1 1.1 1.9l-0.7 0.4c-3.1-1.7-7.2 0.9-8.2 4.3-1 3.2-0.1 6.7 1.1 9.8l-0.5 0.2c-2.9 0.4-5.8 1.9-7.1 4.5-1 2.1-0.8 4.5-0.1 6.8l-0.6 0.1c-3.9 1.8-5.5 6.8-4.6 11q0.2 1.1 0.6 2.2c1.2 3.3 3.3 6.2 5.6 8.9q0.2 0.2 0.4 0.4c2.9 3.5 6.1 6.9 10.2 8.6 2 0.8 4.4 1.2 5.9-0.3q0.1 0 0.1-0.1c0.5 3.8 1.2 8.5 1.9 11.6v0.1c5 0.2 9.9 1 14.9 1.9q5.9 1 11.8 2.1c0-1.6 1-3.3 2.5-4 2.5-1.3 5.5-0.8 8.2-0.2q1.2 0.2 2.4 0.5c-1.2-9-5.8-22.2-4.7-31.1zm294.1-130.5c-1.5-3.3-4.2-6-7.2-8-12.4-8.4-30.9-5.8-40.5 5.6 1.8-10.6-0.5-21.7-6.1-30.9-10-16-29.3-24.9-37.8-41.8-3.9-7.8-5-17.1-3.2-25.7q-0.2-0.1-0.5-0.1-0.1 0-0.1 0 0 0 0-0.1c-14.3-3.8-29.6-4.3-43.8-0.1-14.4 4.2-27.5 13.6-35.2 26.5-4.8 8.2-7.4 17.5-9.8 26.8-3.4 13.3-6.5 26.6-9.6 40-2 8.6-4 17.3-3.8 26.2 0.3 17.9 10.3 35.4 25.6 44.9 9.2 5.7 19.9 8.4 30.6 10-1 5.3-2.1 10.6-4 15.6-1.1 2.9-2.4 5.7-4.1 8.3-1.9 2.8-4 5.3-6.1 7.8-3.2 3.9-6.1 8-8.7 12.3 4 9.9 9.9 19.4 19.1 24.6 6.2 3.6 13.4 4.9 20.5 5.9 13 1.9 26.4 2.9 39.4 1 9.4-1.4 18.6-4.4 26.6-9.2 6.2-11.7 12.6-23.3 19-34.9q-0.1 0-0.2 0c-4.6-25.7-5.8-52.4-3.4-78.7 10.3 2.5 21.4 3.9 31.2-0.3 9.6-4.3 16.6-16.2 12.1-25.7z"/>
				<path id="&lt;Compound Path&gt;" class="s14" d="m343.8 687.3c-50.8 10.9-70.9-31.4-78.1-55.9q-0.2 4.1-0.1 8.3c0.3 10.5 1.7 21.1 6 30.7 7.9 17.8 25 30.4 43.5 36.1 12.5 3.8 25.9 4.8 38.5 1.6 7.5-1.8 14.6-5.1 20.7-9.8q-13.1-4.6-26.2-9.3c-1.4-0.5-2.9-1.1-4.3-1.7zm278 40.1c-63.8-10.5-106.7-48.3-120.2-61.8q-3.8 8.1-6.9 16.5-2.7 7.2-4.9 14.6c8 5.1 16 9.9 24.1 14.5 17.9 10 36.2 18.8 55.4 25.2 28 9.4 57.9 13.9 87.1 9.5 11.2-1.6 22.4-4.6 32.3-10.2 13.7-7.7 24-19.8 31.3-33.9-19.8 15.8-52.9 33-98.2 25.6zm-40.3-87.8q3.4 1.5 6.8 2.8c7.6 3 15.6 5.5 23.6 7.2 6.8-16.7 12.7-33.7 17.7-51-0.7 1.7-18.2 41.9-48.1 41zm-2.4-42.2q-10 16-19.9 32.1l4.7 2.1c1.7-1.4 3.2-3.3 4.4-5q6.4-8.7 12.8-17.4c2.7-3.7 5.5-7.5 6.4-12 1-4.8-0.3-9.8-1.5-14.5q-2.5-9.1-4.9-18.1c-0.6-2.2-1.1-4.6-0.3-6.7 0.7-2 2.5-3.3 4.2-4.5q11.7-8.5 23.4-16.9c1.7-1.3 3.5-2.6 4.4-4.6 0.8-1.9 0.6-4.1 0.4-6.2-1.9-16.2-4.8-32.2-7.8-48.9q1.3 25.6 2.5 51.2c0.1 1.5 0.1 3-0.5 4.4-0.7 1.8-2.4 3-4 4-7.4 4.8-15 9.1-23 12.8-1 0.5-2.1 1-2.8 2-0.7 1-0.8 2.3-0.9 3.5-0.3 10.1 3 19.8 4.9 29.7 0.5 2.1 0.8 4.4 0.4 6.5-0.4 2.4-1.7 4.4-2.9 6.5zm-150.6-102.2q14.6-17.5 29.3-35c-11.3 9.8-22.8 20.3-34.1 31-1 1-2.1 2-2.5 3.4-0.4 1.5 0.1 3.2 0.6 4.7l3 9.3c0.8 2.6 1.6 5.2 1.6 8 0 4.8-2.8 9.2-4.5 13.8l1.9 0.4q3-4.2 6.1-8.5c0.7-1 1.4-2 1.7-3.2 0.4-1.5-0.1-3.2-0.6-4.8q-1.9-6.6-3.8-13.2c-0.3-1-0.6-2-0.4-3 0.2-1.1 0.9-2 1.7-2.9z"/>
				<path id="&lt;Compound Path&gt;" class="s15" d="m538.9 417.5c-12.4 3.3-25.4 2.8-38.1 1.3q-2.9-0.3-5.8-0.8c-1 5.3-2.1 10.6-4 15.6q-1 2.8-2.4 5.5c16.1 1.2 32.8-0.5 47.4-7.4 14.1-6.6 26.1-18.4 31.1-33-6.5 9.5-17.1 15.9-28.2 18.8zm87.3-69c-1.2-2.7-3.8-4.7-6.6-5.5-2.9-0.9-6-0.7-8.9-0.1-5.5 1.3-10.7 4.8-12.7 10 0.2 0.2 1 1 1.9 1.1 0.9 0 1.7-0.4 2.5-0.9 2.1-1.3 4.2-2.8 6.6-3.7 2.3-1 5-1.5 7.4-0.6 2 0.7 3.6 2.3 5.4 3.6 0.9 0.6 2 1.3 3.1 1 0.9-0.2 1.6-1.1 1.8-2.1 0.1-0.9-0.1-1.9-0.5-2.8z"/>
				<path id="&lt;Compound Path&gt;" class="s0" d="m478.3 302c-1.2-0.6-2.7-0.4-4 0-4.4 1.6-7.6 6.2-7.4 10.9 0 0.9 0.1 1.7 0.5 2.6 0.5 1.3 1.7 2.3 3.1 2.7 1.4 0.4 2.9 0.2 4.1-0.6 2.9-2 5.9-6.1 6-10.6 0-2-0.6-4.1-2.3-5zm60.7 8.8c-1.3-0.6-2.7-0.3-4 0.2-4.4 1.8-7.3 6.5-7 11.1 0 0.9 0.2 1.8 0.6 2.6 0.6 1.3 1.8 2.3 3.2 2.6 1.4 0.4 3 0.1 4.1-0.8 2.9-2 5.6-6.2 5.5-10.8 0-1.9-0.7-4.1-2.4-4.9z"/>
				<path id="&lt;Compound Path&gt;" class="s9" d="m488.9 274.7c-2.4-1.2-5.2-1.6-8-1.7-2.8-0.2-5.7 0-8.5 0.6-1.9 0.3-3.8 0.9-5.3 2-1.5 1.1-2.7 2.9-2.5 4.8 0 0.4 0.1 0.8 0.4 1.1 0.4 0.5 1.1 0.5 1.7 0.5 2.5-0.2 4.8-1.2 7.2-1.7 4.8-1 9.9-0.1 13.9 2.5 2.1 1.4 4.2 3.2 6.6 2.8 0.7-1.2 0.7-3.3 0.1-5-0.9-2.6-3.1-4.7-5.6-5.9zm68.7 20.6c-0.2-5.2-4.8-9.3-9.7-11.2-6.4-2.4-13.7-2.2-19.8 0.7-1.1 0.5-2.2 1.1-2.9 2-0.7 1-1 2.3-0.4 3.4 0.6 1 2.2 1.4 2.6 0.9 6-1.6 12.8-2.2 18.2 0.9 2.6 1.5 4.6 3.7 7 5.4 1.2 0.9 2.7 1.6 3.9 0.8 0.9-0.6 1.2-1.8 1.1-2.9z"/>
				<path id="&lt;Compound Path&gt;" class="s0" d="m473.8 669.4c-2.2-0.7-4.7-1.2-7.7-1.8-3.4-0.7-6.9-1.2-10.2-1.7-3.3-0.5-6.7-1-10.1-1.6-12-2.3-23.6-6.3-34.4-11.9-3-1.5-6.2-3.3-8.2-6.2-1.6-2.2-2.1-5.1-1.3-7.3 4.6 4.1 10.7 7.5 18.1 10 4.3 1.4 8.8 2.5 13.3 3.2q0 0 0.1 0c0.2 0 0.5-0.2 0.5-0.5 0-0.3-0.2-0.6-0.5-0.6-4.4-0.7-8.8-1.8-13.1-3.2-7.5-2.5-13.7-6-18.3-10.2q-1-1-2.1-2.1c-2-2.2-2.9-4.1-2.6-5.9 0.1-1.2 0.8-2.3 1.9-3.4 1.8 1.8 3.9 3.3 5.6 4.4 9.7 6.6 21.1 11 32.8 12.6q0 0.1 0 0.1c0.3 0 0.6-0.2 0.6-0.5 0-0.3-0.2-0.6-0.5-0.7-11.5-1.6-22.7-5.9-32.3-12.4-1.7-1.2-3.9-2.7-5.7-4.7q-1.2-1.2-2-2.6c-0.7-1-1-1.8-0.9-2.5 0-1.4 1-2.5 2.9-3.4 3.4 3.3 7.8 5.5 11.7 7.2 10.7 4.6 21.9 7.8 33.4 9.5q0.1 0 0.1 0c0.3 0 0.5-0.2 0.6-0.5 0-0.3-0.2-0.6-0.5-0.6-11.4-1.7-22.6-4.8-33.2-9.5-3.8-1.7-8.3-3.8-11.6-7.2q-0.3-0.3-0.7-0.7c-0.9-1-1.6-2.7-1.4-3.9q0.1-0.7 0.8-1.1c0.5-0.3 1.2-0.2 2-0.2 6.9 0.6 14 1.6 20.9 2.6 11.8 1.8 24 3.6 36.1 2.9 1.1 0 2.2-0.1 3.2-0.2 0.3 0 0.6-0.3 0.5-0.6 0-0.3-0.3-0.5-0.6-0.5-1 0.1-2.1 0.2-3.2 0.2-11.9 0.7-24.1-1.1-35.9-2.9-6.8-1-13.9-2-20.9-2.6-0.9-0.1-1.9-0.1-2.7 0.4-0.7 0.4-1.2 1-1.3 1.8-0.3 1.7 0.7 3.6 1.7 4.8q0.1 0.1 0.2 0.3-3.1 1.6-3.2 4.1c-0.1 1.3 0.6 2.5 1 3.2q0.8 1.2 1.8 2.3c-1 1-2.1 2.4-2.3 4.2-0.3 2 0.6 4.3 2.9 6.7q1 1.1 1.9 1.9c-1.1 2.6-0.6 6.1 1.3 8.7 2.1 3.1 5.5 5.1 8.5 6.6 11 5.6 22.7 9.7 34.8 12 3.4 0.6 6.8 1.1 10.1 1.6 3.4 0.5 6.8 1 10.2 1.7 3 0.5 5.4 1.1 7.6 1.7 8.9 2.6 16.1 6.7 20.8 12.1q0.2 0.1 0.4 0.1 0.2 0 0.4-0.1c0.2-0.2 0.2-0.5 0-0.8-4.8-5.5-12.2-9.8-21.3-12.3zm-151-230.7c-1.7-2.9-4.1-5.7-6.9-8.3q-1.3-1.1-2.7-2.2c-1-0.8-2.2-1.7-3.5-2.3q-1.3-0.6-2.5-0.9c-0.3 0-0.6 0.2-0.7 0.5 0 0.3 0.2 0.6 0.5 0.6q1.1 0.2 2.2 0.8c1.2 0.5 2.3 1.4 3.3 2.1q1.4 1.1 2.7 2.3c2.7 2.5 5 5.2 6.7 8q1.7 2.7 2.6 5.5c0.8 2.3 1.6 5.6-0.3 7.3-2.2 1.9-5.8 0.2-6.8-0.4q-0.2-0.1-0.3-0.2-1.5-0.8-2.9-1.9-1.8-1.5-3.7-3.4-1.7-1.7-3.2-3.7-2-2.6-3.6-5.3c-0.2-0.2-0.5-0.3-0.8-0.2-0.2 0.2-0.3 0.5-0.2 0.8q1.7 2.8 3.7 5.4 1.6 2 3.3 3.8 1.9 2 3.8 3.5 1.3 1 2.6 1.7 0 0.2 0.1 0.3c1.9 4.2 2.8 8.9 2.4 13.5-0.2 1.6-0.8 5.7-3.7 6.8q-1.9 0.7-4.2-0.4-1.5-0.8-3.2-2.3-2.2-2-4.1-4.5c-2.1-2.7-4-5.9-5.7-9.4q-0.9-2-1.6-3.9-0.1-0.2-0.2-0.5c-0.1-0.2-0.4-0.4-0.7-0.3-0.3 0.1-0.4 0.4-0.4 0.7q0.1 0.3 0.2 0.5 0.8 2 1.7 3.9c1.7 3.7 3.6 6.9 5.8 9.7q2 2.5 4.2 4.6 1.7 1.5 3.3 2.3c0.8 2 1.3 4.2 1.3 6.3 0 1.7-0.3 2.9-1.1 3.6q-1.2 1.1-3.3 0.5c-1.2-0.3-2.2-0.8-2.9-1.3-2.8-1.7-5.4-3.8-7.7-6.2-2.5-2.7-4.7-5.6-6.4-8.8q-0.1-0.3-0.3-0.6l-0.1-0.2c-0.6-1.1-1-2.2-1.3-3.2-0.1-0.3-0.4-0.4-0.7-0.3-0.3 0-0.5 0.4-0.4 0.7 0.4 1 0.8 2.1 1.4 3.3l0.1 0.3q0.2 0.3 0.3 0.5c1.8 3.3 4 6.3 6.6 9 2.4 2.5 5 4.7 7.9 6.5 0.8 0.4 1.9 1.1 3.2 1.4q0.9 0.2 1.6 0.2 1.7 0 2.8-1c1-1 1.4-2.4 1.4-4.4 0-1.9-0.4-3.9-1-5.7q1 0.3 2 0.4 1 0 1.9-0.4c3.3-1.3 4.2-5.4 4.4-7.7 0.3-4.5-0.4-8.9-2.1-13 1.4 0.6 2.8 1 4 1 1.3 0 2.4-0.4 3.3-1.1 2.5-2.2 1.6-5.9 0.7-8.5q-1-3-2.8-5.8zm326.5 210.6c-0.1-0.3-0.4-0.5-0.7-0.4-10.7 2.8-22.8 2.9-35.9 0.3 7.8-19.2 14.5-39.2 19.9-59.3 0.1-0.3-0.1-0.6-0.4-0.7-0.3-0.1-0.6 0.1-0.6 0.4-5.5 20.2-12.2 40.1-20 59.3-7.3-1.5-14.9-3.8-23.1-7-8.2-3.2-16.4-7.1-24.3-10.8-9.9-4.5-20.1-9.3-30.5-13q-0.9-0.3-1.8-0.6l-0.2-0.1c-0.2-0.1-0.6 0.1-0.7 0.4-0.1 0.3 0.1 0.6 0.4 0.7h0.1q0.9 0.3 1.8 0.7c10.4 3.6 20.6 8.4 30.4 13 7.9 3.7 16.1 7.5 24.4 10.7 8.5 3.3 16.2 5.7 23.7 7.2q10 2.1 19.1 2.1 9.5 0 18-2.3c0.3 0 0.5-0.3 0.4-0.6zm-108.4-404.8c-1.6 8.6-0.4 17.6 3.5 25.4 4.5 9.1 12.3 16 19.8 22.6 6.5 5.8 13.3 11.8 17.9 19.2 5.6 9 7.8 20.1 6.1 30.5-0.1 0.3 0.1 0.6 0.4 0.7q0.1 0 0.1 0c0.3 0 0.5-0.2 0.6-0.5 1.7-10.7-0.5-22.1-6.2-31.2-4.7-7.6-11.6-13.7-18.2-19.5-7.4-6.6-15.1-13.4-19.6-22.3-3.9-7.8-5-16.8-3.1-25.4q0 0 0-0.1 0 0 0.1 0c0.3-0.1 0.4-0.4 0.3-0.7-0.1-0.3-0.4-0.5-0.7-0.4q-0.4 0.2-0.7 0.3-0.2 0-0.4 0.1l-0.1 0.1q0 0 0 0 0 0 0 0 0 0 0 0c-12.6 5.1-23.4 14.9-29.8 26.8-0.1 0.3 0 0.6 0.2 0.8q0.2 0 0.3 0c0.2 0 0.4-0.1 0.5-0.3 5.6-10.4 14.7-19.2 25.3-24.5-8.9 7.9-14.4 19.3-15 31.2-0.1 0.3 0.2 0.5 0.5 0.6q0 0 0 0c0.3 0 0.6-0.3 0.6-0.6 0.6-12.7 7.4-25.2 17.6-32.8zm-55.2 102.6q0.2 0.2 0.4 0.2 0.2 0 0.4-0.1c0.2-0.2 0.2-0.5 0.1-0.8l-4.3-5.6c-0.6-0.8-1.1-1.5-1-2.3 0-1.1 1-2 1.9-2.8 4.5-4 8.3-8.8 11.2-14.1 0.1-0.3 0-0.6-0.2-0.8-0.3-0.1-0.7 0-0.8 0.3-2.8 5.2-6.5 9.8-11 13.8-0.9 0.8-2.2 2-2.3 3.6 0 1.2 0.8 2.2 1.3 2.9zm22.1 18.1c-0.3-0.2-0.7-0.1-0.8 0.2-1.2 2.3-3.5 4.1-6.5 5-2.3 0.8-5 1-8.5 0.8-4.6-0.3-8.3-1.3-11.2-3.1-3.6-2.1-6.1-5.4-6.7-8.9 0-0.3-0.3-0.5-0.6-0.5-0.3 0.1-0.5 0.4-0.5 0.7 0.7 3.8 3.3 7.4 7.2 9.7 3.1 1.8 6.9 2.9 11.7 3.2q1.4 0.1 2.6 0.1c2.5 0 4.5-0.3 6.4-0.9 3.2-1 5.8-3.1 7.1-5.6 0.1-0.3 0-0.6-0.2-0.7z"/>
				<g id="&lt;Group&gt;" style="mix-blend-mode: multiply">
					<path id="&lt;Path&gt;" class="s6" d="m558.3 329c-11.8 0-21.4 9.6-21.4 21.4 0 11.8 9.6 21.4 21.4 21.4 11.8 0 21.4-9.6 21.4-21.4 0-11.8-9.6-21.4-21.4-21.4z"/>
					<path id="&lt;Path&gt;" class="s6" d="m448.4 359.2c11.8 0 21.4-9.5 21.4-21.4 0-11.8-9.6-21.4-21.4-21.4q-0.5 0-1 0.1-2.4 10.2-4.8 20.4c-1.5 6.6-3 13.4-3.6 20.2 2.8 1.3 6 2.1 9.4 2.1z"/>
				</g>
				<g id="&lt;Group&gt;">
					<path id="&lt;Path&gt;" class="s3" d="m554.9 358q0.3 0 0.4-0.2c4.4-4.1 9.2-7.7 14.4-10.8 0.2-0.1 0.3-0.5 0.2-0.7-0.2-0.3-0.5-0.4-0.8-0.2-5.2 3.1-10.1 6.7-14.5 10.9-0.3 0.2-0.3 0.6-0.1 0.8q0.2 0.2 0.4 0.2z"/>
					<path id="&lt;Path&gt;" class="s3" d="m562.6 342.8c-0.2-0.3-0.5-0.4-0.8-0.3-6.1 3.1-11.8 6.9-16.8 11.6-0.2 0.2-0.2 0.6 0 0.8q0.2 0.2 0.4 0.2 0.2 0 0.4-0.2c4.9-4.6 10.5-8.4 16.5-11.4 0.3-0.1 0.4-0.4 0.3-0.7z"/>
					<path id="&lt;Path&gt;" class="s3" d="m449 345q0.2 0 0.3-0.1c3.9-3.4 8.1-6.3 12.6-8.7 0.3-0.1 0.4-0.4 0.3-0.7-0.2-0.3-0.5-0.4-0.8-0.2-4.6 2.4-8.9 5.3-12.8 8.8-0.2 0.2-0.3 0.5-0.1 0.7q0.2 0.2 0.5 0.2z"/>
					<path id="&lt;Path&gt;" class="s3" d="m457.2 330.4c-0.1-0.2-0.5-0.3-0.7-0.2-5.3 2.6-10.2 6-14.6 9.9q-0.2 1-0.4 1.9c4.6-4.3 9.8-8 15.5-10.8 0.2-0.2 0.3-0.5 0.2-0.8z"/>
				</g>
				<path id="&lt;Compound Path&gt;" class="s3" d="m615.2 535c-0.9-0.2-1.8 0.5-1.9 1.4-3.6 22.4-10.1 42.8-19.5 60.6-3 5.7-6.5 11.4-11.9 14.4-5.6 3-13.2 3-20.4 0-0.9-0.3-1.8 0.1-2.2 0.9-0.4 0.9 0 1.8 0.9 2.2 4 1.7 8.1 2.5 12 2.5 4.1 0 8-0.9 11.3-2.7 6.2-3.5 10-9.6 13.3-15.8 9.5-18.1 16.2-38.8 19.8-61.6 0.1-0.9-0.5-1.8-1.4-1.9zm-67.7 68.5c-5.4-2.9-9.3-9.2-10.3-16.2-0.8-6 0.2-12.6 3-20.3 6.9-18.4 20.5-33.4 34.1-46.8 0.6-0.6 0.7-1.7 0-2.3-0.6-0.7-1.7-0.7-2.3 0-14 13.6-27.8 28.9-34.9 48-3.1 8.1-4.1 15.3-3.2 21.8 1.1 8.2 5.6 15.2 12 18.7q0.4 0.2 0.8 0.2c0.6 0 1.2-0.3 1.5-0.9 0.4-0.8 0.1-1.8-0.7-2.2zm55.8-100.5c-0.4 1.1 0.1 2.4 1.3 2.8q0.4 0.2 0.8 0.2c0.9 0 1.7-0.6 2-1.5 0.3-0.6 6.1-15.9 6.9-34 1.1-22.8-6.3-39.6-21.4-49q0.2 2.9 0.5 5.8c29.8 22.3 10.1 75.1 9.9 75.7zm-180.3 8.3c-2.2-0.4-4.5-0.2-6.6 0.6-5.8 1.9-9.9 8-9.7 14l25.9 8.1c3.6-4.8 3.7-12.1 0.1-17-1.4-1.9-3.3-3.4-5.4-4.4 5-12.7 31.9-78.2 65.8-85.6q0.6-2.4 1.1-4.7c-37.8 5.9-66.2 76.1-71.2 89z"/>
				<path id="&lt;Compound Path&gt;" class="s0" d="m418 518.7c-3.5 1.2-5.9 5-5.7 8.6v0.7l15.2 4.1c2.3-2.8 2.5-7.3 0.3-10.3-2.1-3-6.3-4.3-9.8-3.1zm195.3-9.1c-1.8-2.3-3.9-4.4-6.6-5.3-1.7-0.5-3.4-0.6-5.2-0.5-11.9 0.4-23.7 5.4-32.3 13.8 0 1.3 3.6 3.4 5.3 5.3 0.4 0.5 0.9 1 1.5 0.9 0.4 0 0.7-0.3 1-0.5 4-3.5 8-7.1 12.9-9.2 4.9-2.1 11-2.3 15.2 0.9 2.9 2.2 4.5 5.7 5.3 9.2 0.7 3.6 0.6 7.2 0.7 10.8 0 0.6 0 1.2 0.5 1.6 0.2 0.1 0.5 0.2 0.8 0.2 1.7 0.3 3.2 0.5 5 0.7 1.9 0.3 1.7-20-4.1-27.9zm-61.7 94.1c-0.3-0.1-0.7-0.1-1-0.1q-1-0.2-1.9-0.5c-0.4-0.2-1-0.4-1.4-0.1-0.3 0.2-0.3 0.5-0.5 0.8-0.1 0.2-0.3 0.4-0.5 0.6-0.4 0.5-0.7 1.2-1.2 1.7-0.1 0.1-0.2 0.2-0.3 0.3 0 0.2 0.1 0.4 0.2 0.6 0.7 0.8 1.7 1.3 2.4 2.1 0.3 0.4 0.6 0.8 1.1 0.9 0.5 0 0.9-0.3 1.1-0.7 1.2-1.2 2-2.7 2.6-4.3 0-0.1 0.1-0.3 0-0.5 0-0.4-0.3-0.6-0.6-0.8zm7.9 5.1c-0.3-0.4-0.6-0.9-1.1-0.9-0.5 0-0.8 0.3-1.1 0.7-1.1 1.2-2 2.7-2.5 4.3 0 0.2-0.1 0.4-0.1 0.5 0.1 0.4 0.4 0.7 0.7 0.8 0.3 0.1 0.7 0.1 1 0.2q1 0.1 1.8 0.4c0.5 0.1 1.1 0.4 1.5 0.1 0.2-0.2 0.3-0.6 0.5-0.8 0.1-0.2 0.3-0.4 0.4-0.6 0.5-0.6 0.8-1.2 1.3-1.7 0.1-0.1 0.2-0.2 0.2-0.4 0.1-0.2-0.1-0.4-0.2-0.5-0.7-0.8-1.6-1.3-2.4-2.1z"/>
			</g>
		</g>
	</g>
</svg>