<svg version="1.2" xmlns="http://www.w3.org/2000/svg" viewBox="0 0 733 647" width="733" height="647">
	<title>2179531-ai</title>
	<style>
		.s0 { fill: #77b250 } 
		.s1 { opacity: .1;fill: #231f20 } 
		.s2 { fill: #5e3628 } 
		.s3 { fill: #343a4a } 
		.s4 { fill: #876655 } 
		.s5 { fill: #967254 } 
		.s6 { fill: #f79765 } 
		.s7 { fill: #007594 } 
		.s8 { fill: #84879b } 
		.s9 { fill: #9193a8 } 
		.s10 { fill: #f99d6e } 
		.s11 { fill: none;stroke: #007594;stroke-width: 2 } 
		.s12 { fill: #00add0 } 
		.s13 { fill: #000000 } 
		.s14 { fill: #4daa82 } 
		.s15 { fill: #5abd95 } 
		.s16 { fill: #fac39a } 
		.s17 { fill: #dc6b3f } 
		.s18 { fill: #2d322e } 
		.s19 { fill: #ffffff } 
		.s20 { fill: #ef7c3c } 
		.s21 { fill: #47719e } 
		.s22 { fill: #4f77aa } 
		.s23 { fill: #ddcacc } 
		.s24 { fill: #1c995d } 
		.s25 { fill: #ceb3b4 } 
		.s26 { fill: none;stroke: #008571;stroke-width: 2 } 
		.s27 { fill: #f9b689 } 
		.s28 { fill: #e59a7f } 
		.s29 { fill: #35669e } 
		.s30 { fill: #87c661 } 
		.s31 { fill: #008571 } 
		.s32 { fill: #d9dcf4 } 
		.s33 { fill: none;stroke: #efa335;stroke-width: 2 } 
		.s34 { fill: #e76983 } 
		.s35 { fill: #604e40 } 
		.s36 { fill: #d75575 } 
		.s37 { fill: #567991 } 
		.s38 { fill: #face48 } 
		.s39 { fill: #67a58a } 
		.s40 { fill: #af735f } 
		.s41 { fill: #f78b7c } 
		.s42 { fill: #3d2217 } 
		.s43 { fill: #fcffff } 
		.s44 { fill: #f799ab } 
		.s45 { fill: #820b0b } 
		.s46 { fill: none;stroke: #3d2217;stroke-width: 2 } 
		.s47 { fill: #56575b } 
		.s48 { fill: none;stroke: #84879b;stroke-width: 2 } 
		.s49 { fill: none;stroke: #9193a8;stroke-width: 2 } 
		.s50 { fill: #ec573b } 
		.s51 { fill: #753301 } 
		.s52 { fill: none;stroke: #876655;stroke-width: 2 } 
		.s53 { fill: none;stroke: #967254;stroke-width: 2 } 
		.s54 { fill: #efa335 } 
		.s55 { fill: #1d262d } 
	</style>
	<g id="BACKGROUND">
	</g>
	<g id="OBJECTS">
		<path id="&lt;Path&gt;" class="s0" d="m84.5 454.2c10.5 8.3 22 15.5 35.2 18.4 3.7 0.8 11-0.9 13.8 2.3 3.1 3.4 0.4 11.9-2.8 14.7-3.1 2.7-7.6 2.8-11.7 2.5-17.5-1.7-38.7-12-40.6-31.9-0.4-4.3 0.8-10.2 6.1-6z"/>
		<path id="&lt;Path&gt;" class="s1" d="m695.2 626c0 13.2-159.4 23.8-356 23.8-196.7 0-356.1-10.6-356.1-23.8 0-13.1 159.4-23.7 356.1-23.7 196.6 0 356 10.6 356 23.7z"/>
		<g id="&lt;Group&gt;">
			<path id="&lt;Path&gt;" class="s2" d="m461.1 598.3c-7.1 0-11.4 0.7-13.8 7.9-1.9 5.6-1.6 12.1-1.3 17.8 0.1 1.3 0.2 2.7 1.1 3.7 0.7 0.8 1.9 1.2 3 1.5 11.6 2.8 23.6 2 35.5 1.2 1.4-0.1 3-0.2 4-1.2 0.9-0.9 1.2-2.3 1.4-3.5 1.2-8.5 0.3-17.3-2.7-25.3-0.2-0.5-0.5-1.1-0.9-1.4-0.5-0.4-1.3-0.5-2-0.5q-12.1-0.3-24.3-0.2z"/>
		</g>
		<g id="&lt;Group&gt;">
			<path id="&lt;Path&gt;" class="s3" d="m224.5 593.2c-13.7-2.3-27.2-0.3-40.9-0.6-2 0-4.2 0-5.5 1.4-3.1 3.6-1.1 12.5-1 16.7 0 1.7 0 3.5 1.1 4.9 0.9 1.1 2.4 1.5 3.8 1.9 4.7 1.1 9.6 1.4 14.5 1.6 12.9 0.5 27.5 1.9 40.4-0.4 0.9-0.2 1.8-0.4 2.6-0.9 1.5-1.2 1.8-3.3 1.9-5.3 0-2.4-0.1-4.9-0.8-7.2-2.2-7-9.3-10.9-16.1-12.1z"/>
		</g>
		<g id="&lt;Group&gt;">
			<path id="&lt;Path&gt;" class="s3" d="m111.7 590.9c13.7-2.3 27.2-0.3 40.9-0.6 1.9-0.1 4.2-0.1 5.5 1.4 3.1 3.5 1 12.4 1 16.6 0 1.7-0.1 3.6-1.2 4.9-0.9 1.1-2.3 1.6-3.7 1.9-4.7 1.2-9.6 1.5-14.5 1.6-13 0.5-27.6 2-40.4-0.3-0.9-0.2-1.9-0.4-2.6-0.9-1.6-1.2-1.8-3.4-1.9-5.3-0.1-2.4 0-4.9 0.7-7.2 2.2-7.1 9.4-10.9 16.2-12.1z"/>
		</g>
		<g id="&lt;Group&gt;">
			<path id="&lt;Path&gt;" class="s2" d="m365.1 621.1c2.4 0.3 5 0.2 7.1 0.2q23.8 0.2 47.6 0.4c0.9 0 2-0.1 2.7-0.7 0.7-0.5 0.9-1.5 1.1-2.4 1.2-6.7 1.2-13.7 0.1-20.4-0.2-0.7-0.3-1.5-0.9-1.9-0.6-0.5-1.3-0.5-2-0.5q-10.4-0.2-20.8-0.3c-9.5-0.1-19.1 0-28.3 2.7-4 1.1-8.9 3.6-11.8 6.7-2.7 2.8-4.1 6.9-3.1 10.5 1.2 4 4.6 5.3 8.3 5.7z"/>
		</g>
		<path id="&lt;Path&gt;" class="s4" d="m227.5 505.8c-1.9 27.3-4.7 54.7-6.4 81.8-0.1 1.5-0.2 3-1 4.3-1.4 2.3-4.4 3-7.1 3.4-12.3 1.8-37.8 3.6-37.8 3.6 0 0-0.1-19.4-0.4-28.3q-0.2-6.4-0.4-12.7c-1.1-27.8-3.1-55.6-5.9-83.2q-2.1-20.4-4.7-40.6c-0.9-6.8-8.3-30.1-0.5-33.4 7.2-3 15.3-3.4 23.1-3.4 7.6-0.1 15.3 0.2 22.9 0.6 7.2 0.4 14-0.2 21.2-0.8 1.1 18.6 1.4 37.2 0.8 55.8-0.5 17.7-3 35.3-3.8 52.9z"/>
		<path id="&lt;Path&gt;" class="s5" d="m166.1 507.4c2-17.9 4.4-35.7 5.3-53.6 0.7-15.4 2.6-30.9 1.8-46.3 0-0.4 0-0.9-0.3-1.2-0.3-0.4-0.8-0.5-1.4-0.6-9.9-2-19.2-2.8-29.3-2.8q-15.8 0.1-31.5 0.2c-2.7 0-5.6 0.1-7.7 1.8-3.2 2.5-3.2 7.2-2.9 11.2 3.9 50.8 15.1 100.3 16.8 151.4 0.1 5-0.3 9.9 0.1 14.9 0.3 4.4-0.5 9.3 3.6 12.4 2.1 1.6 4.9 2.2 7.5 2.6q9.1 1.6 18.3 1.9c4.9 0.2 14.7 0.1 14.7 0.1 0 0 2.7-71.7 5-92z"/>
		<g id="&lt;Group&gt;">
			<path id="&lt;Path&gt;" class="s3" d="m386 61c-0.8 19.4 5.4 40.5 23.2 50.5 4.3 2.4 8.9 4 13.6 5.4 9.5 2.7 19.4 4.4 29.2 3.3 9.8-1 19.5-5 26.3-12.2 3.9-4.2 6.8-9.4 9.3-14.6 4.5-9.3 8.2-18.9 11-28.9 1.5-5 2.3-11.5-1.9-14.7-1-0.8-2.3-1.3-3.2-2.3-0.7-0.8-1.1-1.9-1.5-3-1.4-4.6-2.2-9.4-4.8-13.4-3.8-5.9-10.4-9-16.8-11.8-5.9-2.7-10.2-4.5-16.7-3.5-5.6 0.9-11.2 2.3-16.6 4.3-6.4 2.4-12.5 6.1-19.2 7.7-7.4 1.7-18.7-0.3-23.5 6.6-5.3 7.6-8 17.5-8.4 26.6z"/>
		</g>
		<path id="&lt;Path&gt;" class="s6" d="m132.7 220h36.3v-33.1h-36.3z"/>
		<g id="&lt;Group&gt;">
			<path id="&lt;Path&gt;" class="s2" d="m221.9 263.3c5.9 7 12.4 11.1 20.9 13.9 7.9 2.7 14 8 21.1 12.2 11.7 6.9 26.6 6.4 39.3 1.5 12.7-4.8 23.5-13.5 33.7-22.4 12-10.4 23.6-21.6 31-35.6 5.3-9.9 8.2-20.9 11.1-31.7 2.8-10.8 5.7-22.2 3.5-33.2-2.4-12.3-11-23.6-9.1-35.9 0.5-3.1 1.6-6 2.3-9 3.8-14.7-1.6-31.4-13.2-41.2-1.9-1.6-4.1-3.1-6.5-3.8-2.5-0.7-5.2-0.6-7.8-1.1-8.5-1.6-14-10-21.8-13.7-9-4.4-19.7-2.1-29.2 1.1-10.6 3.6-21.6 8.2-31.3 13.7-8.7 4.8-17.3 16.2-22.1 24.6-5.6 10.1-7.8 22.9-2.6 33.3 1.6 3.3 4 6.4 4.2 10.1 0.6 7.2-6.7 12.2-12.7 16.3-7.1 4.7-13.9 10.8-15.9 19.1-2.5 10 2.7 20.4 9 28.7 1.1 1.4 2.3 2.9 2.7 4.7 0.6 2.5-0.5 5.1-1.8 7.3-3.8 6.3-10.5 10.9-12.5 17.9-2.4 8.2 2.2 16.8 7.7 23.2z"/>
		</g>
		<path id="&lt;Path&gt;" class="s7" d="m228 233.2c2.6 1.3 4.6 2.3 5.4 2.8 17.6 11.2 32.9 25.7 48 40.1 5.2 4.9 10.5 10 13.5 16.6 3 6.5 3.2 14.8-1.4 20.3-5.5 6.6-15.9 6.8-23.8 3.3-7.8-3.5-14-9.8-20.8-15.1-11.9-9.3-29.1-12.8-40-22.6-8.4-7.4-14-20.9-18.5-30.9-1.5-3.4-2.6-6.9-3.7-10.4q-2.5-8.1-5-16.1c-0.1-0.3-0.1-0.6 0-0.8 0.2-0.4 0.6-0.4 1-0.4 9.3 0 15.6 0.8 24.2 4 7.2 2.7 14.2 5.8 21.1 9.2z"/>
		<g id="&lt;Group&gt;">
			<path id="&lt;Path&gt;" class="s8" d="m384.3 455.6c1.8 44.5 3 88.9 4.9 133.3 0.1 2.2 0.2 4.5 1.5 6.2 1.3 1.7 3.3 2.5 5.3 3.1 7.7 2.3 15.8 3.1 23.8 2.2 1.2-0.1 2.4-0.3 3.4-0.9 2.9-1.7 3-5.7 2.8-8.9-4.3-79.2 19.4-158.4 11.7-237.3-0.1-1.4-0.3-2.9-1.4-3.7-0.8-0.7-1.9-0.8-3-0.9q-20.2-1.4-40.5-2.9c-2.5-0.2-4.8-1.1-6.2 1.2-1.3 1.9-1 6.8-1.2 9.1q-1.2 10.1-1.7 20.3c-1.5 26.5 0.6 52.8 0.6 79.2z"/>
		</g>
		<g id="&lt;Group&gt;">
			<path id="&lt;Path&gt;" class="s9" d="m495.5 529.2c0.9-26.3 1.2-52.7 2-79.1 0.3-8 7.1-102.8 3.1-102.7q-34.4 0.7-68.9 1.4c-1.4 0.1-3.1 0.2-4.1 1.3-0.8 0.9-0.8 2.2-0.9 3.5-1.5 80.2 13.8 161.1 23.4 240.6 0.2 1.6 0.4 3.3 1.6 4.4 0.7 0.7 1.6 1.1 2.6 1.4 9.4 3.3 19.5 4.4 29.4 3.2 1.1-0.1 2.3-0.3 3.2-0.9 7.1-4.8 5.9-20.2 6.4-27.2 1.1-15.3 1.8-30.6 2.2-45.9z"/>
		</g>
		<g id="&lt;Group&gt;">
			<path id="&lt;Path&gt;" class="s10" d="m322.7 204.3h-23.9v-23.9h23.9z"/>
		</g>
		<g id="&lt;Clip Group&gt;">
			<path id="&lt;Path&gt;" class="s6" d="m132 219.2c6.2 7.6 18.9 12.9 28.4 9.4 9.7-3.6 17.3-13.7 19.5-23.6-14.7-4.2-30.3-3.4-45.6-2.5-2.8 0.1-8 0.9-8.5 4.6-0.4 3.4 4.2 9.6 6.2 12.1z"/>
			<path id="&lt;Path&gt;" class="s11" d="m119 212.3c4.1 14.7 18.2 25.9 33.4 26.8 4.3 0.2 8.6-0.3 12.6-1.9 11.2-4.5 17.5-16.3 22.2-27.5"/>
			<path id="&lt;Path&gt;" class="s11" d="m82.6 268.4c24.9 1 49.7 1.3 74.6 0.3 24.3-1 49.6-2.1 73-8.7"/>
			<path id="&lt;Path&gt;" class="s11" d="m82.2 280.9c24.8 0.9 49.7 1.3 74.5 0.3 24.3-1 49.6-2.1 73-8.8"/>
			<path id="&lt;Path&gt;" class="s12" d="m88.6 259q-0.1 1.2-0.2 2.4c-1.3 24.9-1 49.8-0.2 74.7 0.6 22.2-1.7 47.7 4.3 69.2 0.5 1.6 1 3.2 2.3 4.3 1 0.9 2.4 1.2 3.8 1.5 8.4 1.8 17 2 25.6 2.1 33.3 0.5 66.4 0.3 99.6-2 15.8-1.1 11.1-30 10.8-40.8-0.8-25.4-4.4-50.7-9.3-75.6-5.9-29.7-14.4-70.3-48.6-77.8-5.7-1.2-11.5-1.3-17.4-1.3-13.6-0.1-27.5 0.2-40.4 4.6-8.3 2.8-16.1 7.6-21.9 14.2-6.4 7.2-7.8 15.5-8.4 24.5z"/>
		</g>
		<path id="&lt;Path&gt;" class="s13" d="m289.3 608.9c9.7 5.1 20.4 7.7 31.5 6.6 1.2-0.1 2.6-0.3 3.5-1.2 1.6-1.6 0.8-4.5-0.9-5.9-1.8-1.4-4.1-1.8-6.3-2.2-5-1.1-13.3-3.8-12.4-10.4 0.3-1.7 1-3.3 1-5.1 0-0.2 0-0.5-0.2-0.7-0.1-0.2-0.4-0.3-0.7-0.4q-9.4-2.4-18.8-4.9c-1.9 5.3-3.7 10.8-3.5 16.4 0.1 1.4 0.3 2.9 1.1 4 0.7 0.9 1.7 1.5 2.6 2.1q1.5 0.9 3.1 1.7z"/>
		<g id="&lt;Group&gt;">
			<path id="&lt;Path&gt;" class="s10" d="m458.7 159.7h-36.4v-44h36.4z"/>
		</g>
		<path id="&lt;Path&gt;" class="s14" d="m377.3 259.8c8.7-13.9 15-29.3 18.6-45.3 3.2-13.7 4.6-27.9 4.7-42 0-4.2-0.1-8.5-2-12.3-0.3-0.7-0.8-1.4-1.5-1.7-0.6-0.3-1.3-0.2-2-0.1-9.2 1.5-19.9 7.3-26.1 14.3-12.2 13.8-21 30.3-27.8 47.4-1 2.6-2 5.2-2 7.9-0.1 4.6 2.3 8.9 5.1 12.6 6.7 9.1 15.5 16.7 25.5 22 0.8 0.5 1.7 0.9 2.7 0.9 2.1 0 3.6-1.9 4.8-3.7z"/>
		<path id="&lt;Path&gt;" class="s15" d="m509.8 251.6c1.2 9.3 1.4 18.6 1.4 27.9 0.1 20.2-1.1 40.4-3.4 60.4-0.2 2-0.5 4.1-1.7 5.7-1.1 1.4-2.6 2.2-4.2 3-6.9 3.3-14.4 5.4-22 6.2-5.1 0.5-10.2 0.5-15.3 0.4q-30.6-0.3-61.2-0.7c-6.6-0.1-14-0.5-18.2-5.6-3-3.8-3.3-9-3.5-13.8q-1.2-36-2.4-72c-0.7-21.9-1.5-43.8-0.2-65.7 0.6-9.4 1.5-19.1 5.1-27.9 3.3-8.3 7.6-10.6 16-13.1 6-1.8 12.3-2.3 18.5-2.8 11.6-0.8 23.2-1.7 34.9-2 5.5-0.1 10.9-0.1 16.3 0.6 9.5 1.1 18.8 4.6 26.3 10.6 7.8 6.1 9.1 15.2 9.8 24.7 1.5 21.2 1.2 43 3.8 64.1z"/>
		<path id="&lt;Path&gt;" class="s16" d="m352.5 138.3c0 28.5-18.7 51.7-41.8 51.7-23 0-41.7-23.2-41.7-51.8 0-28.5 18.7-51.7 41.8-51.7 23 0 41.7 23.2 41.7 51.7z"/>
		<path id="&lt;Path&gt;" class="s17" d="m377.4 235.6c3.6 3.8 6.1 7.7 9.2 11.9 3.9 5.2 6.2 11.5 8.3 17.6 0.3 0.7 0.5 1.4 0.3 2.1-1.1 3-11.3 7.1-14.1 8.6-6.2 3.3-12.7 6-19.4 8.2-6.8-18.9-13.8-38.2-14-58.3-0.1-7.2 4.5-15.7 11.5-9 6.3 6.1 12.2 12.6 18.2 18.9z"/>
		<path id="&lt;Path&gt;" class="s16" d="m474.1 83c-1.7 29.8-21.7 53-44.7 51.7-23.1-1.3-40.4-26.5-38.7-56.4 1.7-29.9 21.7-53 44.7-51.7 23 1.2 40.3 26.5 38.7 56.4z"/>
		<path id="&lt;Path&gt;" class="s18" d="m311.2 591q3 7.8 5.4 15.7c0.6 2.1 1.1 4.6-0.1 6.4-1 1.5-2.8 2.1-4.6 2.6-14.9 4.2-30.4 5.9-45.9 6.1-1.7 0-3.7 0-5-1.2-4.6-4 7-10.5 9.5-11.7 4.6-2.3 9.6-3.7 14.5-5.1 4.4-1.3 12.4-0.8 8.6-8.3-0.4-0.7-1-1.5-1-2.4 0.2-2.8 16.2-2.2 18.6-2.1z"/>
		<g id="&lt;Clip Group&gt;">
			<path id="&lt;Path&gt;" class="s19" d="m310.1 248.1q0.3 0.2 0.6 0.4c4 2.4 7.9-1.1 10.4-4.3 3.6-4.8 7.3-9.6 10.1-14.9 5.2-9.6 13-33.7 1.9-41-6.2-4.1-12.9-7.7-20.2-9.3-7.2-1.6-15.1-1.2-21.6 2.4-5.4 2.9-9.5 8-11.1 13.9-1.6 6.1 1.3 11.5 3.9 17 4.2 9.2 10 17.6 16.5 25.3 2.7 3.1 6 8.1 9.5 10.5z"/>
			<g id="&lt;Group&gt;">
				<path id="&lt;Path&gt;" class="s10" d="m311.3 236c0.5 0.6 1.2 1.1 2 1.1 0.6-0.1 1.2-0.5 1.7-0.9 9.6-8.7 15.7-21.3 16.4-34.3 0.1-1.2 0.1-2.5-0.4-3.6-1.1-2.3-3.9-3.1-6.5-3.5-7.4-1.3-15-1.9-22.5-1.8-3 0-6.1 0.1-9 1.2-10.3 4.1-2.6 14.4 1.2 20.9 4.7 7.7 10.4 14.8 17.1 20.9z"/>
			</g>
			<path id="&lt;Path&gt;" class="s20" d="m361.4 267.7c-1.1 6.3-3.4 12.2-5.2 18.4-1.2 4.3-1.7 8.6-3 13-0.9 2.8-7 35.3-4.2 35.3-24.8 0.2-49.6-0.6-74.3-2.4 0.6-14.4 1-29.2-2.9-43.2-1.7-6-4.1-11.9-5.8-18-3.7-13.4-3.5-27.5-3.3-41.4 0.3-13.1 5.8-18.3 18-21.8 11.4-3.2 23.5-4.1 35.4-4 11.9 0.1 24 2.3 34.5 7.9 2.2 1.2 4.4 2.5 5.8 4.6 1.6 2.2 2.1 5 2.6 7.7 2.6 14.5 4.9 29.4 2.4 43.9z"/>
		</g>
		<path id="&lt;Path&gt;" class="s7" d="m88.3 237.6q-0.2 0.2-0.3 0.4c-24.2 27.6-43.1 62.7-50 99-1.3 6.6-1.5 13.5-1.6 20.3-0.2 9.4 0.3 20 7 26.6 0.4 0.3 0.8 0.6 1.2 0.7 0.8 0.2 1.5-0.4 2.1-0.9 16-15.1 32.6-32.1 41.4-53 5.4-12.7 11.7-25.1 16.7-38 5.2-13.7 8.1-27.9 9.6-42.5 0.6-5.7 4.2-23-3.9-25.3-1.5-0.5-3.1-0.1-4.6 0.4-7.3 2.4-12.5 6.6-17.6 12.3z"/>
		<path id="&lt;Path&gt;" class="s21" d="m363.9 413.4q-0.3 7.1-1 14.1c-2.9 27.5-13.2 53.5-22.5 79.3-9.7 26.6-18.8 53.4-28 80.1 0 1.6-1.3 5.6-2.5 6.8-2.3 2.1-3.8 0.1-5.9-1-3.5-1.8-8.2-1.9-12.1-2.5q-6.7-1.2-13.5-2.4 10.1-29 18.8-58.5c1.2-4.2 2.8-8.2 4.1-12.3 1.4-4.6 1.7-10 2.3-14.8 1.2-9.8 1.8-19.7 2.9-29.5 2.3-19 0.3-38 2.2-57.1 1.2-12.4 4-24.6 4.7-37 0.7-14.5-1.5-29.3 1.6-43.5 0.4-1.6 0.8-3.2 2-4.4 1.2-1.3 3.1-1.8 4.8-2.1 6.4-1.1 19.8-2.4 24.4 2.8 2.7 3 4.3 8.8 5.8 12.5 9.1 21.9 12.7 45.8 11.9 69.5z"/>
		<path id="&lt;Path&gt;" class="s22" d="m314.8 540.8c-0.2-16.9-0.3-33.7-0.4-50.6-0.1-27.6 0.1-55.2 1-82.8q0.6-20.7 1.8-41.4 0.6-10.3 1.3-20.7c0.4-5.1 1.7-11.4 1-16.5-12.7-1.4-26.1-0.4-38.8-0.6-1.1 0-2.3 0-3.3 0.5-0.8 0.3-1.5 1-2.1 1.7-12.3 12.8-23.1 29.5-25.4 47.5-4.9 39.3 4.6 78.2 14.7 115.9 5 19.1 10.4 38.1 14.2 57.4 1.1 5.3 10.5 46.1 10.5 46.1h27.6c0 0-2-37.7-2.1-56.5z"/>
		<g id="&lt;Group&gt;">
			<path id="&lt;Path&gt;" class="s2" d="m277.3 128.7c5.7-4.2 12-7.4 18.5-10.1 9.7-4.1 19.9-7.2 29.4-11.6 5.7-2.7 11.9-6.9 12.3-13.2 0.3-4.1-2.3-8.1-5.7-10.6-3.4-2.5-7.5-3.7-11.6-4.7-9.2-2.4-19.3-4-28.1-0.3-4.3 1.9-8.1 4.9-11.5 8.3-3.7 3.5-7 7.5-10 11.6-2.8 4.1-5.3 8.3-6.9 13-3.7 10.2-3.1 21.5-2.5 32.4 0.1 2.1 0.6 4.7 2.7 5.2 3.3 1 3.3-7.4 4.4-9.6 2-4.3 5.2-7.6 9-10.4z"/>
		</g>
		<path id="&lt;Path&gt;" class="s23" d="m200.3 136.7c0.8 19.4-5.3 40.4-23.2 50.5-4.2 2.4-8.9 4-13.6 5.3-9.4 2.8-19.4 4.4-29.2 3.4-9.8-1.1-19.5-5.1-26.2-12.2-4-4.3-6.8-9.4-9.3-14.6-4.5-9.3-8.2-19-11.1-28.9-1.4-5.1-2.3-11.5 1.9-14.7 1.1-0.8 2.4-1.3 3.2-2.3 0.8-0.8 1.2-1.9 1.5-3 1.4-4.6 2.3-9.5 4.9-13.5 3.7-5.8 10.4-9 16.7-11.8 6-2.6 10.3-4.5 16.7-3.5 5.7 0.9 11.2 2.4 16.6 4.3 6.5 2.4 12.5 6.2 19.3 7.8 7.3 1.7 18.7-0.4 23.5 6.5 5.2 7.6 7.9 17.5 8.3 26.7z"/>
		<path id="&lt;Path&gt;" class="s24" d="m46.9 626c4.6 1.6 18.6 5.4 22.1 0.5 3.3-4.7 0-9.5-4.2-11.9-3.6-2.1-7.9-3-12.1-3.3-2.8-0.2-5.6 0-8 1.2-7.3 3.7-4 11.2 2.2 13.5z"/>
		<path id="&lt;Path&gt;" class="s24" d="m77.6 626.5c4.6 1.3 18.9 3.9 22-1.2 2.9-5-0.7-9.4-5.1-11.5-3.8-1.9-8.1-2.4-12.4-2.4-2.7 0.1-5.5 0.4-7.9 1.8-6.9 4.3-3.1 11.5 3.4 13.3z"/>
		<path id="&lt;Path&gt;" class="s16" d="m261.2 161.3c-2.4-2.3-4.2-5.5-4.5-8.8-0.6-5.9 3.9-11.8 9.8-12.8 1.7-0.3 3.8-0.1 5 1.2 0.7 0.8 1 1.9 1.3 2.9q1.5 5.6 3 11.1c1 3.6 4 10.7-0.1 12.5-4.7 2-11.6-3.1-14.5-6.1z"/>
		<path id="&lt;Path&gt;" class="s25" d="m524.7 142.2c-0.4-3.6-0.6-7.4 0.3-11 0.9-3.6 3.1-7 6.4-8.6-0.1 0.1 0.7-8.2 1-9.1 1.1-3.1 2.8-6 5-8.5 2.2-2.4 4.9-4.4 7.9-5.8 3-1.3 6.8-0.8 9-3.1 4.3-4.3 12.6-4.1 18.1-2.7-1.1-7.1 1.4-14.6 6.5-19.6 8.2-8 20.7-7.9 30.2-2.8 9 4.8 16.9 12.3 20.1 22 3.2 9.7 0.8 21.4-7.1 27.8 6.7 3.4 8.8 11.7 10.2 19 1.1 6.2 2.3 12.5 1.6 18.8-1.2 9.5-6.6 17.9-11.9 25.9-1.4 2-2.8 4.1-5 5.4-1.9 1.1-4.3 1.4-6.6 1.5-24.5 1.1-47.7-9.8-69.7-20.5-5.2-2.5-9-4.2-11.5-9.6-2.7-6-3.8-12.6-4.5-19.1z"/>
		<path id="&lt;Path&gt;" class="s26" d="m428.8 353.7c0.4-54.8-0.6-109.6 3.4-164.3 0.5-7.7 1-15.4 1.3-23.1"/>
		<g id="&lt;Group&gt;">
			<path id="&lt;Path&gt;" class="s3" d="m478.7 93.6c6.2-19.1 5.5-37.2 3.6-56.9-0.5-5.4-3.4-8.4-7.2-12.4-2.9-3-5.9-6-9.7-7.8-10.7-5.1-23.8 1.9-35.3-1.1-4.6-1.3-8.6-4-13.1-5.7-10.2-3.7-22.4-0.8-29.8 7.1-1.2 1.3-2.3 2.7-2.9 4.3-1.4 3.4-0.7 7.4 0.9 10.8 4.2 8.9 11.4 10.7 19.6 14.1 6.6 2.7 14.4 3.1 21.4 3.2 8 0.1 15.4-1.5 22.9 2.3 2.6 1.4 5 3.3 7.5 4.8 2.7 1.6 5.6 2.8 7.7 5 2.9 3 3.6 7.4 4.4 11.5q2 10.8 5 21.4c0.2 1 0.6 2.1 1.6 2.4 1.6 0.6 2.9-1.4 3.4-3z"/>
		</g>
		<path id="&lt;Path&gt;" class="s15" d="m522.9 180.1c16.5 12.8 33.2 27.6 42.5 46.2 4.1 8.1 4 15.3 0 23.4-3.4 6.7-9.4 12.5-17.2 13.3-5.3 0.5-10.4-2-15.2-4.5-11.7-6.2-23.3-13-32.6-22.4-18.4-18.6-22.7-52.4-17.4-77.1 0.1-0.6 0.3-1.3 0.8-1.8 0.9-0.9 2.4-0.4 3.6 0.1 9.7 4.1 18.5 10.1 27 16.4q4.2 3.1 8.5 6.4z"/>
		<g id="&lt;Group&gt;">
			<path id="&lt;Path&gt;" class="s10" d="m589.3 238.9h-32v-28h32z"/>
		</g>
		<path id="&lt;Path&gt;" class="s16" d="m485 85.6c2.5 1.9 4.6 5.3 4.6 8.5 0 2.6-1.2 5-2.7 7-3.4 4.4-7.2 7.3-12.7 8.1-3.9 0.6-9.4 0.3-10.2-4.5-0.8-4.2 2.7-10.3 5.1-13.5 3.7-4.9 9.9-9.8 15.9-5.6z"/>
		<path id="&lt;Path&gt;" class="s27" d="m112.3 158.6c1.7 29.9 21.7 53.1 44.7 51.8 23-1.3 40.3-26.6 38.7-56.4-1.7-29.9-21.7-53.1-44.8-51.8-23 1.3-40.3 26.6-38.6 56.4z"/>
		<path id="&lt;Path&gt;" class="s23" d="m107.7 169.3c-6.3-19.2-5.5-37.2-3.7-56.9 0.5-5.4 3.4-8.5 7.3-12.4 2.9-3 5.8-6.1 9.6-7.8 10.8-5.1 23.8 1.9 35.3-1.2 9.2-2.4 17.4-8 27.4-5.1 3.4 1 6.8 2.3 9 5 3.5 4.5 1.8 11.5-2.3 15.5-4.1 3.9-9.9 5.6-15.5 6.7-10.9 2.1-22 2.8-33 2.2-3.9-0.3-8.1-0.6-11.4 1.4-2.7 1.7-4.4 4.6-5.5 7.6-2.9 7.5-3 15.9-6.1 23.3-2.9 7-4.1 14.9-6.1 22.3-0.3 0.9-0.7 2-1.6 2.4-1.6 0.6-2.9-1.4-3.4-3z"/>
		<path id="&lt;Path&gt;" class="s27" d="m101.4 161.3c-1.6 1.1-2.7 2.8-3.6 4.6-0.5 1-1 2.1-1.1 3.3-0.4 3.1 1.6 5.9 3.5 8.4 1.4 1.7 2.9 3.4 4.7 4.7 4.3 2.8 16.3 5.3 17.5-1.9 0.7-4.3-2.7-10.3-5.2-13.6-3.6-4.9-9.8-9.8-15.8-5.5z"/>
		<path id="&lt;Path&gt;" class="s16" d="m614.1 169.9c-3.8 29.6-25.5 51.3-48.3 48.3-22.9-3-38.3-29.4-34.5-59.1 3.9-29.6 25.5-51.3 48.4-48.3 22.9 3 38.3 29.4 34.4 59.1z"/>
		<g id="&lt;Group&gt;">
			<path id="&lt;Path&gt;" class="s28" d="m591 143.1c-7.2-0.3-14.3-0.9-21.5-1.3-7.1-0.5-14.3-0.7-21.5-1.3 7.2-1 14.4-1.1 21.6-0.7 7.3 0.4 14.4 1.4 21.4 3.3z"/>
		</g>
		<g id="&lt;Group&gt;">
			<path id="&lt;Path&gt;" class="s28" d="m585 136.2c-5.2-0.3-10.3-0.9-15.5-1.2-5.1-0.5-10.3-0.8-15.5-1.3 5.2-1 10.5-1.1 15.7-0.7 5.2 0.4 10.4 1.4 15.3 3.2z"/>
		</g>
		<g id="&lt;Group&gt;">
			<path id="&lt;Path&gt;" class="s9" d="m41.3 614.3q7.1-0.8 14.1-1.5c9-20.7 12.7-43.6 10.7-66-0.1-1.3-0.2-2.6-1-3.7-1.1-1.3-3-1.7-4.8-1.9-5-0.7-14.7-2-18.1 3.1-3 4.6-0.9 14.9-0.9 20.1 0 4.2 0.8 49.8 0 49.9z"/>
		</g>
		<g id="&lt;Group&gt;">
			<path id="&lt;Path&gt;" class="s29" d="m577.1 622.4c-2-1.4-3.6-3.1-4.2-5.5-0.3-1-0.3-2.1-0.3-3.1 0.1-8.7 3.1-17.7 13-11.2 10.2 6.7 22.4 11.4 31.3 19.8 10.2 9.8-5.3 10.5-12.1 9.6-6.8-0.9-13.2-3.2-19.5-5.8-2.5-1.1-5.6-2.1-8.2-3.8z"/>
		</g>
		<g id="&lt;Group&gt;">
			<path id="&lt;Path&gt;" class="s9" d="m71.1 615.3q6.9-1.3 13.9-2.6c7.3-21.3 9.2-44.4 5.5-66.6-0.2-1.3-0.5-2.6-1.4-3.6-1.1-1.3-3.1-1.5-4.9-1.6-5-0.2-14.7-0.8-17.7 4.6-2.7 4.8 0.2 14.8 0.6 20.1 0.4 4.2 4.7 49.5 4 49.7z"/>
		</g>
		<g id="&lt;Group&gt;">
			<path id="&lt;Path&gt;" class="s10" d="m421.8 150.8l11.6 17 25.2-18.9z"/>
		</g>
		<path id="&lt;Path&gt;" class="s16" d="m23.4 540.5c-0.8 2.4 1.4 4.6 3.5 6 2.1 1.3 4.6 2.8 4.9 5.2-0.9 0.8-2.3 0.5-3.4 0-2.8-1.2-4.5-1.2-4.7 2.1q-0.3 4.5-0.5 9c-0.1 1.1-0.3 2.4-1.4 2.9-0.6 0.3-1.4 0.1-2-0.3-0.6-0.4-1-1-1.4-1.6-0.1 1.2-0.3 2.7-1.5 3-0.7 0.2-1.5-0.2-2-0.7-0.4-0.6-0.7-1.3-0.9-2-0.9 0.3-1.9 0.1-2.7-0.5-0.7-0.6-1-1.7-0.7-2.6-0.7 0.3-1.5-0.2-1.8-0.9-0.4-0.6-0.3-1.4-0.1-2.2 1.1-6.9 5.9-12 8-18.6"/>
		<g id="&lt;Group&gt;">
			<path id="&lt;Path&gt;" class="s29" d="m559.5 619.2c2.1-1.3 3.7-3.1 4.3-5.5 0.2-1 0.2-2.1 0.2-3.1 0-8.7-3.1-17.7-12.9-11.2-10.2 6.7-22.4 11.4-31.3 19.9-10.3 9.7 5.3 10.4 12.1 9.6 6.7-0.9 13.2-3.3 19.5-5.9 2.4-1 5.6-2.1 8.1-3.8z"/>
		</g>
		<path id="&lt;Path&gt;" class="s30" d="m31.4 497.3c0.1-12.3-0.5-30.4 8.7-39 9.2-8.4 22.1-12 33.7-8.6 4.4 1.2 8.7 3.5 12.2 6.8 8.5 8.1 11.1 21.2 12.7 33.5 2.5 18.6 3.9 37.4 4.2 56.2 0 1.5-34.2 3.1-37.3 3.2-11 0.2-22.1 0.3-33.1 0.2-1.3-17.3-1.4-34.9-1.1-52.3z"/>
		<g id="&lt;Group&gt;">
			<path id="&lt;Path&gt;" class="s10" d="m608 525.6c-0.5 5-3.2 10.2-4.6 15.2q-2.6 9.6-5.3 19.2c-3.7 13.5-7.3 26.4-8.7 40.3-0.7 6.4 4.5 5.7 7.9 10 2.2 2.8 1.1 6.6-2.5 7.4-4 0.9-8.2-0.6-11.5-3.1-2.5-1.9-5.5-4.4-7.3-6.9-2.2-3.2-1-7-1.3-10.6-2-26.3-5-52.3-8.7-78.4"/>
		</g>
		<path id="&lt;Path&gt;" class="s30" d="m34.8 463c2-2.6 4.3-5 7.2-6.3 0.7-0.3 1.6-0.5 2.3 0 0.5 0.3 0.7 0.8 0.9 1.4 2.6 7.4 3.4 15.4 3.1 23.2-0.2 3.1 0 6-1.2 8.8-1.5 3.5-4.1 6.8-5.8 10.2-7.1 13.7-12 28.6-14.4 43.9q-7.8 0.6-15.7 0.2c-2.7-0.1 5.3-39.5 6.2-42.8 3.5-13.7 8.7-27.4 17.4-38.6z"/>
		<g id="&lt;Group&gt;">
			<path id="&lt;Path&gt;" class="s10" d="m528.6 522.4c0.6 5.1 3.3 10.2 4.6 15.2q2.7 9.6 5.4 19.2c3.7 13.5 7.3 26.4 8.7 40.3 0.6 6.4-4.6 5.7-7.9 10-2.2 2.8-1.1 6.6 2.5 7.4 4 0.9 8.2-0.6 11.5-3.1 2.4-1.9 5.4-4.4 7.2-6.9 2.2-3.2 1.1-7 1.4-10.6 2-26.3 5-52.3 8.6-78.4"/>
		</g>
		<path id="&lt;Path&gt;" class="s31" d="m433.6 166.7l25.1-21.7 13.6 7.5-27.5 27.9z"/>
		<path id="&lt;Path&gt;" class="s31" d="m422.3 147.7l11.3 19-13.3 13.7-13.3-25.5z"/>
		<path id="&lt;Path&gt;" class="s25" d="m562.3 122.5c3.9 12.4 16.4 15.9 28.3 14.4-0.4 4.1 1.8 8.2 4.8 10.9 3.1 2.8 7 4.5 10.8 6.1q-0.6 8.7-1.2 17.4c-0.3 4-0.6 8.1 0.8 11.8 0.9 2.4 3.8 6.8 6.6 5.7 2.4-0.9 5.2-6.7 6.3-8.9 3.6-6.6 5.4-14.2 5.2-21.8-0.4-9.9-4.1-19.4-7.8-28.7-1.8-4.6-3.7-9.2-6.6-13.1-6.9-8.9-18.3-12.7-29.3-15.2-14-3.3-21.8 8.6-17.9 21.4z"/>
		<path id="&lt;Path&gt;" class="s32" d="m271.3 290.3q3.1-4.3 7-7.9c7.7-7.3 17.2-12.2 26.8-16.6 10.3-4.7 21-8.5 32-11.2 5.2-1.3 10.3-3.2 15.4-4.8 10.4-3.2 21.2-5.7 32.1-4.6 10.8 1.2 21.7 6.5 27 16 3.8 6.7 4.5 14.9 3.1 22.4-1.4 7.6-4.7 14.7-8.6 21.3-11.4 19.6-28.6 36.5-49.2 46.2-6.8 3.2-14.1 5.6-21.4 7.1-15 3.2-32.1 5.1-47 1.1-9.2-2.5-17.3-11-21.4-19.3-8.4-16.4-6-35.3 4.2-49.7z"/>
		<path id="&lt;Path&gt;" class="s16" d="m365.6 251.9c9.5-2.2 22.4 0.8 27.6 9.7 5.1 8.7 3.3 19.8-2.8 27.5-10 12.6-32 13.6-42.5 1.2-12.2-14.5 1.8-34.8 17.7-38.4z"/>
		<g id="&lt;Group&gt;">
			<path id="&lt;Path&gt;" class="s10" d="m74 454.1c-0.9 2.2-2.8 3.8-6.1 4.2-15.5 2.1-11.1-17.6-11.1-26.3 0 0 18.4 0 18.4 0 0 0 0 11.5 0 12.2 0 3.3 0.2 7.1-1.2 9.9z"/>
		</g>
		<g id="&lt;Clip Group&gt;">
			<g id="&lt;Group&gt;">
				<path id="&lt;Path&gt;" class="s10" d="m559.3 249c2.5 1.3 5.2 1.9 8 2.3 5.5 0.8 11.2 0.5 16.3-1.7 5.2-2.1 9.6-6.2 11.5-11.3 1.7-4.4 1.5-9.1 1.3-13.7 0-1.3-0.1-2.7-0.7-3.8-0.5-0.9-1.3-1.5-2.1-2.1-10.7-7.6-30.5-8.6-39.7 0.8-9.1 9.4-7.1 23.4 5.4 29.5z"/>
			</g>
			<path id="&lt;Path&gt;" class="s33" d="m540.4 205.9c-0.3 13.4 1.6 26.8 5.1 39.7 3.3 12.3 10.1 42.9 28.7 38.1 13.4-3.5 20.1-24.5 23.1-36.1 4.2-15.8 4.6-32.5 2.7-48.6"/>
			<path id="&lt;Path&gt;" class="s34" d="m641.2 375c4 16.2 3 33.1 0.7 49.6-3.2 23-8.7 45.6-14.3 68.1q-5 20.3-10 40.5-45.1-0.1-90.2-0.2c-14.3-46.4-25.7-95.3-18.4-143.4 2.5-16.6 7.2-32.7 12.1-48.7 4.1-13.3 7-25.2 5.2-39.1-1.8-13.5-4.4-27-3.8-40.6 0.5-9.9 5.1-14.5 12.9-20.2 5-3.8 10.6-6.9 16.5-9.3 6.9-2.8 12.5-2.5 19.9-2.5 8.1 0.1 16.3 0.8 24.2 2.8 13.1 3.3 26.7 9.6 29.7 24 1 4.8 1 9.7 0.9 14.7 0 18.1-2.4 37.2-0.7 55.2 1.7 17.3 11.1 32.5 15.3 49.1z"/>
		</g>
		<g id="&lt;Group&gt;">
			<path id="&lt;Path&gt;" class="s35" d="m558.3 405.4c4.6 1.3 10.4 2 13.1-1.4 0.6-0.8 0.9-1.7 1.1-2.6q0.5-1.5 1-3c0.2-0.8 0.5-1.6 0.4-2.4-0.4-4.9-10.7-5.3-14.1-5.2-3.7 0.1-8.3 0.7-11.2 3.4-4.8 4.5 1.4 8.1 5.7 9.9 1.1 0.4 2.5 0.9 4 1.3z"/>
		</g>
		<path id="&lt;Path&gt;" class="s16" d="m601.3 391.2c-2.6-1.2-5.1-2.5-7.2-4.4-4-3.7-2.5-8.5 2.9-9.3 5.3-0.8 12.8 2.3 17.9 3.8-0.7-2.2-1-4.6-0.8-6.9 0.1-0.9 0.3-1.7 0.9-2.3 1.1-0.9 2.8-0.2 3.6 1 0.7 1.1 0.9 2.6 1.5 3.8 0.9 2.6 3.2 4.6 5.8 5.3 0.9 0.2 1.9 0.3 2.7 0.8 0.6 0.3 1.2 0.9 1.6 1.5 1.7 2 2.9 4.4 3.7 6.9 0.2 0.9 0.4 1.9-0.1 2.7-0.7 1-2.1 1-3.3 1-2.9-0.2-5.8-0.6-8.7-0.5-1.7 0.2-3.2 0.9-4.9 1-5.2 0.5-11-2.2-15.6-4.4z"/>
		<g id="&lt;Group&gt;">
			<path id="&lt;Path&gt;" class="s35" d="m586 428.7c4.7-0.3 10.5-1.6 11.8-5.8 0.3-0.9 0.3-1.8 0.3-2.8q-0.1-1.5-0.2-3.1c0-0.8 0-1.6-0.4-2.4-1.9-4.5-11.8-1.4-14.9-0.3-3.6 1.4-7.7 3.5-9.5 7-3 5.8 4 7.1 8.7 7.4 1.1 0 2.6 0.1 4.2 0z"/>
		</g>
		<path id="&lt;Path&gt;" class="s16" d="m228.7 330.3c1.9 2 4.5 3.2 6.8 4.8 10.7 7.2 21.4 14.2 32.7 20.2 5.4 2.9 37.8 21 39.2 9.2 0.2-2.1-0.7-4.1-2.1-5.7-1.4-1.6-3.2-2.7-4.9-3.9-7.3-4.8-14.9-10-21-16.4-6-6.4-12-12.7-18.7-18.4-1.9-1.7-5.2-4-6.1-6.6-0.9-3 0.5-7.9 1.1-10.9 1.6-7.9 4.4-15.5 6.6-23.2 0.3-0.9 0.6-1.9 0.4-2.9-0.2-1-0.9-1.9-1.6-2.6-3-3.3-6.5-4.6-10.3-6.4-2.9-1.4-6.8-4.9-10.2-3.8-3.1 0.9-5.6 7.6-6.7 10.2-3.7 8.9-3.8 17.4-5.5 26.6-0.9 4.8-1.5 9.6-2.1 14.4-0.6 4.3-1.5 8.8 0.5 12.8 0.5 1 1.2 1.9 1.9 2.6z"/>
		<path id="&lt;Path&gt;" class="s36" d="m577.4 383.4c3.6 0.6 6.9 0.1 10.5 0.2 4.3 0.2 8.1 1.8 12.2-0.4 5.9-3.1 8.5-11.3 3.8-16.6-4.6-5.2-12.6-6.6-19.1-8.1-11.9-2.6-24.6-5.9-34.5-13.4-10.6-8-15.5-20.5-18.3-33.1-4.8-21.2-1.3-48.1 1.5-69.6-13.3 4.8-24.3 17.9-30 30.4-7.5 16.2-9.6 35.4-4.8 52.7 4.1 14.9 14.4 28.7 26.4 38.2 5.2 4.1 10.9 7.7 17 10.4 11.1 5 23.3 7.2 35.3 9.3z"/>
		<path id="&lt;Path&gt;" class="s37" d="m583.1 403.9c-2-13 1-26.8 11.2-35.6 0.6-0.6 1.4-1.2 2.2-1.3 0.9-0.1 1.8 0.3 2.6 0.6q9.3 4.1 18.1 9.1c-7.5 4.5-15.5 9.6-18.3 17.8-1.3 3.6-1.3 7.5-1.3 11.3 0 2.1 1.7 7.7-0.5 9-1 0.6-2.3 0.6-3.5 0.5q-1.5-0.1-3.1-0.3c-1.1-0.1-2.2-0.2-3.2-0.7-1.4-0.8-2.4-2.3-2.8-3.9q-0.9-3.2-1.4-6.5z"/>
		<path id="&lt;Path&gt;" class="s20" d="m251.9 224.1q-1.4 1.6-2.6 3.3c-5 7-8.2 15.1-11.5 23q-3.4 8.4-6.8 16.9c-0.6 1.3-2.7 7.2-2.7 7.2l34.7 10.9c0 0 9.9-24.8 10-36.1 0.1-5-0.5-10-1-15q-1.3-11-2.6-22c-6.9 1.8-12.9 6.3-17.5 11.8z"/>
		<path id="&lt;Path&gt;" class="s36" d="m652.8 396.1c8.9-3.2 15.1-11.5 19-20.2 4.1-9.1 5.8-19.4 5.6-29.3-0.7-31.9-18-57.1-36.9-81.3-6.5-8.3-13.2-16.8-22.4-22-0.6-0.3-1.3-0.7-2-0.5-0.6 0.1-1 0.6-1.5 1.1-5.7 7.1-7.7 15.8-7.5 24.8 0.1 8.4 1.4 16.8 4.7 24.5 4.1 9.3 10.8 17.1 17.5 24.6 6.5 7.4 14 14 17.6 23.4 2.7 7.2 2.9 15.6-0.7 22.3-2.5 4.7-6.8 8.5-11.8 10.3-1.9 0.6-3.8 1.1-5.6 2-1.7 0.9-3.2 2.6-3.4 4.5-0.1 1.1 0.3 2.2 0.6 3.3 1.2 3.2 2.4 6.5 4.4 9.2 5.1 6.6 15.2 5.8 22.4 3.3z"/>
		<path id="&lt;Path&gt;" class="s37" d="m563.8 381.1c2.4-12.9 9.8-24.9 22.3-29.9 0.9-0.3 1.7-0.6 2.6-0.4 0.9 0.1 1.6 0.8 2.2 1.4q7.4 6.9 14.1 14.5c-8.5 1.8-17.8 3.9-23.2 10.8-2.4 3-3.7 6.6-4.9 10.2-0.7 2-1 7.9-3.5 8.3-1.1 0.3-2.3-0.2-3.4-0.6q-1.5-0.6-2.9-1.3c-1-0.5-2-1-2.7-1.8-1.1-1.2-1.5-2.9-1.4-4.6q0.2-3.3 0.8-6.6z"/>
		<path id="&lt;Path&gt;" class="s16" d="m319.9 370.6c5.2-0.3 11.1-1.3 15.7-3.8 3.7-2.1 6.2-6 7.1-10.1-6.6 1.1-13 1.1-19.7 1-2.7 0-5.4 0-8-0.7 3.1-1.3 6.1-2.9 8.9-4.9 1-0.7 2.1-1.6 2-2.8-0.1-1-1-1.7-2-1.9-0.9-0.1-1.9 0.1-2.8 0.4-3.4 1.2-6.4 3.2-9.7 4.8-3.6 1.7-8.8 3-12.7 1.4-1.1-0.4-2.8-0.5-3.7 0.2-0.7 0.5-1 1.2-1.4 1.9-1.1 2.5-1.6 5.4-1.2 8.1 0 0.3 0 0.5 0.2 0.8 0.1 0.3 0.4 0.5 0.7 0.7 7.3 6 17.7 5.4 26.6 4.9z"/>
		<path id="&lt;Path&gt;" class="s38" d="m650.4 322.2c-7-10.3-18.8-16.6-30.9-15.9-9.6 0.5-14.5 11.1-18.6 18.7-4.4 8.2-8.8 17.1-17 22.1-9.5 5.7 9.1 22 14.3 25.1 6.9 4.2 14.7 6.6 22.6 8.2 3.1 0.6 3.6 0.8 5.5-1.5 2.3-2.9 5-3.2 8.6-4.4 8.5-3.1 10.3-10.2 14.8-16.7 2.3-3.2 3.3-8.5 4.1-12.2 1.6-8 1.2-16.5-3.4-23.4z"/>
		<g id="&lt;Group&gt;">
			<path id="&lt;Path&gt;" class="s10" d="m624.9 310.2c-0.3 2.8 1.9 4.6 4.3 5.5 2.7 0.9 5.8 1.6 8.6 1.7 1.2 0.1 2.4 0 3.4-0.5 1.9-0.9 1.8-2.6 2.1-4.4 0.4-2.2 1-4.5 1.5-6.7 1-4.5 2.1-9 3.1-13.6l-17.9-4q-0.9 4-1.9 8c-0.8 3.7-2 7.3-2.7 11-0.1 1.1-0.4 2.1-0.5 3z"/>
		</g>
		<g id="&lt;Group&gt;">
			<path id="&lt;Path&gt;" class="s35" d="m87.5 369.5c0.6 6.7 2.7 13.2 5.6 19.2 1.4 2.8 2.6 4.9 3.4 7.8 0.7 2.5 1.4 5.5 3.4 7.4 0.4 0.3 1 0 1.5-0.3 3-2.3 5.1-5.7 6.1-9.4 1.1-3.6 1.2-7.5 0.9-11.3-0.4-6.2-3-11-7.2-15.6-2.1-2.2-4.4-4.4-7.4-5.2-1.2-0.3-2.5-0.4-3.6 0.2-2.5 1.2-2.9 4.5-2.7 7.2z"/>
		</g>
		<path id="&lt;Path&gt;" class="s16" d="m106 403c0 23-16 41.7-35.8 41.7-19.8 0-35.9-18.7-35.9-41.7 0-23.1 16.1-41.8 35.9-41.8 19.8 0 35.8 18.7 35.8 41.8z"/>
		<g id="&lt;Group&gt;">
			<path id="&lt;Path&gt;" class="s35" d="m82.3 375.9c4.2 0.1 8.4-0.1 12.6-1 3.7-0.8 7.2-2.9 8.9-6.3 0.7-1.5 1-3.2 1.1-4.9 0.2-7.8-5.1-14.9-11.8-18.8-8.1-4.6-19.8-5.8-29-5.2-17.8 1.2-35.3 16.4-39.6 33.6-1.6 6.6-1.9 13.5-1.8 20.3 0.1 6-0.1 10.8 2.9 16.1 2.8 5 6.9 9.3 11.9 12.3 3.1-9 4.7-18.6 4.8-28.2 0-3.8-0.3-7.8 1.2-11.4 2.3-5.3 8.9-8.5 14.5-8.4 8.1 0.1 16.2 1.6 24.3 1.9z"/>
		</g>
		<path id="&lt;Path&gt;" class="s16" d="m21.4 405c-3 2.2-3.4 7.5-2.3 11.4 1.6 6.4 4.5 9.4 11.2 9.9 4.2 0.4 9.6 0.4 10.1-4.8 0.7-7.5-6.6-15.4-13.5-17.2-2.4-0.7-4.2-0.3-5.5 0.7z"/>
		<g id="&lt;Group&gt;">
			<path id="&lt;Path&gt;" class="s2" d="m610.3 251.2c6.4-2 14.1-8.6 15.8-13 2-5.3 1.7-11.2 0.4-16.7-0.5-1.9-1.1-3.8-2.3-5.3-3.4-4.4-12.2-3.9-16.2-0.8-1.2 0.9-2.1 2-2.9 3.2-5.1 7.4-4.8 17.3-4.3 26.3 0.4 6.7 4.6 7.9 9.5 6.3z"/>
		</g>
		<path id="&lt;Path&gt;" class="s15" d="m609.5 230.7c0.2 1.4 0.9 2.6 2.3 3.6 3.9 2.9 11.4-3 13.4-6.5 2.1-3.5 3.9-10.5-1.7-11.6-5.9-1.2-15.1 8-14 14.5z"/>
		<g id="&lt;Group&gt;">
			<path id="&lt;Path&gt;" class="s2" d="m607 237.9c-4.2 7.3-5.9 16.5-3.1 24.5 3.1-13.9 13.9-24.8 25.4-33.1 1.2-0.9 2.5-1.9 2.9-3.3 0.7-3.1-2.8-4.9-5.3-5.2-3-0.4-4.7 1.1-7 2.9-5.1 3.9-9.7 8.5-12.9 14.2z"/>
		</g>
		<path id="&lt;Path&gt;" class="s16" d="m603.4 255c-5.1 22.5 6.4 44.3 25.7 48.7 19.3 4.3 39.1-10.3 44.2-32.8 5.1-22.4-6.4-44.2-25.7-48.6-19.3-4.4-39.1 10.3-44.2 32.7z"/>
		<g id="&lt;Group&gt;">
			<path id="&lt;Path&gt;" class="s2" d="m687.3 253.6c0.6 7.9-0.8 16.1-3.5 23.6-1.5 3.9-3.4 7.7-5.9 11-2.6 3.5-5.4 6.9-10 4.4-0.4-0.2-0.8-0.4-1-0.8-1.7-2.2 0.8-6.8 1.8-8.9 1.5-3.3 1.9-7 2-10.6 0.1-4.7-0.4-9.5 0.5-14.2-3.7-0.7-7.7-1.4-11.1-3.2-3.7-2-5.3-5.9-6.1-9.9-6.2 3.3-14.1 1.9-19.6-2.3q-0.7-0.5-1.3-1.1c-4.8-4.1-7.9-10-9.7-16.1-0.4-1.3-0.8-2.7-0.4-4.1 0.5-1.5 1.9-2.6 3.4-3.4 11.3-6.5 25.9-7.5 37.9-2 14.4 6.7 21.9 22.3 23 37.6z"/>
		</g>
		<path id="&lt;Path&gt;" class="s16" d="m682.2 321.7c2.5-0.6 3.3-3.6 3.4-6.1 0.1-2.4 0.1-5.3 2.1-6.8 1.1 0.4 1.6 1.7 1.7 2.9 0.2 1.2 0.2 2.5 1 3.4 0.2 0.2 0.4 0.4 0.7 0.4 0.3 0.1 0.6-0.1 0.9-0.3q3.7-2.5 7.4-4.9c1.1-0.7 2.7-1.3 3.4-0.3 1.1 1.4-1 3.7-2.2 4.2-0.8 0.3-1.8 0.8-2 1.7q0 0.1 0 0.2c0.1 0.2 0.4 0.2 0.6 0.2 2.1-0.4 4.1-1.1 6.1-1.7 0.7-0.2 1.4-0.4 2.2-0.3 0.7 0.1 1.4 0.5 1.6 1.2-0.3 1.2-1.6 1.9-2.8 2.3q-2.7 1.1-5.4 1.8c-0.5 0.1-1 0.3-1 0.8 1.8 0.4 3 0.6 4.8 0.6 1.3 0.1 2.7 0.5 3.4 1.6-0.2 1-1.3 1.3-2.3 1.5-1.8 0.2-3.7 0.1-5.6 0.1-0.4 0.1-0.8 0.1-1.1 0.3-0.4 0.1-0.6 0.5-0.5 0.9 0.1 0.2 0.3 0.4 0.5 0.6q1.8 1.4 3.6 2.8c0.3 0.2 0.5 0.4 0.6 0.7 0.7 1.7-1.7 1.3-2.5 0.9-1-0.6-2-1.3-3.1-1.9-3.9-2.2-8.8-1.3-13.2-0.4"/>
		<path id="&lt;Path&gt;" class="s38" d="m641.1 317.8c1.1-2.5 4.5-2.5 7.2-2 6.2 1 12.3 2.1 18.6 2.4 4.9 0.3 13 0.6 17-2.6 4.6 3.9 5.4 13 0.9 17.3-1 1.1-2.4 1.8-3.8 2.3-6.6 2.2-14.4 1.4-21.2 1.7-2.3 0.1-4.3 0-6.3 1.1-1.2 0.6-7.8 3.7-7.3 5.5-0.8-2.9-1.3-5.8-1.3-8.8 0-2 0.1-4-0.6-5.8-1.2-3-4.6-7.7-3.2-11.1z"/>
		<path id="&lt;Path&gt;" class="s16" d="m681.9 279.9c2.4 2.9 1.6 8.1-0.3 11.7-3 5.8-6.5 8.2-13.1 7.2-4.2-0.6-9.5-1.8-8.9-7 1-7.4 9.9-13.5 17-13.8 2.5-0.1 4.2 0.7 5.3 1.9z"/>
		<path id="&lt;Path&gt;" class="s16" d="m576.4 309.6c-2.4-0.8-2.9-3.8-2.8-6.3 0.1-2.5 0.4-5.4-1.4-7.1-1.2 0.3-1.8 1.6-2 2.8-0.3 1.2-0.5 2.5-1.3 3.3-0.2 0.2-0.5 0.3-0.7 0.3-0.4 0.1-0.7-0.2-0.9-0.4q-3.5-2.8-7-5.5c-1-0.8-2.5-1.6-3.3-0.6-1.3 1.3 0.7 3.8 1.8 4.4 0.8 0.4 1.7 0.9 1.8 1.8q0 0.2 0 0.3c-0.1 0.2-0.4 0.1-0.6 0.1-2.1-0.6-4-1.5-5.9-2.3-0.7-0.2-1.4-0.5-2.2-0.4-0.7 0-1.4 0.3-1.7 1 0.2 1.2 1.4 2 2.6 2.6q2.5 1.3 5.2 2.2c0.5 0.1 1 0.4 0.9 0.9-1.8 0.2-3 0.3-4.8 0.2-1.3-0.1-2.8 0.2-3.6 1.3 0.1 0.9 1.2 1.4 2.2 1.6 1.8 0.4 3.7 0.5 5.6 0.7 0.3 0 0.7 0.1 1.1 0.3 0.3 0.2 0.5 0.6 0.3 1-0.1 0.2-0.3 0.4-0.5 0.5q-1.9 1.2-3.8 2.5c-0.3 0.2-0.6 0.3-0.7 0.6-0.8 1.7 1.6 1.5 2.4 1.2 1.1-0.5 2.1-1.2 3.3-1.7 4.1-1.8 8.8-0.5 13.2 0.9"/>
		<g id="&lt;Group&gt;">
			<path id="&lt;Path&gt;" class="s2" d="m709.6 234.8c7 3 11.5 10 13.5 17.3 1.9 7.3 1.5 15 1.1 22.5-0.1 1.6-0.1 3.2-0.9 4.5-1.7 3.3-6.2 3.7-9.9 3.7-5.5 0-11.1 0-16.6-1.2-0.5-0.2-1-0.3-1.4-0.7-0.6-0.5-0.7-1.5-0.7-2.3-0.2-7.4 0-15-1.4-22.3-1-4.9-6.1-14.7-2.4-19.3 3.8-4.6 13.9-4.3 18.7-2.2z"/>
		</g>
		<path id="&lt;Path&gt;" class="s39" d="m682.9 251c0.6 3.7 1.1 8.3 5.7 8.1 3.9-0.1 6.4-4 6.6-7.6 0.2-4.4-1.1-11.1-5.9-12.7-1.8-0.6-4-0.2-5.5 1-3.8 3.1-1.4 7.4-0.9 11.2z"/>
		<path id="&lt;Path&gt;" class="s38" d="m617.7 309.5c-0.8-2.6-4.3-2.9-7-2.7-6.2 0.4-12.4 1-18.7 0.8-4.9-0.2-13-0.6-16.7-4.2-4.9 3.5-6.5 12.4-2.5 17.2 0.9 1.1 2.3 1.9 3.6 2.5 4.6 2.1 9.8 2.2 14.9 2.3 4.1 0 8.3 0.1 12.3-0.7 3.3-0.7 6.5-2.1 9-4.6 2.1-2.1 6.1-7.4 5.1-10.6z"/>
		<g id="&lt;Group&gt;">
			<g id="&lt;Group&gt;">
				<g id="&lt;Group&gt;">
					<g id="&lt;Group&gt;">
						<path id="&lt;Path&gt;" class="s40" d="m326.7 125.4c0.9-1.2 2.2-1.9 3.5-2.3 1.3-0.4 2.7-0.5 4-0.2 1.4 0.2 2.6 0.6 3.8 1.4 1.1 0.7 2.1 1.7 2.7 3.1-1.5 0-2.6-0.1-3.8-0.2q-1.7-0.1-3.3-0.4c-1.1-0.2-2.1-0.4-3.2-0.6-1.1-0.2-2.2-0.5-3.7-0.8z"/>
					</g>
				</g>
				<path id="&lt;Path&gt;" class="s41" d="m346 149.9c0 2.7-3.5 4.9-8 5-4.4 0.1-8.1-2-8.1-4.7-0.1-2.6 3.5-4.8 7.9-4.9 4.5-0.1 8.1 2 8.2 4.6z"/>
				<path id="&lt;Path&gt;" class="s42" d="m328 136.9c0.1 3 1.6 5.4 3.5 5.4 1.9 0 3.4-2.5 3.3-5.5 0-3-1.6-5.4-3.5-5.4-1.9 0-3.4 2.5-3.3 5.5z"/>
				<g id="&lt;Group&gt;">
					<g id="&lt;Group&gt;">
						<path id="&lt;Path&gt;" class="s40" d="m294.1 125.7c-1.4 0.5-2.5 0.7-3.6 1-1.1 0.3-2.1 0.5-3.2 0.7q-1.5 0.4-3.2 0.6c-1.2 0.1-2.4 0.2-3.8 0.3 0.5-1.4 1.5-2.4 2.6-3.2 1.1-0.8 2.3-1.3 3.7-1.6 1.3-0.2 2.7-0.2 4 0.1 1.3 0.3 2.6 1 3.5 2.1z"/>
					</g>
				</g>
				<path id="&lt;Path&gt;" class="s41" d="m275.9 151c0 2.7 3.7 4.8 8.1 4.7 4.5-0.1 8.1-2.3 8-5 0-2.6-3.7-4.7-8.2-4.6-4.4 0.1-8 2.3-7.9 4.9z"/>
				<path id="&lt;Path&gt;" class="s42" d="m293.3 137.1c0.1 3-1.4 5.5-3.3 5.5-1.9 0-3.5-2.4-3.6-5.4 0-3 1.4-5.5 3.3-5.5 1.9 0 3.5 2.4 3.6 5.4z"/>
				<path id="&lt;Path&gt;" class="s28" d="m315.7 154.2c0 1.2-2.1 2.2-4.7 2.2-2.6 0-4.7-1-4.7-2.2 0-1.2 2.1-2.2 4.7-2.2 2.6 0 4.7 1 4.7 2.2z"/>
			</g>
			<g id="&lt;Clip Group&gt;">
				<g id="&lt;Group&gt;">
					<path id="&lt;Path&gt;" class="s43" d="m322 167.6c-2.9 1.1-6.4 1.4-9.6 1.5-2.8 0-5.6-0.2-8.4-0.7-2.1-0.4-4.6-1.2-4.9-3.7-0.2-1.4 0.6-2.6 2.1-2.6l21.9-0.4c1.2-0.1 2.3 0.9 2.3 2.2 0 1.9-1.6 3-3.4 3.7z"/>
					<path id="&lt;Path&gt;" class="s44" d="m319.6 181.1l-14.2 0.3c-1.8 0-3.4-1.5-3.4-3.3 0-1.4 0.8-2.4 1.9-3 1.3-0.8 2.8-1.1 4.3-1.3 3.3-0.7 6.6-0.5 9.9 0.2 2 0.4 4.7 1.1 4.8 3.6 0 1.9-1.5 3.5-3.3 3.5z"/>
				</g>
				<path id="&lt;Path&gt;" class="s45" d="m314 177.2c-8.2 0.8-15.8-4.1-17.7-12.2q0-0.3-0.1-0.5 0-0.2-0.1-0.5c0 0 5.4 2.4 16.4 2.2 11-0.2 15.7-2.8 15.7-2.8-0.1 0.1-0.2 1-0.2 1.1-0.7 3-1.7 5.6-3.8 7.9-2.7 2.9-6.4 4.5-10.2 4.8z"/>
			</g>
		</g>
		<g id="&lt;Group&gt;">
			<g id="&lt;Group&gt;">
				<g id="&lt;Group&gt;">
					<g id="&lt;Group&gt;">
						<path id="&lt;Path&gt;" class="s40" d="m581.9 155.4c0.9-1.1 2.3-1.7 3.7-1.9 1.3-0.2 2.7-0.1 4 0.2 1.3 0.4 2.5 1 3.6 1.8 1 0.9 1.9 2 2.3 3.4-1.5-0.1-2.6-0.3-3.8-0.5q-1.6-0.4-3.2-0.8-1.5-0.5-3.1-1c-1.1-0.3-2.2-0.7-3.5-1.2z"/>
					</g>
				</g>
				<path id="&lt;Path&gt;" class="s41" d="m598.2 181.9c-0.2 2.7-4 4.5-8.4 4.1-4.5-0.4-7.9-2.9-7.6-5.5 0.2-2.7 4-4.5 8.5-4.1 4.4 0.4 7.8 2.9 7.5 5.5z"/>
				<path id="&lt;Path&gt;" class="s42" d="m581.8 167c-0.3 3 1.1 5.6 2.9 5.8 1.9 0.1 3.7-2.1 3.9-5.1 0.3-3-1-5.6-2.9-5.8-1.9-0.2-3.6 2.1-3.9 5.1z"/>
				<g id="&lt;Group&gt;">
					<g id="&lt;Group&gt;">
						<path id="&lt;Path&gt;" class="s40" d="m549.4 152.1c-1.4 0.3-2.6 0.4-3.7 0.6-1.1 0.1-2.2 0.3-3.2 0.3q-1.6 0.2-3.3 0.2c-1.2 0-2.4 0-3.8-0.1 0.6-1.3 1.7-2.2 2.9-2.9 1.2-0.7 2.5-1 3.8-1.1 1.4-0.2 2.7 0 4 0.5 1.3 0.5 2.6 1.2 3.3 2.5z"/>
					</g>
				</g>
				<path id="&lt;Path&gt;" class="s41" d="m530.9 175.4c-0.2 2.7 2.6 5.1 6.4 5.5 3.7 0.3 7-1.6 7.2-4.2 0.3-2.6-2.6-5.1-6.3-5.4-3.8-0.4-7 1.5-7.3 4.1z"/>
				<path id="&lt;Path&gt;" class="s42" d="m547.3 163.3c-0.2 3-2 5.3-3.9 5.1-1.9-0.2-3.2-2.8-2.9-5.8 0.3-3 2-5.2 3.9-5.1 1.9 0.2 3.2 2.8 2.9 5.8z"/>
				<path id="&lt;Path&gt;" class="s28" d="m567.6 182.8c-0.1 1.2-2.3 2-4.9 1.7-2.5-0.3-4.5-1.5-4.4-2.7 0.2-1.2 2.4-2 4.9-1.7 2.6 0.3 4.6 1.5 4.4 2.7z"/>
			</g>
			<g id="&lt;Clip Group&gt;">
				<g id="&lt;Group&gt;">
					<path id="&lt;Path&gt;" class="s43" d="m572.4 196.8c-3 0.8-6.5 0.7-9.6 0.4-2.8-0.2-5.6-0.8-8.3-1.6-2.1-0.7-4.5-1.7-4.5-4.2-0.1-1.5 0.9-2.5 2.4-2.4l21.8 2c1.2 0.2 2.1 1.3 2 2.5-0.1 1.9-1.9 2.9-3.8 3.3z"/>
					<path id="&lt;Path&gt;" class="s44" d="m568.5 210l-14.1-1.3c-1.8-0.2-3.2-1.9-3-3.7 0.1-1.3 1-2.3 2.2-2.8 1.4-0.5 3-0.7 4.4-0.8 3.4-0.3 6.7 0.3 9.9 1.3 1.9 0.7 4.5 1.7 4.3 4.2-0.2 1.9-1.8 3.2-3.7 3.1z"/>
				</g>
				<path id="&lt;Path&gt;" class="s45" d="m563.4 205.5c-8.2-0.1-15.3-5.8-16.2-14.2q0-0.2 0-0.4 0-0.3-0.1-0.5c0 0 5.1 2.9 16.1 4 10.9 1 15.8-1 15.8-1.1-0.1 0.1-0.2 1-0.3 1.1-1 2.9-2.3 5.4-4.6 7.5-3 2.5-6.8 3.7-10.7 3.6z"/>
			</g>
		</g>
		<g id="&lt;Group&gt;">
			<path id="&lt;Path&gt;" class="s46" d="m556.2 164.9c-1 8.5-8.7 14.5-17.1 13.5-8.4-0.9-14.5-8.6-13.5-17 1-8.5 8.6-14.5 17.1-13.5 8.4 1 14.5 8.6 13.5 17z"/>
			<path id="&lt;Path&gt;" class="s46" d="m599.8 170.1c-1 8.4-8.6 14.4-17.1 13.4-8.4-0.9-14.4-8.6-13.5-17 1-8.5 8.7-14.5 17.1-13.5 8.5 1 14.5 8.6 13.5 17.1z"/>
			<path id="&lt;Path&gt;" class="s46" d="m556.2 164.1c4.2-2.3 10.4-1.7 13.3 1.4"/>
			<path id="&lt;Path&gt;" class="s46" d="m599.8 170.1l12.2 2.7"/>
		</g>
		<path id="&lt;Path&gt;" class="s16" d="m623.2 171.9c3.1 2.6 4.5 6.8 3.6 10.8-1 4.3-5 7.8-8.7 9.9-4.4 2.5-16.6 4.1-17.3-3.2-0.4-4.3 3.5-10 6.1-13.1 4-4.6 10.6-9.1 16.3-4.4z"/>
		<g id="&lt;Group&gt;">
			<g id="&lt;Group&gt;">
				<g id="&lt;Group&gt;">
					<g id="&lt;Group&gt;">
						<g id="&lt;Group&gt;">
							<path id="&lt;Path&gt;" class="s3" d="m442.6 69.7c0.9-1.2 2.2-1.8 3.6-2.1 1.3-0.3 2.7-0.3 4 0 1.3 0.3 2.6 0.9 3.7 1.7 1 0.8 2 1.9 2.5 3.3-1.5-0.1-2.7-0.3-3.8-0.4q-1.7-0.3-3.3-0.7c-1-0.2-2.1-0.5-3.1-0.8-1.1-0.3-2.2-0.6-3.6-1z"/>
						</g>
					</g>
				</g>
				<path id="&lt;Path&gt;" class="s41" d="m460.2 95.4c-0.2 2.7-3.9 4.7-8.3 4.5-4.5-0.2-8-2.6-7.9-5.2 0.2-2.7 3.9-4.7 8.3-4.4 4.5 0.2 8 2.5 7.9 5.1z"/>
				<path id="&lt;Path&gt;" class="s42" d="m443 81.3c-0.1 3 1.4 5.5 3.2 5.6 1.9 0.1 3.6-2.3 3.7-5.3 0.1-3-1.3-5.5-3.2-5.6-1.9-0.1-3.5 2.3-3.7 5.3z"/>
				<g id="&lt;Group&gt;">
					<g id="&lt;Group&gt;">
						<g id="&lt;Group&gt;">
							<path id="&lt;Path&gt;" class="s3" d="m410 67.9c-1.4 0.3-2.5 0.5-3.7 0.7-1.1 0.2-2.1 0.4-3.2 0.5q-1.6 0.3-3.3 0.4c-1.1 0-2.3 0.1-3.8 0 0.6-1.4 1.7-2.3 2.8-3 1.2-0.7 2.5-1.2 3.8-1.3 1.3-0.2 2.7-0.1 4 0.3 1.3 0.4 2.6 1.2 3.4 2.4z"/>
						</g>
					</g>
				</g>
				<path id="&lt;Path&gt;" class="s41" d="m392.6 92c-0.1 2.7 2.8 5 6.6 5.2 3.8 0.1 6.9-1.9 7-4.5 0.2-2.7-2.8-5-6.5-5.1-3.8-0.2-7 1.8-7.1 4.4z"/>
				<path id="&lt;Path&gt;" class="s42" d="m408.4 79.2c-0.1 3-1.7 5.3-3.6 5.2-1.9-0.1-3.3-2.6-3.2-5.6 0.1-3 1.7-5.4 3.6-5.3 1.9 0.1 3.3 2.7 3.2 5.7z"/>
				<path id="&lt;Path&gt;" class="s28" d="m429.6 97.7c-0.1 1.2-2.2 2.1-4.8 1.9-2.6-0.1-4.6-1.3-4.5-2.5 0.1-1.2 2.2-2 4.8-1.9 2.6 0.2 4.6 1.3 4.5 2.5z"/>
			</g>
			<g id="&lt;Clip Group&gt;">
				<path id="&lt;Path&gt;" class="s19" d="m426.4 120.6c-8.2 0.2-15.5-5.1-16.8-13.4q0-0.2 0-0.5-0.1-0.2-0.1-0.5c0 0 5.2 2.7 16.2 3.3 11 0.5 15.8-1.8 15.8-1.8-0.1 0.1-0.2 1-0.3 1.1-0.8 2.9-2 5.5-4.3 7.6-2.8 2.7-6.6 4.1-10.5 4.2z"/>
			</g>
		</g>
		<g id="&lt;Group&gt;">
			<g id="&lt;Group&gt;">
				<g id="&lt;Group&gt;">
					<g id="&lt;Group&gt;">
						<g id="&lt;Group&gt;">
							<path id="&lt;Path&gt;" class="s47" d="m148.6 142c-1.9 0.5-3.6 0.8-5.3 1.2q-2.4 0.4-4.9 0.8-2.4 0.5-5 0.8c-1.7 0.2-3.4 0.4-5.3 0.4 1.2-1.5 2.8-2.6 4.4-3.4 1.7-0.9 3.5-1.4 5.3-1.7 1.8-0.3 3.7-0.3 5.5-0.1 1.8 0.3 3.7 0.9 5.3 2z"/>
						</g>
					</g>
				</g>
				<path id="&lt;Path&gt;" class="s41" d="m126.2 168c0.1 2.7 3.8 4.6 8.3 4.4 4.4-0.2 7.9-2.5 7.8-5.1-0.1-2.7-3.8-4.7-8.3-4.5-4.4 0.2-7.9 2.6-7.8 5.2z"/>
				<path id="&lt;Path&gt;" class="s42" d="m143.3 153.8c0.1 3-1.3 5.6-3.2 5.7-1.9 0-3.5-2.3-3.6-5.3-0.2-3 1.3-5.5 3.2-5.6 1.8-0.1 3.5 2.2 3.6 5.2z"/>
				<g id="&lt;Group&gt;">
					<g id="&lt;Group&gt;">
						<g id="&lt;Group&gt;">
							<path id="&lt;Path&gt;" class="s47" d="m173 140.6c1.1-1.2 2.6-2 4.2-2.4 1.5-0.4 3.2-0.5 4.8-0.4 1.5 0.1 3.1 0.6 4.6 1.2 1.4 0.7 2.8 1.7 3.7 3.1-1.7 0.1-3.1 0-4.5 0q-2.2-0.1-4.2-0.3-2.1-0.2-4.2-0.5c-1.4-0.2-2.8-0.4-4.4-0.7z"/>
						</g>
					</g>
				</g>
				<path id="&lt;Path&gt;" class="s41" d="m193.7 164.6c0.2 2.7-2.8 5-6.6 5.1-3.7 0.2-6.9-1.8-7-4.5-0.1-2.6 2.8-4.9 6.6-5.1 3.8-0.1 6.9 1.9 7 4.5z"/>
				<path id="&lt;Path&gt;" class="s42" d="m177.9 151.7c0.2 3 1.8 5.4 3.7 5.3 1.9-0.1 3.3-2.6 3.2-5.6-0.1-3-1.8-5.4-3.7-5.3-1.9 0.1-3.3 2.6-3.2 5.6z"/>
				<path id="&lt;Path&gt;" class="s28" d="m156.7 170.3c0.1 1.2 2.3 2.1 4.8 1.9 2.6-0.2 4.7-1.3 4.6-2.5-0.1-1.2-2.3-2.1-4.8-1.9-2.6 0.2-4.7 1.3-4.6 2.5z"/>
			</g>
			<g id="&lt;Clip Group&gt;">
				<path id="&lt;Path&gt;" class="s19" d="m159.9 193.1c8.2 0.3 15.5-5.1 16.8-13.3q0.1-0.3 0.1-0.5 0-0.3 0.1-0.5c0 0-5.2 2.7-16.3 3.2-10.9 0.5-15.7-1.7-15.8-1.7 0.2 0 0.3 0.9 0.3 1.1 0.9 2.9 2.1 5.5 4.3 7.6 2.9 2.7 6.7 4 10.5 4.1z"/>
			</g>
		</g>
		<g id="&lt;Group&gt;">
			<g id="&lt;Group&gt;">
				<g id="&lt;Group&gt;">
					<g id="&lt;Group&gt;">
						<path id="&lt;Path&gt;" class="s40" d="m88.9 393.1c0.7-1.1 1.9-1.8 3-2.2 1.2-0.4 2.4-0.4 3.6-0.2 1.1 0.2 2.3 0.6 3.2 1.3 1 0.7 1.9 1.6 2.3 2.8-1.3 0.2-2.3 0.1-3.3 0.1q-1.5-0.1-2.9-0.3c-0.9-0.1-1.8-0.3-2.7-0.6-0.9-0.2-1.9-0.5-3.2-0.9z"/>
					</g>
				</g>
				<path id="&lt;Path&gt;" class="s41" d="m103.8 414.4c0.1 2.4-2.6 4.3-6 4.3-3.4 0.1-6.1-1.7-6.2-4 0-2.3 2.7-4.2 6.1-4.3 3.3-0.1 6.1 1.7 6.1 4z"/>
				<path id="&lt;Path&gt;" class="s42" d="m90 403.1c0.1 2.6 1.5 4.7 3.1 4.7 1.6 0 2.9-2.2 2.9-4.8-0.1-2.6-1.5-4.7-3.1-4.6-1.7 0-3 2.1-2.9 4.7z"/>
				<g id="&lt;Group&gt;">
					<g id="&lt;Group&gt;">
						<path id="&lt;Path&gt;" class="s40" d="m60.7 393.4c-1.3 0.5-2.2 0.8-3.2 1.1-0.9 0.3-1.8 0.5-2.7 0.7q-1.3 0.2-2.8 0.4c-1 0-2 0.1-3.4 0 0.4-1.3 1.3-2.2 2.2-2.9 1-0.7 2.1-1.2 3.2-1.5 1.2-0.2 2.4-0.2 3.6 0.2 1.2 0.3 2.3 0.9 3.1 2z"/>
					</g>
				</g>
				<path id="&lt;Path&gt;" class="s41" d="m44.8 415.4c0.1 2.3 3.2 4.1 7.1 4 3.9-0.1 7-2 6.9-4.3 0-2.3-3.2-4.1-7.1-4-3.8 0-6.9 2-6.9 4.3z"/>
				<path id="&lt;Path&gt;" class="s42" d="m59.9 403.3c0.1 2.6-1.2 4.7-2.8 4.7-1.7 0.1-3.1-2-3.1-4.6-0.1-2.6 1.2-4.8 2.8-4.8 1.7 0 3.1 2.1 3.1 4.7z"/>
				<path id="&lt;Path&gt;" class="s28" d="m79.3 414.1c0 1.1-1.8 1.9-4 1.9-2.3 0-4.1-0.8-4.1-1.9 0-1 1.8-1.9 4.1-1.9 2.2 0 4 0.9 4 1.9z"/>
			</g>
			<g id="&lt;Clip Group&gt;">
				<g id="&lt;Group&gt;">
					<path id="&lt;Path&gt;" class="s43" d="m83.7 423.7c-2.5 1-5.5 1.2-8.2 1.3q-3.7 0.1-7.4-0.6c-1.8-0.4-4-1-4.2-3.2-0.2-1.2 0.5-2.2 1.8-2.2l19-0.4c1.1 0 2 0.8 2 1.9 0 1.6-1.4 2.6-3 3.2z"/>
					<path id="&lt;Path&gt;" class="s44" d="m81.6 435.4l-12.2 0.3c-1.6 0-3-1.3-3-2.9 0-1.2 0.7-2 1.7-2.6 1.1-0.6 2.4-0.9 3.7-1.1 2.9-0.6 5.8-0.4 8.6 0.1 1.7 0.4 4.1 1.1 4.1 3.2 0.1 1.7-1.2 3-2.9 3z"/>
				</g>
				<path id="&lt;Path&gt;" class="s45" d="m76.8 432.1c-7.1 0.7-13.7-3.6-15.3-10.6q0-0.2-0.1-0.4 0-0.3-0.1-0.5c0 0 4.7 2.1 14.2 1.9 9.6-0.2 13.6-2.4 13.6-2.4-0.1 0-0.1 0.8-0.2 0.9-0.5 2.6-1.4 4.9-3.2 6.9-2.3 2.5-5.6 3.9-8.9 4.2z"/>
			</g>
		</g>
		<g id="&lt;Group&gt;">
			<g id="&lt;Group&gt;">
				<g id="&lt;Group&gt;">
					<g id="&lt;Group&gt;">
						<path id="&lt;Path&gt;" class="s40" d="m623.2 249.7c-1.3 0-2.3 0-3.3 0-0.9-0.1-1.8-0.1-2.8-0.2q-1.3-0.2-2.7-0.5c-1-0.2-2-0.5-3.3-1 0.8-1.1 1.9-1.7 3-2.1 1.2-0.4 2.4-0.5 3.5-0.4 1.2 0.2 2.4 0.5 3.4 1.2 1 0.7 1.9 1.6 2.2 3z"/>
					</g>
				</g>
				<path id="&lt;Path&gt;" class="s41" d="m603.1 266.1c-0.7 2.2 1.4 4.8 4.6 5.8 3.2 1 6.4 0 7.1-2.2 0.6-2.2-1.4-4.8-4.7-5.8-3.2-1-6.3 0-7 2.2z"/>
				<path id="&lt;Path&gt;" class="s42" d="m619.5 259c-0.8 2.5-2.7 4.1-4.3 3.6-1.5-0.4-2.2-2.8-1.4-5.3 0.8-2.5 2.7-4.2 4.2-3.7 1.6 0.5 2.3 2.9 1.5 5.4z"/>
				<g id="&lt;Group&gt;">
					<g id="&lt;Group&gt;">
						<path id="&lt;Path&gt;" class="s40" d="m650.4 257.7c1-0.9 2.3-1.2 3.5-1.2 1.2 0 2.4 0.3 3.4 0.9 1.1 0.5 2 1.3 2.7 2.2 0.8 1 1.3 2.1 1.3 3.5-1.3-0.3-2.3-0.7-3.2-1q-1.4-0.5-2.6-1.2c-0.8-0.4-1.6-0.8-2.4-1.4-0.8-0.5-1.7-1-2.7-1.8z"/>
					</g>
				</g>
				<path id="&lt;Path&gt;" class="s41" d="m659.6 283.1c-0.7 2.2-4.2 3.1-7.9 1.9-3.7-1.1-6.2-3.8-5.5-6 0.7-2.2 4.2-3.1 7.9-1.9 3.7 1.1 6.2 3.8 5.5 6z"/>
				<path id="&lt;Path&gt;" class="s42" d="m648.4 267.3c-0.8 2.5-0.2 4.9 1.4 5.4 1.6 0.5 3.5-1.2 4.3-3.6 0.7-2.5 0.1-4.9-1.5-5.4-1.6-0.5-3.5 1.2-4.2 3.6z"/>
				<path id="&lt;Path&gt;" class="s28" d="m626.7 272.5c-0.2 1 1.3 2.3 3.4 2.9 2.2 0.7 4.2 0.3 4.5-0.7 0.2-1-1.3-2.3-3.4-2.9-2.2-0.6-4.2-0.3-4.5 0.7z"/>
			</g>
			<g id="&lt;Clip Group&gt;">
				<g id="&lt;Group&gt;">
					<path id="&lt;Path&gt;" class="s43" d="m619.9 280.5c2.2 1.7 5 2.7 7.6 3.5q3.5 1.1 7.2 1.4c1.9 0.2 4.1 0.2 5-1.9 0.5-1.1 0.1-2.3-1.2-2.7l-18.1-5.5c-1.1-0.3-2.2 0.3-2.5 1.3-0.5 1.6 0.6 2.9 2 3.9z"/>
					<path id="&lt;Path&gt;" class="s44" d="m618.7 292.3l11.7 3.6c1.6 0.5 3.2-0.4 3.7-1.9 0.3-1.1-0.1-2.2-0.9-3-0.9-0.9-2.1-1.5-3.3-2.1-2.6-1.3-5.4-2-8.3-2.2-1.8-0.1-4.2-0.1-4.8 2-0.5 1.5 0.4 3.2 1.9 3.6z"/>
				</g>
				<path id="&lt;Path&gt;" class="s45" d="m624.3 290.4c6.6 2.6 14.1 0.4 17.6-6q0.1-0.2 0.2-0.4 0.1-0.1 0.2-0.3c0 0-5.1 0.7-14.2-2.1-9.1-2.8-12.4-6-12.4-6.1 0.1 0.1-0.1 0.9-0.1 1-0.1 2.7 0.1 5.1 1.3 7.5 1.5 3 4.3 5.2 7.4 6.4z"/>
			</g>
		</g>
		<g id="&lt;Group&gt;">
			<path id="&lt;Path&gt;" class="s48" d="m474.9 355c1.2 6.8 4.3 13.2 8.9 18.4 2 2.3 4.4 4.3 7.2 5.7 2.7 1.3 6 1.8 8.9 1"/>
		</g>
		<g id="&lt;Group&gt;">
			<path id="&lt;Path&gt;" class="s49" d="m385.9 372.2c2.7 0.5 5.4-0.3 7.9-1.4 6-2.6 11.4-7.7 12.6-14.2"/>
		</g>
		<path id="&lt;Path&gt;" class="s31" d="m489.6 218.4h-31v-10.1h31z"/>
		<g id="&lt;Group&gt;">
			<path id="&lt;Path&gt;" class="s50" d="m354.8 273.7c0.5 1.9 1.2 3.2 2 4.5 0.7 1.3 1.6 2.5 2.6 3.6q1.5 1.7 3.2 3.2c1.2 1 2.4 2 4 3-1.8 0.7-3.8 0.4-5.6-0.3-1.8-0.7-3.4-1.8-4.6-3.3-1.2-1.4-2.2-3.2-2.6-5.1-0.4-1.9-0.2-4 1-5.6z"/>
		</g>
		<g id="&lt;Group&gt;">
			<path id="&lt;Path&gt;" class="s51" d="m381.6 280.9c-0.9 0.8-2.2 0.8-3.2 0.5-1.1-0.4-2-1.1-2.6-1.9-0.6-0.9-1-1.9-1-2.9 0-1.1 0.3-2.3 1.2-3 0.7 0.9 1.3 1.4 1.8 2 0.5 0.5 0.9 1 1.2 1.5 0.4 0.6 0.7 1.1 1.1 1.7 0.3 0.6 0.7 1.2 1.5 2.1z"/>
		</g>
		<g id="&lt;Group&gt;">
			<path id="&lt;Path&gt;" class="s51" d="m371.1 267c-0.9 0.8-2.2 0.8-3.2 0.5-1.1-0.3-2-1-2.6-1.9-0.6-0.8-1-1.8-1-2.9 0-1.1 0.3-2.2 1.2-3 0.8 0.9 1.3 1.5 1.8 2 0.5 0.6 0.9 1.1 1.3 1.6 0.3 0.5 0.7 1 1 1.6 0.4 0.6 0.7 1.2 1.5 2.1z"/>
		</g>
		<path id="&lt;Path&gt;" class="s52" d="m103.5 437.9c14.6 1 29.4-8.6 34.5-22.4"/>
		<path id="&lt;Path&gt;" class="s53" d="m211.2 412.1c1.5 4.2 3.6 8.3 6.2 11.9 1.5 2.2 3.2 4.2 5.5 5.6 2.2 1.4 5 2 7.5 1.2"/>
		<g id="&lt;Group&gt;">
			<path id="&lt;Path&gt;" class="s28" d="m137 130.1c7-1.9 14.2-2.8 21.4-3.3 7.2-0.4 14.4-0.3 21.6 0.8-7.2 0.5-14.4 0.8-21.5 1.2-7.2 0.4-14.3 1-21.5 1.3z"/>
		</g>
		<g id="&lt;Group&gt;">
			<path id="&lt;Path&gt;" class="s28" d="m143 123.3c4.9-1.9 10.1-2.9 15.3-3.3 5.2-0.4 10.5-0.3 15.7 0.7-5.2 0.6-10.4 0.8-15.5 1.3-5.2 0.4-10.3 0.9-15.5 1.3z"/>
		</g>
		<path id="&lt;Path&gt;" class="s54" d="m614 194.7c0 2.8-2.3 5.1-5.1 5.1-2.8 0-5.1-2.3-5.1-5.1 0-2.8 2.3-5.1 5.1-5.1 2.8 0 5.1 2.3 5.1 5.1z"/>
	</g>
	<g id="DESIGNED BY FREEPIK">
		<g id="&lt;Group&gt;">
			<g id="&lt;Group&gt;">
				<g id="&lt;Group&gt;">
					<path id="&lt;Path&gt;" class="s55" d="m377.2 763.1q-1.3 1.4-2.3 2.9l-0.9-0.4c-0.1-0.6-0.7-1-1.3-1-0.7 0.1-1.1 0.7-1.1 1.4 0.1 0.6 0.7 1.1 1.4 1q0.2 0 0.3-0.1l0.9 0.5q-0.7 1.7-1 3.5l1.5 0.2c0.4-2.6 1.7-5 3.5-6.9z"/>
					<path id="&lt;Path&gt;" class="s55" d="m388.1 758.5q-0.5 0-1 0.1l-0.1-1.3c0.3-0.3 0.6-0.8 0.5-1.3-0.1-0.8-0.8-1.3-1.6-1.2-0.8 0.1-1.3 0.8-1.3 1.6 0.1 0.5 0.4 0.9 0.9 1.1l0.1 1.2q-2.1 0.4-4.1 1.3l0.6 1.4q2.9-1.4 6-1.4 1.5 0 3 0.4l0.3-1.5q-1.6-0.4-3.3-0.4z"/>
					<path id="&lt;Path&gt;" class="s55" d="m401.3 763.6c0.7-0.1 1.2-0.7 1.1-1.3-0.1-0.7-0.7-1.2-1.4-1.1-0.6 0.1-1 0.6-1 1.2l-0.9 0.8q-1.2-1.3-2.8-2.3l-0.8 1.3c2.3 1.4 4.1 3.4 5.2 5.8l1.3-0.6q-0.7-1.7-1.9-3.1l0.9-0.7q0.1 0 0.3 0z"/>
					<path id="&lt;Path&gt;" class="s55" d="m387 778.9q-1.1 0.1-2.3 0.1c-1.7 0-3.4-0.1-4.9-0.3-0.8-0.2-1.7-0.4-2.6-0.6 2.1 3.7 6.2 6.2 10.8 6.2 5.7 0 10.5-3.8 11.9-9q-2.1 1.4-4.9 2.3c-2.4 0.7-5.1 1.2-8 1.3z"/>
					<path id="&lt;Compound Path&gt;" fill-rule="evenodd" class="s55" d="m400.2 772q0.1 0.5 0.1 1.1c-2.8 2.4-7.6 4-13.4 4.3-5.2 0.3-9.3-0.5-10.7-1.4q-0.2-1.3-0.2-2.6c0-6.5 5.4-11.8 12.1-11.8 6.1 0 11.3 4.4 12.1 10.4zm-12.7-1.1c0-2.1-1.7-3.7-3.7-3.7-2 0-3.7 1.6-3.7 3.7 0 2 1.7 3.7 3.7 3.7 2 0 3.7-1.7 3.7-3.7zm8.5-0.8c0-1.5-1.2-2.8-2.7-2.8-1.5 0-2.7 1.3-2.7 2.8 0 1.5 1.2 2.7 2.7 2.7 1.5 0 2.7-1.2 2.7-2.7z"/>
				</g>
				<path id="&lt;Compound Path&gt;" class="s55" d="m420.1 765.3c-0.6-0.2-1.6-0.6-2.7-0.5-1.1 0.2-1.7 0.7-1.7 2v1.8h4.4v3.4h-4.4v10.9h-3.9v-10.9h-2.7v-3.4h2.7v-1.8c0-3.4 1.8-5.6 5.2-5.6 1.2 0 2.3 0.3 3.1 0.6z"/>
				<path id="&lt;Compound Path&gt;" class="s55" d="m429.5 772q-0.5-0.1-1-0.1c-1.8 0-3 1.1-3 3.2v7.8h-3.9v-14.3h3.8v1.5c0.9-1.3 2.2-1.9 4-1.9 0.8 0 1.7 0.2 2.2 0.7z"/>
				<path id="&lt;Compound Path&gt;" fill-rule="evenodd" class="s55" d="m444.9 775.7c0 0.5-0.1 1-0.1 1.3h-10.2c0.4 2.1 1.9 3 3.7 3 1.3 0 2.6-0.5 3.6-1.4l2.3 2.5c-1.6 1.5-3.7 2.2-6.1 2.2-4.4 0-7.4-3-7.4-7.5 0-4.5 2.9-7.6 7.2-7.6 4.1 0 7 3 7 7.5zm-10.3-1.3h6.4c-0.4-1.9-1.5-2.9-3.1-2.9-1.8 0-2.9 1.1-3.3 2.9z"/>
				<path id="&lt;Compound Path&gt;" fill-rule="evenodd" class="s55" d="m460.2 775.7c0 0.5 0 1-0.1 1.3h-10.2c0.5 2.1 1.9 3 3.7 3 1.3 0 2.6-0.5 3.7-1.4l2.2 2.5c-1.6 1.5-3.7 2.2-6.1 2.2-4.4 0-7.4-3-7.4-7.5 0-4.5 2.9-7.6 7.2-7.6 4.1 0 7 3 7 7.5zm-10.2-1.3h6.3c-0.4-1.9-1.5-2.9-3.1-2.9-1.8 0-2.9 1.1-3.2 2.9z"/>
				<path id="&lt;Compound Path&gt;" fill-rule="evenodd" class="s55" d="m476.9 775.7c0 4.3-3 7.6-7 7.6-1.9 0-3.3-0.8-4.2-1.9v7.4h-3.8v-20.2h3.7v1.5c1-1.1 2.3-1.9 4.3-1.9 4 0 7 3.2 7 7.5zm-11.4 0c0 2.3 1.5 4 3.7 4 2.3 0 3.7-1.8 3.7-4 0-2.2-1.4-3.9-3.7-3.9-2.2 0-3.7 1.7-3.7 3.9z"/>
				<path id="&lt;Compound Path&gt;" class="s55" d="m483.1 763.9c0 1.4-1.1 2.4-2.5 2.4-1.4 0-2.4-1-2.4-2.4 0-1.4 1-2.5 2.4-2.5 1.4 0 2.5 1.1 2.5 2.5zm-0.5 19h-3.9v-14.3h3.9z"/>
				<path id="&lt;Compound Path&gt;" class="s55" d="m489 773.7l5.4-5.1h4.7l-6.9 6.7 7 7.6h-4.8l-5.4-5.8v5.8h-3.9v-21.3h3.9z"/>
			</g>
			<g id="&lt;Group&gt;">
				<path id="&lt;Compound Path&gt;" fill-rule="evenodd" class="s55" d="m225.8 782.8v-2.1c-1.1 1.4-2.8 2.4-4.8 2.4-3.7 0-6.3-2.8-6.3-7.4 0-4.5 2.6-7.4 6.3-7.4 1.9 0 3.6 0.9 4.8 2.5v-7.6h2.2v19.6zm0-3.9v-6.4c-0.8-1.2-2.5-2.3-4.3-2.3-2.8 0-4.5 2.4-4.5 5.5 0 3.2 1.7 5.5 4.5 5.5 1.8 0 3.5-1 4.3-2.3z"/>
				<path id="&lt;Compound Path&gt;" fill-rule="evenodd" class="s55" d="m230.8 775.7c0-4.1 2.9-7.4 7-7.4 4.3 0 6.8 3.3 6.8 7.6v0.5h-11.5c0.2 2.7 2.1 4.9 5.1 4.9 1.6 0 3.3-0.6 4.4-1.8l1 1.5c-1.4 1.4-3.3 2.1-5.6 2.1-4.2 0-7.2-3-7.2-7.4zm7-5.6c-3.1 0-4.6 2.5-4.7 4.7h9.3c0-2.1-1.4-4.7-4.6-4.7z"/>
				<path id="&lt;Compound Path&gt;" class="s55" d="m246.2 780.9l1.1-1.6c0.9 1.1 2.7 2 4.7 2 2.1 0 3.3-1 3.3-2.4 0-3.4-8.8-1.3-8.8-6.6 0-2.1 1.9-4 5.3-4 2.4 0 4.1 0.9 5.3 2l-1.1 1.6c-0.8-1.1-2.4-1.8-4.2-1.8-1.9 0-3.1 0.9-3.1 2.2 0 3.1 8.7 1 8.7 6.6 0 2.3-1.9 4.2-5.5 4.2-2.3 0-4.3-0.7-5.7-2.2z"/>
				<path id="&lt;Compound Path&gt;" class="s55" d="m259.9 765.1c0-0.8 0.7-1.5 1.5-1.5 0.8 0 1.5 0.7 1.5 1.5 0 0.9-0.7 1.5-1.5 1.5-0.8 0-1.5-0.6-1.5-1.5zm0.4 17.7v-14.2h2.2v14.2z"/>
				<path id="&lt;Compound Path&gt;" fill-rule="evenodd" class="s55" d="m266.1 786.4l1.1-1.6c1.2 1.4 2.6 1.9 4.6 1.9 2.4 0 4.6-1.1 4.6-4.2v-2.1c-1.1 1.5-2.8 2.6-4.8 2.6-3.7 0-6.3-2.8-6.3-7.4 0-4.5 2.6-7.3 6.3-7.3 1.9 0 3.6 0.9 4.8 2.5v-2.2h2.2v13.8c0 4.7-3.3 6.1-6.8 6.1-2.4 0-4-0.4-5.7-2.1zm10.3-7.7v-6.2c-0.8-1.2-2.5-2.3-4.3-2.3-2.8 0-4.5 2.3-4.5 5.4 0 3.1 1.7 5.4 4.5 5.4 1.8 0 3.5-1.1 4.3-2.3z"/>
				<path id="&lt;Compound Path&gt;" class="s55" d="m291.8 782.8v-9.3c0-2.5-1.3-3.3-3.2-3.3-1.7 0-3.4 1.1-4.2 2.2v10.4h-2.2v-14.2h2.2v2.1c1-1.2 2.9-2.4 5.1-2.4 2.9 0 4.5 1.5 4.5 4.5v10z"/>
				<path id="&lt;Compound Path&gt;" fill-rule="evenodd" class="s55" d="m296.8 775.7c0-4.1 2.9-7.4 7-7.4 4.3 0 6.8 3.3 6.8 7.6v0.5h-11.5c0.2 2.7 2.1 4.9 5.1 4.9 1.6 0 3.3-0.6 4.4-1.8l1 1.5c-1.4 1.4-3.3 2.1-5.6 2.1-4.2 0-7.2-3-7.2-7.4zm7-5.6c-3.1 0-4.6 2.5-4.7 4.7h9.3c0-2.1-1.4-4.7-4.6-4.7z"/>
				<path id="&lt;Compound Path&gt;" fill-rule="evenodd" class="s55" d="m323.6 782.8v-2.1c-1 1.4-2.7 2.4-4.7 2.4-3.7 0-6.3-2.8-6.3-7.4 0-4.5 2.5-7.4 6.3-7.4 1.9 0 3.6 0.9 4.7 2.5v-7.6h2.2v19.6zm0-3.9v-6.4c-0.7-1.2-2.4-2.3-4.2-2.3-2.8 0-4.5 2.4-4.5 5.5 0 3.2 1.7 5.5 4.5 5.5 1.8 0 3.5-1 4.2-2.3z"/>
				<path id="&lt;Compound Path&gt;" fill-rule="evenodd" class="s55" d="m336.3 782.8v-19.6h2.2v7.6c1.2-1.6 2.9-2.5 4.8-2.5 3.7 0 6.3 2.9 6.3 7.4 0 4.6-2.6 7.4-6.3 7.4-2 0-3.7-1-4.8-2.4v2.1zm6.4-1.6c2.9 0 4.6-2.3 4.6-5.5 0-3.1-1.7-5.5-4.6-5.5-1.7 0-3.4 1.1-4.2 2.3v6.4c0.8 1.3 2.5 2.3 4.2 2.3z"/>
				<path id="&lt;Compound Path&gt;" class="s55" d="m352 786.3c0.3 0.2 0.9 0.3 1.2 0.3 1 0 1.6-0.4 2.1-1.5l1-2.2-6-14.3h2.4l4.7 11.6 4.7-11.6h2.4l-7.1 17c-0.8 2.1-2.3 2.9-4.1 2.9-0.5 0-1.2-0.1-1.6-0.2z"/>
			</g>
		</g>
	</g>
</svg>