<svg version="1.2" xmlns="http://www.w3.org/2000/svg" viewBox="0 0 1000 1000" width="1000" height="1000">
	<title>5732546-ai</title>
	<style>
		.s0 { fill: #92e3a9 } 
		.s1 { opacity: .7;fill: #ffffff } 
		.s2 { fill: none;stroke: #263238;stroke-linecap: round;stroke-linejoin: round;stroke-width: 2 } 
		.s3 { fill: #92e3a9;stroke: #263238;stroke-linecap: round;stroke-linejoin: round;stroke-width: 2 } 
		.s4 { fill: #ffffff;stroke: #263238;stroke-linecap: round;stroke-linejoin: round;stroke-width: 2 } 
		.s5 { fill: #263238;stroke: #263238;stroke-linecap: round;stroke-linejoin: round;stroke-width: 2 } 
		.s6 { fill: none;stroke: #8a8a8a;stroke-linecap: round;stroke-linejoin: round;stroke-width: 2 } 
		.s7 { fill: #b0b0b0;stroke: #263238;stroke-linecap: round;stroke-linejoin: round;stroke-width: 2 } 
		.s8 { fill: #263238 } 
	</style>
	<g id="Background Simple">
		<g id="&lt;Group&gt;">
			<path id="&lt;Path&gt;" class="s0" d="m905.1 441.1c0 0-78.5-248.6-249.1-325.4-150.6-67.8-319.1-38-389.6 117.4-25.1 55.4-57.8 115.2-96.9 160.7-43.9 51.1-102.7 86.6-104.5 210.4-1.8 123.7 107.4 269.9 210.1 301.5 102.6 31.6 227.9-31.7 333.7-91.8 105.8-60.1 383.7-61.1 296.3-372.8z"/>
			<path id="&lt;Path&gt;" class="s1" d="m905.1 441.1c0 0-78.5-248.6-249.1-325.4-150.6-67.8-319.1-38-389.6 117.4-25.1 55.4-57.8 115.2-96.9 160.7-43.9 51.1-102.7 86.6-104.5 210.4-1.8 123.7 107.4 269.9 210.1 301.5 102.6 31.6 227.9-31.7 333.7-91.8 105.8-60.1 383.7-61.1 296.3-372.8z"/>
		</g>
	</g>
	<g id="Floor 3">
		<path id="&lt;Path&gt;" class="s2" d="m60.1 423h593.4"/>
	</g>
	<g id="Floor 2">
		<path id="&lt;Path&gt;" class="s2" d="m441.1 739.3h541.9"/>
	</g>
	<g id="Floor 1">
		<path id="&lt;Path&gt;" class="s2" d="m17.7 888.3h541.9"/>
	</g>
	<g id="Hurdle">
		<g id="&lt;Group&gt;">
			<path id="&lt;Path&gt;" class="s3" d="m814.2 739.3h-170v-8.4h170z"/>
			<path id="&lt;Path&gt;" class="s4" d="m654.8 739.3h-10.6v-197.5h10.6z"/>
		</g>
	</g>
	<g id="Character 1">
		<g id="&lt;Group&gt;">
			<g id="&lt;Group&gt;">
				<path id="&lt;Path&gt;" class="s4" d="m426.9 613.4c0 0 2.3 9.8 11.1 20.3 8.8 10.5 17.3 23.4 17.3 23.4 0 0 30.1-11.9 35.9-13.9 5.8-2.1 29.8-13.2 29.8-13.2 0 0 2.4-14.9 5.4-14.9 3.1 0 11.9-2.1 11.9-2.1 0 0 8.1 0.7 10.1 2.4 2.1 1.7 1.7 4.1 1.7 8.8 0 4.8-1 13.6-2 14.6-1 1-13.6 4.7-16.6 5.7-3.1 1-7.8 1.4-8.8 1.7-1 0.4-15.9 9.2-23 15.9-7.1 6.8-27.5 17.3-41 22.4-13.6 5.1-17.3 5.7-19 1.3-1.7-4.4-10.1-13.5-10.1-13.5 0 0-21.7-21-26.4-27.8-4.8-6.7-8.8-16.9-8.8-16.9 0 0 11.5-17.6 16.2-23.7 4.8-6.1 16.3 9.5 16.3 9.5z"/>
				<path id="&lt;Path&gt;" class="s5" d="m413 613.1l-10.6 28.3-6.6-9.5z"/>
				<g id="&lt;Group&gt;">
					<path id="&lt;Path&gt;" class="s2" d="m531.2 618.5c0 0-1.1 10.1 0.6 10.5 1.7 0.3 4.8-1.4 5.1-2.8 0.3-1.3 1.4-13.2 1.4-13.2"/>
					<path id="&lt;Path&gt;" class="s2" d="m537.2 637.4l-0.3-11.2 11.2 0.7"/>
					<path id="&lt;Path&gt;" class="s2" d="m537.6 620.5h9.5"/>
					<path id="&lt;Path&gt;" class="s2" d="m537.6 632.3l9.1-0.6"/>
					<path id="&lt;Path&gt;" class="s2" d="m533.2 631.3c0 0-8.1 3.7-8.5 5.4-0.3 1.7-0.3 1.7-0.3 1.7"/>
				</g>
			</g>
			<path id="&lt;Path&gt;" class="s3" d="m120.5 888.3c0 0-10-3-11.3-29.1h21.6c0 0-0.4 23.3 12.1 29.1z"/>
			<g id="&lt;Group&gt;">
				<path id="&lt;Path&gt;" class="s4" d="m226.7 663.2c0 0-8.1 30.8-11.5 45.7-3.4 14.9-5.7 41.3-7.4 46.4-1.7 5-27.8 14.2-37.3 28.1-9.4 13.8-24.3 40.3-25 41.3-0.7 1-25.4 2-27.1 4.4-1.7 2.3 3.7 21.3 4.7 26.4 1 5.1 5.5 15.6 8.8 20.6 3.4 5.1 8.8 7.5 11.2 7.1 2.4-0.3 4.4 0 4.4-3.3 0-3.4-3.4-16.6-4-20.7-0.7-4.1 0.6-7.1 7.7-15.2 7.1-8.2 22.7-23.1 36.9-34.9 14.3-11.9 31.2-11.9 47.1-35.2 15.9-23.4 30.1-76.2 30.1-76.2z"/>
				<path id="&lt;Path&gt;" class="s5" d="m247.7 749.7c10.2-24.2 17.6-52 17.6-52l-38.6-34.5c0 0-8.1 30.8-11.5 45.7-1.8 8.1-3.3 19.6-4.6 29.2 6.8 4.8 19.2 11.3 37.1 11.6z"/>
				<path id="&lt;Path&gt;" class="s3" d="m147.5 879.9c0-3.4-3.4-16.6-4-20.7-0.6-3.2 0.2-5.8 4-10.8 0 0 3.4-8.2 0.7-9.2-2.7-1-2.7-1-2.7-1 0 0-3.1-3.7-3.4-10.5q-0.1-1.2-0.1-2.3c-7 0.8-22.3 1.8-23.6 3.7-1.7 2.3 3.7 21.3 4.7 26.4 1 5.1 5.5 15.6 8.8 20.6 3.4 5.1 8.8 7.5 11.2 7.1 2.4-0.3 4.4 0 4.4-3.3z"/>
			</g>
			<path id="&lt;Path&gt;" class="s4" d="m402.1 564.3c0 0-17.6-10.9-29.8-15.6-12.1-4.7-16.9-2-22.6-5.8-5.8-3.7-19.3-8.4-26.1-10.1-6.8-1.7-23.7-6.4-29.8-9.8-6.1-3.4-16.9 5.4-16.9 5.4l-49.8 48.7c0 0-20.7 16-23.4 20.4-2.7 4.4 2.7 9.4 2.7 9.4 0 0-0.3 5.5 2.4 6.8 2.7 1.4 7.8-1.7 7.8-1.7 0 0 0 2.4 2.7 2.1 2.7-0.4 6.8-2.8 10.2-7.2 3.3-4.4 3.3-18.9 3.3-18.9 0 0 30.5-20.3 38.3-21.7 7.8-1.3 25.1-9.5 25.1-9.5 0 0 12.8 7.1 19.3 9.2 6.4 2 14.5 4 14.5 4 0 0-32.8 9.5-48.4 19.3-15.6 9.9-18.6 12.2-19.3 13.9-0.7 1.7-26.4 13.9-36.6 32.5-10.1 18.6 4.1 45.1 11.5 51.8 7.5 6.8 45.8 50.1 45.8 50.1 0 0-11.6 1.4-27.1 8.9-15.6 7.4-41.7 20.6-49.1 24.3-7.5 3.8-30.2 10.2-30.8 14.6-0.7 4.4 8.4 29.4 15.2 34.5 6.8 5.1 13.2 9.5 14.2 6.5 1-3.1-2-15.3-1-22.7 1-7.5 3-15.3 3-15.3 0 0 49.1-8.8 71.8-14.5 22.7-5.8 42-11.2 50.8-20.7 8.8-9.5 7.5-9.8 6.1-18.6-1.3-8.8-44.7-65.7-44.7-65.7 0 0 9.2-13.5 12.9-17.3 3.7-3.7 30.5-8.1 35.2-8.1 4.7 0 41.3-5.4 47.4-6.4 6.1-1 26.1-18.3 31.5-32.2 5.4-13.9-3.7-27.4-7.5-32.8-3.7-5.4-8.8-7.8-8.8-7.8z"/>
			<path id="&lt;Path&gt;" class="s2" d="m330 570c0 0 6.1 12.1 18.2 15.2"/>
			<g id="&lt;Group&gt;">
				<path id="&lt;Path&gt;" class="s5" d="m291.4 668.9c0 0 5.9-8.6 10.1-14-4.6-3.7-12.6-11.5-22.3-27-8.3-13.2-12.6-21.8-14.9-27-1.2 1.1-1.8 1.7-2 2.3-0.7 1.7-26.4 13.9-36.6 32.5-10.1 18.6 4.1 45.1 11.5 51.8 3.4 3.1 13 13.6 22.6 24.2 8.4-8.6 26.5-22.9 49.9-18.1-9.7-13.4-18.3-24.7-18.3-24.7z"/>
				<path id="&lt;Path&gt;" class="s6" d="m288 664.8c0 0-13.8-20.3-24-25"/>
				<path id="&lt;Path&gt;" class="s2" d="m298.6 750.9c1.7 1.3 3.2 2.3 4 2.7"/>
				<path id="&lt;Path&gt;" class="s2" d="m283 737.6c0 0 5.1 4.6 10.2 8.9"/>
				<path id="&lt;Path&gt;" class="s3" d="m207.4 788.4c0 0-2.7-0.3-5-0.3-2.4 0-4.8 2.7-4.8 2.7 0 0-2.3-4.1-5.1-8.1-1.1-1.8-1.9-3.7-2.4-5.3-7.2 2.7-13.8 5.7-14.1 8-0.7 4.4 8.4 29.4 15.2 34.5 6.8 5.1 13.2 9.5 14.2 6.5 1-3.1-2-15.3-1-22.7 1-7.5 3-15.3 3-15.3z"/>
			</g>
			<g id="&lt;Group&gt;">
				<path id="&lt;Path&gt;" class="s3" d="m402.1 564.3c0 0-7.1-4.4-15.5-8.9 0.1 6.3-1.2 17.5-10.2 25.8-13.2 12.2-31.8 9.5-39.3 2-7.4-7.4-7.1-13.2-7.1-13.2 0 0-32.8 9.5-48.4 19.3-15.6 9.9-18.6 12.2-19.3 13.9-0.1 0.3-0.8 0.8-1.9 1.5 3.1 10.8 13.7 39.3 40.1 51.5 1.4-1.9 2.8-3.6 3.8-4.6 3.7-3.7 30.5-8.1 35.2-8.1 4.7 0 41.3-5.4 47.4-6.4 6.1-1 26.1-18.3 31.5-32.2 5.4-13.9-3.7-27.4-7.5-32.8-3.7-5.4-8.8-7.8-8.8-7.8z"/>
				<g id="&lt;Group&gt;">
					<path id="&lt;Path&gt;" class="s2" d="m335.2 634.6q3.2 0.1 6.3 0.1"/>
					<path id="&lt;Path&gt;" class="s2" d="m282.5 624.4c0 0 21.5 6.9 44.1 9.4"/>
					<path id="&lt;Path&gt;" class="s2" d="m274.5 609.6c0 0 7.4 10.8 33.2 16.5"/>
				</g>
			</g>
			<path id="&lt;Path&gt;" class="s7" d="m95.2 872.1v7.2h2.3v-4.1h15.7v4.1h2.5v-7.2z"/>
			<path id="&lt;Path&gt;" class="s7" d="m53.7 888.3h122.6v-8.8h-122.6z"/>
			<path id="&lt;Path&gt;" class="s3" d="m77.6 888.3c0 0-10-3-11.4-29.1h21.7c0 0-0.4 23.3 12.1 29.1z"/>
			<path id="&lt;Path&gt;" class="s4" d=""/>
			<g id="&lt;Group&gt;">
				<path id="&lt;Path&gt;" class="s4" d="m472.9 609.7c0 0-10.8 8.8-14.9 9.8-4 1-7.4-1.4-9.8-0.7-2.4 0.7-5.1 3.7-8.8 4.4-3.7 0.7-6.1-5.1-6.1-5.1 0 0-9.1 3.1-14.2 2.1-5.1-1.1-5.1-12.9-5.1-12.9 0 0-14.6 7.1-26.1 8.1-11.5 1-15.2-8.1-9.1-17.6 6.1-9.5 14.2-16.9 17.9-23 3.8-6.1 5.4-10.5 5.4-10.5 0 0 12.2 6.1 16 6.4 3.7 0.4 12.8-3.4 12.8-3.4 0 0 15.9-5.7 18.7-8.4 2.7-2.7 23 23.7 27 35.2 4.1 11.5-3.7 15.6-3.7 15.6z"/>
				<path id="&lt;Path&gt;" class="s5" d="m414 607.3l2.3-12.6-15.3 13.9z"/>
				<path id="&lt;Path&gt;" class="s2" d="m448.9 604.2c1-0.6 5.4 0.7 2.7 8.8"/>
				<path id="&lt;Path&gt;" class="s8" d="m444 612.4c-1.8 0-3.2-1-3.3-2.2 0-1.2 1.5-2.2 3.2-2.2 1.8-0.1 3.3 0.9 3.3 2.1 0 1.2-1.4 2.2-3.2 2.3z"/>
				<path id="&lt;Path&gt;" class="s5" d="m439.4 583.6c0 0 8.8-4.1 6.8-8.5-2.1-4.4-10.2-3.4-13.9 1-3.7 4.4-3.7 4.4-3.7 4.4 0 0-3.8-5.4-2.4-9.1 1.3-3.7 6.4-4.7 9.1-8.5 2.7-3.7 2.4-12.8 11.2-17.2 8.8-4.4 35.2 1 42.7 17.6 7.4 16.6 3 28.4 2 34.5-1 6.1-2.7 14.6-6.1 17.9-3.4 3.4-8.1 6.1-8.1 6.1l0.7-11.8c0 0-0.7 8.5-5.5 10.8-4.7 2.4-6.7 2.4-6.7 2.4 0 0 7.8-5.8 4-11.5-3.7-5.8-5.4-7.5-6.1-11.9-0.6-4.4-1-5.7-1-5.7 0 0-6.1 3.4-8.8 0-2.7-3.4-0.7-5.8-3.7-7.1-3.1-1.4-3.4-1.4-6.4-1-3.1 0.3-5.1 1.3-4.1-2.4z"/>
			</g>
			<path id="&lt;Path&gt;" class="s7" d="m53.7 888.3h47.7v-4.6h-47.7z"/>
		</g>
	</g>
	<g id="Character 3">
		<g id="&lt;Group&gt;">
			<g id="&lt;Group&gt;">
				<path id="&lt;Path&gt;" class="s4" d="m436.6 170.3c0 0 8.8 19.9 11.1 42.5 2.3 22.6 17.2 77 18.4 77.8 1.1 0.7 3.4 4.6 4.6 5.3 1.1 0.8 2.7 3.1 6.5 7.3 3.8 4.2 14.5 13.8 20.3 14.6 5.7 0.7 18 3.8 15.3 6.9-2.7 3-11.5 4.6-21.4 6.1-10 1.5-13.1-0.4-19.6-1.9-6.5-1.6-11.9-1.6-18-1.6-6.1 0-8.4-4.6-8.4-9.5 0-5 1.5-23.4 1.5-23.4 0 0-9.9-28.3-17.6-41.4-7.7-13-10-5.3-17.2-26.4-7.3-21.1-7.7-46.7-7.7-46.7z"/>
				<path id="&lt;Path&gt;" class="s5" d="m468.8 299c0.3 2.3 0.3 5.7 0.3 5.7 0 0-6.5 0-11.5-1.9-3.7-1.4-8.8-3.1-11-3.8-0.5 5.8-1.2 15.4-1.2 18.8 0 4.9 2.3 9.5 8.4 9.5 6.1 0 11.5 0 18 1.6 6.5 1.5 9.6 3.4 19.6 1.9 9.9-1.5 18.7-3.1 21.4-6.1 2.7-3.1-9.6-6.2-15.3-6.9-5.8-0.8-16.5-10.4-20.3-14.6-3.8-4.2-5.4-6.5-6.5-7.3 0 0-2.3 0.8-1.9 3.1z"/>
			</g>
			<g id="&lt;Group&gt;">
				<path id="&lt;Path&gt;" class="s4" d="m406.3 125.5c0 0 22.6-9.2 40.6-9.6 18-0.4 52.5-1.1 57.5 5.8 5 6.9 5.3 13.8 1.5 22.2-3.8 8.4-21.1 51.7-31 70.1-10 18.4-23 42.9-24.9 49-1.9 6.1-7.7 20.7-7.7 20.7 0 0-1.1 4.6-6.1 1.1-5-3.4-11.1-10.3-10.3-14.9 0.7-4.6 8.8-20.3 8.8-20.3l15.3-61.7 5-23c0 0-23.8 13.5-30.3 15.7-6.5 2.3-19.1 8.1-19.1 8.1 0 0-8.5-4.6-10.4-13.8-1.9-9.2-1.9-32.9 1.9-40.2 3.9-7.3 9.2-9.2 9.2-9.2z"/>
				<path id="&lt;Path&gt;" class="s4" d="m438.9 232.6l-4.2 17c0 0-8.1 15.7-8.8 20.3-0.8 4.6 5.3 11.5 10.3 14.9 5 3.5 6.1-1.1 6.1-1.1 0 0 5.8-14.6 7.7-20.7 0.9-3 4.6-10.5 9.2-19.5-8.3-2.5-15.7-7.4-20.3-10.9z"/>
				<path id="&lt;Path&gt;" class="s5" d="m448.5 281.4c0 0-0.4-7.3-3.1-5.4-2.7 1.9-5 3.5-5 3.5 0 0-7.3-5-9.2-8.1-1.9-3-4.2-5.7-4.2-5.7 0 0-17.6 10.7-21.4 14.9-3.9 4.2-0.8 7.3 1.9 10.4 2.7 3 11.5 17.6 23.3 26.8 11.9 9.2 22.6 17.6 24.2 15.3 1.5-2.3 3-2.3-1.2-10.7-4.2-8.5-8.8-20.3-8.4-23.8 0.4-3.4 3.1-17.2 3.1-17.2z"/>
				<path id="&lt;Path&gt;" class="s2" d="m484.7 148.3c4-2.6 7.4-5.1 9.3-7.1"/>
				<path id="&lt;Path&gt;" class="s2" d="m455 164.9c0 0 10.5-5.2 20.9-11.3"/>
			</g>
			<path id="&lt;Path&gt;" class="s3" d="m607.8 235.5h-502.6v-9.4h502.6z"/>
			<path id="&lt;Path&gt;" class="s4" d="m118.5 421.8v-242.6h-18v242.6"/>
			<path id="&lt;Path&gt;" class="s4" d="m615.6 421.8v-242.6h-18v242.6"/>
			<path id="&lt;Path&gt;" class="s5" d="m338.2 210.9c0 0 15.3 3.1 21.4 4.6 6.1 1.5 9.6-4.2 14.9-5.4 5.4-1.1 26.1-12.6 26.1-12.6 0 0 11.9-5.4 14.9-9.2 3.1-3.8 5.4-8.8 3.5-14.5-1.9-5.8-5.4-9.2-5.4-9.2l-7.7 1.5 7.3-7.3c0 0 6.1-5.3 5-14.5-1.1-9.2-8.4-17.3-16.5-22.6-8-5.4-23.7-1.9-26.8-2.7-3-0.8-9.6-6.9-19.9-8.4-10.3-1.6-20.7 0-24.9 2.3-4.2 2.3-7.7 8-16.8 11.8-9.2 3.9-12.3 5-14.2 8.8-1.9 3.9-5 9.6-5 9.6 0 0 22.6-2.7 39.5 9.6 16.8 12.2 20.3 31.8 17.6 37.9-2.7 6.1-15.7 15.7-15.7 18 0 2.3 2.7 2.3 2.7 2.3z"/>
			<path id="&lt;Path&gt;" class="s4" d="m231.3 258c0 0 6.9-1.5 8-1.1 1.2 0.4 22.6 11.1 23.8 11.8 1.1 0.8 8.8 13.4 19.5 21.9 10.7 8.4 37.9 26 47.1 29.5 9.2 3.4 23 15.3 28.8 13.8 5.7-1.6 12.2-7.3 13.7-13.5 1.6-6.1 18-72 18-72 0 0 7.3-15.3 8.8-18 1.6-2.6 1.6-8.8 1.6-8.8 0 0 5.3-7.2 5-9.5-0.4-2.3-15-9.6-16.5-11.2-1.5-1.5-5-3.8-7.3-1.1-2.3 2.7-8.8 6.9-7.3 10.3 1.6 3.5 4.6 26.5 4.6 26.5l-29.5 63.2c0 0-14.1-15.4-22.9-24.5-8.8-9.2-20-17.7-21.1-18.4-1.2-0.8 15.3-13.1 23-24.2 7.6-11.1 13.4-23.7 13.4-23.7 0 0 6.9-0.8 11.1-4.6 4.2-3.8 11.5-10 8.4-26.8-3-16.9-4.2-23-27.6-33.3-23.3-10.4-39.4-5.8-43.6-2.7-4.2 3-23.8 12.2-23.8 12.2 0 0-38.7 22.6-44.8 28.8-6.1 6.1-4.6 5.3-4.6 5.3 0 0-12.6-3.8-21 1.6-8.5 5.3-11.5 17.6-7.3 26.4 4.2 8.8 24.1 17.2 24.1 17.2l11.5 18.8z"/>
			<g id="&lt;Group&gt;">
				<path id="&lt;Path&gt;" class="s2" d="m389.1 200.9l-8.4 10.4"/>
				<path id="&lt;Path&gt;" class="s2" d="m394.5 205.9l-7.3 9.2"/>
				<path id="&lt;Path&gt;" class="s2" d="m401.3 209l-8.4 11.1"/>
			</g>
			<path id="&lt;Path&gt;" class="s3" d="m255.8 226.6c0 0-6.1 9.2-9.2 19.9-3.1 10.8-7.3 10.4-7.3 10.4 0.6 0.2 6 2.8 11.6 5.6q0.2-0.1 0.3-0.3c0.8-1.1 1.9-9.2 3.8-13.8 2-4.6 10.8-19.5 25.3-25.6 14.6-6.1 23 2.7 27.6 14.5 4.6 11.9-0.4 16.9-0.4 16.9 0 0 0.1 0 0.3-0.1 4.7-4.3 15.1-13.2 20.8-21.4 7.6-11.1 13.4-23.7 13.4-23.7 0 0 6.9-0.8 11.1-4.6 4.2-3.8 11.5-10 8.4-26.8-3-16.9-4.2-23-27.6-33.3-23.3-10.4-39.4-5.8-43.6-2.7-4.2 3-23.8 12.2-23.8 12.2 0 0-38.7 22.6-44.8 28.8-2.4 2.4-3.6 3.8-4.2 4.5-0.3 0.5-0.4 0.8-0.4 0.8l-9.9 24.9 12.6-1.5c0 0 4.6-13.8 16.1-19.9 11.5-6.2 21.4-1.2 29.9 11.5 8.4 12.6-10 23.7-10 23.7z"/>
			<g id="&lt;Group&gt;">
				<path id="&lt;Path&gt;" class="s4" d="m214.4 207.8c0 0-13.4 3.9-16.4 6.2-3.1 2.3-25.7 16.1-25.7 16.1 0 0-5.4 10.7 0 22.9 5.4 12.3 19.5 19.6 25.7 19.6 6.1 0 14.1-3.9 14.1-3.9l3.1-1.9c0 0 4.2 3.1 8.8 0 4.6-3 7.3-5.7 7.3-8.8 0-3 0-5 0-5 0 0 7.7-6.5 11.9-17.2 4.2-10.7 0.3-26-3.1-28-3.4-1.9-25.7 0-25.7 0z"/>
				<path id="&lt;Path&gt;" class="s2" d="m201.4 227.8c0 0 15.7-11.9 16.9-11.1 1.1 0.7 3.4 6.1 3.4 6.1"/>
				<path id="&lt;Path&gt;" class="s2" d="m223.6 213.2c0 0 6.2 5 6.9 8"/>
				<path id="&lt;Path&gt;" class="s2" d="m204.9 234.7c0 0 1.1 7.2 5.3 11.4"/>
				<path id="&lt;Path&gt;" class="s2" d="m198.4 225.8c0 0-2.7-0.7-6.2-3.8"/>
				<path id="&lt;Path&gt;" class="s8" d="m212.3 236.6c-1.4 1.5-1.7 3.5-0.7 4.4 1 0.9 2.9 0.4 4.3-1.1 1.4-1.6 1.8-3.6 0.8-4.5-1-0.9-3-0.4-4.4 1.2z"/>
				<path id="&lt;Path&gt;" class="s8" d="m200.8 218.5c-1.4 1.5-1.8 3.5-0.8 4.4 1 0.9 3 0.4 4.4-1.2 1.4-1.5 1.7-3.5 0.7-4.4-1-0.9-2.9-0.4-4.3 1.2z"/>
				<path id="&lt;Path&gt;" class="s5" d="m178.1 232.7c0 0-2-7.6-10-7.2-8 0.3-16.9 12.6-15.3 18.7 1.5 6.2 3 6.9 4.2 13.8 1.1 6.9 6.5 15.3 14.2 18.4 7.6 3.1 14.1 6.9 22.9 3.8 8.9-3 10.8-3.4 14.6-6.5 3.8-3 9.2-0.7 6.5-6.9-2.7-6.1-2.7-6.9-7.3-5.7-4.6 1.1-9.9 3.8-13-2.7-3.1-6.5 1.5-7.3-1.1-14.2-2.7-6.9-10-8.8-15.7-11.5z"/>
			</g>
			<path id="&lt;Path&gt;" class="s4" d="m253.1 169.5c0 0 37.2 4.3 46.4 34.1l26-26c0 0-9.9-16.9-19.5-21.5-9.6-4.6-18.8-6.9-18.8-6.9z"/>
			<path id="&lt;Path&gt;" class="s2" d="m305.6 256.9l-5-15.7"/>
		</g>
	</g>
	<g id="Character 2">
		<g id="&lt;Group&gt;">
			<path id="&lt;Path&gt;" class="s7" d="m702 355.1c0 0-29.2 10.4-35 12.5-5.8 2.1-26.1 5.5-33.1 9.1-7 3.7-9.5 7.6-10.4 8.2-0.9 0.6 25.9 5.8 32.3 3.1 6.3-2.8 75.7-7.9 75.7-7.9 0 0 1.2-18.9-4.9-23.5-6-4.5-24.6-1.5-24.6-1.5z"/>
			<path id="&lt;Path&gt;" class="s7" d="m702.2 284.5c0 0-14.2 10.3-15.8 15.8-1.6 5.6 0.4 17.1-0.8 18.6-1.2 1.6-10.3 10.8-9.1 12.3 1.1 1.6 7.5 5.6 7.5 5.6 0 0 4.4 19.4 7.9 21.4 3.6 2 17.1-2 17.1-2l3.1-0.4c0 0 7.2 16.7 8.4 25 1.2 8.3 8.3 43.2 13.1 46.4 4.7 3.2 18.6 8.3 18.6 8.3l11.1 22.6c0 0-36.5-0.9-53.6 4.2-17 5.2-51.5 19.7-57 21.2-5.6 1.6-17.5 9.6-30.2 14.7-12.7 5.2-51.5 17.1-54.3 17.1-2.8 0-5.6 0-5.6 0 0 0-14.2-13.1-19-22.2-4.7-9.2-8.3-17.5-11.1-12.3-2.8 5.1-0.4 23.8 4.4 32.1 4.7 8.3 11.5 21.8 13.9 22.2 2.3 0.4 21.4-6 21.4-6 0 0 41.2-5.9 55.5-6.3 14.3-0.4 33.3-11.5 33.3-11.5 0 0 11.5-6.4 13.5-7.5 2-1.2 66.2-4.8 78.9-2.5 12.7 2.4 21.4 4.4 21.4 4.4 0 0-2.4 47.2 14.3 65.8 16.6 18.7 23 13.5 24.2 13.5 1.1 0 62.2-9.9 66.6-11.5 4.3-1.6 19.8-0.4 19.8-0.4 0 0 11.5 4.8 13.9 6 2.4 1.2 13.1 9.5 13.1 9.5 0 0 5.5 15.8 9.1 14.3 3.6-1.6 4.3-6.4 3.6-13.1-0.8-6.8-6.4-18.7-6.4-18.7 0 0 2-13.1-4.4-14.6-6.3-1.6-11.8 2.7-17.8 3.5-5.9 0.8-11.9 2.4-24.6-0.8-12.7-3.1-33.3-7.1-44-7.1-10.7 0-27 4.8-27 4.8 0 0 2-34.1 2.4-35.3 0.4-1.2 2.8-13.9 2.8-13.9 0 0 11.1-7.9 10.3-24.2-0.8-16.3-5.5-21.8-11.1-28.9-5.5-7.2-14.7-23-22.6-36.9-7.9-13.9-6.7-27.8-21.4-48-14.7-20.2-41.2-25-41.2-25l-0.8-4.3c0 0 12.3-14.3 13.8-24.2 1.6-9.9-0.4-16.3-13-28.2-12.7-11.9-32.2-3.5-32.2-3.5z"/>
			<g id="&lt;Group&gt;">
				<path id="&lt;Path&gt;" class="s5" d="m817.6 522q0-0.3 0-0.4c0.4-1.2 2.8-13.9 2.8-13.9 0 0 11.1-7.9 10.3-24.2-0.8-16.3-5.5-21.8-11.1-28.9q-0.3-0.5-0.7-0.9c-5.1 4.3-19.1 9.8-56.5 2.7l0.9 1.7c0 0-1.3 0-3.6 0 5.9 4.1 13.7 11.7 13.9 23.9 0.2 10.4-3.3 17.5-6.7 22 5 1 7.9 1.7 7.9 1.7 0 0-0.2 4.8 0 11.8 10.2 4.4 25.5 8.3 42.8 4.5z"/>
				<path id="&lt;Path&gt;" class="s6" d="m778.9 506.7c0 0 15.1 6.1 27.2 4.3"/>
			</g>
			<g id="&lt;Group&gt;">
				<path id="&lt;Path&gt;" class="s8" d="m696.1 319.8c0 2.1-0.9 3.7-2.1 3.7-1.1 0-2.1-1.6-2.1-3.7 0-2 1-3.6 2.1-3.6 1.2 0 2.1 1.6 2.1 3.6z"/>
				<path id="&lt;Path&gt;" class="s2" d="m689.9 313.8c0 0 2.8-3.6 7.2 0"/>
				<g id="&lt;Group&gt;">
					<path id="&lt;Path&gt;" class="s5" d="m743.9 282.5c0 0 6.3-9.2 17.4-15.5 11.1-6.3 19.8-5.5 20.6-1.2 0.8 4.4-5.1 4.4-11.9 7.5-6.7 3.2-18.6 10.4-18.6 10.4 0 0 24.6-4.8 33.3-4 8.7 0.8 8.7 11.5 7.5 14.7-1.1 3.1-7.5-3.6-15.8-4-8.3-0.4-15.9 0-15.9 0 0 0 13.1 2.8 16.7 8.3 3.5 5.6 13.5 9.1 12.3 12.7-1.2 3.6 0.4 5.6-6.4 5.6-6.7 0-13.9-4.4-13.9-4.4 0 0 12.3 6 9.2 9.1-3.2 3.2-6 7.2-8.4 4.8-2.3-2.4-10.7-16.7-10.7-16.7 0 0 3.2 6.8 4.8 15.1 1.6 8.3-8.3 3.6-10.7-5.2-2.4-8.7-6.8-24.1-6.8-24.1z"/>
					<path id="&lt;Path&gt;" class="s5" d="m695.1 290.4c0 0 11.1-7.1 16.3-1.2 5.1 6-9.6 7.9-6.4 13.9 3.2 5.9 11.1 5.9 12.3 8.7 1.2 2.8 1.2 9.9 1.2 9.9 0 0 3.2-8.7 8.7-2.4 5.6 6.4 2.8 15.1 0.4 16.3-2.4 1.2-4.7 2.4-4.7 2.4 0 0 3.9 1.2 10.7 2.4 0 0 12.3-14.3 13.8-24.2 1.6-9.9-0.4-16.3-13-28.2-12.7-11.9-32.2-3.5-32.2-3.5 0 0-3.5 2.5-7.3 5.8z"/>
					<path id="&lt;Path&gt;" class="s2" d="m690 339.8c0 0 3.7 0 7.9-3.3"/>
					<path id="&lt;Path&gt;" class="s4" d="m729.2 284.5c0 0 0.8-5.2 4-5.2 3.1 0 18.2 5.2 18.6 14.3 0.4 9.1-4 11.5-4 11.5 0 0-11.9-17.9-18.6-20.6z"/>
				</g>
			</g>
			<g id="&lt;Group&gt;">
				<path id="&lt;Path&gt;" class="s3" d="m822.4 458.2c-0.9-1.2-1.8-2.4-2.8-3.6-5.5-7.2-14.7-23-22.6-36.9-7.9-13.9-6.7-27.8-21.4-48-7.8-10.8-19.1-17.2-27.8-20.8-0.5 1.2-1.5 3.2-3.5 6.9-6 10.7-6.8 29.4-8.4 38.1-1.5 8.7-4.3 15.1-10.3 11.1q-0.1-0.1-0.2-0.1c2.6 10.5 5.7 20.7 8.2 22.3 4.7 3.2 18.6 8.3 18.6 8.3l11.1 22.6c0 0 18.2 3.2 27.4 4.8 8 1.4 25.4 2.8 31.7-4.7z"/>
				<g id="&lt;Group&gt;">
					<path id="&lt;Path&gt;" class="s2" d="m763.5 455.2c0 0 17-4.6 28.2-3.6"/>
					<path id="&lt;Path&gt;" class="s2" d="m766.2 449.4c0 0 18.9-8.8 28.9-7.6"/>
				</g>
			</g>
			<g id="&lt;Group&gt;">
				<path id="&lt;Path&gt;" class="s7" d="m764.9 359c0 0-13.9 6.7-14.7 15.5-0.8 8.7 5.6 24.9 16.7 28.9 11.1 4 12.7 3.2 16.2 0.8 3.6-2.4 9.5-9.9 9.5-9.9 0 0 10.3 2 17.5 0.8 7.1-1.2 29.7-4.4 29.7-4.4 0 0 19.9 4.4 26.6 4.4 6.7 0 32.9-4.8 35.3-4.8 2.4 0 27.7 2 27.7 2l13.9 7.9c0 0 3.6-1.2 6.4-0.4 2.7 0.8 5.5 6.4 7.1 4.8 1.6-1.6 1.6-1.6 0.8-4-0.8-2.3-3.2-4.7-5.6-5.1-2.3-0.4-2.7-3.6-2.7-3.6 0 0 15.3 3.5 16.3 3 1-0.5 1.7-1.4 1.5-1.9-0.1-0.5-13.5-4.4-13.5-4.4l0.7-2 16.8 3.3c0 0 1.4-2.1 0.5-2.4-0.8-0.4-17-4.8-17-4.8l0.5-2 15.1 1.7c0 0 1.5-1.4 0.6-1.9-0.8-0.5-14.3-3.3-14.3-3.3 0 0 11.8 1.6 12 1.1 0.2-0.5-0.5-1.5-0.5-1.5-7.7 1.8-9.3-1.3-15.3-1.3-9.2 0-11.9 1.5-16.3 2.8-4.3 1.4-8.7 2.5-9.3 2.9-0.7 0.3-27.5-2.9-44.2-6.6-16.8-3.6-33.9-8.2-41.6-7.5-7.7 0.7-29.6 1.3-29.6 1.3 0 0-11.9-3-20.6-5.5-8.7-2.5-18.1-7-26.2-3.9z"/>
				<path id="&lt;Path&gt;" class="s2" d="m792.6 394.3c0 0-20.5 5.1-21.5 5.6"/>
			</g>
			<g id="&lt;Group&gt;">
				<path id="&lt;Path&gt;" class="s7" d="m691.7 372.8c0 0 4.5-5.2 7.3-8.9 2.7-3.6 7.3-10 7.3-10l2.7 2.3c0 0-5.2 8-6.1 9.3-0.9 1.2-0.9 1.2-0.9 1.2 0 0 3.7-0.3 4.9-1.8 1.2-1.6 6.1-9.8 7.6-12.5 1.5-2.8 4.2-2.1 4.2-0.9 0 1.2-8.5 16.7-8.5 16.7 0 0 7-6.4 9.7-10 2.8-3.7 5.2-5.2 6.1-4 0.9 1.2 0.6 1.5-2.1 6.7-2.7 5.2-10 11-10 11 0 0 11.5-7 13.4-8.6 1.8-1.5 2.7 0 0.9 2.8-1.9 2.7-10.7 10-10.7 10l-4.2 3.7c0 0 1.5 0.6 3.6 1.2 2.1 0.6 5.2-0.6 7.9-0.6 2.8 0 6.4 0 4 2.4-2.5 2.4-4.3 4-7.3 4-3.1 0-5.5-0.3-8.2 0-2.8 0.3-6.4 1.8-10.7 1.8-4.3 0-13.7-3.7-13.7-3.7 0 0-43.8 18-50.5 20.4-6.7 2.5-20.1-1.2-23.7-2.7-3.7-1.5-5.5-5.8-4.9-8.2 0.6-2.5 9.8-14.6 20.1-17.1 10.3-2.4 38.9-4.2 44.7-3.6 5.8 0.6 17.1-0.9 17.1-0.9z"/>
				<path id="&lt;Path&gt;" class="s2" d="m692.9 381.9c0 0 2.1 0.9 5.1 0 3.1-0.9 6.7-5.5 6.7-5.5"/>
			</g>
			<path id="&lt;Path&gt;" class="s3" d="m543.6 493.1c-4.7-9.2-8.3-17.5-11.1-12.3-2.8 5.1-0.4 23.8 4.4 32.1 4.7 8.3 11.5 21.8 13.9 22.2 1.5 0.2 9.5-2.2 15.3-4l-7.6-11.2 4.1-4.6c0 0-14.2-13.1-19-22.2z"/>
			<path id="&lt;Path&gt;" class="s3" d="m939.4 589.8c-0.8-6.8-6.4-18.7-6.4-18.7 0 0 2-13.1-4.4-14.6-4-1.1-7.8 0.4-11.5 1.7 1.5 2.6 4.3 7.4 6 11.1 2.3 5.2 2.3 5.2 2.3 5.2 0 0-5.2-1.1-7 3.5-0.3 0.9-0.6 2.2-0.9 3.7 4 2.9 9.2 6.9 9.2 6.9 0 0 5.5 15.8 9.1 14.3 3.6-1.6 4.3-6.4 3.6-13.1z"/>
		</g>
	</g>
</svg>