<svg version="1.2" xmlns="http://www.w3.org/2000/svg" viewBox="0 0 900 900" width="900" height="900">
	<title>42938-ai</title>
	<defs>
		<linearGradient id="g1" x1="485.4" y1="607.7" x2="485.4" y2="607.7" gradientUnits="userSpaceOnUse">
			<stop offset="0" stop-color="#75d1fb"/>
			<stop offset="1" stop-color="#75d1fb"/>
		</linearGradient>
		<linearGradient id="g2" x1="480.4" y1="183.2" x2="424.6" y2="98.6" gradientUnits="userSpaceOnUse">
			<stop offset="0" stop-color="#c1c1c1"/>
			<stop offset="1" stop-color="#f8f8f8"/>
		</linearGradient>
		<linearGradient id="g3" x1="637.9" y1="207.5" x2="663.2" y2="191" gradientUnits="userSpaceOnUse">
			<stop offset="0" stop-color="#7e7e7e"/>
			<stop offset="1" stop-color="#e8e8e8"/>
		</linearGradient>
		<linearGradient id="g4" x1="662.3" y1="95" x2="599.5" y2="206.9" gradientUnits="userSpaceOnUse">
			<stop offset="0" stop-color="#ffffff"/>
			<stop offset="1" stop-color="#64635f"/>
		</linearGradient>
		<linearGradient id="g5" x1="688.3" y1="100.3" x2="711" y2="99.5" gradientUnits="userSpaceOnUse">
			<stop offset="0" stop-color="#3da1cc"/>
			<stop offset=".162" stop-color="#63b5d7"/>
			<stop offset=".47" stop-color="#3da1cc"/>
		</linearGradient>
		<linearGradient id="g6" x1="706.3" y1="99.6" x2="724.7" y2="98.9" gradientUnits="userSpaceOnUse">
			<stop offset=".449" stop-color="#3da1cc"/>
			<stop offset=".636" stop-color="#63b5d7"/>
			<stop offset=".995" stop-color="#3da1cc"/>
		</linearGradient>
		<linearGradient id="g7" x1="669.4" y1="102.7" x2="690.4" y2="101.9" gradientUnits="userSpaceOnUse">
			<stop offset="0" stop-color="#63b5d7"/>
			<stop offset=".47" stop-color="#3da1cc"/>
		</linearGradient>
		<linearGradient id="g8" x1="758.7" y1="191.1" x2="710.4" y2="208.1" gradientUnits="userSpaceOnUse">
			<stop offset="0" stop-color="#e8e8e8"/>
			<stop offset="1" stop-color="#6f6f68"/>
		</linearGradient>
		<radialGradient id="g9" cx="756.7" cy="191.3" r="28.8" gradientUnits="userSpaceOnUse">
			<stop offset=".818" stop-color="#585751"/>
			<stop offset=".919" stop-color="#f0efef"/>
			<stop offset="1" stop-color="#e1e0da"/>
		</radialGradient>
		<radialGradient id="g10" cx="757" cy="192" r="22.9" gradientUnits="userSpaceOnUse">
			<stop offset="0" stop-color="#727272"/>
			<stop offset=".167" stop-color="#2c2c2c"/>
			<stop offset=".258" stop-color="#2c2c2c"/>
			<stop offset=".288" stop-color="#575747"/>
			<stop offset="1" stop-color="#3b3a30"/>
		</radialGradient>
		<linearGradient id="g11" x1="787.6" y1="210.6" x2="786.2" y2="196.5" gradientUnits="userSpaceOnUse">
			<stop offset="0" stop-color="#6f6754"/>
			<stop offset="1" stop-color="#303030"/>
		</linearGradient>
		<linearGradient id="g12" x1="784" y1="215.7" x2="785.1" y2="201.6" gradientUnits="userSpaceOnUse">
			<stop offset="0" stop-color="#6f6754"/>
			<stop offset="1" stop-color="#303030"/>
		</linearGradient>
		<linearGradient id="g13" x1="779.5" y1="220.1" x2="783.1" y2="206.4" gradientUnits="userSpaceOnUse">
			<stop offset="0" stop-color="#6f6754"/>
			<stop offset="1" stop-color="#303030"/>
		</linearGradient>
		<linearGradient id="g14" x1="774.4" y1="223.7" x2="780.3" y2="210.8" gradientUnits="userSpaceOnUse">
			<stop offset="0" stop-color="#6f6754"/>
			<stop offset="1" stop-color="#303030"/>
		</linearGradient>
		<linearGradient id="g15" x1="768.7" y1="226.3" x2="776.7" y2="214.6" gradientUnits="userSpaceOnUse">
			<stop offset="0" stop-color="#6f6754"/>
			<stop offset="1" stop-color="#303030"/>
		</linearGradient>
		<linearGradient id="g16" x1="762.7" y1="227.9" x2="772.6" y2="217.7" gradientUnits="userSpaceOnUse">
			<stop offset="0" stop-color="#6f6754"/>
			<stop offset="1" stop-color="#303030"/>
		</linearGradient>
		<linearGradient id="g17" x1="756.4" y1="228.4" x2="768" y2="220.1" gradientUnits="userSpaceOnUse">
			<stop offset="0" stop-color="#6f6754"/>
			<stop offset="1" stop-color="#303030"/>
		</linearGradient>
		<linearGradient id="g18" x1="750.2" y1="227.8" x2="763" y2="221.7" gradientUnits="userSpaceOnUse">
			<stop offset="0" stop-color="#6f6754"/>
			<stop offset="1" stop-color="#303030"/>
		</linearGradient>
		<linearGradient id="g19" x1="744.2" y1="226.1" x2="757.8" y2="222.3" gradientUnits="userSpaceOnUse">
			<stop offset="0" stop-color="#6f6754"/>
			<stop offset="1" stop-color="#303030"/>
		</linearGradient>
		<linearGradient id="g20" x1="738.5" y1="223.5" x2="752.6" y2="222.1" gradientUnits="userSpaceOnUse">
			<stop offset="0" stop-color="#6f6754"/>
			<stop offset="1" stop-color="#303030"/>
		</linearGradient>
		<linearGradient id="g21" x1="733.4" y1="219.8" x2="747.6" y2="220.9" gradientUnits="userSpaceOnUse">
			<stop offset="0" stop-color="#6f6754"/>
			<stop offset="1" stop-color="#303030"/>
		</linearGradient>
		<linearGradient id="g22" x1="729" y1="215.4" x2="742.8" y2="218.9" gradientUnits="userSpaceOnUse">
			<stop offset="0" stop-color="#6f6754"/>
			<stop offset="1" stop-color="#303030"/>
		</linearGradient>
		<linearGradient id="g23" x1="725.5" y1="210.2" x2="738.4" y2="216.1" gradientUnits="userSpaceOnUse">
			<stop offset="0" stop-color="#6f6754"/>
			<stop offset="1" stop-color="#303030"/>
		</linearGradient>
		<linearGradient id="g24" x1="722.9" y1="204.5" x2="734.6" y2="212.6" gradientUnits="userSpaceOnUse">
			<stop offset="0" stop-color="#6f6754"/>
			<stop offset="1" stop-color="#303030"/>
		</linearGradient>
		<linearGradient id="g25" x1="721.3" y1="198.5" x2="731.4" y2="208.4" gradientUnits="userSpaceOnUse">
			<stop offset="0" stop-color="#6f6754"/>
			<stop offset="1" stop-color="#303030"/>
		</linearGradient>
		<linearGradient id="g26" x1="720.8" y1="192.3" x2="729" y2="203.8" gradientUnits="userSpaceOnUse">
			<stop offset="0" stop-color="#6f6754"/>
			<stop offset="1" stop-color="#303030"/>
		</linearGradient>
		<linearGradient id="g27" x1="721.4" y1="186" x2="727.5" y2="198.8" gradientUnits="userSpaceOnUse">
			<stop offset="0" stop-color="#6f6754"/>
			<stop offset="1" stop-color="#303030"/>
		</linearGradient>
		<linearGradient id="g28" x1="723" y1="180" x2="726.8" y2="193.7" gradientUnits="userSpaceOnUse">
			<stop offset="0" stop-color="#6f6754"/>
			<stop offset="1" stop-color="#303030"/>
		</linearGradient>
		<linearGradient id="g29" x1="725.7" y1="174.3" x2="727.1" y2="188.5" gradientUnits="userSpaceOnUse">
			<stop offset="0" stop-color="#6f6754"/>
			<stop offset="1" stop-color="#303030"/>
		</linearGradient>
		<linearGradient id="g30" x1="729.3" y1="169.2" x2="728.2" y2="183.4" gradientUnits="userSpaceOnUse">
			<stop offset="0" stop-color="#6f6754"/>
			<stop offset="1" stop-color="#303030"/>
		</linearGradient>
		<linearGradient id="g31" x1="733.8" y1="164.9" x2="730.3" y2="178.6" gradientUnits="userSpaceOnUse">
			<stop offset="0" stop-color="#6f6754"/>
			<stop offset="1" stop-color="#303030"/>
		</linearGradient>
		<linearGradient id="g32" x1="738.9" y1="161.3" x2="733.1" y2="174.2" gradientUnits="userSpaceOnUse">
			<stop offset="0" stop-color="#6f6754"/>
			<stop offset="1" stop-color="#303030"/>
		</linearGradient>
		<linearGradient id="g33" x1="744.6" y1="158.7" x2="736.6" y2="170.4" gradientUnits="userSpaceOnUse">
			<stop offset="0" stop-color="#6f6754"/>
			<stop offset="1" stop-color="#303030"/>
		</linearGradient>
		<linearGradient id="g34" x1="750.7" y1="157.1" x2="740.7" y2="167.3" gradientUnits="userSpaceOnUse">
			<stop offset="0" stop-color="#6f6754"/>
			<stop offset="1" stop-color="#303030"/>
		</linearGradient>
		<linearGradient id="g35" x1="756.9" y1="156.6" x2="745.4" y2="164.9" gradientUnits="userSpaceOnUse">
			<stop offset="0" stop-color="#6f6754"/>
			<stop offset="1" stop-color="#303030"/>
		</linearGradient>
		<linearGradient id="g36" x1="763.1" y1="157.2" x2="750.3" y2="163.3" gradientUnits="userSpaceOnUse">
			<stop offset="0" stop-color="#6f6754"/>
			<stop offset="1" stop-color="#303030"/>
		</linearGradient>
		<linearGradient id="g37" x1="769.2" y1="158.9" x2="755.5" y2="162.7" gradientUnits="userSpaceOnUse">
			<stop offset="0" stop-color="#6f6754"/>
			<stop offset="1" stop-color="#303030"/>
		</linearGradient>
		<linearGradient id="g38" x1="774.8" y1="161.6" x2="760.7" y2="163" gradientUnits="userSpaceOnUse">
			<stop offset="0" stop-color="#6f6754"/>
			<stop offset="1" stop-color="#303030"/>
		</linearGradient>
		<linearGradient id="g39" x1="779.9" y1="165.2" x2="765.7" y2="164.1" gradientUnits="userSpaceOnUse">
			<stop offset="0" stop-color="#6f6754"/>
			<stop offset="1" stop-color="#303030"/>
		</linearGradient>
		<linearGradient id="g40" x1="784.3" y1="169.6" x2="770.5" y2="166.1" gradientUnits="userSpaceOnUse">
			<stop offset="0" stop-color="#6f6754"/>
			<stop offset="1" stop-color="#303030"/>
		</linearGradient>
		<linearGradient id="g41" x1="787.8" y1="174.8" x2="774.9" y2="168.9" gradientUnits="userSpaceOnUse">
			<stop offset="0" stop-color="#6f6754"/>
			<stop offset="1" stop-color="#303030"/>
		</linearGradient>
		<linearGradient id="g42" x1="790.4" y1="180.5" x2="778.7" y2="172.5" gradientUnits="userSpaceOnUse">
			<stop offset="0" stop-color="#6f6754"/>
			<stop offset="1" stop-color="#303030"/>
		</linearGradient>
		<linearGradient id="g43" x1="792" y1="186.5" x2="781.9" y2="176.6" gradientUnits="userSpaceOnUse">
			<stop offset="0" stop-color="#6f6754"/>
			<stop offset="1" stop-color="#303030"/>
		</linearGradient>
		<linearGradient id="g44" x1="792.5" y1="192.8" x2="784.2" y2="181.2" gradientUnits="userSpaceOnUse">
			<stop offset="0" stop-color="#6f6754"/>
			<stop offset="1" stop-color="#303030"/>
		</linearGradient>
		<linearGradient id="g45" x1="791.9" y1="199" x2="785.8" y2="186.2" gradientUnits="userSpaceOnUse">
			<stop offset="0" stop-color="#6f6754"/>
			<stop offset="1" stop-color="#303030"/>
		</linearGradient>
		<linearGradient id="g46" x1="790.3" y1="205" x2="786.5" y2="191.3" gradientUnits="userSpaceOnUse">
			<stop offset="0" stop-color="#6f6754"/>
			<stop offset="1" stop-color="#303030"/>
		</linearGradient>
		<linearGradient id="g47" x1="544.3" y1="206.3" x2="151.6" y2="186.4" gradientUnits="userSpaceOnUse">
			<stop offset="0" stop-color="#646462"/>
			<stop offset="1" stop-color="#e8e8e8"/>
		</linearGradient>
		<linearGradient id="g48" x1="453.3" y1="256.8" x2="456.8" y2="220.6" gradientUnits="userSpaceOnUse">
			<stop offset="0" stop-color="#6f6f68"/>
			<stop offset="1" stop-color="#e8e8e8"/>
		</linearGradient>
		<radialGradient id="g49" cx="455.9" cy="221.4" r="28.8" gradientUnits="userSpaceOnUse">
			<stop offset=".818" stop-color="#585751"/>
			<stop offset=".944" stop-color="#f0efef"/>
			<stop offset="1" stop-color="#e1e0da"/>
		</radialGradient>
		<radialGradient id="g50" cx="455" cy="221.9" r="22.9" gradientUnits="userSpaceOnUse">
			<stop offset="0" stop-color="#727272"/>
			<stop offset=".167" stop-color="#2c2c2c"/>
			<stop offset=".258" stop-color="#2c2c2c"/>
			<stop offset=".288" stop-color="#575747"/>
			<stop offset="1" stop-color="#3b3a30"/>
		</radialGradient>
		<linearGradient id="g51" x1="484.4" y1="242.5" x2="484" y2="228.3" gradientUnits="userSpaceOnUse">
			<stop offset="0" stop-color="#6e6652"/>
			<stop offset="1" stop-color="#303030"/>
		</linearGradient>
		<linearGradient id="g52" x1="480.5" y1="247.4" x2="482.5" y2="233.3" gradientUnits="userSpaceOnUse">
			<stop offset="0" stop-color="#6e6652"/>
			<stop offset="1" stop-color="#303030"/>
		</linearGradient>
		<linearGradient id="g53" x1="475.7" y1="251.5" x2="480.1" y2="238" gradientUnits="userSpaceOnUse">
			<stop offset="0" stop-color="#6e6652"/>
			<stop offset="1" stop-color="#303030"/>
		</linearGradient>
		<linearGradient id="g54" x1="470.3" y1="254.7" x2="477" y2="242.2" gradientUnits="userSpaceOnUse">
			<stop offset="0" stop-color="#6e6652"/>
			<stop offset="1" stop-color="#303030"/>
		</linearGradient>
		<linearGradient id="g55" x1="464.5" y1="256.9" x2="473.3" y2="245.8" gradientUnits="userSpaceOnUse">
			<stop offset="0" stop-color="#6e6652"/>
			<stop offset="1" stop-color="#303030"/>
		</linearGradient>
		<linearGradient id="g56" x1="458.3" y1="258.1" x2="468.9" y2="248.6" gradientUnits="userSpaceOnUse">
			<stop offset="0" stop-color="#6e6652"/>
			<stop offset="1" stop-color="#303030"/>
		</linearGradient>
		<linearGradient id="g57" x1="452.1" y1="258.2" x2="464.2" y2="250.7" gradientUnits="userSpaceOnUse">
			<stop offset="0" stop-color="#6e6652"/>
			<stop offset="1" stop-color="#303030"/>
		</linearGradient>
		<linearGradient id="g58" x1="445.9" y1="257.2" x2="459.1" y2="251.9" gradientUnits="userSpaceOnUse">
			<stop offset="0" stop-color="#6e6652"/>
			<stop offset="1" stop-color="#303030"/>
		</linearGradient>
		<linearGradient id="g59" x1="440" y1="255.1" x2="453.9" y2="252.2" gradientUnits="userSpaceOnUse">
			<stop offset="0" stop-color="#6e6652"/>
			<stop offset="1" stop-color="#303030"/>
		</linearGradient>
		<linearGradient id="g60" x1="434.5" y1="252" x2="448.7" y2="251.6" gradientUnits="userSpaceOnUse">
			<stop offset="0" stop-color="#6e6652"/>
			<stop offset="1" stop-color="#303030"/>
		</linearGradient>
		<linearGradient id="g61" x1="429.7" y1="248.1" x2="443.8" y2="250.1" gradientUnits="userSpaceOnUse">
			<stop offset="0" stop-color="#6e6652"/>
			<stop offset="1" stop-color="#303030"/>
		</linearGradient>
		<linearGradient id="g62" x1="425.6" y1="243.4" x2="439.1" y2="247.8" gradientUnits="userSpaceOnUse">
			<stop offset="0" stop-color="#6e6652"/>
			<stop offset="1" stop-color="#303030"/>
		</linearGradient>
		<linearGradient id="g63" x1="422.4" y1="238" x2="434.9" y2="244.7" gradientUnits="userSpaceOnUse">
			<stop offset="0" stop-color="#6e6652"/>
			<stop offset="1" stop-color="#303030"/>
		</linearGradient>
		<linearGradient id="g64" x1="420.2" y1="232.2" x2="431.3" y2="240.9" gradientUnits="userSpaceOnUse">
			<stop offset="0" stop-color="#6e6652"/>
			<stop offset="1" stop-color="#303030"/>
		</linearGradient>
		<linearGradient id="g65" x1="419" y1="226" x2="428.5" y2="236.6" gradientUnits="userSpaceOnUse">
			<stop offset="0" stop-color="#6e6652"/>
			<stop offset="1" stop-color="#303030"/>
		</linearGradient>
		<linearGradient id="g66" x1="418.9" y1="219.8" x2="426.4" y2="231.8" gradientUnits="userSpaceOnUse">
			<stop offset="0" stop-color="#6e6652"/>
			<stop offset="1" stop-color="#303030"/>
		</linearGradient>
		<linearGradient id="g67" x1="419.9" y1="213.6" x2="425.2" y2="226.8" gradientUnits="userSpaceOnUse">
			<stop offset="0" stop-color="#6e6652"/>
			<stop offset="1" stop-color="#303030"/>
		</linearGradient>
		<linearGradient id="g68" x1="422" y1="207.7" x2="424.9" y2="221.6" gradientUnits="userSpaceOnUse">
			<stop offset="0" stop-color="#6e6652"/>
			<stop offset="1" stop-color="#303030"/>
		</linearGradient>
		<linearGradient id="g69" x1="425" y1="202.2" x2="425.5" y2="216.4" gradientUnits="userSpaceOnUse">
			<stop offset="0" stop-color="#6e6652"/>
			<stop offset="1" stop-color="#303030"/>
		</linearGradient>
		<linearGradient id="g70" x1="429" y1="197.4" x2="427" y2="211.4" gradientUnits="userSpaceOnUse">
			<stop offset="0" stop-color="#6e6652"/>
			<stop offset="1" stop-color="#303030"/>
		</linearGradient>
		<linearGradient id="g71" x1="433.7" y1="193.3" x2="429.3" y2="206.8" gradientUnits="userSpaceOnUse">
			<stop offset="0" stop-color="#6e6652"/>
			<stop offset="1" stop-color="#303030"/>
		</linearGradient>
		<linearGradient id="g72" x1="439.1" y1="190.1" x2="432.4" y2="202.6" gradientUnits="userSpaceOnUse">
			<stop offset="0" stop-color="#6e6652"/>
			<stop offset="1" stop-color="#303030"/>
		</linearGradient>
		<linearGradient id="g73" x1="444.9" y1="187.9" x2="436.2" y2="199" gradientUnits="userSpaceOnUse">
			<stop offset="0" stop-color="#6e6652"/>
			<stop offset="1" stop-color="#303030"/>
		</linearGradient>
		<linearGradient id="g74" x1="451.1" y1="186.7" x2="440.5" y2="196.2" gradientUnits="userSpaceOnUse">
			<stop offset="0" stop-color="#6e6652"/>
			<stop offset="1" stop-color="#303030"/>
		</linearGradient>
		<linearGradient id="g75" x1="457.3" y1="186.6" x2="445.3" y2="194.1" gradientUnits="userSpaceOnUse">
			<stop offset="0" stop-color="#6e6652"/>
			<stop offset="1" stop-color="#303030"/>
		</linearGradient>
		<linearGradient id="g76" x1="463.5" y1="187.6" x2="450.3" y2="192.9" gradientUnits="userSpaceOnUse">
			<stop offset="0" stop-color="#6e6652"/>
			<stop offset="1" stop-color="#303030"/>
		</linearGradient>
		<linearGradient id="g77" x1="469.4" y1="189.7" x2="455.5" y2="192.6" gradientUnits="userSpaceOnUse">
			<stop offset="0" stop-color="#6e6652"/>
			<stop offset="1" stop-color="#303030"/>
		</linearGradient>
		<linearGradient id="g78" x1="474.9" y1="192.7" x2="460.7" y2="193.2" gradientUnits="userSpaceOnUse">
			<stop offset="0" stop-color="#6e6652"/>
			<stop offset="1" stop-color="#303030"/>
		</linearGradient>
		<linearGradient id="g79" x1="479.7" y1="196.7" x2="465.6" y2="194.7" gradientUnits="userSpaceOnUse">
			<stop offset="0" stop-color="#6e6652"/>
			<stop offset="1" stop-color="#303030"/>
		</linearGradient>
		<linearGradient id="g80" x1="483.8" y1="201.4" x2="470.3" y2="197" gradientUnits="userSpaceOnUse">
			<stop offset="0" stop-color="#6e6652"/>
			<stop offset="1" stop-color="#303030"/>
		</linearGradient>
		<linearGradient id="g81" x1="487" y1="206.8" x2="474.5" y2="200.1" gradientUnits="userSpaceOnUse">
			<stop offset="0" stop-color="#6e6652"/>
			<stop offset="1" stop-color="#303030"/>
		</linearGradient>
		<linearGradient id="g82" x1="489.2" y1="212.6" x2="478" y2="203.9" gradientUnits="userSpaceOnUse">
			<stop offset="0" stop-color="#6e6652"/>
			<stop offset="1" stop-color="#303030"/>
		</linearGradient>
		<linearGradient id="g83" x1="490.4" y1="218.8" x2="480.9" y2="208.2" gradientUnits="userSpaceOnUse">
			<stop offset="0" stop-color="#6e6652"/>
			<stop offset="1" stop-color="#303030"/>
		</linearGradient>
		<linearGradient id="g84" x1="490.5" y1="225" x2="483" y2="212.9" gradientUnits="userSpaceOnUse">
			<stop offset="0" stop-color="#6e6652"/>
			<stop offset="1" stop-color="#303030"/>
		</linearGradient>
		<linearGradient id="g85" x1="489.4" y1="231.2" x2="484.2" y2="218" gradientUnits="userSpaceOnUse">
			<stop offset="0" stop-color="#6e6652"/>
			<stop offset="1" stop-color="#303030"/>
		</linearGradient>
		<linearGradient id="g86" x1="487.4" y1="237.1" x2="484.5" y2="223.2" gradientUnits="userSpaceOnUse">
			<stop offset="0" stop-color="#6e6652"/>
			<stop offset="1" stop-color="#303030"/>
		</linearGradient>
		<linearGradient id="g87" x1="437.8" y1="204.1" x2="437.8" y2="204.1" gradientUnits="userSpaceOnUse">
			<stop offset="0" stop-color="#fcfcfc"/>
			<stop offset="1" stop-color="#fcfcfc"/>
		</linearGradient>
		<linearGradient id="g88" x1="739.4" y1="174" x2="739.4" y2="174" gradientUnits="userSpaceOnUse">
			<stop offset="0" stop-color="#fcfcfc"/>
			<stop offset="1" stop-color="#fcfcfc"/>
		</linearGradient>
		<radialGradient id="g89" cx="564.2" cy="479.8" r="207.1" gradientUnits="userSpaceOnUse">
			<stop offset="0" stop-color="#ffffff"/>
			<stop offset=".803" stop-color="#d7d7d7"/>
			<stop offset="1" stop-color="#ffffff"/>
		</radialGradient>
	</defs>
	<style>
		.s0 { mix-blend-mode: multiply;fill: url(#g1) } 
		.s1 { fill: #022b3d } 
		.s2 { opacity: .3;fill: #022b3d } 
		.s3 { fill: #d6d6cf } 
		.s4 { fill: #e8e8e8 } 
		.s5 { fill: url(#g2) } 
		.s6 { fill: url(#g3) } 
		.s7 { fill: url(#g4) } 
		.s8 { mix-blend-mode: multiply;fill: #74d2f7 } 
		.s9 { fill: #335f72 } 
		.s10 { fill: url(#g5) } 
		.s11 { fill: url(#g6) } 
		.s12 { fill: url(#g7) } 
		.s13 { fill: url(#g8) } 
		.s14 { fill: url(#g9) } 
		.s15 { fill: url(#g10) } 
		.s16 { fill: url(#g11) } 
		.s17 { fill: url(#g12) } 
		.s18 { fill: url(#g13) } 
		.s19 { fill: url(#g14) } 
		.s20 { fill: url(#g15) } 
		.s21 { fill: url(#g16) } 
		.s22 { fill: url(#g17) } 
		.s23 { fill: url(#g18) } 
		.s24 { fill: url(#g19) } 
		.s25 { fill: url(#g20) } 
		.s26 { fill: url(#g21) } 
		.s27 { fill: url(#g22) } 
		.s28 { fill: url(#g23) } 
		.s29 { fill: url(#g24) } 
		.s30 { fill: url(#g25) } 
		.s31 { fill: url(#g26) } 
		.s32 { fill: url(#g27) } 
		.s33 { fill: url(#g28) } 
		.s34 { fill: url(#g29) } 
		.s35 { fill: url(#g30) } 
		.s36 { fill: url(#g31) } 
		.s37 { fill: url(#g32) } 
		.s38 { fill: url(#g33) } 
		.s39 { fill: url(#g34) } 
		.s40 { fill: url(#g35) } 
		.s41 { fill: url(#g36) } 
		.s42 { fill: url(#g37) } 
		.s43 { fill: url(#g38) } 
		.s44 { fill: url(#g39) } 
		.s45 { fill: url(#g40) } 
		.s46 { fill: url(#g41) } 
		.s47 { fill: url(#g42) } 
		.s48 { fill: url(#g43) } 
		.s49 { fill: url(#g44) } 
		.s50 { fill: url(#g45) } 
		.s51 { fill: url(#g46) } 
		.s52 { fill: #35667b } 
		.s53 { fill: #3d96bc } 
		.s54 { mix-blend-mode: multiply;fill: #eaeaea } 
		.s55 { fill: url(#g47) } 
		.s56 { fill: url(#g48) } 
		.s57 { fill: url(#g49) } 
		.s58 { fill: url(#g50) } 
		.s59 { fill: url(#g51) } 
		.s60 { fill: url(#g52) } 
		.s61 { fill: url(#g53) } 
		.s62 { fill: url(#g54) } 
		.s63 { fill: url(#g55) } 
		.s64 { fill: url(#g56) } 
		.s65 { fill: url(#g57) } 
		.s66 { fill: url(#g58) } 
		.s67 { fill: url(#g59) } 
		.s68 { fill: url(#g60) } 
		.s69 { fill: url(#g61) } 
		.s70 { fill: url(#g62) } 
		.s71 { fill: url(#g63) } 
		.s72 { fill: url(#g64) } 
		.s73 { fill: url(#g65) } 
		.s74 { fill: url(#g66) } 
		.s75 { fill: url(#g67) } 
		.s76 { fill: url(#g68) } 
		.s77 { fill: url(#g69) } 
		.s78 { fill: url(#g70) } 
		.s79 { fill: url(#g71) } 
		.s80 { fill: url(#g72) } 
		.s81 { fill: url(#g73) } 
		.s82 { fill: url(#g74) } 
		.s83 { fill: url(#g75) } 
		.s84 { fill: url(#g76) } 
		.s85 { fill: url(#g77) } 
		.s86 { fill: url(#g78) } 
		.s87 { fill: url(#g79) } 
		.s88 { fill: url(#g80) } 
		.s89 { fill: url(#g81) } 
		.s90 { fill: url(#g82) } 
		.s91 { fill: url(#g83) } 
		.s92 { fill: url(#g84) } 
		.s93 { fill: url(#g85) } 
		.s94 { fill: url(#g86) } 
		.s95 { fill: url(#g87) } 
		.s96 { fill: url(#g88) } 
		.s97 { fill: #b4b4ae } 
		.s98 { fill: url(#g89) } 
		.s99 { fill: #0ba0db } 
	</style>
	<g id="_Artboards_">
	</g>
	<g id="Layer 1">
		<path id="&lt;Mesh&gt;" fill-rule="evenodd" class="s0" d="m485.4 607.7c-1.6 6.5-2.1 7.5-2.5 8.1-0.4 0.8-0.8 1.1-2.6 8.5-138.3-9.3-298.5-228.5-149.6-349.8 6.8 0.9 15.1 1.8 25.2 2.9 1.5 6.5 15.5 12 17 18.5-161.9 109.3 5.3 301.7 112.5 311.8zm-146.9-339.3q9.9-7.2 21.3-13.9 9.1-5.4 19.4-10.4c1.7 7.4-7.6 15.7-5.9 23.2 1.5 6.5 14 12.1 15.5 18.6q-8.4 5-15.9 10c-1.5-6.5-15.5-12-17-18.5-0.7-2.9 0.1-6 1.1-9.1-5.6 0.1-12.1 0.1-18.5 0.1zm0 0q-4 3-7.8 6.1c-47.3-5.8-20.1-6 7.8-6.1zm21.3-13.9c1 4.4-1.2 9.1-2.8 13.8 1.6-4.7 3.8-9.4 2.8-13.8z"/>
		<path id="&lt;Path&gt;" class="s1" d="m684.1 769.1c0 25.9-82.2 47-183.6 47-101.3 0-183.5-21.1-183.5-47 0-26 82.2-47.1 183.5-47.1 101.4 0 183.6 21.1 183.6 47.1z"/>
		<path id="&lt;Path&gt;" class="s2" d="m545.5 747.8c0 34.7-109.8 62.9-245.3 62.9-135.4 0-245.2-28.2-245.2-62.9 0-34.7 109.8-62.8 245.2-62.8 135.5 0 245.3 28.1 245.3 62.8z"/>
		<g id="&lt;Group&gt;">
			<path id="&lt;Path&gt;" class="s3" d="m842.4 110l1.2-1.5 1.1 15.8-4.6 3.2z"/>
			<path id="&lt;Path&gt;" class="s4" d="m843.6 108.5l0.6 0.1 0.5 15.7-1.8 0.1z"/>
			<path id="&lt;Mesh&gt;" class="s5" d="m480.4 183.1c-3 1.1-4.3 3.1-5.5 3.4-12.7-25.5-27.7-59.8-42.9-89 0.8-0.1 1.4 0.8 1.8 1.6 2.7 5.7 5.8 10.7 9.1 16.9 13.6 25.4 29.1 61 37.5 67.1zm-5.5 3.4c-0.4 0.1-1 0.5-1.9 1.1-10.6-26.1-27.4-61.6-41.9-90q0.5-0.1 0.9-0.1c15.2 29.2 30.2 63.5 42.9 89zm-1.9 1.1c-5.7 3.7-20.7 16.1-23.1 16.7-8.1-34.7-17.1-71-25.3-105.8 1.8-0.5 4.5-0.8 6.5-0.9 14.5 28.4 31.3 63.9 41.9 90z"/>
			<path id="&lt;Mesh&gt;" class="s6" d="m841.5 127.8c-5.6 2.6-12.4 6.6-17.1 9.1-56.8 30.4-124.3 46.8-186.5 70.6q12.1-7.9 24.2-15.8c5.6-1.9 10.9-3.9 16-5.8 88.9-22.6 105.9-34.1 166-61q-1.1 1.3-2.6 2.9zm2.6-2.9c-60.1 26.9-77.1 38.4-166 61-5.1 1.9-10.4 3.9-16 5.8q0.6-0.3 1.2-0.7c3.6-1.3 7-2.8 10.4-4.1 1.8-0.7 3.5-1.3 5.3-1.9 87.5-22.2 105.9-33.9 165.7-60.7 0.1 0.2-0.4 0.4-0.6 0.6zm0.6-0.6c-59.8 26.8-78.2 38.5-165.7 60.7-1.8 0.6-3.5 1.2-5.3 1.9-3.4 1.3-6.8 2.8-10.4 4.1q4.5-3 9.1-6c3-2 5.7-4.2 8.9-5.8 48.8-10.7 111.1-31.7 161.5-55.5 0.5-0.1 1.5 0.1 1.9 0.6z"/>
			<path id="&lt;Mesh&gt;" class="s7" d="m703.7 176.1c-6.9 3.9-14.5 7.9-22.5 11.8 8.6-5.9 23-21.9 31.8-28.2 7.4-4 12.5 1.1 17-1.8-6.3 5.8-15.3 11.9-26.3 18.2zm26.3-18.2c-4.5 2.9-9.6-2.2-17 1.8 6-4.4 10.2-6.3 12.8-9.1 8.1-2.8 10.9-2.7 13.3-5.3-1.2 4-4.4 8.2-9.1 12.6zm9.1-12.6c-2.4 2.6-5.2 2.5-13.3 5.3 1-1.1 1.7-2.2 2.2-3.7 8.2-2.4 10-4.6 11.8-6.8 0 1.8-0.2 3.6-0.7 5.2zm0.7-5.2c-1.8 2.2-3.6 4.4-11.8 6.8 0.8-2.2 1-5.2 0.8-9.5 8.4-1.7 9-4.2 10-5.7 0.6 2.6 1.1 5.5 1 8.4zm-1-8.4c-1 1.5-1.6 4-10 5.7q-0.1-1.9-0.6-3.9c7.7-1.1 8.7-3.4 9.7-4.7q0.5 1.5 0.9 2.9zm-0.9-2.9c-1 1.3-2 3.6-9.7 4.7-2.4-11.1-11.2-26.9-18.2-37 5.7 2.1 10.8 5.6 14.8 9.2 6.2 7.1 10.6 15.2 13.1 23.1zm-13.1-23.1c-4-3.6-9.1-7.1-14.8-9.2-1.6-2.3-3-4.2-4.3-5.8 5.6 2.8 10.6 6.4 14.9 10.5q2.2 2.2 4.2 4.5zm-43.6 82.2c-9.7 4.8-20 9.5-30.1 14 7.1-5.4 14.5-16.2 21.2-22.8 13.6-6.3 27.1-12.9 40.7-19.4-8.8 6.3-23.2 22.3-31.8 28.2zm31.8-28.2c-13.6 6.5-27.1 13.1-40.7 19.4 5.6-5.4 5-10.4 5.2-14.5 16.3-4.1 32.5-8.6 48.3-14-2.6 2.8-6.8 4.7-12.8 9.1zm12.8-9.1c-15.8 5.4-32 9.9-48.3 14 0.1-1.5-0.8-4-0.9-5.9 17.2-3.4 34.5-7 51.4-11.8-0.5 1.5-1.2 2.6-2.2 3.7zm2.2-3.7c-16.9 4.8-34.2 8.4-51.4 11.8-0.4-3-8.8-5.3-8.9-10.4 17-2.6 36.2-6 61.1-10.9 0.2 4.3 0 7.3-0.8 9.5zm0.8-9.5c-24.9 4.9-44.1 8.3-61.1 10.9-1.2-1.5 7.8-7.4 6.6-9 18-1.8 36.1-3.6 53.9-5.8q0.5 2 0.6 3.9zm-0.6-3.9c-17.8 2.2-35.9 4-53.9 5.8-0.6-11-7.7-35.3-10.5-45.1 15.5-3.2 31.1-3.3 46.2 2.3 7 10.1 15.8 25.9 18.2 37zm-18.2-37c-15.1-5.6-30.7-5.5-46.2-2.3 0.7-3.1 4.6-6.7 5.7-9.1 13.9-2 26.1 0.5 36.2 5.6 1.3 1.6 2.7 3.5 4.3 5.8zm-58.9 105.4c-18.4 8-36.5 15.2-51.1 20.9 3.9-4.1-6.1-6.7-2-11.3 25.2-9.9 49.8-20.9 74.3-32.4-6.7 6.6-14.1 17.4-21.2 22.8zm21.2-22.8c-24.5 11.5-49.1 22.5-74.3 32.4 2.6-10.1-2.6-16.6-8.2-23.8 28.7-9.3 58.4-15.6 87.7-23.1-0.2 4.1 0.4 9.1-5.2 14.5zm5.2-14.5c-29.3 7.5-59 13.8-87.7 23.1-2-2.6-4.2-5.3-6-8.3 30.3-9.3 61.7-14.5 92.8-20.7 0.1 1.9 1 4.4 0.9 5.9zm-0.9-5.9c-31.1 6.2-62.5 11.4-92.8 20.7-2.8-4.7-4.8-10.1-4.6-17.1 28.6-7.9 59.1-9.5 88.5-14 0.1 5.1 8.5 7.4 8.9 10.4zm-8.9-10.4c-29.4 4.5-59.9 6.1-88.5 14-3.5-1.5 1.9-5.5-1.4-7.2 31.4-8.6 64-12.4 96.5-15.8 1.2 1.6-7.8 7.5-6.6 9zm6.6-9c-32.5 3.4-65.1 7.2-96.5 15.8 3.9-10.9-0.8-19.2 6.5-28 23.8-11 51.5-27 79.5-32.9 2.8 9.8 9.9 34.1 10.5 45.1zm-10.5-45.1c-28 5.9-55.7 21.9-79.5 32.9 3.4-4.1 8.4-7.2 12.6-10.6 18.9-9.5 35.3-17.4 46.1-22.8 9.4-4.7 18.3-7.4 26.5-8.6-1.1 2.4-5 6-5.7 9.1zm-63.8 128.6c-6.5 2.5-12.3 4.8-17 6.6-13.1 4.9-26 10.1-39.3 14.4 1.9-4-6-7.3-4.3-12 19.8-5.8 39.4-12.8 58.6-20.3-4.1 4.6 5.9 7.2 2 11.3zm-2-11.3c-19.2 7.5-38.8 14.5-58.6 20.3 3.3-9 15-23 14.1-32.2 13.5-11.2 19.8-6.1 36.3-11.9 5.6 7.2 10.8 13.7 8.2 23.8zm-8.2-23.8c-16.5 5.8-22.8 0.7-36.3 11.9-0.4-3.4-14.2-1.9-14.5-5.4 16.1-5.9 29.9-9.9 44.8-14.8 1.8 3 4 5.7 6 8.3zm-6-8.3c-14.9 4.9-28.7 8.9-44.8 14.8-0.4-5.6-0.5-11.5 0.3-17.8 15.1-6.2 28.1-10.8 39.9-14.1-0.2 7 1.8 12.4 4.6 17.1zm-4.6-17.1c-11.8 3.3-24.8 7.9-39.9 14.1-2.3-1.5-11.9-0.4-13.9-2.1 17-7.7 34.3-14.3 52.4-19.2 3.3 1.7-2.1 5.7 1.4 7.2zm-1.4-7.2c-18.1 4.9-35.4 11.5-52.4 19.2 3.9-10.1 5.7-15.9 13-23.6 16.5-9.1 32.5-17.4 45.9-23.6-7.3 8.8-2.6 17.1-6.5 28zm6.5-28c-13.4 6.2-29.4 14.5-45.9 23.6 5.2-5.4 12.4-9.3 18.5-13.7 13.8-7.3 27.4-14.2 40-20.5-4.2 3.4-9.2 6.5-12.6 10.6zm-40.6 116.7c-33 10.8-68 16.8-92.4-2.7q-3.6-2.9-6.9-6.6c24.9 12.9 59.9 7.6 95-2.7-1.7 4.7 6.2 8 4.3 12zm-4.3-12c-35.1 10.3-70.1 15.6-95 2.7-1.5-1.7-3.1-3.4-4.2-5.3 34-4.6 84.4-5.7 113.3-29.6 0.9 9.2-10.8 23.2-14.1 32.2zm14.1-32.2c-28.9 23.9-79.3 25-113.3 29.6q-0.6-1.1-1-2.2c36.9-10.1 71-22.3 99.8-32.8 0.3 3.5 14.1 2 14.5 5.4zm-14.5-5.4c-28.8 10.5-62.9 22.7-99.8 32.8-0.4-1.3-0.6-2.6-0.4-4 42.5-20.8 74.6-36 100.5-46.6-0.8 6.3-0.7 12.2-0.3 17.8zm0.3-17.8c-25.9 10.6-58 25.8-100.5 46.6q0.2-2.2 1.3-4.6c28.2-14.9 56.2-30.9 85.3-44.1 2 1.7 11.6 0.6 13.9 2.1zm-13.9-2.1c-29.1 13.2-57.1 29.2-85.3 44.1 3.7-8.4 11.6-15.1 18.5-20.8 21.6-13.4 51.5-31.3 79.8-46.9-7.3 7.7-9.1 13.5-13 23.6zm13-23.6c-28.3 15.6-58.2 33.5-79.8 46.9 9.4-7.9 19.6-14.8 29.9-21.4 20.4-13.1 44.7-26.7 68.4-39.2-6.1 4.4-13.3 8.3-18.5 13.7z"/>
			<path id="&lt;Path&gt;" class="s8" d="m451.3 241.1q-3.6-2.9-6.9-6.6c-1.5-1.7-3.1-3.4-4.2-5.3q-0.5-0.9-0.8-1.8c40.7-15.7 89.1-43.5 110.3-50.4 31-10.3 68.6 2.7 94.7 1.3 26.1-1.4 67.9-38.8 88-39.7 2.6-0.1 5.5-0.1 7.4 1.6 0 1.8-0.3 3.5-0.7 5.1-1.2 4-4.4 8.2-9.1 12.6-6.3 5.8-15.3 11.9-26.3 18.2-6.9 3.9-14.5 7.9-22.5 11.8-27.3 13.4-58.6 26.1-81.2 34.9-6.5 2.5-12.3 4.8-17 6.6-13.1 4.9-26 10.1-39.3 14.4-33 10.8-68 16.8-92.4-2.7z"/>
			<g id="&lt;Group&gt;">
				<path id="&lt;Path&gt;" class="s9" d="m688.1 101.5c5.4-1 11.2-1.5 16.8-1.9l6.2 8.7c-6.7 0.4-12.9 1.2-19.1 2z"/>
				<path id="&lt;Path&gt;" class="s9" d="m717.6 99.1c-3.8-0.1-7.8 0-11.6 0.3l6.7 9.1c4-0.8 8.3-1.4 12.4-1.8-2.2-2.5-4.6-5.4-7.5-7.6z"/>
				<path id="&lt;Path&gt;" class="s9" d="m687 101.8c-5.5 2.5-10.8 5.5-15.4 9.9-0.9 1.6-1.7 3.8-1.7 5.3 6.3-2.6 14.4-9.3 17.4-15z"/>
				<path id="&lt;Path&gt;" class="s10" d="m688.4 101.8c5.4-1 10.9-1.6 16.6-2l6.4 8.8c-6.7 0.3-13.1 0.9-19.3 1.7z"/>
				<path id="&lt;Path&gt;" class="s11" d="m717.7 99.3c-3.8-0.1-7.6 0.1-11.4 0.4l6.4 8.8c4.1-0.8 8.1-1.4 12.2-1.8-2.1-2.6-4.3-5.1-7.2-7.4z"/>
				<path id="&lt;Path&gt;" class="s12" d="m687.3 102c-5.5 2.5-10.8 5.5-15.4 10q-1.4 2.4-2 5c6.3-2.6 13.1-4.9 20.8-6.7z"/>
			</g>
			<path id="&lt;Mesh&gt;" class="s13" d="m774.4 216c-5.1 5.1-10.6 8.5-18.1 11 1.8-12.1 2.5-23.8 2.6-36.1 10.2-0.5 19.3-1.3 26.9-0.5 0.5 9.7-4.7 19-11.4 25.6zm11.4-25.6c-7.6-0.8-16.7 0-26.9 0.5q0.1-2.3 0-4.7c10.1-0.5 19.2 1.3 26.7 2.2q0.1 1 0.2 2zm-0.2-2c-7.5-0.9-16.6-2.7-26.7-2.2-0.1-6.4-0.7-12.8-1.9-19.1 9.2-0.4 19.9 11.1 26.6 13.6 1 2.4 1.7 5 2 7.7zm-2-7.7c-6.7-2.5-17.4-14-26.6-13.6q-0.4-2.1-0.8-3.9c7.9-0.3 15.2 2.7 20.5 7.8 2.9 2.7 5.3 6 6.9 9.7zm-27.3 46.3c-2.7 0.9-9.4 1.5-12.3 1.4-8.2-0.3-14.8-1.2-22.2-5.7-3.7-3.7-5.2-10.5-6.3-15.7 12.3-4.1 19.9-15.6 43.4-16.1-0.1 12.3-0.8 24-2.6 36.1zm2.6-36.1c-23.5 0.5-31.1 12-43.4 16.1q-0.5-2.4-0.7-4.9c12-4.8 21.1-15.4 44.1-15.9q0.1 2.4 0 4.7zm0-4.7c-23 0.5-32.1 11.1-44.1 15.9-0.5-6.9 0.9-12.2 3.5-18.4 9.7-11.1 20.3-16.2 38.7-16.6 1.2 6.3 1.8 12.7 1.9 19.1zm-1.9-19.1c-18.4 0.4-29 5.5-38.7 16.6 1.5-3.7 3.6-7.1 6-9.6 8.9-7.1 20.6-10.6 31.9-10.9q0.4 1.8 0.8 3.9zm-35.2 55.6q-2-1.2-3.7-2.6c-4-3.2-6.8-7.2-8-11.9 2-0.2 3.7-0.6 5.4-1.2 1.1 5.2 2.6 12 6.3 15.7zm-6.3-15.7c-1.7 0.6-3.4 1-5.4 1.2q-0.3-1.5-0.4-3c1.8-0.4 3.5-2.5 5.1-3.1q0.2 2.5 0.7 4.9zm-0.7-4.9c-1.6 0.6-3.3 2.7-5.1 3.1-0.5-4.2 0.2-7 1.3-11.1 1.6-2 6.2-9.2 7.3-10.4-2.6 6.2-4 11.5-3.5 18.4zm3.5-18.4c-1.1 1.2-5.7 8.4-7.3 10.4 1.8-6.4 5.1-12.2 9.8-16.9q1.7-1.7 3.5-3.1c-2.4 2.5-4.5 5.9-6 9.6z"/>
			<path id="&lt;Path&gt;" class="s14" d="m728.2 192.9c0.5 15.9 13.8 28.4 29.7 27.9 15.9-0.5 28.4-13.8 27.9-29.7-0.5-15.9-13.8-28.4-29.7-27.9-15.9 0.5-28.4 13.8-27.9 29.7z"/>
			<path id="&lt;Path&gt;" class="s15" d="m734.1 192.7c0.4 12.7 11 22.6 23.6 22.2 12.7-0.4 22.6-11 22.2-23.6-0.4-12.7-11-22.6-23.6-22.2-12.7 0.4-22.6 11-22.2 23.6z"/>
			<g id="&lt;Group&gt;">
				<path id="&lt;Path&gt;" class="s16" d="m757.4 213.6l3-0.3c0.5-4.8-0.8-9.4-2.1-14l-1.5 0.1c2 4.7 1.8 9.5 0.6 14.2z"/>
				<path id="&lt;Path&gt;" class="s17" d="m753.7 213.4l3.1 0.3c1.3-4.7 0.8-9.5 0.3-14.3l-1.5-0.1c1.1 5 0.1 9.7-1.9 14.1z"/>
				<path id="&lt;Path&gt;" class="s18" d="m750.1 212.6l3 0.8c2.1-4.4 2.4-9.2 2.8-14l-1.5-0.4c0.3 5.2-1.6 9.6-4.3 13.6z"/>
				<path id="&lt;Path&gt;" class="s19" d="m746.7 211.1l2.8 1.3c2.9-3.9 4-8.6 5.2-13.2l-1.4-0.7c-0.6 5.1-3.2 9.2-6.6 12.6z"/>
				<path id="&lt;Path&gt;" class="s20" d="m743.6 209.1l2.6 1.8c3.4-3.4 5.4-7.8 7.4-12.2l-1.3-0.8c-1.5 4.9-4.7 8.4-8.7 11.2z"/>
				<path id="&lt;Path&gt;" class="s21" d="m740.9 206.6l2.2 2.2c4-2.7 6.7-6.7 9.4-10.7l-1-1.1c-2.4 4.6-6.2 7.5-10.6 9.6z"/>
				<path id="&lt;Path&gt;" class="s22" d="m738.7 203.7l1.8 2.5c4.4-2 7.8-5.4 11.1-8.9l-0.9-1.2c-3 4.1-7.3 6.3-12 7.6z"/>
				<path id="&lt;Path&gt;" class="s23" d="m737 200.4l1.4 2.8c4.7-1.2 8.6-4 12.5-6.9l-0.7-1.3c-3.7 3.5-8.3 4.9-13.2 5.4z"/>
				<path id="&lt;Path&gt;" class="s24" d="m736 196.8l0.8 3c4.8-0.3 9.2-2.4 13.5-4.5l-0.4-1.5c-4.3 2.8-9.1 3.4-13.9 3z"/>
				<path id="&lt;Path&gt;" class="s25" d="m735.5 193.2l0.3 3.1c4.8 0.5 9.5-0.8 14.1-2.2l-0.1-1.5c-4.8 2-9.6 1.8-14.3 0.6z"/>
				<path id="&lt;Path&gt;" class="s26" d="m735.7 189.5l-0.2 3.1c4.6 1.3 9.4 0.8 14.2 0.3l0.1-1.5c-5 1.2-9.6 0.1-14.1-1.9z"/>
				<path id="&lt;Path&gt;" class="s27" d="m736.6 185.9l-0.8 3c4.4 2.1 9.1 2.5 13.9 2.8l0.4-1.4c-5.1 0.2-9.5-1.6-13.5-4.4z"/>
				<path id="&lt;Path&gt;" class="s28" d="m738 182.5l-1.3 2.9c4 2.8 8.6 4 13.3 5.1l0.6-1.3c-5.1-0.7-9.1-3.3-12.6-6.7z"/>
				<path id="&lt;Path&gt;" class="s29" d="m740 179.5l-1.7 2.5c3.3 3.5 7.7 5.4 12.1 7.4l0.9-1.2c-4.9-1.5-8.4-4.8-11.3-8.7z"/>
				<path id="&lt;Path&gt;" class="s30" d="m742.6 176.8l-2.2 2.2c2.7 4 6.7 6.7 10.7 9.4l1-1.1c-4.6-2.3-7.5-6.2-9.5-10.5z"/>
				<path id="&lt;Path&gt;" class="s31" d="m745.5 174.6l-2.5 1.8c1.9 4.4 5.4 7.7 8.9 11.1l1.2-0.9c-4.1-3.1-6.3-7.4-7.6-12z"/>
				<path id="&lt;Path&gt;" class="s32" d="m748.8 172.9l-2.8 1.3c1.2 4.7 4 8.6 6.8 12.5l1.4-0.6c-3.5-3.8-4.9-8.4-5.4-13.2z"/>
				<path id="&lt;Path&gt;" class="s33" d="m752.3 171.8l-3 0.9c0.4 4.8 2.5 9.1 4.6 13.4l1.4-0.4c-2.8-4.3-3.4-9-3-13.9z"/>
				<path id="&lt;Path&gt;" class="s34" d="m756 171.4l-3.1 0.3c-0.5 4.8 0.8 9.4 2.1 14l1.5-0.1c-2-4.7-1.7-9.5-0.5-14.2z"/>
				<path id="&lt;Path&gt;" class="s35" d="m759.6 171.6l-3-0.3c-1.4 4.7-0.9 9.5-0.4 14.3l1.5 0.1c-1.1-5-0.1-9.7 1.9-14.1z"/>
				<path id="&lt;Path&gt;" class="s36" d="m763.2 172.4l-3-0.8c-2.1 4.4-2.4 9.2-2.8 14l1.5 0.4c-0.3-5.2 1.6-9.6 4.3-13.6z"/>
				<path id="&lt;Path&gt;" class="s37" d="m766.6 173.9l-2.8-1.3c-2.8 3.9-4 8.6-5.2 13.2l1.4 0.6c0.6-5 3.2-9.1 6.6-12.5z"/>
				<path id="&lt;Path&gt;" class="s38" d="m769.7 175.9l-2.6-1.8c-3.4 3.4-5.4 7.8-7.3 12.2l1.2 0.8c1.5-4.9 4.8-8.4 8.7-11.2z"/>
				<path id="&lt;Path&gt;" class="s39" d="m772.4 178.4l-2.2-2.2c-4 2.7-6.7 6.7-9.4 10.7l1.1 1.1c2.3-4.6 6.1-7.5 10.5-9.6z"/>
				<path id="&lt;Path&gt;" class="s40" d="m774.6 181.3l-1.8-2.5c-4.4 2-7.8 5.4-11.1 8.9l0.9 1.2c3.1-4.1 7.3-6.3 12-7.6z"/>
				<path id="&lt;Path&gt;" class="s41" d="m776.3 184.6l-1.4-2.8c-4.7 1.2-8.6 4-12.4 6.8l0.6 1.4c3.7-3.5 8.3-4.9 13.2-5.4z"/>
				<path id="&lt;Path&gt;" class="s42" d="m777.3 188.1l-0.8-2.9c-4.8 0.3-9.1 2.4-13.5 4.5l0.4 1.5c4.3-2.8 9.1-3.4 13.9-3.1z"/>
				<path id="&lt;Path&gt;" class="s43" d="m777.8 191.8l-0.3-3.1c-4.8-0.5-9.5 0.8-14.1 2.2l0.2 1.5c4.7-2 9.5-1.8 14.2-0.6z"/>
				<path id="&lt;Path&gt;" class="s44" d="m777.6 195.5l0.2-3.1c-4.6-1.3-9.4-0.8-14.2-0.3l-0.1 1.5c5-1.2 9.7-0.1 14.1 1.9z"/>
				<path id="&lt;Path&gt;" class="s45" d="m776.7 199.1l0.8-3c-4.3-2.1-9.1-2.5-13.9-2.8l-0.4 1.4c5.1-0.2 9.5 1.6 13.5 4.4z"/>
				<path id="&lt;Path&gt;" class="s46" d="m775.3 202.5l1.3-2.9c-3.9-2.8-8.6-4-13.3-5.1l-0.6 1.3c5.1 0.6 9.1 3.3 12.6 6.7z"/>
				<path id="&lt;Path&gt;" class="s47" d="m773.3 205.5l1.7-2.5c-3.3-3.5-7.7-5.4-12.1-7.4l-0.9 1.2c4.9 1.5 8.5 4.8 11.3 8.7z"/>
				<path id="&lt;Path&gt;" class="s48" d="m770.8 208.2l2.1-2.2c-2.7-4-6.7-6.7-10.6-9.4l-1.1 1.1c4.6 2.3 7.5 6.1 9.6 10.5z"/>
				<path id="&lt;Path&gt;" class="s49" d="m767.8 210.4l2.5-1.8c-1.9-4.4-5.4-7.7-8.8-11.1l-1.3 0.9c4.1 3.1 6.3 7.4 7.6 12z"/>
				<path id="&lt;Path&gt;" class="s50" d="m764.5 212.1l2.8-1.3c-1.2-4.7-4-8.6-6.8-12.5l-1.3 0.6c3.5 3.8 4.9 8.4 5.3 13.2z"/>
				<path id="&lt;Path&gt;" class="s51" d="m761 213.2l3-0.9c-0.4-4.8-2.5-9.1-4.6-13.4l-1.4 0.4c2.8 4.3 3.4 9 3 13.9z"/>
			</g>
			<g id="&lt;Group&gt;">
				<g id="&lt;Group&gt;" style="mix-blend-mode: multiply">
					<path id="&lt;Path&gt;" class="s52" d="m618.6 128.4c0.1 2.6 0.8 4.7 1.7 4.7 0.8 0 1.4-2.2 1.3-4.8-0.1-2.6-0.8-4.7-1.6-4.7-0.9 0.1-1.5 2.2-1.4 4.8z"/>
					<path id="&lt;Path&gt;" class="s52" d="m614 130.9c0.1 2.6 0.8 4.7 1.6 4.7 0.9-0.1 1.5-2.2 1.4-4.8-0.1-2.6-0.8-4.7-1.7-4.7-0.8 0-1.4 2.2-1.3 4.8z"/>
					<path id="&lt;Path&gt;" class="s52" d="m609.4 133.3c0.1 2.7 0.8 4.8 1.6 4.7 0.9 0 1.5-2.1 1.4-4.8-0.1-2.6-0.8-4.7-1.7-4.6-0.8 0-1.4 2.1-1.3 4.7z"/>
					<path id="&lt;Path&gt;" class="s52" d="m604.7 135.8c0.1 2.6 0.9 4.7 1.7 4.7 0.8 0 1.4-2.2 1.4-4.8-0.1-2.6-0.9-4.7-1.7-4.7-0.8 0-1.4 2.2-1.4 4.8z"/>
					<path id="&lt;Path&gt;" class="s52" d="m600.1 138.3c0.1 2.6 0.9 4.7 1.7 4.6 0.8 0 1.4-2.1 1.3-4.7 0-2.6-0.8-4.7-1.6-4.7-0.8 0-1.5 2.1-1.4 4.8z"/>
					<path id="&lt;Path&gt;" class="s52" d="m595.5 140.7c0.1 2.6 0.8 4.7 1.7 4.7 0.8 0 1.4-2.2 1.3-4.8-0.1-2.6-0.8-4.7-1.6-4.7-0.9 0.1-1.5 2.2-1.4 4.8z"/>
					<path id="&lt;Path&gt;" class="s52" d="m590.9 143.2c0.1 2.6 0.8 4.7 1.6 4.7 0.9-0.1 1.5-2.2 1.4-4.8-0.1-2.6-0.8-4.7-1.7-4.7-0.8 0-1.4 2.2-1.3 4.8z"/>
					<path id="&lt;Path&gt;" class="s52" d="m586.3 145.6c0.1 2.6 0.8 4.7 1.6 4.7 0.9 0 1.5-2.1 1.4-4.8-0.1-2.6-0.8-4.7-1.7-4.6-0.8 0-1.4 2.1-1.3 4.7z"/>
					<path id="&lt;Path&gt;" class="s52" d="m581.6 148.1c0.1 2.6 0.9 4.7 1.7 4.7 0.8 0 1.4-2.2 1.4-4.8-0.1-2.6-0.9-4.7-1.7-4.7-0.8 0-1.4 2.2-1.4 4.8z"/>
					<path id="&lt;Path&gt;" class="s52" d="m577 150.6c0.1 2.6 0.9 4.7 1.7 4.6 0.8 0 1.4-2.1 1.3-4.7 0-2.7-0.8-4.8-1.6-4.7-0.8 0-1.4 2.1-1.4 4.8z"/>
					<path id="&lt;Path&gt;" class="s52" d="m572.4 153c0.1 2.6 0.8 4.7 1.7 4.7 0.8 0 1.4-2.2 1.3-4.8-0.1-2.6-0.8-4.7-1.6-4.7-0.9 0.1-1.5 2.2-1.4 4.8z"/>
					<path id="&lt;Path&gt;" class="s52" d="m567.8 155.5c0.1 2.6 0.8 4.7 1.6 4.7 0.9-0.1 1.5-2.2 1.4-4.8-0.1-2.6-0.8-4.7-1.6-4.7-0.9 0-1.5 2.2-1.4 4.8z"/>
					<path id="&lt;Path&gt;" class="s52" d="m563.2 157.9c0.1 2.6 0.8 4.7 1.6 4.7 0.9 0 1.5-2.2 1.4-4.8-0.1-2.6-0.8-4.7-1.7-4.7-0.8 0.1-1.4 2.2-1.3 4.8z"/>
					<path id="&lt;Path&gt;" class="s52" d="m558.6 160.4c0 2.6 0.8 4.7 1.6 4.7 0.8-0.1 1.4-2.2 1.4-4.8-0.1-2.6-0.9-4.7-1.7-4.7-0.8 0-1.4 2.2-1.3 4.8z"/>
					<path id="&lt;Path&gt;" class="s52" d="m553.9 162.8c0.1 2.7 0.9 4.8 1.7 4.7 0.8 0 1.4-2.1 1.3-4.7 0-2.7-0.8-4.8-1.6-4.7-0.8 0-1.4 2.1-1.4 4.7z"/>
					<path id="&lt;Path&gt;" class="s52" d="m549.3 165.3c0.1 2.6 0.8 4.7 1.7 4.7 0.8 0 1.4-2.2 1.3-4.8-0.1-2.6-0.8-4.7-1.6-4.7-0.9 0-1.5 2.2-1.4 4.8z"/>
					<path id="&lt;Path&gt;" class="s52" d="m544.7 167.8c0.1 2.6 0.8 4.7 1.6 4.6 0.9 0 1.5-2.1 1.4-4.7-0.1-2.6-0.8-4.7-1.6-4.7-0.9 0-1.5 2.1-1.4 4.8z"/>
					<path id="&lt;Path&gt;" class="s52" d="m540.1 170.2c0.1 2.6 0.8 4.7 1.6 4.7 0.9 0 1.5-2.2 1.4-4.8-0.1-2.6-0.8-4.7-1.7-4.7-0.8 0.1-1.4 2.2-1.3 4.8z"/>
					<path id="&lt;Path&gt;" class="s52" d="m535.5 172.7c0 2.6 0.8 4.7 1.6 4.7 0.8-0.1 1.5-2.2 1.4-4.8-0.1-2.6-0.9-4.7-1.7-4.7-0.8 0-1.4 2.2-1.3 4.8z"/>
					<path id="&lt;Path&gt;" class="s52" d="m530.8 175.1c0.1 2.6 0.9 4.7 1.7 4.7 0.8 0 1.4-2.1 1.3-4.8 0-2.6-0.8-4.7-1.6-4.6-0.8 0-1.4 2.1-1.4 4.7z"/>
					<path id="&lt;Path&gt;" class="s52" d="m526.2 177.6c0.1 2.6 0.8 4.7 1.7 4.7 0.8 0 1.4-2.2 1.3-4.8-0.1-2.6-0.8-4.7-1.6-4.7-0.9 0-1.5 2.2-1.4 4.8z"/>
					<path id="&lt;Path&gt;" class="s52" d="m521.6 180.1c0.1 2.6 0.8 4.7 1.7 4.6 0.8 0 1.4-2.1 1.3-4.7-0.1-2.7-0.8-4.8-1.6-4.7-0.9 0-1.5 2.1-1.4 4.8z"/>
					<path id="&lt;Path&gt;" class="s52" d="m517 182.5c0.1 2.6 0.8 4.7 1.6 4.7 0.9 0 1.5-2.2 1.4-4.8-0.1-2.6-0.8-4.7-1.7-4.7-0.8 0.1-1.4 2.2-1.3 4.8z"/>
					<path id="&lt;Path&gt;" class="s52" d="m512.4 185c0 2.6 0.8 4.7 1.6 4.7 0.8-0.1 1.5-2.2 1.4-4.8-0.1-2.6-0.9-4.7-1.7-4.7-0.8 0-1.4 2.2-1.3 4.8z"/>
					<path id="&lt;Path&gt;" class="s52" d="m507.7 187.4c0.1 2.6 0.9 4.7 1.7 4.7 0.8 0 1.4-2.2 1.4-4.8-0.1-2.6-0.9-4.7-1.7-4.7-0.8 0.1-1.4 2.2-1.4 4.8z"/>
					<path id="&lt;Path&gt;" class="s52" d="m503.1 189.9c0.1 2.6 0.8 4.7 1.7 4.7 0.8-0.1 1.4-2.2 1.3-4.8 0-2.6-0.8-4.7-1.6-4.7-0.9 0-1.5 2.2-1.4 4.8z"/>
					<path id="&lt;Path&gt;" class="s52" d="m498.5 192.3c0.1 2.7 0.8 4.8 1.7 4.7 0.8 0 1.4-2.1 1.3-4.8-0.1-2.6-0.8-4.7-1.6-4.6-0.9 0-1.5 2.1-1.4 4.7z"/>
					<path id="&lt;Path&gt;" class="s52" d="m493.9 194.8c0.1 2.6 0.8 4.7 1.6 4.7 0.9 0 1.5-2.2 1.4-4.8-0.1-2.6-0.8-4.7-1.7-4.7-0.8 0-1.4 2.2-1.3 4.8z"/>
				</g>
				<g id="&lt;Group&gt;">
					<path id="&lt;Path&gt;" class="s53" d="m618.6 129.3c0.1 2.6 0.9 4.7 1.7 4.7 0.8-0.1 1.4-2.2 1.4-4.8-0.1-2.6-0.9-4.7-1.7-4.7-0.8 0-1.4 2.2-1.4 4.8z"/>
					<path id="&lt;Path&gt;" class="s53" d="m614 131.7c0.1 2.6 0.8 4.7 1.7 4.7 0.8 0 1.4-2.2 1.3-4.8-0.1-2.6-0.8-4.7-1.6-4.7-0.9 0.1-1.5 2.2-1.4 4.8z"/>
					<path id="&lt;Path&gt;" class="s53" d="m609.4 134.2c0.1 2.6 0.8 4.7 1.7 4.7 0.8-0.1 1.4-2.2 1.3-4.8-0.1-2.6-0.8-4.7-1.6-4.7-0.9 0-1.5 2.2-1.4 4.8z"/>
					<path id="&lt;Path&gt;" class="s53" d="m604.8 136.6c0.1 2.7 0.8 4.8 1.6 4.7 0.9 0 1.5-2.1 1.4-4.8-0.1-2.6-0.8-4.7-1.7-4.6-0.8 0-1.4 2.1-1.3 4.7z"/>
					<path id="&lt;Path&gt;" class="s53" d="m600.2 139.1c0 2.6 0.8 4.7 1.6 4.7 0.8 0 1.5-2.2 1.4-4.8-0.1-2.6-0.9-4.7-1.7-4.7-0.8 0.1-1.4 2.2-1.3 4.8z"/>
					<path id="&lt;Path&gt;" class="s53" d="m595.5 141.6c0.1 2.6 0.9 4.7 1.7 4.6 0.8 0 1.4-2.1 1.4-4.7-0.1-2.6-0.9-4.7-1.7-4.7-0.8 0-1.4 2.1-1.4 4.8z"/>
					<path id="&lt;Path&gt;" class="s53" d="m590.9 144c0.1 2.6 0.8 4.7 1.7 4.7 0.8 0 1.4-2.2 1.3-4.8-0.1-2.6-0.8-4.7-1.6-4.7-0.9 0.1-1.5 2.2-1.4 4.8z"/>
					<path id="&lt;Path&gt;" class="s53" d="m586.3 146.5c0.1 2.6 0.8 4.7 1.7 4.7 0.8-0.1 1.4-2.2 1.3-4.8-0.1-2.6-0.8-4.7-1.6-4.7-0.9 0-1.5 2.2-1.4 4.8z"/>
					<path id="&lt;Path&gt;" class="s53" d="m581.7 148.9c0.1 2.6 0.8 4.7 1.6 4.7 0.9 0 1.5-2.1 1.4-4.8-0.1-2.6-0.8-4.7-1.7-4.6-0.8 0-1.4 2.1-1.3 4.7z"/>
					<path id="&lt;Path&gt;" class="s53" d="m577.1 151.4c0 2.6 0.8 4.7 1.6 4.7 0.8 0 1.5-2.2 1.4-4.8-0.1-2.6-0.9-4.7-1.7-4.7-0.8 0-1.4 2.2-1.3 4.8z"/>
					<path id="&lt;Path&gt;" class="s53" d="m572.4 153.9c0.1 2.6 0.9 4.7 1.7 4.6 0.8 0 1.4-2.1 1.4-4.7-0.1-2.7-0.9-4.8-1.7-4.7-0.8 0-1.4 2.1-1.4 4.8z"/>
					<path id="&lt;Path&gt;" class="s53" d="m567.8 156.3c0.1 2.6 0.8 4.7 1.7 4.7 0.8 0 1.4-2.2 1.3-4.8 0-2.6-0.8-4.7-1.6-4.7-0.9 0.1-1.5 2.2-1.4 4.8z"/>
					<path id="&lt;Path&gt;" class="s53" d="m563.2 158.8c0.1 2.6 0.8 4.7 1.7 4.7 0.8-0.1 1.4-2.2 1.3-4.8-0.1-2.6-0.8-4.7-1.6-4.7-0.9 0-1.5 2.2-1.4 4.8z"/>
					<path id="&lt;Path&gt;" class="s53" d="m558.6 161.2c0.1 2.6 0.8 4.7 1.6 4.7 0.9 0 1.5-2.2 1.4-4.8-0.1-2.6-0.8-4.7-1.7-4.7-0.8 0.1-1.4 2.2-1.3 4.8z"/>
					<path id="&lt;Path&gt;" class="s53" d="m554 163.7c0 2.6 0.8 4.7 1.6 4.7 0.9-0.1 1.5-2.2 1.4-4.8-0.1-2.6-0.8-4.7-1.7-4.7-0.8 0-1.4 2.2-1.3 4.8z"/>
					<path id="&lt;Path&gt;" class="s53" d="m549.3 166.1c0.1 2.7 0.9 4.8 1.7 4.7 0.8 0 1.4-2.1 1.4-4.8-0.1-2.6-0.9-4.7-1.7-4.6-0.8 0-1.4 2.1-1.4 4.7z"/>
					<path id="&lt;Path&gt;" class="s53" d="m544.7 168.6c0.1 2.6 0.8 4.7 1.7 4.7 0.8 0 1.4-2.2 1.3-4.8 0-2.6-0.8-4.7-1.6-4.7-0.9 0-1.5 2.2-1.4 4.8z"/>
					<path id="&lt;Path&gt;" class="s53" d="m540.1 171.1c0.1 2.6 0.8 4.7 1.7 4.6 0.8 0 1.4-2.1 1.3-4.7-0.1-2.6-0.8-4.7-1.6-4.7-0.9 0-1.5 2.1-1.4 4.8z"/>
					<path id="&lt;Path&gt;" class="s53" d="m535.5 173.5c0.1 2.6 0.8 4.7 1.6 4.7 0.9 0 1.5-2.2 1.4-4.8-0.1-2.6-0.8-4.7-1.7-4.7-0.8 0.1-1.4 2.2-1.3 4.8z"/>
					<path id="&lt;Path&gt;" class="s53" d="m530.9 176c0.1 2.6 0.8 4.7 1.6 4.7 0.9-0.1 1.5-2.2 1.4-4.8-0.1-2.6-0.8-4.7-1.7-4.7-0.8 0-1.4 2.2-1.3 4.8z"/>
					<path id="&lt;Path&gt;" class="s53" d="m526.2 178.4c0.1 2.6 0.9 4.7 1.7 4.7 0.8 0 1.4-2.1 1.4-4.8-0.1-2.6-0.9-4.7-1.7-4.6-0.8 0-1.4 2.1-1.4 4.7z"/>
					<path id="&lt;Path&gt;" class="s53" d="m521.6 180.9c0.1 2.6 0.9 4.7 1.7 4.7 0.8 0 1.4-2.2 1.3-4.8 0-2.6-0.8-4.7-1.6-4.7-0.8 0-1.5 2.2-1.4 4.8z"/>
					<path id="&lt;Path&gt;" class="s53" d="m517 183.4c0.1 2.6 0.8 4.7 1.7 4.6 0.8 0 1.4-2.1 1.3-4.7-0.1-2.7-0.8-4.8-1.6-4.7-0.9 0-1.5 2.1-1.4 4.8z"/>
					<path id="&lt;Path&gt;" class="s53" d="m512.4 185.8c0.1 2.6 0.8 4.7 1.6 4.7 0.9 0 1.5-2.2 1.4-4.8-0.1-2.6-0.8-4.7-1.7-4.7-0.8 0.1-1.4 2.2-1.3 4.8z"/>
					<path id="&lt;Path&gt;" class="s53" d="m507.8 188.3c0.1 2.6 0.8 4.7 1.6 4.7 0.9-0.1 1.5-2.2 1.4-4.8-0.1-2.6-0.8-4.7-1.7-4.7-0.8 0-1.4 2.2-1.3 4.8z"/>
					<path id="&lt;Path&gt;" class="s53" d="m503.2 190.7c0 2.6 0.8 4.7 1.6 4.7 0.8 0 1.4-2.2 1.4-4.8-0.1-2.6-0.9-4.7-1.7-4.7-0.8 0.1-1.4 2.2-1.3 4.8z"/>
					<path id="&lt;Path&gt;" class="s53" d="m498.5 193.2c0.1 2.6 0.9 4.7 1.7 4.7 0.8-0.1 1.4-2.2 1.3-4.8 0-2.6-0.8-4.7-1.6-4.7-0.8 0-1.5 2.2-1.4 4.8z"/>
					<path id="&lt;Path&gt;" class="s53" d="m493.9 195.6c0.1 2.7 0.8 4.8 1.7 4.7 0.8 0 1.4-2.1 1.3-4.8-0.1-2.6-0.8-4.7-1.6-4.6-0.9 0-1.5 2.1-1.4 4.7z"/>
				</g>
			</g>
			<path id="&lt;Path&gt;" class="s54" d="m511.1 232.6c4.4-0.7 18.4-10 35.1-22.2 16.7-12.1 20-15.5 17.7-19.6-2.2-4-18.7 0.6-36.9 10.5-12.2 6.6-22.1 13.9-26.6 19.2-2.2 2.5 9.2 12.4 10.7 12.1z"/>
			<path id="&lt;Mesh&gt;" class="s55" d="m503 223.2c-122.4-5.5-237.2-9.4-348.9-25.9-2.3-0.4-3.2-0.7-4.2-1.1-0.3-0.2-0.5-0.7-0.7-1.5 125.8 15.6 265.3 14.2 395.2 11.6-9.1 6.3-21 12.7-41.4 16.9zm41.4-16.9c-129.9 2.6-269.4 4-395.2-11.6-0.4-1.8-0.4-4.6-0.3-5 133.9 15.1 282.8 12.9 414.2 3.1-6.3 3.7-11.6 8.6-18.7 13.5zm18.7-13.5c-131.4 9.8-280.3 12-414.2-3.1q0.1-0.4 0.3-0.7c133.4 14.8 282 12.1 414.7 1.8 0 0.6 0 1.5-0.8 2zm0.8-2c-132.7 10.3-281.3 13-414.7-1.8 0.4-1 1.3-1.8 2.4-2.6 129.7 12 260.6 13 405.3-1.6 1.9 1.1 6.8 3.3 7 6z"/>
			<path id="&lt;Mesh&gt;" class="s56" d="m472.4 245.9c-5 5-11.5 9.2-18.9 11.7 1.8-12.1 3.3-24.5 3.5-36.8 10.1-0.5 19.3-1.3 26.8-0.5 0.5 9.7-4.7 18.9-11.4 25.6zm11.4-25.6c-7.5-0.8-16.7 0-26.8 0.5q0-2.3 0-4.7c10-0.5 19.2 1.2 26.7 2.2q0.1 1 0.1 2zm-0.1-2c-7.5-1-16.7-2.7-26.7-2.2-0.2-6.4-0.8-12.8-2-19.2 9.2-0.3 20 11.2 26.6 13.7 1 2.4 1.7 5 2.1 7.7zm-2.1-7.7c-6.6-2.5-17.4-14-26.6-13.7q-0.4-2-0.8-3.9c7.9-0.2 15.2 2.8 20.6 7.8 2.9 2.8 5.2 6.1 6.8 9.8zm-28.1 47q-4.1 1.4-8.5 2.1c-8.2 1.1-17.7-0.9-25.1-5.4-3.7-3.7-5.2-10.5-6.3-15.6 12.4-4.2 19.9-17.4 43.4-17.9-0.2 12.3-1.7 24.7-3.5 36.8zm3.5-36.8c-23.5 0.5-31 13.7-43.4 17.9q-0.5-2.5-0.7-5c12-4.8 21.1-17.1 44.1-17.6q0 2.4 0 4.7zm0-4.7c-23 0.5-32.1 12.8-44.1 17.6-0.5-6.9 0.8-13.9 3.4-20.2 9.7-11 20.3-16.1 38.7-16.6 1.2 6.4 1.8 12.8 2 19.2zm-2-19.2c-18.4 0.5-29 5.6-38.7 16.6 1.6-3.7 3.6-7 6.1-9.5 8.9-7.1 20.5-10.6 31.8-11q0.4 1.9 0.8 3.9zm-35.1 57.4q-2-1.2-3.7-2.6c-4-3.2-6.8-7.2-8-11.9 2-0.2 3.7-0.6 5.4-1.1 1.1 5.1 2.6 11.9 6.3 15.6zm-6.3-15.6c-1.7 0.5-3.4 0.9-5.4 1.1q-0.3-1.5-0.4-3c1.8-0.4 3.5-2.5 5.1-3.1q0.2 2.5 0.7 5zm-0.7-5c-1.6 0.6-3.3 2.7-5.1 3.1-0.5-4.2 0.1-8.7 1.2-12.8 1.7-2.1 6.2-9.2 7.3-10.5-2.6 6.3-3.9 13.3-3.4 20.2zm3.4-20.2c-1.1 1.3-5.6 8.4-7.3 10.5 1.8-6.4 5.1-12.2 9.9-16.9q1.6-1.7 3.5-3.1c-2.5 2.5-4.5 5.8-6.1 9.5z"/>
			<path id="&lt;Path&gt;" class="s57" d="m426.2 222.8c0.5 15.9 13.8 28.4 29.7 27.9 16-0.5 28.5-13.8 28-29.7-0.5-16-13.9-28.5-29.8-28-15.9 0.5-28.4 13.9-27.9 29.8z"/>
			<path id="&lt;Path&gt;" class="s58" d="m432.1 222.6c0.4 12.6 11 22.6 23.7 22.2 12.6-0.4 22.5-11 22.1-23.7-0.4-12.6-10.9-22.5-23.6-22.1-12.6 0.4-22.6 10.9-22.2 23.6z"/>
			<g id="&lt;Group&gt;">
				<path id="&lt;Path&gt;" class="s59" d="m454 243.5l3.1-0.1c0.8-4.8-0.2-9.5-1.2-14.2l-1.5 0.1c1.7 4.8 1.1 9.6-0.4 14.2z"/>
				<path id="&lt;Path&gt;" class="s60" d="m450.3 243.1l3.1 0.4c1.6-4.5 1.5-9.4 1.3-14.2l-1.5-0.2c0.8 5.1-0.6 9.7-2.9 14z"/>
				<path id="&lt;Path&gt;" class="s61" d="m446.8 242l3 1c2.4-4.2 3-9 3.7-13.8l-1.5-0.4c0 5.1-2.2 9.4-5.2 13.2z"/>
				<path id="&lt;Path&gt;" class="s62" d="m443.5 240.3l2.8 1.5c3-3.7 4.5-8.3 6-12.9l-1.3-0.7c-1 5-3.8 8.9-7.5 12.1z"/>
				<path id="&lt;Path&gt;" class="s63" d="m440.6 238.1l2.4 1.9c3.7-3.1 6-7.4 8.2-11.6l-1.2-0.9c-1.8 4.8-5.3 8.1-9.4 10.6z"/>
				<path id="&lt;Path&gt;" class="s64" d="m438.1 235.4l2 2.3c4.2-2.4 7.2-6.2 10.1-10l-1-1.1c-2.6 4.4-6.6 7-11.1 8.8z"/>
				<path id="&lt;Path&gt;" class="s65" d="m436.1 232.3l1.6 2.7c4.5-1.7 8.1-4.9 11.7-8.2l-0.8-1.2c-3.4 3.8-7.8 5.7-12.5 6.7z"/>
				<path id="&lt;Path&gt;" class="s66" d="m434.6 228.9l1.2 2.9c4.7-0.8 8.8-3.4 12.9-6l-0.6-1.4c-4 3.3-8.6 4.4-13.5 4.5z"/>
				<path id="&lt;Path&gt;" class="s67" d="m433.8 225.4l0.6 3c4.8 0 9.3-1.9 13.8-3.7l-0.3-1.4c-4.5 2.5-9.3 2.7-14.1 2.1z"/>
				<path id="&lt;Path&gt;" class="s68" d="m433.6 221.7l0.1 3.1c4.7 0.8 9.4-0.2 14.2-1.2l-0.1-1.5c-4.8 1.7-9.6 1.1-14.2-0.4z"/>
				<path id="&lt;Path&gt;" class="s69" d="m434 218l-0.4 3.1c4.5 1.6 9.3 1.4 14.1 1.3l0.3-1.5c-5.1 0.8-9.7-0.6-14-2.9z"/>
				<path id="&lt;Path&gt;" class="s70" d="m435.1 214.5l-1 2.9c4.2 2.4 9 3.1 13.8 3.7l0.4-1.4c-5.1 0-9.4-2.2-13.2-5.2z"/>
				<path id="&lt;Path&gt;" class="s71" d="m436.8 211.2l-1.5 2.7c3.7 3.1 8.3 4.6 12.9 6.1l0.7-1.3c-5-1-8.9-3.9-12.1-7.5z"/>
				<path id="&lt;Path&gt;" class="s72" d="m439 208.3l-1.9 2.4c3.1 3.7 7.3 5.9 11.6 8.2l0.9-1.2c-4.8-1.8-8.1-5.3-10.6-9.4z"/>
				<path id="&lt;Path&gt;" class="s73" d="m441.7 205.7l-2.3 2.1c2.4 4.2 6.2 7.1 10 10.1l1.1-1c-4.4-2.6-7-6.6-8.8-11.2z"/>
				<path id="&lt;Path&gt;" class="s74" d="m444.8 203.7l-2.7 1.7c1.7 4.5 4.9 8.1 8.2 11.6l1.2-0.7c-3.9-3.4-5.8-7.8-6.7-12.6z"/>
				<path id="&lt;Path&gt;" class="s75" d="m448.1 202.3l-2.8 1.1c0.8 4.8 3.4 8.9 5.9 12.9l1.4-0.5c-3.2-4-4.3-8.6-4.5-13.5z"/>
				<path id="&lt;Path&gt;" class="s76" d="m451.7 201.5l-3 0.6c0 4.8 1.8 9.3 3.6 13.7l1.5-0.3c-2.5-4.4-2.8-9.2-2.1-14z"/>
				<path id="&lt;Path&gt;" class="s77" d="m455.4 201.3l-3.1 0.1c-0.8 4.7 0.2 9.4 1.2 14.1h1.5c-1.7-4.9-1.1-9.6 0.4-14.2z"/>
				<path id="&lt;Path&gt;" class="s78" d="m459.1 201.7l-3.1-0.4c-1.6 4.5-1.4 9.3-1.3 14.1l1.5 0.2c-0.8-5 0.6-9.6 2.9-13.9z"/>
				<path id="&lt;Path&gt;" class="s79" d="m462.6 202.8l-2.9-1c-2.4 4.2-3.1 9-3.8 13.7l1.5 0.5c0-5.1 2.2-9.4 5.2-13.2z"/>
				<path id="&lt;Path&gt;" class="s80" d="m465.9 204.4l-2.8-1.4c-3 3.7-4.5 8.3-6 12.9l1.3 0.7c1-5.1 3.9-8.9 7.5-12.2z"/>
				<path id="&lt;Path&gt;" class="s81" d="m468.8 206.7l-2.4-2c-3.7 3.2-5.9 7.4-8.2 11.7l1.2 0.9c1.8-4.8 5.3-8.1 9.4-10.6z"/>
				<path id="&lt;Path&gt;" class="s82" d="m471.3 209.4l-2-2.4c-4.2 2.5-7.2 6.3-10.1 10.1l1 1.1c2.6-4.4 6.6-7 11.1-8.8z"/>
				<path id="&lt;Path&gt;" class="s83" d="m473.3 212.4l-1.6-2.6c-4.5 1.7-8.1 4.9-11.7 8.1l0.8 1.3c3.4-3.9 7.8-5.8 12.5-6.8z"/>
				<path id="&lt;Path&gt;" class="s84" d="m474.8 215.8l-1.2-2.8c-4.7 0.8-8.8 3.4-12.9 5.9l0.6 1.4c4-3.2 8.6-4.3 13.5-4.5z"/>
				<path id="&lt;Path&gt;" class="s85" d="m475.6 219.4l-0.6-3c-4.8 0-9.3 1.8-13.7 3.6l0.2 1.5c4.5-2.5 9.3-2.8 14.1-2.1z"/>
				<path id="&lt;Path&gt;" class="s86" d="m475.8 223.1l-0.1-3.1c-4.7-0.8-9.4 0.2-14.1 1.2v1.5c4.8-1.7 9.6-1.1 14.2 0.4z"/>
				<path id="&lt;Path&gt;" class="s87" d="m475.4 226.7l0.4-3c-4.5-1.6-9.3-1.5-14.1-1.3l-0.3 1.5c5.1-0.8 9.7 0.5 14 2.8z"/>
				<path id="&lt;Path&gt;" class="s88" d="m474.3 230.3l1-3c-4.2-2.4-9-3-13.7-3.7l-0.5 1.4c5.1 0.1 9.4 2.3 13.2 5.3z"/>
				<path id="&lt;Path&gt;" class="s89" d="m472.6 233.6l1.5-2.8c-3.7-3.1-8.3-4.5-12.9-6l-0.7 1.3c5.1 1 8.9 3.8 12.1 7.5z"/>
				<path id="&lt;Path&gt;" class="s90" d="m470.4 236.5l1.9-2.4c-3.1-3.7-7.3-6-11.6-8.2l-0.9 1.2c4.8 1.8 8.1 5.3 10.6 9.4z"/>
				<path id="&lt;Path&gt;" class="s91" d="m467.7 239l2.3-2c-2.4-4.2-6.2-7.2-10-10.1l-1.1 1c4.4 2.6 7 6.6 8.8 11.1z"/>
				<path id="&lt;Path&gt;" class="s92" d="m464.6 241l2.7-1.6c-1.7-4.5-4.9-8.1-8.1-11.7l-1.3 0.8c3.9 3.4 5.8 7.8 6.7 12.5z"/>
				<path id="&lt;Path&gt;" class="s93" d="m461.3 242.5l2.8-1.2c-0.8-4.7-3.4-8.8-5.9-12.9l-1.4 0.6c3.2 3.9 4.3 8.6 4.5 13.5z"/>
				<path id="&lt;Path&gt;" class="s94" d="m457.7 243.3l3-0.6c0-4.9-1.8-9.3-3.6-13.8l-1.5 0.3c2.5 4.5 2.8 9.3 2.1 14.1z"/>
			</g>
			<path id="&lt;Path&gt;" class="s54" d="m407.7 233c11-7.8 19.1-19.8 22-33.8q-3.9 2-7.3 4.8-1.9 1.4-3.5 3.1c-4.8 4.7-8.1 10.5-9.9 16.9-0.7 2.9-1.3 6-1.3 9z"/>
			<path id="&lt;Path&gt;" class="s54" d="m709.6 200.7c9.5-6.6 16.1-16.9 17.7-28.8q-1.5 1-3 2.2-1.8 1.4-3.5 3.1c-4.7 4.7-8 10.5-9.8 16.9-0.7 2.5-1.2 4.5-1.4 6.6z"/>
			<path id="&lt;Mesh&gt;" class="s95" d="m431.6 210.1q0.1 0 0.3-0.1 0.1-0.1 0.4-0.3 0.2-0.2 0.5-0.6 0.3-0.3 0.7-0.7 0.4-0.5 0.8-1 0.5-0.5 1-1 0.5-0.6 1.2-1.1 0.6-0.6 1.3-1.2 0.3-0.3 0.7-0.6 0.4-0.3 0.7-0.5 0.4-0.3 0.8-0.6 0.4-0.2 0.8-0.5 0.4-0.3 0.9-0.5 0.4-0.3 0.9-0.5 0.4-0.3 0.9-0.5 0.5-0.2 1-0.4 0.5-0.3 1-0.5 0.5-0.2 1-0.3 0.6-0.2 1.1-0.4 0.6-0.1 1.1-0.3 0.6-0.1 1.2-0.3 0.6-0.1 1.1-0.2 0.6-0.1 1.2-0.1 0.6-0.1 1.3-0.2 0.6 0 1.2 0 0-0.6 0-1.1-0.1-0.5-0.1-1-0.6 0-1.2 0.1-0.6 0-1.2 0.1-0.5 0-1.1 0.1-0.6 0.1-1.2 0.3-0.6 0.1-1.1 0.2-0.6 0.2-1.1 0.3-0.6 0.2-1.1 0.4-0.6 0.2-1.1 0.4-0.5 0.2-1.1 0.4-0.5 0.2-1 0.5-0.5 0.2-1 0.5-0.5 0.2-0.9 0.5-0.5 0.3-1 0.6-0.4 0.3-0.9 0.6-0.4 0.3-0.8 0.7-0.5 0.3-0.9 0.7-0.4 0.3-0.8 0.7-0.4 0.3-0.7 0.7-0.4 0.4-0.8 0.8-0.3 0.3-0.6 0.7-0.4 0.4-0.7 0.9-0.3 0.4-0.6 0.8-0.3 0.4-0.6 0.8-0.3 0.5-0.5 0.9-0.3 0.4-0.5 0.9-0.3 0.4-0.5 0.8 0 0 0 0.1zm2.9-6.7q-0.5 0.6-0.9 1.3-0.4 0.6-0.7 1.2-0.4 0.6-0.6 1.1-0.3 0.5-0.4 1-0.2 0.4-0.3 0.8-0.1 0.4-0.1 0.6-0.1 0.3 0 0.4 0 0.2 0.1 0.2 0.2-0.4 0.5-0.8 0.2-0.5 0.5-0.9 0.2-0.4 0.5-0.9 0.3-0.4 0.6-0.8 0.3-0.4 0.6-0.8 0.3-0.5 0.7-0.9 0.3-0.4 0.6-0.7 0.4-0.4 0.8-0.8 0.3-0.4 0.7-0.7 0.4-0.4 0.8-0.7 0.4-0.4 0.9-0.7 0.4-0.4 0.8-0.7 0.5-0.3 0.9-0.6 0.5-0.3 1-0.6 0.4-0.3 0.9-0.5 0.5-0.3 1-0.5 0.5-0.3 1-0.5 0.6-0.2 1.1-0.4 0.5-0.2 1.1-0.4 0.5-0.2 1.1-0.4 0.5-0.1 1.1-0.3 0.5-0.1 1.1-0.2 0.6-0.2 1.2-0.3 0.6-0.1 1.1-0.1 0.6-0.1 1.2-0.1 0.6-0.1 1.2-0.1 0-0.6 0-1.1 0-0.5 0-1-0.7 0.1-1.4 0.1-0.6 0.1-1.2 0.1-0.7 0.1-1.3 0.2-0.6 0.1-1.2 0.3-0.6 0.1-1.2 0.3-0.6 0.1-1.2 0.3-0.6 0.2-1.1 0.4-0.6 0.2-1.1 0.4-0.6 0.2-1.1 0.5-0.5 0.2-1 0.5-0.5 0.2-1 0.5-0.5 0.3-0.9 0.5-0.5 0.3-0.9 0.6-0.4 0.3-0.8 0.6-0.5 0.3-0.8 0.6-0.4 0.4-0.8 0.7-0.3 0.3-0.7 0.6-0.3 0.3-0.6 0.7-0.3 0.3-0.6 0.6-0.7 0.7-1.2 1.4zm20.2-6.8q0 0.5 0 1.1 0.6-0.1 1.2-0.1 0.7 0 1.3 0.1 0.6 0 1.2 0.1 0.6 0 1.1 0.1 0.6 0.1 1.2 0.2 0.6 0.1 1.1 0.2 0.6 0.1 1.1 0.3 0.6 0.1 1.1 0.3 0.5 0.2 1 0.3 0.6 0.2 1.1 0.4 0.4 0.2 0.9 0.4 0.5 0.2 1 0.5 0.4 0.2 0.8 0.4 0.5 0.2 0.9 0.5 0.4 0.2 0.8 0.5 0.4 0.2 0.8 0.5 0.3 0.2 0.7 0.5 0.8 0.5 1.4 1.1 0.7 0.5 1.3 1 0.5 0.5 1 1 0.5 0.4 0.9 0.8 0.4 0.4 0.7 0.8 0.4 0.3 0.6 0.5 0.3 0.2 0.4 0.3 0.2 0 0.3 0 0 0 0 0-0.2-0.4-0.5-0.9-0.3-0.4-0.6-0.8-0.3-0.4-0.6-0.8-0.3-0.4-0.6-0.8-0.3-0.4-0.7-0.8-0.3-0.4-0.7-0.8-0.4-0.3-0.7-0.7-0.4-0.4-0.8-0.7-0.4-0.4-0.8-0.7-0.4-0.3-0.9-0.6-0.4-0.4-0.9-0.7-0.4-0.3-0.9-0.5-0.4-0.3-0.9-0.6-0.5-0.3-1-0.5-0.5-0.3-1-0.5-0.5-0.2-1-0.4-0.5-0.2-1.1-0.4-0.5-0.2-1-0.4-0.6-0.2-1.1-0.3-0.6-0.2-1.2-0.3-0.5-0.1-1.1-0.2-0.6-0.1-1.1-0.2-0.6-0.1-1.2-0.1-0.6-0.1-1.2-0.1-0.6 0-1.2 0-0.6 0-1.2 0 0 0.5 0.1 1zm-0.1-2.1q0 0.5 0 1.1 0.6 0 1.2 0 0.6 0 1.2 0 0.6 0 1.2 0.1 0.6 0 1.2 0.1 0.5 0.1 1.1 0.2 0.6 0.1 1.1 0.2 0.6 0.1 1.2 0.3 0.5 0.1 1.1 0.3 0.5 0.2 1 0.4 0.6 0.2 1.1 0.4 0.5 0.2 1 0.4 0.5 0.2 1 0.5 0.5 0.2 1 0.5 0.5 0.3 0.9 0.6 0.5 0.2 0.9 0.5 0.5 0.3 0.9 0.7 0.5 0.3 0.9 0.6 0.4 0.3 0.8 0.7 0.4 0.3 0.8 0.7 0.3 0.4 0.7 0.7 0.4 0.4 0.7 0.8 0.4 0.4 0.7 0.8 0.3 0.4 0.6 0.8 0.3 0.4 0.6 0.8 0.3 0.4 0.6 0.8 0.3 0.5 0.5 0.9 0.1-0.1 0.1-0.2 0-0.2 0-0.4-0.1-0.3-0.2-0.6-0.1-0.4-0.3-0.8-0.2-0.5-0.5-1-0.3-0.5-0.6-1.1-0.4-0.5-0.9-1.1-0.4-0.6-1-1.3-0.5-0.6-1.2-1.2-0.3-0.3-0.7-0.6-0.3-0.3-0.7-0.6-0.3-0.3-0.7-0.6-0.4-0.3-0.8-0.6-0.4-0.3-0.8-0.6-0.4-0.2-0.9-0.5-0.4-0.3-0.9-0.5-0.5-0.3-1-0.5-0.5-0.2-1-0.5-0.5-0.2-1-0.4-0.6-0.2-1.1-0.4-0.6-0.2-1.2-0.3-0.5-0.2-1.1-0.3-0.6-0.2-1.2-0.3-0.6-0.1-1.2-0.2-0.7-0.1-1.3-0.1-0.6-0.1-1.3-0.1-0.6-0.1-1.2-0.1-0.7 0-1.3 0 0 0.5 0 1z"/>
			<path id="&lt;Mesh&gt;" class="s96" d="m733.1 180q0.2 0.1 0.3 0 0.2-0.1 0.4-0.4 0.3-0.2 0.6-0.5 0.3-0.4 0.6-0.8 0.4-0.4 0.9-0.9 0.4-0.5 1-1.1 0.5-0.5 1.1-1.1 0.6-0.6 1.4-1.2 0.3-0.2 0.7-0.5 0.3-0.3 0.7-0.6 0.4-0.2 0.8-0.5 0.4-0.3 0.8-0.5 0.4-0.3 0.8-0.6 0.5-0.2 0.9-0.5 0.5-0.2 1-0.4 0.4-0.3 0.9-0.5 0.5-0.2 1.1-0.4 0.5-0.2 1-0.4 0.5-0.2 1.1-0.3 0.5-0.2 1.1-0.3 0.6-0.2 1.1-0.3 0.6-0.1 1.2-0.2 0.6-0.1 1.2-0.2 0.6-0.1 1.2-0.1 0.6-0.1 1.3-0.1-0.1-0.5-0.1-1 0-0.5 0-1-0.6 0-1.2 0-0.6 0.1-1.2 0.1-0.6 0.1-1.2 0.2-0.5 0.1-1.1 0.2-0.6 0.1-1.2 0.3-0.5 0.1-1.1 0.3-0.5 0.1-1.1 0.3-0.5 0.2-1 0.4-0.6 0.2-1.1 0.4-0.5 0.3-1 0.5-0.5 0.3-1 0.5-0.5 0.3-1 0.6-0.4 0.3-0.9 0.6-0.5 0.3-0.9 0.6-0.4 0.3-0.9 0.6-0.4 0.4-0.8 0.7-0.4 0.4-0.8 0.7-0.4 0.4-0.8 0.8-0.3 0.3-0.7 0.7-0.4 0.4-0.7 0.8-0.3 0.4-0.6 0.8-0.4 0.4-0.7 0.8-0.3 0.5-0.5 0.9-0.3 0.4-0.6 0.8-0.2 0.5-0.5 0.9-0.2 0.5-0.5 0.9 0 0 0 0zm3-6.7q-0.5 0.7-0.9 1.3-0.5 0.7-0.8 1.3-0.3 0.5-0.6 1.1-0.2 0.5-0.4 1-0.1 0.4-0.2 0.8-0.1 0.3-0.2 0.6 0 0.3 0 0.4 0.1 0.2 0.1 0.2 0.3-0.4 0.5-0.9 0.3-0.4 0.5-0.9 0.3-0.4 0.6-0.8 0.2-0.4 0.5-0.9 0.3-0.4 0.7-0.8 0.3-0.4 0.6-0.8 0.3-0.4 0.7-0.8 0.4-0.4 0.7-0.7 0.4-0.4 0.8-0.8 0.4-0.3 0.8-0.7 0.4-0.3 0.8-0.7 0.5-0.3 0.9-0.6 0.4-0.3 0.9-0.6 0.5-0.3 0.9-0.6 0.5-0.3 1-0.6 0.5-0.2 1-0.5 0.5-0.2 1-0.5 0.5-0.2 1.1-0.4 0.5-0.2 1-0.4 0.6-0.2 1.1-0.3 0.6-0.2 1.1-0.3 0.6-0.2 1.2-0.3 0.6-0.1 1.1-0.2 0.6-0.1 1.2-0.2 0.6 0 1.2-0.1 0.6 0 1.2 0 0-0.6-0.1-1.2 0-0.5 0-0.9-0.6 0-1.3 0.1-0.6 0-1.3 0.1-0.6 0.1-1.2 0.2-0.7 0.1-1.3 0.2-0.6 0.2-1.2 0.3-0.6 0.2-1.1 0.4-0.6 0.1-1.2 0.3-0.5 0.2-1.1 0.5-0.5 0.2-1 0.4-0.6 0.3-1.1 0.5-0.5 0.3-0.9 0.6-0.5 0.2-1 0.5-0.4 0.3-0.8 0.6-0.5 0.3-0.9 0.6-0.4 0.3-0.8 0.6-0.4 0.3-0.7 0.6-0.4 0.4-0.7 0.7-0.4 0.3-0.7 0.6-0.3 0.4-0.6 0.7-0.6 0.7-1.1 1.3zm20.1-6.7q0 0.5 0.1 1 0.6 0 1.2 0 0.6 0 1.2 0 0.6 0.1 1.2 0.1 0.6 0.1 1.2 0.2 0.6 0 1.2 0.1 0.5 0.2 1.1 0.3 0.6 0.1 1.1 0.2 0.5 0.2 1.1 0.4 0.5 0.1 1 0.3 0.5 0.2 1 0.4 0.5 0.2 1 0.4 0.5 0.2 0.9 0.4 0.5 0.2 0.9 0.5 0.4 0.2 0.9 0.4 0.4 0.3 0.8 0.5 0.4 0.3 0.7 0.5 0.4 0.3 0.8 0.5 0.7 0.6 1.4 1.1 0.6 0.6 1.2 1.1 0.6 0.5 1.1 0.9 0.5 0.5 0.9 0.9 0.4 0.4 0.7 0.7 0.3 0.3 0.6 0.5 0.2 0.2 0.4 0.3 0.2 0.1 0.3 0.1 0 0 0 0-0.3-0.5-0.5-0.9-0.3-0.4-0.6-0.8-0.3-0.5-0.6-0.9-0.3-0.4-0.7-0.8-0.3-0.4-0.6-0.7-0.4-0.4-0.7-0.8-0.4-0.4-0.8-0.7-0.4-0.4-0.8-0.7-0.4-0.4-0.8-0.7-0.4-0.4-0.8-0.7-0.4-0.3-0.9-0.6-0.4-0.3-0.9-0.6-0.5-0.3-1-0.5-0.4-0.3-0.9-0.6-0.5-0.2-1-0.4-0.5-0.3-1-0.5-0.6-0.2-1.1-0.4-0.5-0.2-1.1-0.3-0.5-0.2-1.1-0.3-0.5-0.2-1.1-0.3-0.6-0.1-1.1-0.2-0.6-0.1-1.2-0.2-0.6-0.1-1.2-0.1-0.5-0.1-1.1-0.1-0.6-0.1-1.2-0.1-0.6 0-1.2 0.1 0 0.5 0 1zm-0.1-2.2q0.1 0.6 0.1 1.2 0.6-0.1 1.2-0.1 0.6 0 1.2 0.1 0.6 0 1.1 0.1 0.6 0 1.2 0.1 0.6 0.1 1.2 0.2 0.5 0.1 1.1 0.2 0.6 0.1 1.1 0.3 0.6 0.1 1.1 0.3 0.6 0.1 1.1 0.3 0.5 0.2 1.1 0.4 0.5 0.2 1 0.5 0.5 0.2 1 0.4 0.5 0.3 0.9 0.6 0.5 0.2 1 0.5 0.5 0.3 0.9 0.6 0.5 0.3 0.9 0.6 0.4 0.3 0.8 0.7 0.4 0.3 0.8 0.7 0.4 0.3 0.8 0.7 0.4 0.3 0.8 0.7 0.3 0.4 0.7 0.8 0.3 0.3 0.6 0.7 0.4 0.4 0.7 0.8 0.3 0.4 0.6 0.9 0.3 0.4 0.6 0.8 0.2 0.4 0.5 0.9 0.1-0.1 0.1-0.3 0-0.1-0.1-0.4 0-0.2-0.1-0.6-0.2-0.3-0.4-0.8-0.2-0.4-0.4-0.9-0.3-0.5-0.7-1.1-0.3-0.6-0.8-1.2-0.5-0.6-1-1.2-0.6-0.6-1.2-1.3-0.4-0.3-0.7-0.6-0.3-0.3-0.7-0.6-0.4-0.3-0.7-0.6-0.4-0.3-0.8-0.5-0.4-0.3-0.9-0.6-0.4-0.3-0.8-0.5-0.5-0.3-1-0.6-0.4-0.2-0.9-0.4-0.5-0.3-1-0.5-0.6-0.2-1.1-0.4-0.5-0.2-1.1-0.4-0.5-0.2-1.1-0.4-0.6-0.1-1.2-0.3-0.6-0.1-1.2-0.2-0.6-0.1-1.2-0.2-0.6-0.1-1.2-0.2-0.7 0-1.3-0.1-0.6 0-1.3 0-0.6 0-1.3 0 0 0.4 0 0.9z"/>
			<path id="&lt;Path&gt;" class="s97" d="m143 169.8l0.5-4 5.8 20.9 0.1 8.7z"/>
			<path id="&lt;Path&gt;" class="s4" d="m144.5 165.6l-1 0.2 5.5 23.6 2.8-2.7z"/>
		</g>
		<g id="&lt;Group&gt;">
			<path id="&lt;Path&gt;" class="s98" d="m724.2 513.5c0-93-75.4-168.4-168.4-168.4-93 0-168.4 75.4-168.4 168.4 0 93 75.4 168.4 168.4 168.4 93 0 168.4-75.4 168.4-168.4z"/>
			<g id="&lt;Group&gt;" style="mix-blend-mode: multiply">
				<path id="&lt;Compound Path&gt;" fill-rule="evenodd" class="s99" d="m562 624.7c-0.1 0-0.2 0-0.8 1.3-0.2 0.5-0.4 1.2-0.6 1.7q0.1 0 0.3 0c-0.8 1.9-0.8 1.9-2.9 4.4q0 0-0.1 0c-0.8 0.9-1.8 2-2.6 2.9q0 0 0.1 0c-1.9 1.8-1.9 2-2.2 4.1-0.1 0-0.2 0-0.2 0.7 0.2 0.6 0.4 1.4 0.6 1.9q0.2 0 0.4 0c0 1.2-0.2 2.7-0.5 3.8-0.1 0-0.2 0-0.4 0.7-0.1 0.5-0.2 1.3-0.2 1.8q0.1 0 0.3 0c0.1 1.1-0.2 2.5-0.6 3.5-0.1 0-0.2 0-0.7 0.7-0.2 0.5-0.6 1.1-0.8 1.6 0 0 0.1 0-0.3 1.2-0.1 0.6-0.4 1.3-0.6 1.8l-0.2 0.2c-0.1 0-0.1 0-1.3 0.6-3.3 0.4-6.1 0.8-9.9 4.4 0 0-0.1 0-0.2 0.2 0.2 0.5 0.5 1.2 0.7 1.7 0.1 0 0.2 0 0.9 0.8 0.1 0.6 0.2 1.3 0.2 1.8 0 0 0 0-0.2 0.2-0.4 0.4-0.8 0.9-1.2 1.2v0.2c0.1 0 0.1 0 0 0.8-0.3 0.5-0.7 1-1 1.5 0 0-0.1 0 0.3 1.2l0.1 0.2c0 0 0.1 0 0.2 0.2-0.1 0.5-0.3 1.2-0.4 1.7-0.1 0-0.1 0-0.6 1.1-2.9 0.3-3 0.2-7-2.7 0.3 0.4 0.7 1 1 1.4 0 0-0.1 0 0.5 0.5 0.5 0.2 1.1 0.5 1.6 0.8q0.2 0 0.3 0c1 0.4 2.3 1 3.1 1.6q0 0-0.1 0l0.6 1c0 0 0 0 0.5 0.8-1 0.1-2.2 0.1-3.1 0l0.1 0.3c0 0 0 0 0 0 0.5 0.2 1.2 0.5 1.7 0.7 0 0 0.1 0-0.3 0.2-0.5-0.1-1.2-0.2-1.8-0.3 1.5 0.6 1.5 0.6 3.9 1q-0.1 0-0.1 0l1.2 0.5c0 0 0 0 0.3 0.1 0.5 0.1 1.2 0.3 1.7 0.4 0 0-0.1 0 1.3 0.3 0.1 0 0.1 0 1.2 0.1 0.5 0 1.1 0 1.6 0.1l-2.3-0.2c-19.4-1.5-26.9-7.6-34.2-13.4-0.6-0.5-57.1-58.6-57.4-60.7-3.9-36.5-3.9-36.5-7-39.4-0.4 0.2-1 0.6-1.4 0.9-0.1-0.1-0.2-0.1-0.4 1.4-0.3 0.5-0.7 1.2-1 1.7-3.5-1.3-3.5-1.3-29.8-36.8-0.5 0.2-1.2 0.4-1.7 0.6-0.2 0.5-0.4 1.1-0.5 1.6q0 0 0.1 0 0 0 0 0c-0.5 0-1.1-0.1-1.6-0.2-0.4-1-1.3-2.3-2.1-3-0.5 0-1.3 0.1-1.8 0.2-7.9-8.3-7.6-32.8-7.2-63.8-0.4 1.1-0.9 2.6-1.1 3.7q-0.1 0-0.1-0.1c-0.1 1-0.2 2.4-0.3 3.4l-0.1 1c0.1 0 0.1 0.1 0.1 0.8-0.4 3.5-0.4 3.5-0.5 5.8 0 0-0.1 0-0.2 0.8 0.1 1.1 0 2.5 0 3.6q0.1 0 0.1 0.1c-0.4 4.2-0.4 4.2-0.4 5.5l0.1 0.9c-0.1 0-0.2 0-0.1 0.9 0.1 1.1 0.3 2.6 0.4 3.7 0 0 0.1 0.1 0.2 1.3-0.1 0.5-0.3 1.1-0.4 1.6-0.2 0-0.6-0.1-0.8-0.1-6.1-57.5 31-96.8 43.2-109.7l-0.7 0.7c0 0 0 0-0.3 0.3-1.2 1.3-1.2 1.3-4 4.2 0 0 0 0-0.3 0.3-0.4 0.5-1 1.1-1.5 1.5 3-3.3 5.2-5.6 11.9-12 1.4-1.2 3.3-2.8 4.7-4l0.2-0.2 7.6-6c8.7-6.4 10.1-7.2 23-14.5 1.5-0.8 3.4-1.7 5.3-2.6-0.5 0.3-1 0.6-1.9 1q0.1 0 0.1 0c-0.9 0.5-2.2 1.2-3.2 1.7 1-0.5 2.3-1.1 3.3-1.5 0.1-0.1 0.1-0.1-0.7 0.7 0.5-0.1 1.1-0.3 1.6-0.5-0.4 0.3-1 0.7-1.4 0.9 0.1 0 0.3 0.1 0.4 0.1-0.6 0.3-1.3 0.6-1.8 0.9q0 0 0.1 0c0.5 0.1 1.3 0.1 1.9 0.2-0.4 0.3-1 0.7-1.4 1l-0.2 0.1q0 0 0 0c-0.8 0.5-1.7 1.4-2.3 2 3.5-1.6 6.7-3.8 10.1-5.8-0.5 0.2-1.1 0.5-1.5 0.7l-0.9 0.3q0 0 0 0.1c-0.4-0.1-0.9-0.2-1.2-0.3 8.3-4.8 11.4-4.2 12.5-4-0.5 0.2-1.1 0.5-1.5 0.7 0 0 0 0-0.7 0.5-0.9 0.5-2 1.3-2.9 1.9 0.5 0.1 1.1 0.3 1.6 0.4-0.5 0.3-1.1 0.7-1.6 0.9q0 0 0 0c-1 0.6-2.4 1.3-3.4 1.9q0.1 0 0.1 0l-0.2 0.2c6.6-3.5 6.6-3.5 7.5-3.8 0-0.5 0.1-1.2 0.2-1.7 0.9-0.4 2.2-1 3.1-1.4-0.5 0-1.1 0.1-1.6 0.2 1.1-0.5 2.5-1.1 3.6-1.7-0.5 0-1.2 0-1.7 0 3.7-1.5 5.8-1.8 8.5-2.1-0.8 0.4-1.8 0.8-2.6 1.1l-0.3 0.1c0 0 0 0-0.8 0.8-0.5 0.4-1.2 0.8-1.7 1.1 1.3-0.4 2.5-0.8 3.7-1.1 0.1 0 0.2 0 0 0.2-1.3 1.1-1.3 1.1-4.5 2.4 0 0 0 0-0.6 0.3-1 0.4-2.3 0.9-3.3 1.2q0.1 0 0.1 0.1l-0.5 0.1c-1.1 1.2-1.1 1.2-4.3 2.7 0 0 0-0.1-0.3 0.1-0.9 0.5-2 1.2-2.9 1.8 0 0 0.1 0-0.8 0.8-0.4 0.9-1.5 2-2.5 2.5l-0.2 0.1q-0.1 0-0.1 0 0 0 0 0c-2 0.9-2.4 1.1-5.3 1.3 0 0 0 0-0.6 0.3-0.3 0.5-0.7 1.1-1 1.5 1 0.4 2.3 0.8 3.2 0.9 6.9-3.7 6.9-3.7 7.3-3.7l-0.8 0.5c0 0 0-0.1-1.4 0.8-0.5 0.4-1.2 0.9-1.7 1.2q0.1 0.1 0.1 0.1c-0.8 0.6-1.7 1.5-2.4 2.3 0.9-0.5 2.1-1.1 3-1.5 3.2-1.6 5.3-5.1 9.3-5.5 0.1 0 0.1 0.1-0.8 0.9-0.7 0.7-1.6 1.7-2.3 2.5 0 0-0.1 0-0.3 0.1-0.2 0.4-0.6 1-0.8 1.5 0.5-0.1 1.2-0.3 1.8-0.4-0.3 0.4-0.8 1-1.1 1.4 0.1 0 0.1 0-0.2 0.3-0.4 0.4-0.9 1-1.3 1.5 0.9-0.6 2.1-1.2 3.1-1.6q0 0 0.1 0c2-0.7 2.2-1 3.2-2.8-0.5-0.3-1-0.8-1.5-1.1 4.4-5 9-5.6 11.4-5.9-0.8 0.7-1.9 1.6-2.8 2.1l-0.6 0.5c-0.1 0-0.1-0.1-0.8 0.3-0.4 0.4-1 0.8-1.4 1.2 1.7-0.5 1.7-0.5 5-2.7q0 0 0 0c3.9-0.8 4.6-0.4 6.7 0.7-0.1 0.5-0.2 1.1-0.3 1.6-0.1 0-0.2 0-0.3 0.3 0.2 0.5 0.4 1.2 0.5 1.8l0.1 0.2c0.2 0 0.3 0 1.5 0.7 0.4 0.5 0.9 1.1 1.3 1.5-0.2 0.4-0.6 1-0.9 1.4-0.1 0-0.1 0-0.5 0.5-0.3 0.5-0.7 1.1-1 1.6l-0.1 0.2c0.1 0 0.2 0 0.8 0.5 0.5 0.2 1.2 0.4 1.7 0.5 0 0.6 0.1 1.4 0.2 1.9 0.4 0.3 1 0.7 1.4 1q-0.4 0-0.7 0c0.2 0.4 0.6 0.9 0.9 1.3-0.4 0.4-0.9 0.8-1.3 1.2q0.1 0 0.1 0c-0.7 0.5-1.6 1.1-2.4 1.5l-0.6 0.3c-0.6-0.1-1.3-0.2-1.8-0.3-0.2-0.4-0.5-1.1-0.7-1.6-0.5-0.1-1.1-0.3-1.6-0.5l-0.2 0.2c0.1 0 0.1 0-0.2 0.7 0 1 0.4 2.4 0.8 3.3q-0.2 0-0.4 0c0 0.8-0.3 1.9-0.6 2.7 0.1 0 0.2 0-0.1 0.7-0.5 0.2-1.1 0.5-1.6 0.8-0.4-0.3-1-0.7-1.4-1-0.4 0.4-0.9 1-1.3 1.3h-0.2c-2 0.2-2.6-1-3.3-2.3q0 0 0.1 0-0.1 0-0.1 0 0 0 0 0c-0.3 0.2-0.8 0.5-1.1 0.7-0.6-3.6-2.7-4.6-7.8-3.8 1.7-2.6 2.3-3 3.9-4.1l0.2-0.1c0 0 0.1 0 1.2 0.1 0.2 0 0.5 0.1 0.8 0.1 2.5-0.4 4.3-2.2 6.6-3.2 0.2-0.1 0.5-0.2 0.7-0.3-0.1-0.5-0.3-1.2-0.4-1.7-2.4 1.8-2.4 1.8-3.5 2.5q-0.1 0-0.1 0l-1.1-1.2c1.4-0.6 2.1-1.2 3.6-2.5-0.1-0.5-0.3-1.2-0.5-1.7 0.4-0.4 0.8-0.9 1.2-1.3l-1.1 0.8-0.2 0.2q-0.1-0.1-0.2-0.1c0 0.1 0 0.1-0.5 0.4-2.2-0.2-2.5-0.3-4.9 1.3l-0.1 0.2c0.2 0 0.3 0 0.4 0.4-1.5 2.5-5.6 5-8.7 3.4-0.4 0.4-0.9 0.9-1.2 1.3v0.2c0.1 0.1 0.2 0.1 0.8 0.4l0.5-0.2q0.1 0.1 0.1 0.1 0.1 0 0.3 0c0.1 0 0.2 0 0.1 0.5-0.3 0.9-0.2 2.4 0 3.3v0.4c-0.1 0-0.2 0-0.5 0.5-0.4 0.4-1 1-1.4 1.4-0.5-0.2-1.2-0.3-1.7-0.5 0.2-0.5 0.4-1.3 0.6-1.8-4.4 1-4.4 1-5.4 1 2.6-1.8 2.6-1.8 3.3-3.9-0.8 0.6-1.9 1.5-2.6 2.2-0.1 0-0.1 0-0.4 0.2-0.4 0.2-1 0.6-1.4 0.8-0.4-0.2-1-0.6-1.4-0.9-1.1 0.4-2.5 1.1-3.5 1.7 0 0 0 0-1.4 0.8-1.6 0.9-3.3 1.8-4.9 2.7q0 0 0 0c-0.9 0.7-2.1 1.7-2.8 2.6q0.1 0 0.1 0.1c-2.3 2.5-2.3 2.5-3 3.8l-0.1 0.5c-0.1-0.1-0.2-0.1-1.1 1.3-0.3 0.5-0.7 1.1-1 1.6q0.1 0 0.2 0l0.1 0.3 0.6-0.1c0.1 0 0.1 0 1.2 0.2 0.1 0 0.3 0.1 0.6 0.5 0.9 4.6 4.3 4.2 6.6 3.9 0.1 0.5 0.1 1.2 0.2 1.7q-0.2 0-0.3 0c-0.4 0.9-1 2.2-1.4 3.1 0.1 0 0.1 0 0 0.9-0.1 0.6-0.1 1.2-0.2 1.7 0.4-0.3 0.9-0.8 1.3-1.1l-0.1 0.2q0.2 0 0.3 0c-0.5 1-1.2 2.4-1.8 3.3q-0.1 0-0.2 0c-0.4 0.5-0.8 1.1-1.2 1.5 0.1 0.5 0.3 1.1 0.4 1.6 2.5 0.4 2.5 0.4 7.1-10.9 0.5 0.1 1.1 0.3 1.6 0.4q-0.1 0-0.3 0c0.4 0.1 0.9 0.4 1.3 0.6 4.6-2.9 4.6-3.3 5-9.9 0.6-0.2 1.2-0.4 1.7-0.6 4.9-6 4.9-6 5.8-6.7 5.3-1.7 6 0.5 6.7 2.5 0.5 0.3 1.2 0.5 1.7 0.8-0.3-0.1-0.7-0.1-0.3 0.2 0.3 0.4 0.7 1.1 1 1.6-0.4 0.3-0.9 0.7-1.3 1q0 0 0 0c-0.4 0.3-0.9 0.8-1.3 1.1-0.1 0.5-0.1 1.3-0.2 1.8 0.9 0.5 2.2 0.9 3.2 1.1 1.5-1 1.5-1 4.4-3.7 0.5 0.1 1.2 0.2 1.8 0.2 0.1 0 0.2 0 0.4 1.1 0.1 1 0.3 2.4 0.4 3.4-0.1 0-0.3 0-0.2 1.4 0 0.5 0 1.2 0 1.7 0.1 0 0.2 0 0.2 0.5-0.1 1.1-0.1 2.7 0.3 3.8 1-0.1 2.5 0.2 3.5 0.5q-0.3 0-0.5 0c0.5 0.9 1.1 2.2 1.4 3.2q0.2 0 0.4 0c0 1.3 0.2 2 2.6 3.2 0 0.5 0.1 1.2 0.1 1.7q-0.2 0-0.3 0c-0.6 1-1.5 2.3-2.2 3.3 0.1 0 0.1 0-0.3 0.8-0.7 1-1.5 2.3-2 3.3 0.4 0.3 1 0.7 1.4 0.9q-0.3 0-0.6 0c0.4 0.3 0.9 0.7 1.3 1 0.5-0.1 1.1-0.2 1.6-0.3 0.8 0.6 1.5 1.9 1.7 2.8q0.3 0.1 0.5 0.1c0.9 3.3 0.9 3.3 0.4 5.2-0.1 0-0.2 0-1 0.4-0.3-0.4-0.8-0.8-1.2-1.1-0.6 0-1.3 0.1-1.9 0.1l-0.5 0.5c-0.1 0-0.1 0-1.6-0.5-1-0.5-1-0.5-6.7-0.5-0.1-1.2-0.2-2.7 6.2-10.3-0.1-0.6-0.4-1.4-0.5-2-0.9 0.7-2 1.6-2.8 2.4l-0.1 0.1c-4.7 0.5-4.7 0.5-6.6 1.7 0 0 0 0-0.3 0.2-0.5 1.9-0.6 2.7-4.3 3.4 0.1-1.2 0-2.8-0.1-4.1h-0.1c-0.9-0.5-2.1-0.9-3.1-1.1l-0.2 0.2c-2.7 1.4-6.2 1.2-8.4 3.9q0.1 0 0.2 0c-0.6 1-1.4 2.4-1.9 3.4 2.4-1 5.1-1.5 7.5-2.8l0.4-0.2c0.1 0 0.1 0 1.6-0.4 0.4 0.1 1.1 0.4 1.5 0.6q0.3 0 0.6 0c0.4 2.1 0.4 2.1-1.3 5.2-0.1 0-0.3 0-0.4 0.2 0.2 0.5 0.3 1.1 0.5 1.6 0.9-0.3 2.3-0.3 3.3-0.1-0.1 0.6-0.3 1.4-0.4 2 0.2 0.1 0.4 0.1 2 0.3 0.6-0.7 1.8-1.4 2.8-1.8 0.1 0.6 0.2 1.3 0.3 1.8 0.1 0 0.3 0 0.5 0.9 0 0.5 0 1.2 0.1 1.8 0 0-0.1 0.1-1 1.1-4.1 1.9-8.8 2-12.6 4.7-0.1 0-0.1 0-0.6 0.3-0.5 0-1.3 0.1-1.8 0.2-0.3-1.9-0.1-3.8-0.4-5.8-0.4 0.4-0.9 0.9-1.2 1.3q-0.2 0-0.3 0c-1.7 2.6-5 1.4-7 3.2q0 0 0.1 0c-1.1 2-1.3 2.4-0.5 5.6-0.1 0-0.3 0-0.2 1-0.2 0.4-0.4 1.1-0.6 1.5-2.9 0.4-5.9-1.8-8.6 0.5q0.2 0.1 0.3 0.1c0 0.7-0.4 1.6-0.6 2.3-0.5 0.2-1.1 0.5-1.6 0.7-0.7 0.5-1.2 1.6-1.4 2.4q-0.2 0-0.4 0c-0.2 3.8-2.8 3.7-4.2 3.5-0.2 2.7-0.2 2.8 0.4 6q-0.2 0-0.4-0.1c0 0.5 0.1 1.1 0.1 1.5-1.3 1.5-1.3 1.5-4.5 2.9-0.8 0.6-1 0.9-4.2 4.8-0.1 0-0.1 0-1.1 1-0.7 0.8-1.7 1.9-2.4 2.7q0 0 0 0c-2.9 1.8-3.3 2.9-4.3 5.6-0.1 0-0.2 0-0.4 0.8 0.2 1 0.4 2.3 0.5 3.3 0.2 0 0.3 0 0.5 0.9q0.2 2.7 0.3 5.4c-0.1 0-0.2 0-0.3 0.6 0 1 0 2.5-0.1 3.6 0.1 0 0.2 0 0.1 0.8-0.4 1.3-1.1 2.9-1.9 4-0.4 0-0.9 0-1.3-0.1-1.2-5.6-1.9-11.3-3.5-16.9-0.6 0.1-1.3 0.3-1.8 0.4-0.3-1-0.7-2.4-0.9-3.4-5.7 0.7-5.7 0.7-6.8 0.5-0.4 0.3-0.9 0.8-1.3 1.1l-0.1 0.5c0 0 0.1 0-0.4 1.2-0.5 0-1.2-0.1-1.7-0.1-1.5-2.4-2.7-3.2-6.1-2.7q0 0 0 0c-1.1 2.1-2.5 3.3-3.7 4.3l-0.5 0.3-0.6 0.6c0 0 0 0-0.3 0.4-0.6 0.9-0.9 2.5-0.8 3.6q0.1 0 0.3 0c-0.3 2.9-0.3 3-1.1 6.2q-0.1-0.1-0.1-0.1c-0.5 1.7-0.5 1.7-0.9 4.1q0.1 0 0.2 0c-0.2 2.8-0.3 3.2-0.3 6.3-0.1 0-0.2 0-0.3 0.8 0 1 0.1 2.4 0.2 3.5q0.1 0 0.3 0c0.5 2.8 0.7 3.4 2.2 7q-0.2-0.1-0.4-0.1c1.5 3.4 1.5 3.4 3.2 4.2 1.4-1.7 1.4-1.8 4.4-2.1 0.3-2.3 0.2-4.6 0.6-6.8 2.9-1.9 6.9-0.6 6.9-0.5 0.1 0.5 0.3 1.3 0.5 1.8 0.1 0 0.2 0.1 0.4 0.9-0.1 2.8-0.1 2.8-1.2 5.4q-0.1 0-0.1-0.1c-1 1.6-1 1.6-1.4 4.1 0.1 0 0.2 0 0.3 0.7 0.2 3.7 0.2 3.7-0.1 5.6 0 0-0.1 0-0.4 0.7 0 0.6 0 1.3 0 1.9 1.1 0.4 2.6 1 3.7 1.5 0.9-0.6 2.2-1.3 3.2-1.6 0.8 0.8 1.8 2.1 2.5 3.1 0.1 0 0.3 0 1 1.2 0.8 2.3 0.8 2.3 0.5 5.2q-0.1 0-0.2-0.1c-0.1 1.3-0.1 2.9-0.1 4.1 0.1 0 0.2 0 0.3 0.6 0.2 2.8 0.2 2.9 0.8 5.5q-0.2 0-0.4 0c0.4 1.3 1 2.9 1.6 4.1q0.2 0.1 0.4 0.1c1.3 2.3 1.3 2.3 3.5 3.4 1-0.6 2.2-1.5 3-2.1 0.2-0.3 0.4-0.6 0.6-0.9 0.5 0.2 1.1 0.5 1.5 0.7 0.3 0 0.5 0 1.6 0.8 0.7 0.8 1.5 2 1.9 2.9 0.6 0.1 1.3 0.1 1.9 0.2 2.1-3 2.7-6.9 6-9.1 2.9-2.4 2.9-2.4 4.1-3 0.4 0.3 0.9 0.7 1.3 1-0.2 1.4-0.6 3.2-0.9 4.6v0.1q-0.2 0-0.4 0c0 1.2 0.2 2.5 0.5 4 0.1 0 0.3 0 0.7 1.1 0.3 0.5 0.6 1.1 0.9 1.6 0-3.8-0.1-9.1 4.9-9.3 0.5 0.9 1.1 2.3 1.6 3.3-0.2 0-0.3-0.1-0.2 0.6 0.5 0.2 1.1 0.5 1.6 0.8 3.4-2.3 4.4-0.5 6.5 3 0.1 0 0.3 0 0.9-0.9 0.1-1 0.7-2.3 1.4-2.9 0 0-0.1 0 0.9-0.5 1.1 0 2.6 0.3 3.7 0.7q-0.5 0-1 0c1.5 0.9 2.5 2.2 3.9 3.1 0.7-1.1 1.5-2.7 2.1-3.9h0.1l0.6 1.1c-0.1 0-0.3 0-0.4 0.4-0.1 1-0.2 2.5-0.4 3.5 0.1 0 0.2 0 0.2 0.3-0.3 1-0.6 2.5-0.7 3.6 3.4 0.4 5.4 1.5 6.3 2l0.1 0.2q-0.3 0-0.6 0c1.1 1.4 2.3 2.6 3.4 4q0.3 0 0.6 0c0.6 0.9 1.5 2.1 2.2 2.9 7.2-1.3 7.2-1.3 11.9 3.1-0.3 0-0.5 0-0.3 0.4 0.7 0.9 1.8 2 2.6 2.9l0.4 0.5q0.3 0 0.6 0c3.2 5 3.2 5 3.7 5.5-0.3 0-0.6 0-0.6 0.2 2 0.7 2.3 0.7 3.2 3.4q0.3 0 0.5 0c-0.9 2.2-1.2 3-6 4.8l-0.5 0.2-0.3 0.2c0 0 0 0-0.5 0.6 0.4 0.5 0.8 1 1.1 1.4 3.3-0.1 6.4-5.3 9.4-1.9-0.2 0-0.4 0-0.3 1.3-0.2 0.5-0.4 1.2-0.5 1.7l-0.3 0.5c0 0 0.1 0-0.6 0.9-0.4 0.3-0.9 0.7-1.3 1 0.2 0.3 0.5 0.8 0.7 1.2 0.5 0 1.2 0 1.8 0.1 0.3-2.6 0.6-3.1 1.9-5.2 2.7-0.4 4-0.3 7.3 1.5l0.7 0.5c0.2 0 0.5 0 2 0.8 4.3 2.5 9.6 1.6 13.9 4.1-0.3 0-0.5 0 0.2 0.7 0.8 0.8 1.9 1.8 2.7 2.5q0.4 0 0.9 0c5.7 2.1 5.7 2.1 7.5 4.7-0.2 0-0.4 0 0.1 1.1 0.1 0.5 0.4 1.2 0.6 1.8q0 0.1 0 0.2c0.1 0 0.2 0 0.3 0.5-0.1 1.1-0.6 2.3-1.2 4.1zm-104.5-163.3q-0.2 0-0.4 0 0.2 0 0.4 0 0 0 0 0zm22.4-96.7q0 0 0 0 0 0 0 0zm7.1-4.9c-1.1 0.5-2.3 1.1-3.5 1.6 0.8-0.4 1.5-0.7 3.5-1.6zm-21.8 78.4c-1.1-0.5-2.3-0.1-3.5-0.2-0.3-0.1-0.4-0.1-0.4-0.3q-0.1 0.1-0.3 0.1c-0.3 0.2-0.5 0.4-1 0.9q-0.1 0-0.1 0c-1.2 0.9-2.1 1.8-3.5 3.3q0.1 0 0.1 0c-1 1.1-1 1.1-1.3 1.2l-0.1 0.1c-4.3 1.9-4.4 2.9-4.5 3.7q-0.2 0-0.4-0.1v0.4c-0.1 1.2 1.3 0.5 1.4 0.5 1.1-0.6 2-1.6 3-2.2 1-0.7 2.2-1.1 3.2-1.8 0.3-0.1 0.6-0.5 0.9-0.7 0.7-0.7 0.9-0.9 1.9-1.2 1.3-0.5 4.4-1.6 4.8-2.3 0.3-0.4 0.3-1.2-0.2-1.4zm-5.5-5.6c0-0.9-0.1-1.4-0.4-1.5-0.1-0.1-0.3-0.1-0.4-0.2-1.2-0.3-2.6-0.4-3-0.3-0.2 0-0.3 0-0.4 0-1.1-0.4-1.8-1.5-3.1-1.6 0 0-2.2-0.2-4.7 2.4q0.1 0 0.1 0c-0.9 1.2-1.4 2.2-2.7 5.2q0 0-0.1 0-0.1 0-0.2 0c-0.8 2.1-0.8 2.1-1.6 3.6q0.1 0 0.2 0 0 0 0 0c-2.1 4.5-1.7 5.1-1.4 5.5q-0.3 0-0.6-0.1l0.3 0.5c0.3 0.1 0.6-0.1 0.9-0.3q-0.1 0-0.1 0l0.2-0.1q1.4-1.5 2.2-4.1c2-6.2 4.6-8 7.5-9.5q0.8 0.1 1.7 0.2c0.8 1.3 0.4 2.3-1 5.5q-0.1 0-0.3 0c-0.7 1.8-1 2.8-0.8 3.7q0.2 0 0.5 0 0 0 0 0 0.2 0 0.3 0.1c2.3-1.3 2.5-2.7 2.6-3.2 0.3-1.8 2.3-5.1 2.8-5.3q-0.1 0.1-0.1 0.3 0 0 0 0l0.3-0.5q0.1 0 0.2 0-0.1 0.2-0.1 0.3c-1.1 2.9 0.6 3.1 0.6 3.1 0.7-1.5 0.7-3.3 0.6-3.7zm-3.4-8.6c0.1-0.1 0.1-0.4 0-0.5-0.4-0.3-0.7-0.5-1-1.6-0.3-1-0.2-1.7-0.2-2.4q0-0.2 0-0.3c-0.1-0.1-0.1-0.2-0.3-0.2-0.5 0-1.6 0.6-3.3 1.7-1.6 1-2.1 1.2-2.5 1.3-0.7 0.3-1.5 0.4-2.1 0.8-0.3 0.2-2.4 2.4-0.9 2.8 0.3 0.1 0.7 0 1.2-0.2 1-0.5 3.2-1.3 3.5-1.1 0 0.3-0.1 0.6 0 0.9 0 0.1 0.1 0.4 0.2 0.4 0.3 0.2 0.7 0.2 1.1 0.4 0.4 0.1 0.8 0.4 1.3 0.6 0.3 0.1 0.5 0.2 0.6 0.2 0.3-0.1 1.7-1.6 2.2-2.3 0.1-0.2 0.2-0.3 0.2-0.5zm-28.8-18.3c-0.7 0.8-1.3 1.7-1.9 2.4q0 0 0 0c-0.9 1.1-1.5 2.5-2.4 3.7q0 0 0 0c-0.9 1.3-2.5 3.4-2.7 3.9 0.3-0.3 0.4-0.5 1-1.2 2.3-3 6-8.8 6-8.8zm102.8 265.9l-0.2-0.1v0.1q0.1 0 0.2 0z"/>
				<path id="&lt;Path&gt;" class="s99" d="m511.2 355.1c-0.4 0.1-0.9 0.3-1.3 0.4q0 0 0 0c-2.5 0.9-2.5 0.9-2.7 0.8 0.1-0.2 0.4-0.1 0.6-0.3-0.4-0.2-0.7 0.1-1 0.1 0-0.1 0.8-0.5 3-1l0.2-0.1q0.9-0.2 1.7-0.4c1.6-0.4 1.9-0.4 2.1-0.4-0.2 0.1-0.2 0.1-2.6 0.9z"/>
				<path id="&lt;Path&gt;" class="s99" d="m512.8 356.6c-2.4 1-2.4 0.9-2.3 0.8 0.2-0.5 0.3-0.6 1.6-1.1 0.5-0.2 0.6-0.2 0.6-0.3-0.3-0.1-0.7 0-1.1 0q0 0 0 0c0.3-0.4 4.3-2 5.4-1.7 0.8 0.4-4.1 2.3-4.2 2.3q0 0 0 0z"/>
				<path id="&lt;Path&gt;" class="s99" d="m502 364.6c-0.7 0.3-0.7 0.3-1.6 0.6-2.5 0.2-2.5 0.2-2.5 0.2-0.3-0.9 5.1-2.5 5.7-2.6q0.1 0 0.3 0.1c-0.4 0.6-0.4 0.6-0.4 0.6q-0.1 0.3-1.5 1.1z"/>
				<path id="&lt;Path&gt;" class="s99" d="m514.4 362.9c-1.1 0.7-2.5 1.5-4.7 0.2-0.3-0.1-0.7-0.4-2.3-0.1-0.2-0.1-0.5-0.3-0.7-0.5 0.3-0.6 0.3-0.6 2.2-2 0.4-0.4 0.5-0.9 0.9-1.3 0.1-0.1 0.3-0.3 1-0.9 1.1-0.8 1.8-1.3 4.5-2.2-0.1 0-0.2 0.1-0.3 0.1q0.3-0.1 0.6-0.2c-0.4 0.2-0.4 0.2-1.2 1q-0.1 0-0.2 0c-0.2 0.2-0.3 0.6-0.5 0.8-0.2 0.2-0.4 0.3-1.3 1q0.1 0 0.1 0c-0.4 0.3-2.3 1.7-2.4 2.1 0.3 0.2 0.7 0.1 1.1 0.1 0.3 0.1 0.7 0.3 1.1 0.3q0.3 0.1 0.6 0.1c0 0.1 1.1 0.2 1.6 0.2 0.3 0 0.5 0.3 0.5 0.8q-0.2 0-0.3-0.1c0 0.2 0 0.4-0.3 0.6z"/>
				<path id="&lt;Path&gt;" class="s99" d="m583.4 381.9c0.1 0.3 0.3 1.1-0.1 2.4q0 0-0.1 0v0.2q-2.1 0.3-2.2 1.1c-0.2 1-2.6 2.6-3.8 2.3-0.4-0.1-0.9-0.6-1.3-1.1-0.3-0.5-0.7-1.1-2.1-1.1-0.5 0-0.9 0.2-1.4 0.2-0.1 0-0.4 0-0.7-0.4-0.4-0.3-3.4-3.4-2.2-5 0.1-0.2 0.5-0.2 0.6-0.2 1.7 0 2.5 0.5 3.6 1.2q0.6 0 1.2 0c1.1-0.5 2.4-0.5 3.4-1.2 0.3-0.2 0.5-0.4 0.7-0.4 0 0 1.1 0 3.1 1q0.2 0 0.5 0l0.3 0.2c0.2 0.2 0.5 0.6 0.5 0.8z"/>
				<path id="&lt;Path&gt;" class="s99" d="m451.4 525l-0.5 0.6c-0.8 0.8-2.8 0.3-3.7-0.5-0.1 0-0.2-0.1-0.3-0.2-0.1-0.1-0.1-0.2-0.2-0.3-0.2-0.2-0.3-0.4-0.5-0.6-1.1-1.4-2.5-2.6-3.6-4-0.4-0.5-0.7-1.2-1.1-1.8-0.8-0.9-3-1.1-5-1.3-4.2-0.3-4.2-0.3-4.5-0.5-0.2-0.1-0.8-0.4-0.8-1.7 0-0.2 0.1-0.5 0.1-0.7 0.1 0 0.2-0.1 0.3-0.1v-0.2c3.9-1.4 5-1.4 5.5-1.5 1 0.2 2.6 0.4 4 1.5 1.4 1 2 2.5 3 3.8q-0.4-0.1-0.7-0.1 2.7 3.2 4.2 3.1c0.8-0.1 1.6 0.9 2.2 1.8q0.3 0 0.6 0.1c1.2 2 1 2.5 1 2.6z"/>
				<path id="&lt;Path&gt;" class="s99" d="m475.1 535.2c0 0.5-0.3 0.8-0.3 0.9-0.3 0.5-1.1 1.2-1.1 1.2-0.6 0.4-1.2 0.2-1.7-0.3-1.1-1.3-1-5 0.8-4.9 1.4 0.2 1.8 2.1 1.9 2.7q0.2 0.1 0.4 0.1c0 0.1 0 0.2 0 0.3z"/>
				<path id="&lt;Path&gt;" class="s99" d="m662.6 446.4c0.3 1 0.2 2-0.4 3-0.1 0.2-0.5 0.6-1.4 0.1-2.2-1.2-2.9-5.7-1.7-6.2q0.1 0 0.1 0c0.6 0 1.3 0.5 2.2 1.6q0.2 0 0.4 0c0.2 0.3 0.6 0.9 0.8 1.5z"/>
				<path id="&lt;Path&gt;" class="s99" d="m650.2 449.1c0.1 0.4 0.1 0.4-0.2 1.1-0.3 0.8-1.5 0.6-1.8 0-0.1-0.3 0.1-1.2 0.2-1.6 0 0 0-0.1 0.1-0.2 0.1-0.1 0.1-0.1 0.2-0.2 0 0 0.1-0.1 0.1-0.2 0.1-0.1 0.2-0.2 0.3-0.2 0.6 0 1 0.9 1.1 1.3z"/>
				<path id="&lt;Path&gt;" class="s99" d="m676.7 453.9c0.4 1.5-0.8 2.7-1.8 2.1-0.1-0.1-0.2-0.2-0.3-0.2-0.7-0.5-1.3-1.1-1.9-1.6-0.6-0.4-1.2-0.7-1.8-1.1-0.6-0.5-0.8-0.8-1.1-1-0.8-1 0.2-1.4 0.4-1.4q0.1-0.1 0.2-0.1c0.2 0 2.5-0.2 3.1 0 0.8 0.2 1.3 0.8 1.8 1.5q0.2-0.1 0.4-0.1l0.3 0.5c0.3 0.4 0.5 0.9 0.7 1.4z"/>
				<path id="&lt;Path&gt;" class="s99" d="m614.4 410.4c0.3 0.6 0.4 1.1 0.4 1.4q-0.1 0-0.2 0c0 0.6 0.1 1.4-0.5 2.3-0.4 0.8-2.1 2.6-2.3 2.8-0.8 0.6-1.7 1.1-3.3-0.5-0.7-0.6-1.7-1.9-1.3-2.7 0.2-0.4 0.3-0.5 0.1-1.1-0.5-1.1-1.6-1.9-2-3.1-0.2-0.7-0.2-0.7 0.4-1.6q0.4-0.1 0.8-0.1c0.4-0.2 0.4-0.3 0.5-1.3 0.1-0.8 0.2-1.5 1.4-1.7 1.9-0.1 3 1.3 3.8 2.4q0.2-0.1 0.4-0.1c1.2 1.9 1.8 3.1 1.8 3.3z"/>
				<path id="&lt;Path&gt;" class="s99" d="m631 413.5c0.4 1.9-0.5 3.6-1 3.8-0.6 0.3-1.6 0.2-3.3-0.1-2.7-0.4-2.9-0.4-3.3-0.1-0.6 0.6 0 1.8-1 1.9-0.3 0.1-0.6-0.2-0.6-0.2-0.3-0.3-0.6-0.8-0.6-2-1.5-0.3-3.9 1.7-4.6-0.4-0.4-1 1-6.2 1.5-7.1 0.1-0.3 0.3-0.7 0.4-1-0.5-0.6-0.8-0.8-3.4-1.5-2-0.5-3.5-1-7.7-5.2-1.6-1.6-2.4-3.7-1-3.6 1.7 0 1.7 0 1.7-0.4 0-0.8 0-2.1 1-2.4 0.1 0 0.1 0 1.5 0.5 0.1 0 0.1 0 3.5 0.2q-1 0.1-2 0.2c2.5-0.1 4.5 0 4.8 2.5q0.1 0 0.1 0c-0.1 3.1-0.1 3.1 1.7 4.5q-0.2 0-0.4 0.1c1.1 0.9 2.2 1.8 3.3 2.8q0.2-0.1 0.4-0.1c2 1.6 4.3 2.6 6.3 4.1q-0.2 0.1-0.4 0.1c2.1 1.8 2.4 2.5 2.7 3q0.1 0 0.1 0 0.1 0 0.1 0c0.1 0.1 0.1 0.3 0.2 0.4z"/>
				<path id="&lt;Compound Path&gt;" fill-rule="evenodd" class="s99" d="m614.5 355.6q-0.1 0-0.1 0 0.4 0.1 0.6 0.2c-0.9-0.4-1.4-0.5-2.6-1q0.6 0.2 1.1 0.4 0.5 0.2 1 0.4zm3.7 1.4l0.4 0.2 4.6 2c-5.9-2.5-12.1-4.7-16-6 1 0.3 2.3 0.7 3.3 1q0.2 0.1 0.5 0.1c0.7 0.3 1.7 0.6 2.5 0.9 0.6 0.3 1.3 0.5 1.8 0.7q-0.2-0.1-0.3-0.1c0.8 0.3 1.2 0.4 3.2 1.2zm-7.5-2.7q0.1 0 0.1 0 0.1 0 0.2 0 0.8 0.3 1.4 0.5-0.3-0.1-0.6-0.2l-0.3-0.1q-0.8-0.3-1.7-0.6 0 0 0 0-1-0.3-2-0.6 1.6 0.5 2.7 0.9 0.1 0 0.2 0.1zm14.1 5.5q0 0 0 0 0 0.1 0.1 0.1l-1.7-0.7q0.8 0.3 1.6 0.6zm0.1 0.1l0.9 0.4c9.7 4.6 11.1 5.4 23.7 13.2 8 5.4 8.5 5.8 20.9 16.5 6.7 6.3 6.9 6.6 17.8 19.4 5.6 7.2 5.8 7.5 14.7 22 4.4 7.9 4.4 7.9 11.1 24.2 2 5.8 4.2 13.7 5.8 19.7-0.2-0.7-2-7.2-4.1-12 0.3 1.2 0.6 2.7 0.9 3.8 0 0 0.1 0 0.3 0.8 0.5 1.7 0.5 1.7 1.6 4.6q0 0.1 0 0.1c0.3 1.1 0.8 2.5 1.1 3.6q0-0.1 0-0.1c0.4 1.6 0.4 1.6 1.4 5.3v0.1q0 0.1 0 0.2c0.3 1.3 0.4 1.9 0.7 3.4 1 7.6 2 16.9 2.4 24.1 0.1 15.4-1 18.1-2.4 20 0.3-34.4-10.6-51.9-10.7-52-0.2 0.4-0.5 1-0.8 1.4l0.3 0.7c-0.1 0-0.1 0.1 0 0.6 0.4 1 0.9 2.3 1.3 3.2 0.1 0 0.1 0 0.7 1.3 0.4 1.3 1 3.1 1.4 4.4q-0.1 0-0.2 0.1c0.4 1.1 0.9 2.7 1.2 3.8 0.1 0 0.1 0 0.4 0.7 0.6 2.2 0.6 2.3 1.1 5.2 0 0-0.1 0.1 0 1.1 0.1 1 0.3 2.2 0.4 3.2 0-0.1 0.1-0.1 0.2 0.8 0.3 3.1 0.3 3.1 0.6 5.3-0.1 0.1-0.1 0.1-0.1 0.8 0.3 1 0.7 2.2 1 3q0.1 0 0.2-0.1c0.8 2.2 1.1 3.1 1.4 5.3v0.2q0 0.1-0.1 0.1c0.2 1.3 0.2 2.6 0.4 4q0.1-0.1 0.1-0.2c0.3 1.9 0.6 3.7 0.8 5.5q-0.1 0.1-0.1 0.1c0 1.2 0.1 2.7 0.1 3.8 0 0 0 0 0.1 0.7-0.1 1.9-0.1 1.9-0.5 5.3 0 0-0.1 0.1-0.1 0.6 0.1 0.5 0.2 1.1 0.3 1.6 0.4-1.1 0.8-2.6 1.1-3.7l0.1-0.2q0 0-0.1 0c0.4-1.6 0.5-1.9 1.1-5.2-0.1 1-0.2 2.3-0.3 3.3-0.1 0.1-0.1 0.1-0.2 1.1-0.1 1-0.3 2.3-0.4 3.2 0 0 0 0-0.1 0.7-0.3 2-0.5 3-1 5.6 0 0 0 0.1-0.2 1-0.2 1-0.5 2.4-0.7 3.4q0 0 0 0c-0.6 2.8-0.8 3.6-1.5 6.4 0 0-0.1 0.1-0.2 0.7-0.3 1-0.7 2.3-0.9 3.3l-0.1 0.2q0 0 0 0c-0.9 3-1.2 3.9-2.1 6.4 0 0 0 0-0.5 1.4-0.4 1-1 2.3-1.4 3.2q0 0 0 0c-1.2 2.9-1.5 3.6-2.7 6.3 0 0 0 0.1-0.3 0.7-0.5 0.9-1.1 2.2-1.6 3.2l-0.1 0.3c0-0.1 0.1-0.1-0.6 1.3-1.2 2.4-1.4 2.8-2.4 4.6 0 0 0 0-0.3 0.6-0.6 1-1.4 2.4-2 3.4 0 0 0 0-0.3 0.6q-1.3 2.4-2.6 4.8c0 0 0 0-0.3 0.5-0.5 0.9-1.1 2-1.5 2.9 0 0 0.1 0-0.5 1-0.6 1.2-1.4 2.7-2.1 3.8q0 0-0.1 0.1c-0.5 0.9-1.1 2-1.6 2.9 0.1 0 0.1 0-0.1 0.3-1.2 1.9-1.2 1.9-3 4.4q0 0.1-0.1 0.1c-0.6 0.9-1.5 2.2-2.2 3.1 0 0 0 0-0.7 1-0.7 0.9-1.6 2.1-2.3 3l-0.5 0.6c0 0 0 0-0.4 0.5-0.7 0.8-1.6 1.9-2.4 2.8 0-0.1 0-0.1-1 1.1-2 2.1-2.2 2.4-3.6 3.8 0 0-0.1 0-0.8 0.8-0.8 0.7-1.9 1.8-2.7 2.5 0 0 0.1 0-0.7 0.8-1.9 1.8-2.1 2-4 3.8 0 0 0 0-1.2 1-0.4 0.4-1 1-1.4 1.4l-0.3 0.3c0 0 0.1 0-0.7 0.7-0.9 0.9-2.2 2-3.1 2.9q-0.1 0-0.1 0c-0.8 0.8-2 1.7-2.8 2.5q0-0.1 0.1-0.1c0 0 0 0-0.8 0.6-1.8 1.3-3.6 2.5-5.4 3.8q0 0.1-0.1 0.1c-0.8 0.6-1.9 1.5-2.7 2.1 0 0 0.1 0-0.5 0.4-1.6 1.2-1.8 1.3-4.2 2.9 0 0-0.1 0-0.6 0.4-0.9 0.6-2.2 1.4-3.2 2q0 0 0 0c-2.5 1.5-3.5 2.1-5.5 3.2 0 0 0 0-0.5 0.3-1 0.5-2.3 1.3-3.3 1.8q0 0 0 0c-4.1 2.1-8.8 4-11.7 4.7 9.6-5.5 25.7-14.8 43-46.5 0.1-0.1 4.6-10.6 5-12.6 0.8-5.1-1.7-10-0.7-15.1 1.1-5.7 6.1-9.6 6.7-15.5 0.1-1.7 0-2-2.7-4.4-3.3 3.6-3.6 3.7-5.8 3.9-5.5-8.7-5.5-8.7-6.5-8.6-5 0.5-6.2 5.9-10 7.9-4.2 2.2-9.1 0.2-13.3 2.2-0.6 0.3-1 1.2-1.5 1.8l-0.3 0.8q0.2 0 0.3 0c-0.3 0.4-0.8 0.9-1.1 1.2-1.2-0.1-5.4-1.5-9.5-12.6-2.2-6-9.2-6.9-12.4-11.7-2.6-3.8-1.2-8.4-2.6-12.4l0.1-0.1 0.3-0.3c6.7-9.4-1.5-19.8 2.1-29.4 7.6-20.4 7.6-20.4 11.2-23 0.8-0.6 2.2-1.3 2.5-2.2 0.3-1.4 0.2-3.3 0-4.7-0.7-7.3 1.3-10.1 2.2-11.4l0.7-0.6c4.9-4 10.9-6.2 15.7-10.4l0.1-0.1q-0.1 0-0.1 0c0.1-0.2 18.1-15.2 25.5-4.9l0.3 0.6q-0.2 0-0.4 0.1c0.4 0.9 0.9 2.1 1.3 2.9-0.7 1-1.6 2.3-2.2 3.3 0.6 0.9 0.6 0.9 4.1 3.4q-0.3 0-0.5 0.1c1.4 1.1 1.4 1.1 6.3 2.8 0.2 0 0.4-0.1 0.9 0 2.5 1.5 5.1 2.8 7.7 4.3-0.2 0-0.4 0.1-0.2 0.3 0.4 0.3 1.1 0.6 1.6 0.8 0.3-0.2 0.8-0.6 1.2-0.9 0.3-3.2-0.3-6.5 0.5-9.7 0.9 0.4 2.1 1 3 1.4q0.2 0 0.5-0.1c1.8 0.1 3.5-0.6 5.2-0.9 1.1 1.5 1.1 1.5 0.8 5.4-0.1 0-0.1 0-0.2 0.6-0.1 1.1-0.2 2.4-0.2 3.5l0.2 0.2q0.1 0 0.3-0.1 0.1 0 0.2-0.1 0 0 0 0c0.9-8.1 0.9-8.1 3.2-9.1 0.3 0.4 0.7 0.9 1 1.3 0.3-0.4 0.7-1 1-1.4-0.7-4.2-2.6-15.5-6-18.4-0.8 2.7-1.7 2.6-3.5 2.3-0.3 0.3-0.9 0.7-1.2 1-4.8-3.1-4.8-3.1-10.3-12.7-0.4 0.1-1.1 0.1-1.6 0.2l0.1 0.6c-0.2 0.9-0.4 2-0.5 2.8 0.7 0.7 1.7 1.6 2.4 2.2q-0.1 0-0.3 0.1c0.7 0.7 1.5 1.8 2 2.6l0.2 0.9c0.1 0 0.1 0 0.3 0.9-0.3 1.8-0.4 3.7-0.6 5.5 0 0-0.1 0-0.2 0.9-0.3 0.4-0.7 0.9-1 1.3-15.1-29.2-26.2-28.7-27.4-28.5 0.5 0.8 1.3 1.9 2 2.6-0.1 0.1-0.3 0.1 0.5 0.8 1 0.6 2.2 1.6 3 2.4q0.2-0.1 0.4-0.1c0 0 0 0 0.8 0.8 2.1 1.8 2.4 2 5.1 3.5l0.3 0.1q-0.2 0.1-0.5 0.1c1.1 0.6 1.6 0.9 4.5 3 0.2-0.1 0.3-0.1 1.1 0.3l-0.2 0.3q0 0.2-0.1 0.3c-0.4 0.2-1 0.5-1.4 0.8 0.3 0.9 0.4 1 2.1 4-0.1 0-0.2 0 0 0.6 0.5 0.9 1.2 2.1 1.7 3 0 0 0.1 0-0.6 0.7-17.6-16.5-17.6-16.5-22.2-17.9-0.7 0.6-1.5 1.7-1.9 2.6-0.3 0.5-0.7 1.1-1 1.6-1.3 0.3-1.3 0.3-5.5-0.5-0.4 1.2-0.4 1.2 0.5 5.6q-0.2 0-0.3 0c-0.1 0.5-0.2 1.1-0.2 1.6-1 0.4-2.2 1.2-2.9 1.9l-0.3 0.9c0 0 0.1 0-0.1 0.6-1.1 3.1-1 3.3 0.4 5.2-0.2 0-0.3 0 0.3 1.1-0.4 0.9-0.9 2.1-1.4 3 0 0 0.1 0-0.2 0.8-0.5 1.2-1.9 4.3-7 4-0.2 0.1-0.4 0.3-0.6 0.4-0.1 0.5-0.2 1.2-0.3 1.7-0.1 0.1-0.2 0.1-0.3 0.4-0.3 0.4-0.8 0.9-1.1 1.3-3.4-4.2-3.4-4.2-7.4-3.6-6.6-5.5-7.6-20.4-6-22.9 4.7-1 9.9 1.6 14.2-1.9-0.7-9-2.7-9.6-11.3-12.2 0-0.5 0-1.2 0-1.7 0.9-0.4 2.1-1 2.9-1.5 0 0 0 0 0.5-0.7 5.5-3.2 5.5-3.2 6.1-3.9-0.4-1.1-0.8-2.6-1.1-3.7 0.3-0.6 1.1-1.1 1.6-1.5 0.4 0 0.7-0.1 1-0.7 0.1-1.3 0.2-3.1 0.3-4.4l0.1-0.2c0.2-0.3 0.5-0.8 0.7-1.2 1-0.2 2.3-0.3 3.3-0.1 0.1 0 0.3 0 0.4 0-5.1-4.2-5.1-4.2-6.5-8.1 0.2-0.4 0.6-1 0.9-1.4 1.8 0.3 1.8 0.3 4.1 3.5q-0.1 0-0.2 0c0.2 0.3 0.3 0.5 1.4 1.7 0.5 0.3 1 0.8 1.5 1.1 0.1 0 0.2 0 0.9 0.4l0.8-0.4q0 0 0 0 0 0 0 0 0-0.1 0.1-0.1 0 0 0.1 0 0.1 0 0.2 0 0.1 0 0.2-0.1 0.2 0 0.4 0 0.2-0.1 0.5-0.1 0-0.1 0-0.1 0.1 0 0.1 0 0 0 0.1 0 0 0 0 0 0.1 0 0.1 0 0 0 0.1 0 0 0 0 0c0-0.1 0.1-0.1 1.3-0.6q0.1 0 0.2 0c0.4-0.6 1.8-1.8 5.1-1.3 0.1 0 0.3-0.1 0.7-0.9-4.5-5-4.6-5.5-4.8-7.7 0.4-0.3 1-0.7 1.4-1.1-1.1-0.5-2.5-1.3-3.6-1.8 0.5-1 0.5-1 3.5-3-1.8-1.4-5-4-7.2 0.2-7.9-5.2-8-5.4-9.6-8.9-1.8-3.1-2-3.2-4.2-3.9-0.5 0.2-1 0.6-1.5 0.8 0 0 0 0 1.1 0.8 1 0.7 2.2 1.8 3.1 2.7q0 0-0.1 0c0.6 0.6 1.2 1.6 1.6 2.2-0.2 0.5-0.4 1.2-0.5 1.7 0.6 1.6 0.6 1.6 2.6 3.1q-0.1 0-0.3 0c3.1 1.1 3.1 1.1 4.4 2.2 0.1 0 0.1-0.1 1.1 1.2 0.5 0.9 1.2 2.1 1.6 3.1q0 0-0.1 0c0.5 0.9 1.3 2.1 2 2.9 0.1 0 0.1 0 0.9 0.8 0.2 0.6 0.4 1.3 0.6 1.8-1.5 2.4-2.1 2.6-3.7 3.3-3.1-2.9-5.7-6.2-9.3-8.5 0.2 0.5 0.4 1.1 0.5 1.6 0 0-0.1 0 0.1 0.5 0.1 0.5 0.4 1.2 0.5 1.7-5.3 2-5.3 2-20.3-27.4q0 0 0 0c-0.6-1.1-1.5-2.5-2.1-3.5 0 0 0 0-0.2-0.3 0-0.5 0.1-1.2 0.1-1.7 1.2 0.2 2.9 0.5 4.1 0.7q0.1 0 0.2 0c6.3 1.5 6.3 1.5 7.3 1.8-0.1 0-0.1 0 1.1 0.4 1 0.1 2.3 0 3.1-0.5 0.5 0.1 1.1 0.3 1.6 0.5 0 0 0 0 0.5 0.1 5 2 5.7 2.3 6.4 5.1-0.4 0-1.1 0.1-1.6 0.1 0.5 0.2 1.1 0.5 1.6 0.7 0 0 0.1 0 0.8 0.3 1 0.6 2.3 1.2 3.4 1.6-0.1-0.3-0.3-0.6-0.5-0.9 0.5 0 1.1 0 1.6 0.1-3.7-2.4-3.7-2.4-5.4-4.5 0.8 0.4 2 1 2.9 1.4q0 0 0 0 0 0 0.1 0c-9.2-5.5-9.2-5.5-9.4-5.6l0.8 0.4c0.1 0 0.1 0 1.3 0.6 1.2 0.6 2.7 1.5 3.9 2.1l0.2 0.1q0 0 0 0c0.2 0.1 0.4 0.2 0.6 0.3-0.9-0.6-2.2-1.4-3.1-1.9-0.7-0.8-1.6-1.9-2.4-2.5q0 0 0 0c0-0.1 0-0.1 0.7 0-0.4-0.3-0.8-0.8-1.1-1.1-0.1 0-0.1-0.1-0.2-0.2 0 0 0 0-0.3-0.2-1.1-0.5-2.5-1.2-3.5-1.7 0 0.1 0 0.1-0.6-0.5 0 0.1 0.1 0.1 0.9 0.4 0.4 0.1 1.1 0.3 1.5 0.5 0-0.1-0.1-0.1-0.3-0.2zm59.2 79.6q0 0 0 0 0 0 0 0zm37.3 43.3l0.1 0.4c0.1 0.5 0.2 1.3 0.3 1.8 0 0.4 0 0.5 0 0.5q-0.1-0.2-0.1-0.4-0.1-1.2-0.3-2.3zm-1.5-7.4q-0.1-0.1-0.1-0.1 0.1 0.1 0.1 0.1zm-105.5-119.8q0 0 0 0 0 0 0 0zm74.8 66.6c-1-0.9-2.4-1.4-3.4-2.3-0.5-0.5-0.5-0.6-0.7-1.5l-0.1-0.6c-0.6-1.6-1.1-1.8-1.2-1.8 0 0-1.1 0.2 0.1 2.4q0-0.1 0.1-0.1c2.2 3.6 1.9 5.8 1.8 5.9-0.1-0.1-0.2-0.1-0.6-0.5-2.7-3.1-5.1-5.5-5.6-5.6-0.3-0.1-0.8 0 0.1 2.2q0 0 0 0l0.3 0.5c0.9 2 1.4 3.3 2 4.9q-0.1 0-0.1 0c0.4 1.3 0.6 2.6 1 3.8q0 0 0.1 0c0.7 1.9 2.1 3.4 3.1 5.1q-0.1 0.1-0.2 0.1c0.6 1.1 1 2.2 1.6 3.3 0.1 0.2 0.1 0.2 0.3 0.3 0.5-0.8-0.4-2.3 0.8-2.6 1.2-0.2 1.4-0.3 1.7-0.8 0.1-0.2 0.1-0.2-0.3-1.6 0 0-0.7-4.3 3.1-1.8q-0.1 0.1-0.2 0.1c2.1 1.5 2.1 1.5 2.2 1.5 0.4 0.1 2.4-0.9 1.3-3.1-1.6-3.2-3.6-4.8-7.2-7.8zm-3.1-13.8q0.4 0.7 0.9 1.4 0 0 0 0c1.6 2.5 1.6 2.6 1.7 2.8q-0.1 0.1-0.1 0.1c-0.2 0-0.4-0.1-0.7-0.1 0 0.3 0 0.3 0.9 1.8q0.1 0 0.1-0.1c1.3 2.2 2.3 3.6 3.4 5q0 0 0 0.1l0.2 0.3c0.7 0.8 1.4 1.7 2.2 2.7q0.1 0 0.1-0.1c3.2 4 3.2 4 3.6 4.2q0 0.1-0.1 0.2c1 0.6 1.5 1.2 2.3 2.8q0.1 0 0.1 0 0 0 0 0c1.7 3.4 1.6 3.6 1.6 4 0.2 0.6 0.5 1.1 1 2.1q0 0 0 0c0.8 1.4 1.3 2.4 1.9 3.5q0.1-0.1 0.1-0.1c1 1.7 2.1 2.4 2.3 2.4-0.1-0.8-0.6-1.7-1.1-2.7-5.8-11.4-12-19.1-12.3-19.3q0 0.1 0 0.2c0-0.1-3.5-4.9-3.5-5.6 0.2 0.2 0.4 0.5 0.7 0.7q0.1 0 0.2 0c-0.2-0.5-0.4-0.8-0.5-1-0.1-0.1-4-5.3-5-5.3zm-42.9-27.9c-0.5 0.1 0.1 0.6 0.5 0.9q0 0-0.1 0l0.3 0.3c1.7 1.4 3.1 1.8 3.5 1.9q0.3-0.1 0.6-0.2l-0.4-0.5q-0.1-0.2-0.3-0.3c-1.1-0.9-3.4-2.1-4.1-2.1zm62.8 197.8c-0.1-0.3-0.9-0.1-1.7 1.4-0.2 0.4-0.4 0.8-0.7 1.6q-0.1 0-0.1 0c-0.6 1.5-1 2.4-1.5 3.7q0 0 0.1 0c-0.7 2-0.9 2.6-0.8 2.8 0.1 0 0.2-0.1 0.3-0.2 1.3-1.8 3.1-5.5 4-7.6 0.5-1.5 0.4-1.7 0.4-1.7z"/>
				<path id="&lt;Path&gt;" class="s99" d="m598.1 350.8c2 0.5 3.5 0.9 5.2 1.5q0.1 0 0.1 0c1.2 0.3 1.3 0.4 1.5 0.5q-0.1 0-0.3 0c0.7 0.7 6.6 2.9 10 4.1q0 0 0 0c1.2 0.4 2.5 0.8 3.7 1.3q0-0.1 0-0.1c2.5 1 3.5 1.5 3.9 1.8-0.1 0-3.1-0.1-9-2.9l-0.2-0.1c-1.5-0.7-2.9-1.3-4.1-1.8q0 0 0 0c-3.2-1.3-6.6-2.1-9.8-3.6 0.1 0 0.3 0 0.4 0-0.3-0.2-0.4-0.3-1.8-0.6-0.8-0.2-1.2-0.3-1.4-0.4 0.3 0 0.3 0 1 0.1q0 0-0.1 0z"/>
				<path id="&lt;Path&gt;" class="s99" d="m486.7 389.6c-0.4 0.5-0.9 0.7-1.1 0.8l-0.3 0.1c-0.7 0.3-0.8-0.2-0.6-0.6 0.3-0.8 1.6-1.4 2.1-1.3 0.7 0.1 0 0.9-0.1 1z"/>
				<path id="&lt;Path&gt;" class="s99" d="m484.6 387.6c-0.2 0.1-0.2 0.1-0.7 0.4-0.8 0.5-1.3-0.1-1.1-0.5 0-0.3 0-0.3 1.1-0.9 0.4-0.2 0.6-0.2 0.8-0.2 0.6 0.1 0.2 0.8-0.1 1.2z"/>
				<path id="&lt;Path&gt;" class="s99" d="m505.3 361.7c-0.8 0.4-1.3 0.4-1.2 0.1 0.2-0.5 2.6-1.5 3.2-1.5q0.2 0.1-0.7 0.7-0.1 0-0.1 0c-0.6 0.4-1.1 0.7-1.2 0.7z"/>
				<path id="&lt;Path&gt;" class="s99" d="m506.5 359.8q-0.3 0.1-1.9 0.7 0 0 0 0c-1.7 0.7-1.7 0.7-2.6 0.6 0.1-0.1 0.1-0.1 0.8-0.4 0.8-0.5 1.1-0.6 1.1-0.8-0.1-0.1-0.6-0.2-1.2 0.1q0-0.1-0.1-0.1c-0.5 0.2-0.7 0.3-2 0.9-1.3 0.5-1.7 0.7-1.9 0.7q0 0 0-0.1c0.7-0.5 6.5-2.9 7.1-3.1h0.1c0.5-0.2 0.5-0.2 2.6 0.2q0 0 0 0.1c-0.3 0.4-2 1.2-2 1.2z"/>
				<path id="&lt;Path&gt;" class="s99" d="m496.8 365c-1.1 0.7-1.1 0.7-3.6 1.9q0 0 0.1 0c-0.5 0.2-1.1 0.3-1.5 0.6l-0.4 0.1c-0.3 0.1-0.4 0.1-0.5 0.1 0-0.1 0-0.4 3.7-2.7 0.2-0.1 0.3-0.1 0.3-0.2-0.5-0.2-0.9 0.4-1.3 0.1 0.2-0.4 2.5-1.7 3.5-2h0.1c0.2-0.1 0.5-0.2 0.7-0.2q0 0 0 0c0.3 0 0.2 0.4 0.5 0.3 1.2-0.2 1.2-0.2 1.4-0.1 0.3 0.1 0.1 0.2 0 0.3-0.2 0.2-0.6 0.5-2.9 1.9q0 0-0.1-0.1z"/>
				<path id="&lt;Path&gt;" class="s99" d="m472.3 561.6c0.4-0.1 0.7-0.2 1.2-0.2 0.4 0.1 0.7 0.1 1.1 0.3q-1.1-0.1-2.3-0.1z"/>
				<path id="&lt;Path&gt;" class="s99" d="m680.3 626.9l-2.4 2.5c0.8-0.8 3.1-3.3 5.5-6z"/>
				<path id="&lt;Path&gt;" class="s99" d="m558.7 351.6c0.1 0 0.2 0.1 0.3 0.2q0 0 0 0c0.5 0.6 0.5 0.6 1.2 3.3q0 0-0.1 0c0.2 0.5 0.2 0.8 0.3 1.5q0 0 0.1 0v0.1c0.1 0.9 0.2 1.4 0.8 2.2q-0.1 0-0.2 0l0.3 0.5c0.5 0.5 1.2 0.7 1.7 1.1q0 0 0.1 0c0.1 1.4 0.1 1.4 0.6 2.7q-0.1 0-0.1 0c0.2 0.6 0.3 0.8 0.8 1.9q0.1 0 0.2 0 0.1 0.3 0.2 0.5 0 0.1 0.1 0.1c0 0.2 0 0.4-0.1 0.6-1.3 0.3-2.2-1.5-3.5-0.7-0.1 0.3-0.2 0.9 0.8 2.7q-0.1 0-0.2 0l0.2 0.3q0.5 0.9 1 1.8 0.2-0.1 0.3-0.1l0.2 0.4c1.4 2.1-0.1 3-0.9 2.8-0.6-0.2-1.2-1-1.4-1.8-0.1-0.5-0.3-1.5-2.7-2.5q-0.1 0.1-0.2 0.2c0 0.4 0.1 0.6 0.2 1.2q0.1 0 0.2-0.1c0.6 1.6 2.2 2.1 3.2 3.2q-0.1 0-0.3 0.1c0.9 1 0.9 1 0.9 1.2-0.1 0.1-0.2 0.1-0.3 0.2-0.5 0.2-1.1-0.1-1.6 0.1-1.3 0.6-2.2 1.8-3.6 2.3-1.1 0.3-2 0.2-3.5 0.1-0.8 0-0.8 0-1.3 0.1-0.3 0.5-0.5 0.8-1 2.2q-0.1 0-0.2 0-0.2 0.5-0.4 1c-0.6 1.7-0.6 1.7-3.1 1.4-1.6-0.2-1.6-0.2-3.4 1.1-2.5 1.9-2.5 1.9-2.4 3q-0.2 0-0.3 0c0.1 2.6 0.1 2.6-2.3 2.8-0.8 1.2-0.6 2.7-1 4.1q-0.1 0-0.2 0c-0.5 1.4-0.8 1.7-1.9 2.8q0 0 0 0h-0.1c-2.5 2.1-2.7 0.6-3-2.2-1.2-0.2-1.8 1.5-3.1 1.1-0.8-2-2.7-3.2-3.3-5.3-0.8-3.3-0.2-3.7 0.9-4.3-3.9-1.7-0.8-6.8 0.4-8 0.7-0.8 0.7-0.8 0.7-1.1-0.5-0.2-0.5-0.2-1.2-0.3-1-1.6 2.8-5 3.7-4.8q0.1 0 0.1 0 0 0 0 0 0.1 0 0.1 0 0.1 0 0.1 0 0.1 0 0.1 0 0.1 0 0.2 0 0.1 0 0.1 0 0.1 0 0.2 0c0.1 0.2 0.2 0.8-1.2 2.8q0 0-0.1 0l-0.1 0.2c-0.2 0.2-0.3 0.5-0.3 0.7 0.1 0.3 0.3 0.4 0.5 0.7 1.7-0.7 2.2-5.5 1-5.9-0.6-0.3-0.6-0.2-1.8 1q0.1 0 0.1 0c-1.2 1.2-1.5 1.3-1.9 1.5 0.3-2.9 3.7-4.4 3.3-7.5-0.3-2.2-0.8-2.2-4.7-2.7-0.1-0.1-0.1-0.2-0.1-0.3 0.2-0.3 0.5-0.7 1.7-1.8-0.2 0.1-0.4 0.3-0.6 0.5-0.2 0.1-0.2 0.1-0.1 0.1-2.2 1.7-2.8 2.1-3.7 2.2-0.1-0.1-0.1-0.2-0.1-0.3 1.5-2.3 1.5-2.3 1.5-2.4q-0.1-0.1-0.3-0.1 0 0 0 0 0 0 0 0 0 0 0 0 0 0 0 0 0 0 0 0 0 0-0.1 0 0 0 0 0 0 0 0 0-0.1-0.1-0.2-0.1c0.3-0.6 0.6-0.9 1.6-1.1 0.1-0.1 0-0.1-0.1-0.1 4.5-1 8.2-3.8 12.5-5.4 0.2 0 0.2 0 0.3 0 0.2 0.1 0.4 0.2 1.5-0.7 0.5-0.4 3.2-1.8 4.3-1.5 0 0.2 0 0.4-0.1 0.6 0.4 0 0.6 0 1.3-0.5 0.9-0.7 1.6-1.6 2.6-2.2h0.1c-0.1 0.2-0.3 0.4-0.4 0.5q0 0-0.1 0c-0.1 0.1-0.2 0.3-0.3 0.4 0.7-0.4 1.2-1 1.9-1.5h0.1q0.1-0.1 0.2-0.2c0.1 0 0.1 0 0.1 0q0.5-0.4 0.9-0.8 0 0 0 0c0.1-0.1 0.3-0.2 0.3-0.3q0 0.1 0 0.3 0 0 0 0c0.1 0.2 0.2 0.4 0.3 0.5-0.2 0.7-0.5 0.7-0.8 0.8q0.1 0.1 0.2 0.2c0.3-0.1 0.3-0.1 0.8-0.7q0 0 0 0 0.1-0.1 0.2-0.2 0.1 0 0.2 0.1c0.1 0 0.1 0 0.1 0 0.4 0.5 0.4 0.6 1 1.3q0 0 0 0c0.3 0.4 0.3 0.4 0.8 1q0.1 0 0.1 0c0.5 0.5 1 1.1 1.5 1.6q-0.1 0-0.1 0c0.7 0.7 0.9 0.9 1.3 1 0.1-0.1 0.2-0.3 0.2-0.4-0.1-0.6-0.5-1.1-0.7-1.8 0.7-0.3 1.9 0.6 2 0.8z"/>
				<path id="&lt;Path&gt;" class="s99" d="m447 508.9c-0.1 1.2-1.8 1.7-2.6 0.7-0.4-0.6-0.4-1.4-0.1-2q0.1-0.3 0.2-0.4c0.3-0.2 0.8-0.5 0.8-0.5 0.2-0.1 0.5-0.1 0.6-0.1 0.5 0.1 0.8 0.2 1.1 0.7q-0.3-0.1-0.7-0.1c0.8 0.7 0.7 1.5 0.7 1.7z"/>
				<path id="&lt;Path&gt;" class="s99" d="m467.5 534.8c-0.1 1.2-0.4 1.2-0.5 1.2-0.3 0.3-0.3 0.3-0.3 0.3-0.2-0.1-0.5-0.4-0.8-0.9-0.7-1-0.9-1-1.6-0.7-2.7 1.2-2.7 1.2-3.2 1-1.4-0.4-1.9-1.8-3-2.4-0.3-0.2-0.7-0.3-1-0.3-0.6-0.1-1.7-0.3-3.7-1 4.2-5.6 5.4-5.5 8.3-5.4 2.5 0.3 4.1 2.3 4.9 3.5q-0.3 0-0.6-0.1c0.8 1.5 1.1 2.5 1.1 4.4q0.2 0 0.4 0c0 0.1 0 0.3 0 0.4z"/>
				<path id="&lt;Path&gt;" class="s99" d="m447.6 536.3c0 1.3-0.4 1.6-1.4 2.4-1.8 0.7-2.3-3.1-1.6-4.6 0.2-0.3 0.2-0.3 1.1-1 0.1 0 0.1 0 0.2 0 1.2 0.2 1.8 2 1.7 3.2z"/>
			</g>
		</g>
	</g>
</svg>